<?xml version="1.0" encoding="utf-8"?>
<!-- Generator: Adobe Illustrator 23.0.1, SVG Export Plug-In . SVG Version: 6.00 Build 0)  -->
<svg version="1.1" id="Capa_1" xmlns="http://www.w3.org/2000/svg" xmlns:xlink="http://www.w3.org/1999/xlink" x="0px" y="0px"
	 viewBox="0 0 300 300" style="enable-background:new 0 0 300 300;" xml:space="preserve">
<style type="text/css">
	.st0{fill:#C3C4C9;}
	.st1{fill:#C3C4C9;stroke:#C3C4C9;stroke-width:2.475;stroke-miterlimit:10;}
</style>
<path class="st0" d="M270.8,150c0.4,69.4-56.2,126.2-126,126.5c-69.9,0.3-126.6-56.1-126.9-126.2C17.7,80.7,74.1,24,144,23.7
	C213.9,23.4,270.4,79.7,270.8,150z M144.3,35c-63.5,0.1-115,51.6-115.1,115.1c-0.1,63.6,51.7,115.3,115.2,115.2
	c63.6-0.1,115.2-51.8,115.1-115.3C259.4,86.5,207.8,35,144.3,35z"/>
<path class="st1" d="M175.5,109.4c-17.2-17.2-45-17.2-62.2,0s-17.2,45,0,62.2l29,29c1.2,1.2,3,1.2,4.2,0c0,0,0,0,0,0l29-29
	C192.7,154.4,192.7,126.6,175.5,109.4z M171.3,167.4l-26.9,26.9l-26.9-26.9c-14.9-14.9-14.9-38.9,0-53.8c14.9-14.9,38.9-14.9,53.8,0
	S186.1,152.5,171.3,167.4C171.3,167.4,171.3,167.4,171.3,167.4L171.3,167.4z M164.8,126.7c1.2,1.2,1.2,3,0,4.2l-24.3,24.3
	c-1.2,1.2-3,1.2-4.2,0c0,0,0,0,0,0L124,142.8c-1.2-1.2-1.2-3,0-4.2c1.2-1.2,3-1.2,4.2,0c0,0,0,0,0,0l10.3,10.3l22.2-22.2
	C161.8,125.6,163.7,125.6,164.8,126.7z"/>
</svg>
