<?xml version="1.0" encoding="utf-8"?>
<!-- Generator: Adobe Illustrator 23.0.1, SVG Export Plug-In . SVG Version: 6.00 Build 0)  -->
<svg version="1.1" id="Capa_1" xmlns="http://www.w3.org/2000/svg" xmlns:xlink="http://www.w3.org/1999/xlink" x="0px" y="0px"
	 viewBox="0 0 300 300" style="enable-background:new 0 0 300 300;" xml:space="preserve">
<style type="text/css">
	.st0{fill:#C3C4C9;}
	.st1{fill-rule:evenodd;clip-rule:evenodd;fill:#C3C4C9;}
</style>
<path class="st0" d="M270.8,150c0.4,69.4-56.2,126.2-126,126.5c-69.9,0.3-126.6-56.1-126.9-126.2C17.7,80.7,74.1,24,144,23.7
	C213.9,23.4,270.4,79.7,270.8,150z M144.3,35c-63.5,0.1-115,51.6-115.1,115.1c-0.1,63.6,51.7,115.3,115.2,115.2
	c63.6-0.1,115.2-51.8,115.1-115.3C259.4,86.5,207.8,35,144.3,35z"/>
<g>
	<g>
		<path class="st0" d="M155.4,205.4C155.4,205.4,155.4,205.4,155.4,205.4L155.4,205.4L155.4,205.4z"/>
		<path class="st0" d="M136.7,189.8l-1-3.7l3.3-1.9l3.1-1.8c0-0.6-0.1-1.2-0.1-1.9c0-0.6,0-1.2,0.1-1.9l-3.1-1.8l-3.3-1.9l1-3.7
			c1.7-6.3,5-12,9.6-16.6l2.7-2.7l3.3,1.9l3.2,1.8c1-0.7,2.1-1.3,3.2-1.9v-3.6v-3.8l3.6-1c3.2-0.9,6.4-1.3,9.6-1.3
			c3.2,0,6.4,0.4,9.6,1.3l3.1,0.8V88H91.8v117.4h53.4C141.2,201,138.2,195.7,136.7,189.8z M153,103.7h13.2c1.4,0,2.5,1.1,2.5,2.5
			c0,1.4-1.1,2.5-2.5,2.5H153c-1.4,0-2.5-1.1-2.5-2.5C150.5,104.8,151.7,103.7,153,103.7z M118.3,120.2H158c1.4,0,2.5,1.1,2.5,2.5
			c0,1.4-1.1,2.5-2.5,2.5h-39.7c-1.4,0-2.5-1.1-2.5-2.5C115.8,121.3,116.9,120.2,118.3,120.2z M115.8,139.3c0-1.4,1.1-2.5,2.5-2.5
			h19.8c1.4,0,2.5,1.1,2.5,2.5c0,1.4-1.1,2.5-2.5,2.5h-19.8C116.9,141.7,115.8,140.6,115.8,139.3z"/>
	</g>
	<g>
		<path class="st1" d="M171.8,174c-3.6,0-6.6,3-6.6,6.6c0,3.6,3,6.6,6.6,6.6c3.6,0,6.6-3,6.6-6.6C178.4,176.9,175.5,174,171.8,174z"
			/>
	</g>
	<g>
		<path class="st1" d="M196.6,180.6c0-1.5-0.2-3.1-0.4-4.5l6-3.5c-1.4-5.5-4.3-10.4-8.3-14.3l-6,3.5c-2.3-2-4.9-3.5-7.8-4.5v-6.9
			c-2.6-0.7-5.4-1.1-8.3-1.1c-2.9,0-5.6,0.4-8.3,1.1v6.9c-2.9,1-5.5,2.6-7.8,4.5l-6-3.5c-3.9,3.9-6.8,8.8-8.3,14.3l6,3.5
			c-0.3,1.5-0.4,3-0.4,4.5c0,1.5,0.2,3.1,0.4,4.5l-6,3.5c1.4,5.5,4.3,10.4,8.3,14.3l6-3.5c2.3,2,4.9,3.5,7.8,4.5v6.9
			c2.6,0.7,5.4,1.1,8.3,1.1c2.9,0,5.6-0.4,8.3-1.1V204c2.9-1,5.5-2.6,7.8-4.5l6,3.5c3.9-3.9,6.8-8.8,8.3-14.3l-6-3.5
			C196.5,183.7,196.6,182.1,196.6,180.6z M171.8,192.2c-6.4,0-11.6-5.2-11.6-11.6c0-6.4,5.2-11.6,11.6-11.6
			c6.4,0,11.6,5.2,11.6,11.6C183.4,187,178.2,192.2,171.8,192.2z"/>
	</g>
</g>
</svg>
