<?xml version="1.0" encoding="utf-8"?>
<!-- Generator: Adobe Illustrator 23.0.1, SVG Export Plug-In . SVG Version: 6.00 Build 0)  -->
<svg version="1.1" id="Capa_1" xmlns="http://www.w3.org/2000/svg" xmlns:xlink="http://www.w3.org/1999/xlink" x="0px" y="0px"
	 viewBox="0 0 300 300" style="enable-background:new 0 0 300 300;" xml:space="preserve">
<style type="text/css">
	.st0{fill:#C3C4C9;}
</style>
<path class="st0" d="M270.8,150c0.4,69.4-56.2,126.2-126,126.5c-69.9,0.3-126.6-56.1-126.9-126.2C17.7,80.7,74.1,24,144,23.7
	C213.9,23.4,270.4,79.7,270.8,150z M144.3,35c-63.5,0.1-115,51.6-115.1,115.1c-0.1,63.6,51.7,115.3,115.2,115.2
	c63.6-0.1,115.2-51.8,115.1-115.3C259.4,86.5,207.8,35,144.3,35z"/>
<g>
	<path class="st0" d="M130.7,84.4c-2.6-0.1-5.1,0.8-6.9,2.5c-1.9,1.8-2.9,4.3-2.9,6.8v1.8h-0.2c-6.4,0-11.6,5.2-11.6,11.6
		c0,1.2,0.9,2.1,2.1,2.1h38.2c1.2,0,2.1-0.9,2.1-2.1c0-6.4-5.2-11.6-11.6-11.6h-0.2v-1.4C139.6,89,135.7,84.7,130.7,84.4z"/>
	<path class="st0" d="M130.2,178c11.7,0,21.2-9.5,21.2-21.2s-9.5-21.2-21.2-21.2c-11.7,0-21.2,9.5-21.2,21.2S118.5,178,130.2,178z
		 M117.4,155.2c1-1,2.5-1,3.5,0l5.5,5.5l13.2-13.2c1-1,2.5-1,3.5,0c1,1,1,2.5,0,3.5l-14.9,14.9c-0.5,0.5-1.1,0.7-1.7,0.7
		s-1.3-0.2-1.7-0.7l-7.2-7.2C116.4,157.7,116.4,156.2,117.4,155.2z"/>
	<path class="st0" d="M92.8,104.3c-1.4,0-2.5,1.1-2.5,2.5v98.4c0,1.4,1.1,2.5,2.5,2.5h74.7c1.4,0,2.5-1.1,2.5-2.5v-98.4
		c0-1.4-1.1-2.5-2.5-2.5H156c0.1,1,0.2,1.9,0.2,2.9c0,3.9-3.2,7-7,7h-38.2c-3.9,0-7-3.2-7-7c0-1,0.1-2,0.2-2.9H92.8z M130.2,130.6
		c14.4,0,26.1,11.7,26.1,26.1c0,14.4-11.7,26.1-26.1,26.1s-26.1-11.7-26.1-26.1C104.1,142.3,115.8,130.6,130.2,130.6z"/>
	<path class="st0" d="M190,98.1c-0.8-1.7-3.6-1.7-4.4,0l-6.5,13c5.4,3,12.1,3,17.5,0L190,98.1z"/>
	<path class="st0" d="M177.9,180.9h19.7v-64.8c-3.1,1.5-6.5,2.3-9.9,2.3c-3.4,0-6.7-0.8-9.8-2.3V180.9z"/>
	<path class="st0" d="M177.9,197.7c0,5.4,4.4,9.9,9.9,9.9c5.4,0,9.9-4.4,9.9-9.9v-11.9h-19.7V197.7z"/>
</g>
</svg>
