<?xml version="1.0" encoding="utf-8"?>
<!-- Generator: Adobe Illustrator 23.0.1, SVG Export Plug-In . SVG Version: 6.00 Build 0)  -->
<svg version="1.1" id="Capa_1" xmlns="http://www.w3.org/2000/svg" xmlns:xlink="http://www.w3.org/1999/xlink" x="0px" y="0px"
	 viewBox="0 0 300 300" style="enable-background:new 0 0 300 300;" xml:space="preserve">
<style type="text/css">
	.st0{fill:#C3C4C9;}
</style>
<path class="st0" d="M270.8,150c0.4,69.4-56.2,126.2-126,126.5c-69.9,0.3-126.6-56.1-126.9-126.2C17.7,80.7,74.1,24,144,23.7
	C213.9,23.4,270.4,79.7,270.8,150z M144.3,35c-63.5,0.1-115,51.6-115.1,115.1c-0.1,63.6,51.7,115.3,115.2,115.2
	c63.6-0.1,115.2-51.8,115.1-115.3C259.4,86.5,207.8,35,144.3,35z"/>
<g>
	<path class="st0" d="M130.5,138.5H90.2V98.2h40.3V138.5z M130.5,161.5H90.2v40.3h40.3V161.5z M193.8,98.2h-40.3v40.3h40.3V98.2z
		 M173.7,161.5c-11.1,0-20.2,9-20.2,20.2c0,11.1,9,20.2,20.2,20.2c11.1,0,20.2-9,20.2-20.2C193.8,170.5,184.8,161.5,173.7,161.5z"/>
</g>
</svg>
