<?xml version="1.0" encoding="utf-8"?>
<!-- Generator: Adobe Illustrator 23.0.1, SVG Export Plug-In . SVG Version: 6.00 Build 0)  -->
<svg version="1.1" id="Capa_1" xmlns="http://www.w3.org/2000/svg" xmlns:xlink="http://www.w3.org/1999/xlink" x="0px" y="0px"
	 viewBox="0 0 512 512" style="enable-background:new 0 0 512 512;" xml:space="preserve">
<style type="text/css">
	.st0{fill:#FFFFFF;}
	.st1{fill:none;stroke:#4C5868;stroke-width:10;stroke-linecap:round;stroke-linejoin:round;stroke-dasharray:0.5032,30.1922;}
	.st2{fill:#EE3528;}
</style>
<g>
	<circle class="st0" cx="256" cy="257.1" r="249.1"/>
	<circle class="st1" cx="256" cy="257.1" r="249.1"/>
</g>
<g>
	<g>
		<g>
			<path class="st2" d="M271.6,225.8l-14.4,76.5c-0.4,1.9,0.9,3.7,2.8,4.1c0.2,0,0.4,0.1,0.7,0.1c1.6,0,3.1-1.2,3.4-2.9l14.4-76.4
				c1.6-7-2.6-14-9.6-15.7c-6.4-1.6-12.9,1.9-15.3,7.9l0-15.1c0-3.5-1.4-6.8-3.8-9.2c-2.5-2.5-5.7-3.8-9.2-3.8c0,0,0,0,0,0
				c-7.2,0-13,5.9-13,13.1l0,11.9c-1-1.3-2.2-2.4-3.6-3.2c-3-1.8-6.5-2.3-9.9-1.5c-7,1.7-11.2,8.7-9.6,15.7l14.4,76.4
				c0.4,1.9,2.2,3.2,4.1,2.8c1.9-0.4,3.1-2.2,2.8-4.1l-14.4-76.5c0-0.1,0-0.1,0-0.2c-0.8-3.2,1.2-6.5,4.4-7.3
				c1.6-0.4,3.2-0.1,4.6,0.7c1.4,0.8,2.4,2.2,2.7,3.7l2.5,10c0.6,2.3,2.7,3.8,5,3.5c2.3-0.3,4-2.2,4-4.6l0-27.3c0-3.3,2.7-6,6-6
				c0,0,0,0,0,0c1.6,0,3.1,0.6,4.3,1.8c1.1,1.1,1.8,2.7,1.8,4.3l0,34.4c0,2.4,1.7,4.3,4,4.6c2.3,0.3,4.5-1.2,5-3.5l4.2-17.1
				c0.8-3.2,4.1-5.2,7.3-4.4c3.2,0.8,5.2,4.1,4.4,7.3C271.7,225.7,271.6,225.8,271.6,225.8z"/>
			<path class="st2" d="M330.6,257.8c-1.8-0.8-3.8,0.1-4.6,1.8c-3.7,8.7-8.8,16.7-15,23.9c-17,19.7-27.8,43.3-31.2,68.5l-77.9,0
				c-3.1-25.4-13.6-49.1-30.4-68.8c-14.2-16.6-22.1-37.8-22.1-59.8c0-24.5,9.7-47.7,27.3-65.1c17.6-17.5,40.8-27,65.4-26.8
				c12.4,0.1,24.4,2.6,35.7,7.5c1.8,0.8,3.8-0.1,4.6-1.8c0.8-1.8-0.1-3.8-1.8-4.6c-12.1-5.2-25.1-8-38.4-8.1
				c-26.4-0.2-51.4,10-70.4,28.8c-19,18.8-29.4,43.7-29.4,70.1c0,23.6,8.4,46.4,23.7,64.3c16,18.7,25.9,41.2,28.8,65.4
				c-2.9,1.6-4.8,4.6-4.8,8.1c0,5.1,4.1,9.2,9.2,9.2h82.7c5.1,0,9.2-4.1,9.2-9.2c0-3.4-1.9-6.4-4.6-8c3.2-23.9,13.4-46.3,29.6-65.1
				c6.7-7.7,12.1-16.4,16.1-25.7C333.2,260.6,332.4,258.6,330.6,257.8z"/>
			<path class="st2" d="M240.8,416.9c7.7,0,14-6.3,14-14h-28C226.8,410.6,233.1,416.9,240.8,416.9z"/>
			<path class="st2" d="M282.7,377.5C282.7,377.5,282.7,377.5,282.7,377.5l-0.3,0c-0.1,0-0.1,0-0.2,0l-82.8,0c-0.1,0-0.2,0-0.3,0
				c-5,0.2-8.9,4.2-8.9,9.2c0,5.1,4.1,9.2,9.2,9.2h23.8h35h23.9c5.1,0,9.2-4.1,9.2-9.2C291.4,381.8,287.6,377.7,282.7,377.5z"/>
			<path class="st2" d="M352.9,187.2c0,0-0.1,0-0.1,0.1c-0.1,0.1-0.1,0.2,0,0.2c0.1,0.1,0.2,0.1,0.3,0c0.1-0.1,0.1-0.2,0-0.2
				C353,187.2,353,187.2,352.9,187.2z"/>
			<path class="st2" d="M352.9,164.9c-5.8,0-11.6,2.2-15.9,6.6c-8.8,8.8-8.8,23.1,0,31.9c8.8,8.8,23,8.8,31.8,0
				c8.8-8.8,8.8-23.1,0-31.9C364.5,167.1,358.7,164.9,352.9,164.9z M357.7,192.2c-1.3,1.3-3.1,2-4.8,2c-1.7,0-3.5-0.7-4.8-2
				c-2.7-2.7-2.7-7,0-9.7c1.3-1.3,3-2,4.8-2c1.8,0,3.5,0.7,4.8,2C360.4,185.2,360.4,189.5,357.7,192.2z"/>
			<path class="st2" d="M399.7,180.1c-1.3-0.3-2.4-1.3-2.6-2.7c-1.1-5.1-3.1-9.9-5.9-14.3c-0.7-1.1-0.7-2.6,0-3.8l9-14.1l-5.1-5.1
				l-14.1,9c-1.1,0.7-2.6,0.7-3.8,0c-4.4-2.8-9.2-4.8-14.3-5.9c-1.3-0.3-2.3-1.3-2.6-2.6l-3.7-16.3h-7.2l-3.7,16.4
				c-0.3,1.3-1.3,2.4-2.7,2.7c-5.1,1.1-9.9,3.1-14.4,5.9c-1.1,0.7-2.6,0.7-3.7,0l-14.1-9l-5.1,5.1l9,14.1c0.7,1.1,0.7,2.6,0,3.7
				c-2.8,4.5-4.8,9.3-5.9,14.4c-0.3,1.3-1.3,2.4-2.7,2.7l-16.4,3.7v7.2l16.3,3.7c1.3,0.3,2.3,1.3,2.6,2.6c1.2,5.1,3.2,10,5.9,14.3
				c0.7,1.1,0.7,2.6,0,3.8l-9,14.1l5.1,5.1l14.1-9c1.1-0.7,2.6-0.7,3.8,0c4.4,2.8,9.2,4.8,14.3,5.9c1.3,0.3,2.3,1.3,2.6,2.6
				l3.7,16.3h7.2l3.7-16.3c0.3-1.3,1.3-2.4,2.7-2.6c5.1-1.1,9.9-3.1,14.3-5.9c1.1-0.7,2.6-0.7,3.8,0l14.1,9l5.1-5.1l-9-14.1
				c-0.7-1.1-0.7-2.6,0-3.8c2.8-4.4,4.8-9.2,5.9-14.3c0.3-1.3,1.3-2.3,2.6-2.6l16.3-3.7v-7.2L399.7,180.1z M373.8,208.3
				c-5.8,5.8-13.3,8.6-20.9,8.6s-15.1-2.9-20.9-8.6c-11.5-11.5-11.5-30.3,0-41.8c11.5-11.5,30.3-11.5,41.8,0
				C385.3,178,385.3,196.8,373.8,208.3z"/>
		</g>
	</g>
</g>
</svg>
