<?xml version="1.0" encoding="utf-8"?>
<!-- Generator: Adobe Illustrator 23.0.1, SVG Export Plug-In . SVG Version: 6.00 Build 0)  -->
<svg version="1.1" id="Capa_1" xmlns="http://www.w3.org/2000/svg" xmlns:xlink="http://www.w3.org/1999/xlink" x="0px" y="0px"
	 viewBox="0 0 512 512" style="enable-background:new 0 0 512 512;" xml:space="preserve">
<style type="text/css">
	.st0{fill:#FFFFFF;}
	.st1{fill:none;stroke:#4C5868;stroke-width:10;stroke-linecap:round;stroke-linejoin:round;stroke-dasharray:0.5032,30.1922;}
	.st2{fill:#EE3528;}
</style>
<g>
	<circle class="st0" cx="256" cy="257.1" r="249.1"/>
	<circle class="st1" cx="256" cy="257.1" r="249.1"/>
</g>
<g>
	<path class="st2" d="M251.5,365.7l9.8,20.8l0.4,0.8c0.4,1.1,0.8,2.3,0.8,3.8c0,6-4.9,11-11,11c-6,0-11-4.9-11-11
		c0-1.1,0.4-2.3,0.8-3.4L251.5,365.7 M251.5,339.3l-20.8,44.2l0,0c-0.8,2.3-1.5,4.9-1.5,7.6c0,12.1,9.8,22.3,22.3,22.3
		c12.1,0,22.3-9.8,22.3-22.3c0-2.6-0.4-5.3-1.5-7.6l0,0c0-0.4-0.4-0.8-0.4-1.1L251.5,339.3L251.5,339.3z"/>
	<path class="st2" d="M315.5,318.5l-7.2-92.2v-80.5h10.2v-13.2L255,84.9l-63.5,47.6v13.2h10.2v74.1l-7.6,98.7h-47.6v81.3h14v-67.7
		h189.4v67.7h13.6v-81.3H315.5z M222.1,167.3c4.2,3,9.8,3.4,14.4,0.4c6.8-4.5,15.9-4.5,22.3,0.4c4.5,3.4,10.2,3.4,14.4,0.4
		c6.8-4.5,15.9-4.5,22.3,0.4l-4.2,5.7c-4.2-3-9.8-3.4-14.4-0.4c-3,2.6-6.8,3.8-10.6,3.8c-4.2,0-7.9-1.1-11.3-3.8
		c-4.5-3.4-10.2-3.4-14.7-0.4c-6.8,4.5-15.9,4.5-22.3-0.4L222.1,167.3z M221.8,182.4c4.2,3,9.8,3.4,14.4,0.4
		c6.8-4.5,15.9-4.5,22.3,0.4c4.5,3.4,10.2,3.4,14.4,0.4c7.2-4.5,15.9-4.5,22.3,0.4l-4.2,5.7c-4.2-3-9.8-3.4-14.4-0.4
		c-3.4,2.3-7.2,3.4-11,3.4c-4.2,0-7.9-1.1-11.3-3.8c-4.5-3.4-10.2-3.4-14.4-0.4c-6.8,4.5-15.9,4.2-22.3-0.4L221.8,182.4z
		 M221.4,197.5c4.2,3,9.8,3.4,14.4,0.4c6.8-4.5,15.9-4.5,22.3,0.4c4.5,3.4,10.2,3.4,14.7,0.4c6.8-4.5,15.9-4.5,22.3,0.4l-4.2,5.7
		c-4.2-3-9.8-3.4-14.4-0.4c-3.4,2.3-7.2,3.4-11,3.4c-4.2,0-7.9-1.1-11.3-3.8c-4.5-3.4-10.2-3.4-14.7-0.8c-6.8,4.5-15.9,4.5-22.3-0.4
		L221.4,197.5z M249.4,254.2l-28-26.1h28V254.2z M260.7,228.1h28l-28,26.1V228.1z M212.7,228.1L212.7,228.1L212.7,228.1L212.7,228.1
		z M211.9,235.3l34.4,32.1l-39.7,37L211.9,235.3z M249.4,280.3v38.2h-40.8L249.4,280.3z M260.7,318.5v-37.8l40.8,37.8H260.7z
		 M263.3,267.4l34-31.8l5.3,68.4L263.3,267.4z"/>
</g>
</svg>
