<?xml version="1.0" encoding="utf-8"?>
<!-- Generator: Adobe Illustrator 23.0.1, SVG Export Plug-In . SVG Version: 6.00 Build 0)  -->
<svg version="1.1" id="Capa_1" xmlns="http://www.w3.org/2000/svg" xmlns:xlink="http://www.w3.org/1999/xlink" x="0px" y="0px"
	 viewBox="0 0 300 300" style="enable-background:new 0 0 300 300;" xml:space="preserve">
<style type="text/css">
	.st0{fill:#C3C4C9;}
</style>
<path class="st0" d="M270.8,150c0.4,69.4-56.2,126.2-126,126.5c-69.9,0.3-126.6-56.1-126.9-126.2C17.7,80.7,74.1,24,144,23.7
	C213.9,23.4,270.4,79.7,270.8,150z M144.3,35c-63.5,0.1-115,51.6-115.1,115.1c-0.1,63.6,51.7,115.3,115.2,115.2
	c63.6-0.1,115.2-51.8,115.1-115.3C259.4,86.5,207.8,35,144.3,35z"/>
<path class="st0" d="M148.1,174.2v-31.7c12.5-2.1,20.9-13.9,18.8-26.3c-2.1-12.5-13.9-20.9-26.3-18.8c-12.5,2.1-20.9,13.9-18.8,26.3
	c1.6,9.6,9.2,17.2,18.8,18.8v31.7c-16.2,0.6-32.3,5.3-32.3,14.8c0,10.2,18.7,14.8,36.1,14.8s36.1-4.6,36.1-14.8
	C180.4,179.4,164.3,174.8,148.1,174.2z M144.3,196.2c-18.7,0-28.5-5.4-28.5-7.3s8.5-6.5,24.7-7.2v3.5c0,2.1,1.7,3.8,3.8,3.8
	c2.1,0,3.8-1.7,3.8-3.8v-3.5c16.2,0.7,24.7,5.5,24.7,7.2C172.8,190.7,163,196.2,144.3,196.2z"/>
</svg>
