<?xml version="1.0" encoding="utf-8"?>
<!-- Generator: Adobe Illustrator 23.0.1, SVG Export Plug-In . SVG Version: 6.00 Build 0)  -->
<svg version="1.1" id="Capa_1" xmlns="http://www.w3.org/2000/svg" xmlns:xlink="http://www.w3.org/1999/xlink" x="0px" y="0px"
	 viewBox="0 0 300 300" style="enable-background:new 0 0 300 300;" xml:space="preserve">
<style type="text/css">
	.st0{fill:#C3C4C9;}
</style>
<path class="st0" d="M270.8,150c0.4,69.4-56.2,126.2-126,126.5c-69.9,0.3-126.6-56.1-126.9-126.2C17.7,80.7,74.1,24,144,23.7
	C213.9,23.4,270.4,79.7,270.8,150z M144.3,35c-63.5,0.1-115,51.6-115.1,115.1c-0.1,63.6,51.7,115.3,115.2,115.2
	c63.6-0.1,115.2-51.8,115.1-115.3C259.4,86.5,207.8,35,144.3,35z"/>
<g>
	<g>
		<path class="st0" d="M181.2,199c-24.7,0-49.1,0-73.8,0c2.2-14.7,7.6-27.5,20.3-36.1c7.3-4.9,15.3-6.5,23.9-4.3
			c7.1,1.8,12.9,5.8,17.6,11.4C176.3,178.3,179.9,188.1,181.2,199z"/>
		<path class="st0" d="M168.4,125.8c0,13.1-10.9,23.9-23.9,23.9c-13.4,0-24.2-10.9-24.1-24.1c0.1-13.3,10.9-23.9,24.3-23.9
			C157.7,101.7,168.4,112.7,168.4,125.8z"/>
	</g>
</g>
</svg>
