<?xml version="1.0" encoding="utf-8"?>
<!-- Generator: Adobe Illustrator 23.0.1, SVG Export Plug-In . SVG Version: 6.00 Build 0)  -->
<svg version="1.1" id="Capa_1" xmlns="http://www.w3.org/2000/svg" xmlns:xlink="http://www.w3.org/1999/xlink" x="0px" y="0px"
	 viewBox="0 0 300 300" style="enable-background:new 0 0 300 300;" xml:space="preserve">
<style type="text/css">
	.st0{fill:#C3C4C9;}
</style>
<path class="st0" d="M270.8,150c0.4,69.4-56.2,126.2-126,126.5c-69.9,0.3-126.6-56.1-126.9-126.2C17.7,80.7,74.1,24,144,23.7
	C213.9,23.4,270.4,79.7,270.8,150z M144.3,35c-63.5,0.1-115,51.6-115.1,115.1c-0.1,63.6,51.7,115.3,115.2,115.2
	c63.6-0.1,115.2-51.8,115.1-115.3C259.4,86.5,207.8,35,144.3,35z"/>
<g>
	<path class="st0" d="M205.1,172l-8.2-47.5c-0.2-1.2-1.3-2.1-2.5-2.1h-31.7c2.5-5.4,3.7-11.2,3.7-17.1c0-12.5-10.1-22.7-22.7-22.7
		c-12.5,0-22.6,10.1-22.7,22.7c0,5.9,1.3,11.8,3.7,17.1H98.2c-1.2,0-2.3,0.9-2.5,2.1l-8.9,52l-3.1,17.8c-0.1,0.7,0.1,1.5,0.6,2.1
		c0.5,0.6,1.2,0.9,1.9,0.9h120.3c0.7,0,1.4-0.3,1.9-0.9c0.5-0.6,0.7-1.3,0.6-2.1L205.1,172z M199.6,170h-21.3l-7.3-42.5h21.4
		L199.6,170z M143.8,98.3c3.7,0,6.7,3,6.7,6.7c0,3.7-3,6.7-6.7,6.7c-3.7,0-6.7-3-6.7-6.7C137.1,101.3,140.1,98.3,143.8,98.3
		C143.8,98.3,143.8,98.3,143.8,98.3z M127.6,127.5c3.8,6.2,8.9,11.4,14.9,15.5c0.8,0.5,1.9,0.5,2.7,0c6-4.1,11.1-9.3,14.9-15.5h5.8
		l4.4,25.8l-27.7,7.2l-29.4-33H127.6z M100.4,127.5h6.1l30.7,34.4l-44.7,11.6L100.4,127.5z M91.5,179L91.5,179l79.7-20.7l5.9,34
		H89.2L91.5,179z M182.1,192.3l-3-17.2h21.3l3,17.2H182.1z"/>
</g>
</svg>
