<?xml version="1.0" encoding="utf-8"?>
<!-- Generator: Adobe Illustrator 23.0.1, SVG Export Plug-In . SVG Version: 6.00 Build 0)  -->
<svg version="1.1" id="Capa_1" xmlns="http://www.w3.org/2000/svg" xmlns:xlink="http://www.w3.org/1999/xlink" x="0px" y="0px"
	 viewBox="0 0 512 512" style="enable-background:new 0 0 512 512;" xml:space="preserve">
<style type="text/css">
	.st0{fill:#FFFFFF;}
	.st1{fill:none;stroke:#4C5868;stroke-width:10;stroke-linecap:round;stroke-linejoin:round;stroke-dasharray:0.5032,30.1922;}
	.st2{fill:#EE3528;stroke:#EE3528;stroke-miterlimit:10;}
</style>
<g>
	<circle class="st0" cx="256" cy="257.1" r="249.1"/>
	<circle class="st1" cx="256" cy="257.1" r="249.1"/>
</g>
<g>
	<g>
		<path class="st2" d="M217.3,247h27c5,0,9-4,9-9v-9c0-5-4-9-9-9h-27c-5,0-9,4-9,9v9C208.3,243,212.4,247,217.3,247z"/>
		<path class="st2" d="M298.3,220h-27c-5,0-9,4-9,9v9c0,5,4,9,9,9h27c5,0,9-4,9-9v-9C307.3,224,303.3,220,298.3,220z"/>
		<path class="st2" d="M212.8,157h94.5c2.5,0,4.5-2,4.5-4.5s-2-4.5-4.5-4.5h-94.5c-2.5,0-4.5,2-4.5,4.5S210.4,157,212.8,157z"/>
		<path class="st2" d="M212.8,179.5h94.5c2.5,0,4.5-2,4.5-4.5s-2-4.5-4.5-4.5h-94.5c-2.5,0-4.5,2-4.5,4.5S210.4,179.5,212.8,179.5z"
			/>
		<path class="st2" d="M212.8,202h54c2.5,0,4.5-2,4.5-4.5s-2-4.5-4.5-4.5h-54c-2.5,0-4.5,2-4.5,4.5S210.4,202,212.8,202z"/>
		<path class="st2" d="M186.7,172.4L158.2,213l-5.2-5.2c-1.8-1.7-4.6-1.7-6.3,0.1c-1.7,1.7-1.8,4.5-0.1,6.3l9,9
			c0.8,0.8,2,1.3,3.2,1.3c0.1,0,0.3,0,0.4,0c1.3-0.1,2.5-0.8,3.3-1.9l31.5-45c1.3-2,0.8-4.8-1.2-6.2
			C190.9,170,188.1,170.5,186.7,172.4L186.7,172.4z"/>
		<path class="st2" d="M383.8,238h-49.5V134.5c0-7.5-6-13.5-13.5-13.5h-180c-7.5,0-13.5,6-13.5,13.5v126c0,7.5,6,13.5,13.5,13.5
			h49.5v103.5c0,7.5,6,13.5,13.5,13.5h180c7.5,0,13.5-6,13.5-13.5v-126C397.3,244,391.3,238,383.8,238z M136.3,260.5v-126
			c0-2.5,2-4.5,4.5-4.5h180c2.5,0,4.5,2,4.5,4.5v126c0,2.5-2,4.5-4.5,4.5h-180C138.4,265,136.3,263,136.3,260.5z M388.3,377.5
			c0,2.5-2,4.5-4.5,4.5h-180c-2.5,0-4.5-2-4.5-4.5V274h121.5c7.5,0,13.5-6,13.5-13.5V247h49.5c2.5,0,4.5,2,4.5,4.5V377.5z"/>
		<path class="st2" d="M307.3,337h-27c-5,0-9,4-9,9v9c0,5,4,9,9,9h27c5,0,9-4,9-9v-9C316.3,341,312.3,337,307.3,337z"/>
		<path class="st2" d="M361.3,337h-27c-5,0-9,4-9,9v9c0,5,4,9,9,9h27c5,0,9-4,9-9v-9C370.3,341,366.3,337,361.3,337z"/>
		<path class="st2" d="M370.3,265h-18c-2.5,0-4.5,2-4.5,4.5s2,4.5,4.5,4.5h18c2.5,0,4.5-2,4.5-4.5S372.8,265,370.3,265z"/>
		<path class="st2" d="M370.3,287.5h-94.5c-2.5,0-4.5,2-4.5,4.5s2,4.5,4.5,4.5h94.5c2.5,0,4.5-2,4.5-4.5S372.8,287.5,370.3,287.5z"
			/>
		<path class="st2" d="M329.8,319c2.5,0,4.5-2,4.5-4.5s-2-4.5-4.5-4.5h-54c-2.5,0-4.5,2-4.5,4.5s2,4.5,4.5,4.5H329.8z"/>
		<path class="st2" d="M256.4,297.7c-1.8-1.7-4.7-1.5-6.4,0.3l-16.9,18.8L216.2,298c-1.1-1.2-2.7-1.8-4.3-1.5
			c-1.6,0.3-2.9,1.5-3.4,3s-0.1,3.3,1,4.4l17.5,19.5L209.5,343c-1.1,1.2-1.5,2.9-1,4.4c0.5,1.6,1.8,2.7,3.4,3
			c1.6,0.3,3.2-0.2,4.3-1.5l16.9-18.8L250,349c1.7,1.8,4.5,1.9,6.3,0.3c1.8-1.6,2-4.4,0.4-6.3l-17.5-19.5l17.5-19.5
			C258.4,302.2,258.2,299.3,256.4,297.7z"/>
	</g>
</g>
</svg>
