<?xml version="1.0" encoding="utf-8"?>
<!-- Generator: Adobe Illustrator 23.0.1, SVG Export Plug-In . SVG Version: 6.00 Build 0)  -->
<svg version="1.1" id="Capa_1" xmlns="http://www.w3.org/2000/svg" xmlns:xlink="http://www.w3.org/1999/xlink" x="0px" y="0px"
	 viewBox="0 0 512 512" style="enable-background:new 0 0 512 512;" xml:space="preserve">
<style type="text/css">
	.st0{fill:#FFFFFF;}
	.st1{fill:none;stroke:#4C5868;stroke-width:10;stroke-linecap:round;stroke-linejoin:round;stroke-dasharray:0.5032,30.1922;}
	.st2{fill:#EE3528;}
</style>
<g>
	<circle class="st0" cx="256" cy="257.1" r="249.1"/>
	<circle class="st1" cx="256" cy="257.1" r="249.1"/>
</g>
<g id="XMLID_961_">
	<g id="XMLID_1165_">
		<path id="XMLID_1433_" class="st2" d="M381.5,129.8H279c-2.8,0-5.1,2.3-5.1,5.1s2.3,5.1,5.1,5.1h97.5v37.3
			c-10.9-16.3-29.5-27.1-50.5-27.1c-33.5,0-60.7,27.2-60.7,60.7c0,19.3,9.1,37.3,24.5,48.7v62.2c0,8.5-5.6,13.8-10.9,15.9
			c-5.2,2.1-12.8,2.1-18.6-3.8c-0.2-0.2-0.4-0.5-0.6-0.7c-1-0.9-2.2-1.4-3.5-1.4c0,0,0,0,0,0c-1.3,0-2.5,0.4-3.5,1.4
			c-0.2,0.2-0.4,0.4-0.6,0.7c-5.9,5.9-13.4,5.8-18.6,3.8c-5.3-2.1-10.9-7.4-10.9-15.9v-62.2c15.4-11.5,24.5-29.5,24.5-48.7
			c0-33.5-27.2-60.7-60.7-60.7c-21,0-39.6,10.8-50.5,27.1V140H233c2.8,0,5.1-2.3,5.1-5.1s-2.3-5.1-5.1-5.1H130.5
			c-2.8,0-5.1,2.3-5.1,5.1v76c0,19.3,9.1,37.3,24.5,48.7v62.2c0,6.3-3,10.3-5.5,12.6c-3.6,3.3-8.6,5-13.5,4.6
			c-2.8-0.3-5.3,1.8-5.5,4.6c-0.3,2.8,1.8,5.3,4.6,5.5c7.7,0.7,15.5-1.9,21.3-7.2c5.7-5.2,8.8-12.3,8.8-20.1v-89.2
			c0-4.9,3.9-8.8,8.8-8.8h22.5v55.3c0,2.8,2.3,5.1,5.1,5.1c2.8,0,5.1-2.3,5.1-5.1v-55.3h1.8c4.9,0,8.8,3.9,8.8,8.8v89.2
			c0,11.4,6.7,21.2,17.4,25.4c9.2,3.6,18.9,2.3,26.5-3.4c7.6,5.7,17.3,7,26.5,3.4c10.7-4.2,17.4-14,17.4-25.4v-89.2
			c0-4.9,3.9-8.8,8.8-8.8h1.8v55.3c0,2.8,2.3,5.1,5.1,5.1s5.1-2.3,5.1-5.1v-55.3h22.5c4.9,0,8.8,3.9,8.8,8.8v89.2
			c0,7.8,3.1,15,8.8,20.1c5.2,4.7,11.9,7.3,18.8,7.3c0.8,0,1.6,0,2.5-0.1c2.8-0.3,4.9-2.7,4.6-5.5c-0.3-2.8-2.7-4.9-5.5-4.6
			c-4.8,0.4-9.8-1.3-13.5-4.6c-2.5-2.3-5.5-6.3-5.5-12.6v-62.2c15.4-11.5,24.5-29.5,24.5-48.7v-76
			C386.6,132.1,384.4,129.8,381.5,129.8L381.5,129.8z M135.6,210.9c0-27.9,22.7-50.5,50.5-50.5s50.5,22.7,50.5,50.5
			c0,13.3-5.2,25.8-14.3,35.2v-13.5c0-2.2-0.4-4.2-1-6.2c2.1-4.9,3.3-10.2,3.3-15.5c0-21.2-17.3-38.5-38.5-38.5
			s-38.5,17.3-38.5,38.5c0,5.3,1.1,10.7,3.3,15.5c-0.7,1.9-1,4-1,6.2v13.5C140.8,236.8,135.6,224.2,135.6,210.9z M362.2,246.1v-13.5
			c0-2.2-0.4-4.2-1-6.2c2.1-4.9,3.3-10.2,3.3-15.5c0-21.2-17.3-38.5-38.5-38.5s-38.5,17.3-38.5,38.5c0,5.3,1.1,10.7,3.3,15.5
			c-0.7,1.9-1,4-1,6.2v13.5c-9.1-9.3-14.3-21.9-14.3-35.2c0-27.9,22.7-50.5,50.5-50.5c27.9,0,50.5,22.7,50.5,50.5
			C376.4,224.2,371.2,236.8,362.2,246.1L362.2,246.1z"/>
		<path id="XMLID_1480_" class="st2" d="M256,140c1.3,0,2.7-0.5,3.6-1.5c0.9-0.9,1.5-2.3,1.5-3.6s-0.5-2.7-1.5-3.6
			c-0.9-0.9-2.3-1.5-3.6-1.5c-1.3,0-2.7,0.5-3.6,1.5c-0.9,0.9-1.5,2.3-1.5,3.6s0.5,2.7,1.5,3.6S254.7,140,256,140z"/>
		<path id="XMLID_1485_" class="st2" d="M331.2,337.9c0,2.8,2.3,5.1,5.1,5.1s5.1-2.3,5.1-5.1v-20.1c0-2.8-2.3-5.1-5.1-5.1
			s-5.1,2.3-5.1,5.1V337.9z"/>
		<path id="XMLID_1493_" class="st2" d="M336.3,284.9c2.8,0,5.1-2.3,5.1-5.1v-14.6c0-2.8-2.3-5.1-5.1-5.1s-5.1,2.3-5.1,5.1v14.6
			C331.2,282.7,333.5,284.9,336.3,284.9z"/>
		<path id="XMLID_1499_" class="st2" d="M170.6,342.3c0,2.8,2.3,5.1,5.1,5.1c2.8,0,5.1-2.3,5.1-5.1v-20.1c0-2.8-2.3-5.1-5.1-5.1
			c-2.8,0-5.1,2.3-5.1,5.1V342.3z"/>
		<path id="XMLID_1500_" class="st2" d="M175.7,289.3c2.8,0,5.1-2.3,5.1-5.1v-14.6c0-2.8-2.3-5.1-5.1-5.1c-2.8,0-5.1,2.3-5.1,5.1
			v14.6C170.6,287.1,172.9,289.3,175.7,289.3z"/>
		<path id="XMLID_1503_" class="st2" d="M381.5,380.8c-8.1,0-15.9-3.4-21.4-9.4c-1-1-2.3-1.6-3.8-1.6c-1.4,0-2.8,0.6-3.8,1.6
			c-5.5,5.9-13.3,9.4-21.4,9.4c-8.1,0-15.9-3.4-21.4-9.4c-1-1-2.3-1.6-3.8-1.6c-1.4,0-2.8,0.6-3.8,1.6c-5.5,5.9-13.3,9.4-21.4,9.4
			c-8.1,0-15.9-3.4-21.4-9.4c-1-1-2.3-1.6-3.8-1.6c-1.4,0-2.8,0.6-3.8,1.6c-5.5,5.9-13.3,9.4-21.4,9.4c-8.1,0-15.9-3.4-21.4-9.4
			c-1-1-2.3-1.6-3.8-1.6c-1.4,0-2.8,0.6-3.8,1.6c-5.5,5.9-13.3,9.4-21.4,9.4c-8.1,0-15.9-3.4-21.4-9.4c-1-1-2.3-1.6-3.8-1.6
			c-1.4,0-2.8,0.6-3.8,1.6c-5.5,5.9-13.3,9.4-21.4,9.4c-2.8,0-5.1,2.3-5.1,5.1c0,2.8,2.3,5.1,5.1,5.1c9.2,0,18.1-3.3,25.1-9.1
			c7,5.8,15.9,9.1,25.1,9.1c9.2,0,18.1-3.3,25.1-9.1c7,5.8,15.9,9.1,25.1,9.1c9.2,0,18.1-3.3,25.1-9.1c7,5.8,15.9,9.1,25.1,9.1
			s18.1-3.3,25.1-9.1c7,5.8,15.9,9.1,25.1,9.1c9.2,0,18.1-3.3,25.1-9.1c7,5.8,15.9,9.1,25.1,9.1c2.8,0,5.1-2.3,5.1-5.1
			C386.6,383.1,384.4,380.8,381.5,380.8L381.5,380.8z"/>
	</g>
</g>
</svg>
