<?xml version="1.0" encoding="utf-8"?>
<!-- Generator: Adobe Illustrator 23.0.1, SVG Export Plug-In . SVG Version: 6.00 Build 0)  -->
<svg version="1.1" id="Capa_1" xmlns="http://www.w3.org/2000/svg" xmlns:xlink="http://www.w3.org/1999/xlink" x="0px" y="0px"
	 viewBox="0 0 512 512" style="enable-background:new 0 0 512 512;" xml:space="preserve">
<style type="text/css">
	.st0{fill:#FFFFFF;}
	.st1{fill:none;stroke:#4C5868;stroke-width:10;stroke-linecap:round;stroke-linejoin:round;stroke-dasharray:0.5032,30.1922;}
	.st2{fill:#EE3528;}
</style>
<g>
	<circle class="st0" cx="256" cy="257.1" r="249.1"/>
	<circle class="st1" cx="256" cy="257.1" r="249.1"/>
</g>
<g>
	<g>
		<g>
			<path class="st2" d="M349.7,181h-26.9c-3,0-5.3-2.4-5.3-5.3c0-8.7,3.3-17,9.4-23.3c6-6.3,14.1-9.9,22.7-10.2c0.1,0,0.2,0,0.3,0
				c0.4,0,0.8,0,1.2,0.1c12.2,0.7,18.3,10.5,18.1,19.8C368.9,171.5,362.1,181,349.7,181z M328.8,170.3h20.9c6.3,0,8.6-4.6,8.7-8.6
				c0.1-3.9-1.9-8.5-8-8.8c-0.2,0-0.5,0-0.7,0C339.6,153.3,331.2,160.7,328.8,170.3z"/>
		</g>
		<g>
			<path class="st2" d="M296.9,372.1h-5.6c-0.1,0-0.3,0-0.4,0c-13.2-1.1-27.3-10-29.7-27.4h-87.1c-3,0-5.3-2.4-5.3-5.3V162.4
				c0-11.1,9.1-20.2,20.2-20.2h161.3c2.9,0,5.3,2.4,5.3,5.3c0,2.9-2.3,5.3-5.3,5.4l-0.4,0c-12,0.4-21.8,10.7-21.8,22.8v163.6
				c0,0,0,0.1,0,0.1c-0.1,9.4-3.5,17.6-9.8,23.5c-5.5,5.2-13,8.5-21,9.1C297.2,372,297.1,372.1,296.9,372.1z M291.5,361.4h5.2
				c9.5-0.8,20.5-7.1,20.8-22.1V175.7c0-8.5,3.2-16.6,8.9-22.8H189c-5.3,0-9.5,4.3-9.5,9.5V334h86.7c3,0,5.3,2.4,5.3,5.3
				C271.5,354.3,282.2,360.5,291.5,361.4z"/>
		</g>
		<g>
			<path class="st2" d="M291.3,372.1H174.1c-8.6,0-16.4-3-22-8.5c-6.1-6-9.3-14.4-9.3-24.3c0-3,2.4-5.3,5.3-5.3h118
				c3,0,5.3,2.4,5.3,5.3c0,14.9,10.5,21.3,20.3,22.2c2.8,0.3,5,2.7,4.8,5.6C296.5,369.8,294.1,372.1,291.3,372.1z"/>
		</g>
		<g>
			<path class="st2" d="M302.1,275.8H195.2c-3,0-5.3-2.4-5.3-5.3s2.4-5.3,5.3-5.3h106.9c3,0,5.3,2.4,5.3,5.3
				S305.1,275.8,302.1,275.8z"/>
		</g>
		<g>
			<path class="st2" d="M302.1,297.2h-45.8c-3,0-5.3-2.4-5.3-5.3s2.4-5.3,5.3-5.3h45.8c3,0,5.3,2.4,5.3,5.3S305.1,297.2,302.1,297.2
				z"/>
		</g>
		<g>
			<path class="st2" d="M200.6,203.7c-1.9,0-3.8-1.1-4.8-2.9c-1.4-2.6-0.3-5.8,2.3-7.2l46.9-24.1c2.6-1.4,5.8-0.3,7.2,2.3
				c1.4,2.6,0.3,5.8-2.3,7.2L203,203.1C202.2,203.5,201.4,203.7,200.6,203.7z"/>
		</g>
		<g>
			<path class="st2" d="M294.3,203.7c-0.8,0-1.7-0.2-2.4-0.6L245,179c-2.6-1.4-3.7-4.6-2.3-7.2c1.4-2.6,4.6-3.7,7.2-2.3l46.9,24.1
				c2.6,1.4,3.7,4.6,2.3,7.2C298.1,202.7,296.2,203.7,294.3,203.7z"/>
		</g>
		<g>
			<path class="st2" d="M280.2,254.4h-65.6c-3,0-5.3-2.4-5.3-5.3v-57c0-3,2.4-5.3,5.3-5.3s5.3,2.4,5.3,5.3v51.6h54.9v-51.6
				c0-3,2.4-5.3,5.3-5.3s5.3,2.4,5.3,5.3v57C285.6,252,283.2,254.4,280.2,254.4z"/>
		</g>
		<g>
			<path class="st2" d="M258.4,254.4h-21.9c-3,0-5.3-2.4-5.3-5.3v-24.2c0-9,7.3-16.3,16.3-16.3c9,0,16.3,7.3,16.3,16.3v24.2
				C263.7,252,261.3,254.4,258.4,254.4z"/>
		</g>
	</g>
</g>
</svg>
