<?xml version="1.0" encoding="utf-8"?>
<!-- Generator: Adobe Illustrator 23.0.1, SVG Export Plug-In . SVG Version: 6.00 Build 0)  -->
<svg version="1.1" id="Capa_1" xmlns="http://www.w3.org/2000/svg" xmlns:xlink="http://www.w3.org/1999/xlink" x="0px" y="0px"
	 viewBox="0 0 300 300" style="enable-background:new 0 0 300 300;" xml:space="preserve">
<style type="text/css">
	.st0{fill:#C3C4C9;}
</style>
<path class="st0" d="M270.8,150c0.4,69.4-56.2,126.2-126,126.5c-69.9,0.3-126.6-56.1-126.9-126.2C17.7,80.7,74.1,24,144,23.7
	C213.9,23.4,270.4,79.7,270.8,150z M144.3,35c-63.5,0.1-115,51.6-115.1,115.1c-0.1,63.6,51.7,115.3,115.2,115.2
	c63.6-0.1,115.2-51.8,115.1-115.3C259.4,86.5,207.8,35,144.3,35z"/>
<g>
	<circle class="st0" cx="145" cy="92.3" r="10.6"/>
	<path class="st0" d="M134.4,161.1v31.8c0,2.9,2.4,5.3,5.3,5.3c2.9,0,5.3-2.4,5.3-5.3c0,2.9,2.4,5.3,5.3,5.3c2.9,0,5.3-2.4,5.3-5.3
		v-31.8c5.8,0,10.6-4.8,10.6-10.6V124c0-5.8-4.8-10.6-10.6-10.6h-5.3L145,124l-5.3-10.6h-5.3c-5.8,0-10.6,4.8-10.6,10.6v26.5
		C123.8,156.3,128.6,161.1,134.4,161.1z"/>
	<path class="st0" d="M166.2,168.1v10.4c19.7,2.9,31.8,9.6,31.8,14.3c0,6.3-21.1,15.9-52.9,15.9s-52.9-9.5-52.9-15.9
		c0-4.8,12.1-11.4,31.8-14.3v-10.4c-23.3,3-42.3,11.3-42.3,24.7c0,17.4,32,26.5,63.5,26.5s63.5-9.1,63.5-26.5
		C208.5,179.4,189.5,171.2,166.2,168.1z"/>
</g>
</svg>
