<?xml version="1.0" encoding="utf-8"?>
<!-- Generator: Adobe Illustrator 23.0.1, SVG Export Plug-In . SVG Version: 6.00 Build 0)  -->
<svg version="1.1" id="Capa_1" xmlns="http://www.w3.org/2000/svg" xmlns:xlink="http://www.w3.org/1999/xlink" x="0px" y="0px"
	 viewBox="0 0 512 512" style="enable-background:new 0 0 512 512;" xml:space="preserve">
<style type="text/css">
	.st0{fill:#FFFFFF;}
	.st1{fill:none;stroke:#4C5868;stroke-width:10;stroke-linecap:round;stroke-linejoin:round;stroke-dasharray:0.5032,30.1922;}
	.st2{fill:#EE3528;}
</style>
<g>
	<circle class="st0" cx="256" cy="257.1" r="249.1"/>
	<circle class="st1" cx="256" cy="257.1" r="249.1"/>
</g>
<g>
	<g>
		<g>
			<circle class="st2" cx="314.5" cy="224" r="9"/>
			<path class="st2" d="M335.2,147.5h-11.7v-9c0-5-4-9-9-9s-9,4-9,9v9h-41v-9c0-5-4-9-9-9c-5,0-9,4-9,9v9h-40.5v-9c0-5-4-9-9-9
				s-9,4-9,9v9h-11.2c-19.9,0-36,16.1-36,36v140.4c0,19.9,16.1,36,36,36h68.8c5,0,9-4,9-9c0-5-4-9-9-9h-68.8c-9.9,0-18-8.1-18-18
				V183.5c0-9.9,8.1-18,18-18h11.2v9c0,5,4,9,9,9c5,0,9-4,9-9v-9h40.5v9c0,5,4,9,9,9c5,0,9-4,9-9v-9h41v9c0,5,4,9,9,9s9-4,9-9v-9
				h11.7c9.9,0,18,8.1,18,18v51.3c0,5,4,9,9,9c5,0,9-4,9-9v-51.3C371.2,163.6,355.1,147.5,335.2,147.5z"/>
			<path class="st2" d="M316.8,251c-30,0-54.5,24.4-54.5,54.4c0,30,24.4,54.5,54.5,54.5s54.5-24.4,54.5-54.5
				C371.2,275.4,346.8,251,316.8,251z"/>
			<path class="st0" d="M329.8,296.4h-4V287c0-5-4-9-9-9s-9,4-9,9v18.4c0,5,4,9,9,9h13c5,0,9-4,9-9S334.8,296.4,329.8,296.4z"/>
			<circle class="st2" cx="275.4" cy="224" r="9"/>
			<circle class="st2" cx="236.2" cy="263.1" r="9"/>
			<circle class="st2" cx="197.1" cy="224" r="9"/>
			<circle class="st2" cx="197.1" cy="263.1" r="9"/>
			<circle class="st2" cx="197.1" cy="302.3" r="9"/>
			<circle class="st2" cx="236.2" cy="302.3" r="9"/>
			<circle class="st2" cx="236.2" cy="224" r="9"/>
		</g>
	</g>
</g>
</svg>
