<?xml version="1.0" encoding="utf-8"?>
<!-- Generator: Adobe Illustrator 23.0.1, SVG Export Plug-In . SVG Version: 6.00 Build 0)  -->
<svg version="1.1" id="Capa_1" xmlns="http://www.w3.org/2000/svg" xmlns:xlink="http://www.w3.org/1999/xlink" x="0px" y="0px"
	 viewBox="0 0 300 300" style="enable-background:new 0 0 300 300;" xml:space="preserve">
<style type="text/css">
	.st0{fill:#C3C4C9;}
</style>
<path class="st0" d="M270.8,150c0.4,69.4-56.2,126.2-126,126.5c-69.9,0.3-126.6-56.1-126.9-126.2C17.7,80.7,74.1,24,144,23.7
	C213.9,23.4,270.4,79.7,270.8,150z M144.3,35c-63.5,0.1-115,51.6-115.1,115.1c-0.1,63.6,51.7,115.3,115.2,115.2
	c63.6-0.1,115.2-51.8,115.1-115.3C259.4,86.5,207.8,35,144.3,35z"/>
<g>
	<path class="st0" d="M193.2,102.8h-14.9v-5.9c0-3.5-2.9-6.4-6.4-6.4c-3.5,0-6.4,2.9-6.4,6.4v5.9h-42v-5.9c0-3.5-2.9-6.4-6.4-6.4
		s-6.4,2.9-6.4,6.4v5.9H95.8c-6.1,0-11,5-11,11v81.5c0,6.1,5,11,11,11h87.6c11.5,0,20.9-9.4,20.9-20.9v-71.7
		C204.3,107.7,199.3,102.8,193.2,102.8z M95.8,111.6h14.9c0.1,3.5,2.9,6.3,6.4,6.3c3.5,0,6.3-2.8,6.4-6.3h42
		c0.1,3.5,2.9,6.3,6.4,6.3c3.5,0,6.3-2.8,6.4-6.3h14.9c1.2,0,2.2,1,2.2,2.2V131H93.5v-17.2C93.5,112.6,94.6,111.6,95.8,111.6z
		 M93.5,195.3v-55.7h101.9v38.6h-18l-0.1,19.4H95.8C94.6,197.6,93.5,196.5,93.5,195.3z M186.2,197.2l0.1-10.2h9.1
		C194.7,192,191,196.1,186.2,197.2z"/>
	<path class="st0" d="M119.2,160.4c0-4,1.5-7,3.8-8.9c2.3-1.9,5.4-2.9,8.8-2.9c8.8,0,11.7,5.9,11.7,8.8c0,7.2-4,7.2-4,7.3v0.1
		c0,0.4,5,0.4,5,8c0,4.2-2.8,10.8-12.7,10.8c-13.6,0-13.7-10.8-13.5-13.4h8.3c0,1.8,0.3,3.2,1.2,4.1c0.8,1.1,2.1,1.5,3.6,1.5
		c2.5,0,4.1-1,4.1-3.8c0-3-2-3.5-4.1-3.5c-1.3,0-1.9,0.1-2.5,0.2V162c0.7,0,1.4,0.2,2.5,0.2c1.8,0,4.1-0.4,4.1-3.1c0-2.2-2.2-3-4-3
		c-2.4,0-4.3,1.4-4.2,4.3L119.2,160.4L119.2,160.4z"/>
	<path class="st0" d="M157.4,163.5h-7.1v-7.1c4.4,0.1,8.8-1.8,9-7.4h7.1v34.2h-9.1V163.5z"/>
</g>
</svg>
