<?xml version="1.0" encoding="utf-8"?>
<!-- Generator: Adobe Illustrator 23.0.1, SVG Export Plug-In . SVG Version: 6.00 Build 0)  -->
<svg version="1.1" id="Capa_1" xmlns="http://www.w3.org/2000/svg" xmlns:xlink="http://www.w3.org/1999/xlink" x="0px" y="0px"
	 viewBox="0 0 300 300" style="enable-background:new 0 0 300 300;" xml:space="preserve">
<style type="text/css">
	.st0{fill:#C3C4C9;}
</style>
<g>
	<path class="st0" d="M183.2,207.5h-13.9c2.1-57.5,1.1-29.8,1.9-50.5c1.6,0.6,3.3,0.9,5,0.9c1.8,0,3.5-0.3,5.1-0.9
		C181.8,167.7,182.8,196.7,183.2,207.5z"/>
	<g>
		<path class="st0" d="M208.4,222.1c-0.6-4.1-4.6-8.8-7.6-8.8h-49c-3,0-6.9,4.7-7.6,8.8H208.4z"/>
	</g>
	<g>
		<g>
			<path class="st0" d="M151.8,207.5h11.8v-0.2c0.1-2.7,0.2-5.2,0.3-7.6c-4,3.5-9.2,5.5-14.8,5.5c-10.2,0-18.9-6.7-22-15.9H94.3
				c-1.2,0-2.2-1-2.2-2.2s1-2.2,2.2-2.2h31.8c-0.1-1-0.2-1.9-0.2-2.9c-0.1-1.1,0-1.2,4.9-14.1H94.3c-1.2,0-2.2-1-2.2-2.2
				s1-2.2,2.2-2.2h38.2l5.2-13.5c-2.4-0.2-4.5-1.6-5.8-3.5H94.3c-1.2,0-2.2-1-2.2-2.2c0-1.2,1-2.2,2.2-2.2h36.1c0,0,0,0,0-0.1
				c0-4.4,3.5-7.9,7.9-7.9h24.6c2.7-4.6,7.8-7.7,13.4-7.7c0.7,0,1.3,0,2,0.1V94.9c0-7.7-6.3-14-14-14H91.9c-7.7,0-14,6.3-14,14v113
				c0,2.2,0.9,4.3,2.4,5.8c1.6,1.6,3.7,2.5,5.9,2.5h54C142.6,211.5,147.1,207.5,151.8,207.5z M107.8,99.5h40.7c1.2,0,2.2,1,2.2,2.2
				c0,1.2-1,2.2-2.2,2.2h-40.7c-1.2,0-2.2-1-2.2-2.2C105.6,100.5,106.6,99.5,107.8,99.5z M94.3,120.9h67.6c1.2,0,2.2,1,2.2,2.2
				s-1,2.2-2.2,2.2H94.3c-1.2,0-2.2-1-2.2-2.2S93.1,120.9,94.3,120.9z"/>
			<path class="st0" d="M206.7,144.4h7.6c1.2,0,2.2-1,2.2-2.2c0-1.2-1-2.2-2.2-2.2h-28.4c-1-4.4-4.9-7.7-9.6-7.7
				c-4.6,0-8.6,3.3-9.5,7.7h-17.7c0,0-0.1,0-0.1,0c0,0,0,0-0.1,0h-10.7c-1.2,0-2.2,1-2.2,2.2c0,1.2,1,2.2,2.2,2.2h7.6
				c-14.7,38.7-14.2,37.3-14.2,37.7c0,9.6,7.8,17.4,17.4,17.4h0c9.4,0,17.1-7.6,17.3-17c0.1-0.8,1.4,2.5-14.2-38.1h14.6
				c0.9,4.4,5,7.7,9.5,7.7c4.7,0,8.6-3.2,9.6-7.7h14.6c-14,37-14.2,37-14.2,37.7c0,9.6,7.8,17.4,17.3,17.4h0c9.4,0,17.1-7.6,17.3-17
				C221,180.6,222.9,187.5,206.7,144.4z M161.1,179.9H137l12.1-31.7L161.1,179.9z M191.6,179.9l12-31.7l12.1,31.7H191.6z"/>
		</g>
	</g>
</g>
<path class="st0" d="M270.8,150c0.4,69.4-56.2,126.2-126,126.5c-69.9,0.3-126.6-56.1-126.9-126.2C17.7,80.7,74.1,24,144,23.7
	C213.9,23.4,270.4,79.7,270.8,150z M144.3,35c-63.5,0.1-115,51.6-115.1,115.1c-0.1,63.6,51.7,115.3,115.2,115.2
	c63.6-0.1,115.2-51.8,115.1-115.3C259.4,86.5,207.8,35,144.3,35z"/>
</svg>
