<?xml version="1.0" encoding="utf-8"?>
<!-- Generator: Adobe Illustrator 23.0.1, SVG Export Plug-In . SVG Version: 6.00 Build 0)  -->
<svg version="1.1" id="Capa_1" xmlns="http://www.w3.org/2000/svg" xmlns:xlink="http://www.w3.org/1999/xlink" x="0px" y="0px"
	 viewBox="0 0 300 300" style="enable-background:new 0 0 300 300;" xml:space="preserve">
<style type="text/css">
	.st0{fill:#C3C4C9;}
</style>
<path class="st0" d="M270.8,150c0.4,69.4-56.2,126.2-126,126.5c-69.9,0.3-126.6-56.1-126.9-126.2C17.7,80.7,74.1,24,144,23.7
	C213.9,23.4,270.4,79.7,270.8,150z M144.3,35c-63.5,0.1-115,51.6-115.1,115.1c-0.1,63.6,51.7,115.3,115.2,115.2
	c63.6-0.1,115.2-51.8,115.1-115.3C259.4,86.5,207.8,35,144.3,35z"/>
<g>
	<path class="st0" d="M114.7,126.1c-1.2,0-2.2,1.1-2.2,2.2v3.8c0,1.2,1.1,2.2,2.2,2.2h46.5c1.2,0,2.2-1.1,2.2-2.2v-3.8
		c0-1.2-1.1-2.2-2.2-2.2H114.7z"/>
	<path class="st0" d="M163.4,153.4v-3.8c0-1.2-1.1-2.2-2.2-2.2h-46.5c-1.2,0-2.2,1.1-2.2,2.2v3.8c0,1.2,1,2.2,2.2,2.2h46.5
		C162.4,155.6,163.4,154.6,163.4,153.4z"/>
	<path class="st0" d="M112.4,170.8v3.8c0,1.2,1.1,2.2,2.2,2.2H149v-6.6c0-0.6,0-1.2,0.1-1.8h-34.5
		C113.5,168.5,112.4,169.6,112.4,170.8z"/>
	<path class="st0" d="M97.3,193v-85.1h8.8v-8.4h-9.3c-4.4,0-8,3.6-8,7.9v85.9c0,4.4,3.5,8,8,8h55.6c-1.2-2.6-2.2-5.2-2.9-8.2H97.3
		V193z"/>
	<path class="st0" d="M178.4,147.4c1.2-0.6,2.6-0.9,3.9-0.9c1.5,0,3,0.3,4.3,1v-40.1c0-4.3-3.4-7.9-7.9-7.9H169v8.2h9.3v39.6H178.4z
		"/>
	<path class="st0" d="M115.4,110.8h44.2c1.8,0,3.2-1.3,3.2-3.2V95c0-1.7-1.4-3.2-3.2-3.2h-7.3c-0.5-7.9-6.9-14.1-14.9-14.1
		s-14.4,6.3-14.9,14.1h-7.3c-1.7,0-3.2,1.3-3.2,3.2v12.6C112.3,109.2,113.8,110.8,115.4,110.8z M137.5,86.9c3.1,0,5.7,2.5,5.7,5.7
		s-2.6,5.7-5.7,5.7s-5.7-2.6-5.7-5.7C131.9,89.4,134.5,86.9,137.5,86.9z"/>
	<path class="st0" d="M205.4,166.4c-14.8-1.5-19.3-9.9-19.5-10.4c-0.6-1.3-2.1-2.2-3.6-2.2s-3,0.9-3.8,2.2
		c-0.2,0.3-4.5,8.7-19.5,10.4c-2.1,0.1-3.6,1.9-3.6,4.1v16.2c0,20.1,23.9,32.7,24.9,33.1c0.6,0.3,1.2,0.5,1.8,0.5s1.2-0.1,1.8-0.5
		c1.1-0.4,24.9-13,24.9-33.1v-16.4C209.2,168.4,207.5,166.6,205.4,166.4z M196,183.6l-14.1,14.1c-0.8,0.8-1.8,1.2-2.9,1.2
		s-2.1-0.5-2.9-1.2l-7.3-7.4c-1.7-1.6-1.7-4.2,0-5.7c1.6-1.7,4.2-1.7,5.7,0l4.5,4.5l11.2-11.2c1.6-1.7,4.2-1.7,5.7,0
		C197.5,179.5,197.5,182,196,183.6z"/>
</g>
</svg>
