<?xml version="1.0" encoding="utf-8"?>
<!-- Generator: Adobe Illustrator 23.0.1, SVG Export Plug-In . SVG Version: 6.00 Build 0)  -->
<svg version="1.1" id="Capa_1" xmlns="http://www.w3.org/2000/svg" xmlns:xlink="http://www.w3.org/1999/xlink" x="0px" y="0px"
	 viewBox="0 0 512 512" style="enable-background:new 0 0 512 512;" xml:space="preserve">
<style type="text/css">
	.st0{fill:#FFFFFF;}
	.st1{fill:none;stroke:#4C5868;stroke-width:10;stroke-linecap:round;stroke-linejoin:round;stroke-dasharray:0.5032,30.1922;}
	.st2{fill:#EE3528;}
</style>
<g>
	<circle class="st0" cx="256" cy="257.1" r="249.1"/>
	<circle class="st1" cx="256" cy="257.1" r="249.1"/>
</g>
<g>
	<g>
		<path class="st2" d="M317.8,249.2c-6,0-10.8-4.8-10.8-10.8s4.8-10.8,10.8-10.8c6,0,10.8,4.8,10.8,10.8S323.8,249.2,317.8,249.2z"
			/>
		<path class="st2" d="M342,240.4c0.4,0.9,0,2-0.9,2.4s-2,0-2.4-0.9c-0.9-2-3.5-5.1-6.7-7.4c-4.2-3.2-9-5-14.2-5
			c-5.2,0-10,1.8-14.2,5c-3.2,2.4-5.8,5.5-6.7,7.4c-0.4,0.9-1.5,1.3-2.4,0.9c-0.9-0.4-1.3-1.5-0.9-2.4c1.2-2.6,4.2-6.1,7.8-8.8
			c4.8-3.6,10.3-5.7,16.4-5.7s11.6,2.1,16.4,5.7C337.8,234.3,340.8,237.8,342,240.4z"/>
	</g>
	<g>
		<path class="st2" d="M331.6,292.8c-2.9,0-5.3,2.4-5.3,5.3v25.7c0,1.2-1,2.4-2.4,2.4H194.8c-1.2,0-2.4-1-2.4-2.4V154.6
			c0-1.2,1-2.4,2.4-2.4h129.4c1.2,0,2.4,1,2.4,2.4V180c0,2.9,2.4,5.3,5.3,5.3c2.9,0,5.3-2.4,5.3-5.3v-25.4c0-7-5.8-12.7-12.7-12.7
			H194.8c-7,0-12.7,5.8-12.7,12.7v20.9h-20.9c-7,0-12.7,5.8-12.7,12.7v169.2c0,7,5.8,12.7,12.7,12.7h129.4c7,0,12.7-5.8,12.7-12.7
			v-20.9h20.9c7,0,12.7-5.8,12.7-12.7v-25.9C336.8,295,334.4,292.8,331.6,292.8z"/>
		<path class="st2" d="M218,275.6h47.8c2.9,0,5.3-2.4,5.3-5.3s-2.4-5.3-5.3-5.3H218c-2.9,0-5.3,2.4-5.3,5.3S215.1,275.6,218,275.6z"
			/>
		<path class="st2" d="M218,306.5h82.8c2.9,0,5.3-2.4,5.3-5.3c0-2.9-2.4-5.3-5.3-5.3H218c-2.9,0-5.3,2.4-5.3,5.3
			C212.8,304.1,215.1,306.5,218,306.5z"/>
		<path class="st2" d="M218,244.4h40.1c2.9,0,5.3-2.4,5.3-5.3c0-2.9-2.4-5.3-5.3-5.3H218c-2.9,0-5.3,2.4-5.3,5.3
			C212.8,242,215.1,244.4,218,244.4z"/>
		<path class="st2" d="M265.8,202.8H218c-2.9,0-5.3,2.4-5.3,5.3s2.4,5.3,5.3,5.3h47.8c2.9,0,5.3-2.4,5.3-5.3
			C271.1,205.2,268.7,202.8,265.8,202.8z"/>
		<path class="st2" d="M305.9,176.7c0-2.9-2.4-5.3-5.3-5.3H218c-2.9,0-5.3,2.4-5.3,5.3s2.4,5.3,5.3,5.3h82.8
			C303.7,182,305.9,179.6,305.9,176.7z"/>
		<path class="st2" d="M370,284.2l-21.4-21.4c5-6.5,8.2-14.9,8.2-23.8c0-21.6-17.5-39.1-39.1-39.1s-39.1,17.5-39.1,39.1
			s17.5,39.1,39.1,39.1c8.9,0,17-3.1,23.8-8.2l21.4,21.4c1,1,2.4,1.4,3.6,1.4c1.4,0,2.6-0.5,3.6-1.4
			C372.1,289.5,372.1,286.1,370,284.2z M289.1,239.1c0-15.8,13-28.8,28.8-28.8s28.8,13,28.8,28.8s-13,28.8-28.8,28.8
			C301.8,267.9,289.1,254.9,289.1,239.1z"/>
	</g>
</g>
</svg>
