<?xml version="1.0" encoding="utf-8"?>
<!-- Generator: Adobe Illustrator 23.0.1, SVG Export Plug-In . SVG Version: 6.00 Build 0)  -->
<svg version="1.1" id="Capa_1" xmlns="http://www.w3.org/2000/svg" xmlns:xlink="http://www.w3.org/1999/xlink" x="0px" y="0px"
	 viewBox="0 0 300 300" style="enable-background:new 0 0 300 300;" xml:space="preserve">
<style type="text/css">
	.st0{fill:#C3C4C9;}
</style>
<path class="st0" d="M270.8,150c0.4,69.4-56.2,126.2-126,126.5c-69.9,0.3-126.6-56.1-126.9-126.2C17.7,80.7,74.1,24,144,23.7
	C213.9,23.4,270.4,79.7,270.8,150z M144.3,35c-63.5,0.1-115,51.6-115.1,115.1c-0.1,63.6,51.7,115.3,115.2,115.2
	c63.6-0.1,115.2-51.8,115.1-115.3C259.4,86.5,207.8,35,144.3,35z"/>
<g>
	<path class="st0" d="M93.7,125.1c0,4.3-6.5,4.3-6.5,0v-4.1c0-15.7,12.8-28.5,28.5-28.5h4.1c4.3,0,4.3,6.5,0,6.5h-4.1
		c-12.2,0-22,9.8-22,22V125.1z M171.3,98.9c-4.5,0-4.5-6.5,0-6.5h4.1c15.7,0,28.5,12.8,28.5,28.5v4.1c0,4.3-6.7,4.3-6.7,0v-4.1
		c0-12.2-9.8-22-21.8-22H171.3z M197.3,176.4c0-4.5,6.7-4.5,6.7,0v4.1c0,15.7-12.8,28.5-28.5,28.5h-4.1c-4.5,0-4.5-6.7,0-6.7h4.1
		c12,0,21.8-9.8,21.8-21.8V176.4z M119.9,202.4c4.3,0,4.3,6.7,0,6.7h-4.1c-15.7,0-28.5-12.8-28.5-28.5v-4.1c0-4.5,6.5-4.5,6.5,0v4.1
		c0,12,9.8,21.8,22,21.8H119.9z M162.8,78.2v34.4h-34.4V78.2H162.8z M73.1,133.5h34.4V168H73.1V133.5z M183.5,133.5h34.6V168h-34.6
		V133.5z M162.8,188.6v34.6h-34.4v-34.6H162.8z"/>
</g>
</svg>
