<?xml version="1.0" encoding="utf-8"?>
<!-- Generator: Adobe Illustrator 23.0.1, SVG Export Plug-In . SVG Version: 6.00 Build 0)  -->
<svg version="1.1" id="Capa_1" xmlns="http://www.w3.org/2000/svg" xmlns:xlink="http://www.w3.org/1999/xlink" x="0px" y="0px"
	 viewBox="0 0 100 100" style="enable-background:new 0 0 100 100;" xml:space="preserve">
<style type="text/css">
	.st0{fill:#F2F2F2;}
</style>
<path class="st0" d="M70.4,58.3V22.2c0-1.7-1.3-3-3-3H20.6c-1.7,0-3,1.3-3,3v36.1c0,1.7,1.3,3,3,3h46.8
	C69.1,61.3,70.4,59.9,70.4,58.3z M64.4,55.3H23.6V25.2h40.8V55.3z M79.4,73.3H32.6c-1.7,0-3-1.3-3-3s1.3-3,3-3h43.8V34.2
	c0-1.7,1.3-3,3-3s3,1.3,3,3v36.1C82.4,71.9,81.1,73.3,79.4,73.3L79.4,73.3z"/>
</svg>
