<?xml version="1.0" encoding="utf-8"?>
<!-- Generator: Adobe Illustrator 23.0.1, SVG Export Plug-In . SVG Version: 6.00 Build 0)  -->
<svg version="1.1" id="Capa_1" xmlns="http://www.w3.org/2000/svg" xmlns:xlink="http://www.w3.org/1999/xlink" x="0px" y="0px"
	 viewBox="0 0 300 300" style="enable-background:new 0 0 300 300;" xml:space="preserve">
<style type="text/css">
	.st0{fill:#FFFFFF;}
	.st1{fill:none;stroke:#4C5868;stroke-width:5.4;stroke-linecap:round;stroke-linejoin:round;stroke-dasharray:0.2717,16.3038;}
	.st2{fill:#E30A14;}
</style>
<g>
	<g>
		<circle class="st0" cx="149.1" cy="149.3" r="134.5"/>
		<circle class="st1" cx="149.1" cy="149.3" r="134.5"/>
	</g>
</g>
<g>
	<g>
		<g>
			<path class="st2" d="M157.8,130.3l-6.5,34.4c-0.2,0.9,0.4,1.7,1.3,1.8c0.1,0,0.2,0,0.3,0c0.7,0,1.4-0.5,1.5-1.3l6.5-34.4
				c0.7-3.2-1.2-6.3-4.3-7.1c-2.9-0.7-5.8,0.9-6.9,3.6v-6.8c0-1.6-0.6-3.1-1.7-4.1c-1.1-1.1-2.6-1.7-4.1-1.7l0,0
				c-3.2,0-5.9,2.7-5.9,5.9v5.4c-0.4-0.6-1-1.1-1.6-1.4c-1.4-0.8-2.9-1-4.5-0.7c-3.1,0.8-5,3.9-4.3,7.1l6.5,34.4
				c0.2,0.9,1,1.4,1.8,1.3c0.9-0.2,1.4-1,1.3-1.8l-6.5-34.4c0,0,0,0,0-0.1c-0.4-1.4,0.5-2.9,2-3.3c0.7-0.2,1.4,0,2.1,0.3
				s1.1,1,1.2,1.7l1.1,4.5c0.3,1,1.2,1.7,2.2,1.6c1-0.1,1.8-1,1.8-2.1v-12.3c0-1.5,1.2-2.7,2.7-2.7l0,0c0.7,0,1.4,0.3,1.9,0.8
				c0.5,0.5,0.8,1.2,0.8,1.9v15.5c0,1.1,0.8,1.9,1.8,2.1c1,0.1,2-0.5,2.2-1.6l1.9-7.7c0.4-1.4,1.8-2.3,3.3-2
				C157.3,127.4,158.2,128.9,157.8,130.3C157.8,130.2,157.8,130.2,157.8,130.3z"/>
			<path class="st2" d="M184.4,144.7c-0.8-0.4-1.7,0-2.1,0.8c-1.7,3.9-4,7.5-6.8,10.8c-7.7,8.9-12.5,19.5-14,30.8h-35.1
				c-1.4-11.4-6.1-22.1-13.7-31c-6.4-7.5-9.9-17-9.9-26.9c0-11,4.4-21.5,12.3-29.3c7.9-7.9,18.4-12.2,29.4-12.1
				c5.6,0,11,1.2,16.1,3.4c0.8,0.4,1.7,0,2.1-0.8c0.4-0.8,0-1.7-0.8-2.1c-5.4-2.3-11.3-3.6-17.3-3.6c-11.9-0.1-23.1,4.5-31.7,13
				s-13.2,19.7-13.2,31.5c0,10.6,3.8,20.9,10.7,28.9c7.2,8.4,11.7,18.5,13,29.4c-1.3,0.7-2.2,2.1-2.2,3.6c0,2.3,1.8,4.1,4.1,4.1
				h37.2c2.3,0,4.1-1.8,4.1-4.1c0-1.5-0.9-2.9-2.1-3.6c1.4-10.8,6-20.8,13.3-29.3c3-3.5,5.4-7.4,7.2-11.6
				C185.5,145.9,185.2,145,184.4,144.7z"/>
			<path class="st2" d="M143.9,216.3c3.5,0,6.3-2.8,6.3-6.3h-12.6C137.6,213.4,140.4,216.3,143.9,216.3z"/>
			<path class="st2" d="M162.8,198.6L162.8,198.6h-0.1c0,0,0,0-0.1,0h-37.3c0,0-0.1,0-0.1,0c-2.2,0.1-4,1.9-4,4.1
				c0,2.3,1.8,4.1,4.1,4.1H136h15.8h10.8c2.3,0,4.1-1.8,4.1-4.1C166.7,200.4,165,198.6,162.8,198.6z"/>
			<path class="st2" d="M194.4,112.9C194.4,112.9,194.3,112.9,194.4,112.9c-0.1,0.1-0.1,0.1,0,0.1c0,0,0.1,0,0.1,0
				S194.5,113,194.4,112.9C194.4,112.9,194.4,112.9,194.4,112.9z"/>
			<path class="st2" d="M194.4,102.8c-2.6,0-5.2,1-7.2,3c-4,4-4,10.4,0,14.4c4,4,10.4,4,14.3,0c4-4,4-10.4,0-14.4
				C199.6,103.8,197,102.8,194.4,102.8z M196.6,115.2c-0.6,0.6-1.4,0.9-2.2,0.9c-0.8,0-1.6-0.3-2.2-0.9c-1.2-1.2-1.2-3.2,0-4.4
				c0.6-0.6,1.4-0.9,2.2-0.9c0.8,0,1.6,0.3,2.2,0.9C197.7,112,197.7,114,196.6,115.2z"/>
			<path class="st2" d="M215.4,109.7c-0.6-0.1-1.1-0.6-1.2-1.2c-0.5-2.3-1.4-4.5-2.7-6.4c-0.3-0.5-0.3-1.2,0-1.7l4.1-6.3l-2.3-2.3
				l-6.3,4c-0.5,0.3-1.2,0.3-1.7,0c-2-1.3-4.1-2.2-6.4-2.7c-0.6-0.1-1-0.6-1.2-1.2l-1.7-7.3h-3.2l-1.7,7.4c-0.1,0.6-0.6,1.1-1.2,1.2
				c-2.3,0.5-4.5,1.4-6.5,2.7c-0.5,0.3-1.2,0.3-1.7,0l-6.3-4.1l-2.3,2.3l4.1,6.3c0.3,0.5,0.3,1.2,0,1.7c-1.3,2-2.2,4.2-2.7,6.5
				c-0.1,0.6-0.6,1.1-1.2,1.2l-7.4,1.7v3.2l7.3,1.7c0.6,0.1,1,0.6,1.2,1.2c0.5,2.3,1.4,4.5,2.7,6.4c0.3,0.5,0.3,1.2,0,1.7L173,132
				l2.3,2.3l6.3-4.1c0.5-0.3,1.2-0.3,1.7,0c2,1.3,4.1,2.2,6.4,2.7c0.6,0.1,1,0.6,1.2,1.2l1.7,7.3h3.2l1.7-7.3
				c0.1-0.6,0.6-1.1,1.2-1.2c2.3-0.5,4.5-1.4,6.4-2.7c0.5-0.3,1.2-0.3,1.7,0l6.3,4.1l2.3-2.3l-4.1-6.3c-0.3-0.5-0.3-1.2,0-1.7
				c1.3-2,2.2-4.1,2.7-6.4c0.1-0.6,0.6-1,1.2-1.2l7.3-1.7v-3.2L215.4,109.7z M203.8,122.4c-2.6,2.6-6,3.9-9.4,3.9
				c-3.4,0-6.8-1.3-9.4-3.9c-5.2-5.2-5.2-13.6,0-18.8c5.2-5.2,13.6-5.2,18.8,0C208.9,108.8,208.9,117.2,203.8,122.4z"/>
		</g>
	</g>
</g>
</svg>
