<?xml version="1.0" encoding="utf-8"?>
<!-- Generator: Adobe Illustrator 23.0.1, SVG Export Plug-In . SVG Version: 6.00 Build 0)  -->
<svg version="1.1" id="Capa_1" xmlns="http://www.w3.org/2000/svg" xmlns:xlink="http://www.w3.org/1999/xlink" x="0px" y="0px"
	 viewBox="0 0 300 300" style="enable-background:new 0 0 300 300;" xml:space="preserve">
<style type="text/css">
	.st0{opacity:0.5;}
	.st1{fill:#E30A14;}
</style>
<g transform="translate(0,-1020.3622)" class="st0">
	<path class="st1" d="M190.4,1066.9c-11,0-20,9-20,20c0,5.5,2.3,10.6,6,14.2l-18.4,30.7c-2.4-0.6-4.9-1-7.5-1
		c-9.6,0-18.1,4.3-23.9,11l-4-3l-4.8,6.4l4.3,3.3c-2.2,4.3-3.5,9.1-3.5,14.3c0,5.1,1.3,9.9,3.5,14.2l-45.5,30.3
		c-3.9-2.8-8.7-4.6-13.9-4.6c-13.2,0-24,10.8-24,24c0,13.2,10.8,24,24,24s24-10.8,24-24c0-5.1-1.6-9.8-4.3-13.6l44.2-29.4
		c5.9,6.8,14.4,11.1,24,11.1c5.1,0,9.9-1.3,14.3-3.5l3.1,4.4l6.5-4.6l-3-4.2c6.7-5.9,11.1-14.4,11.1-24c0-0.2,0-0.3,0-0.5l50.6-6.8
		c2.9,4.3,7.8,7.2,13.3,7.2c8.8,0,16-7.2,16-16c0-8.8-7.2-16-16-16s-16,7.2-16,16c0,0.4,0.1,0.7,0.1,1l-49.3,6.6
		c-2.3-8.5-8-15.5-15.6-19.6l17.6-29.3c2.3,0.9,4.7,1.4,7.3,1.4c11,0,20-9,20-20C210.3,1075.9,201.3,1066.9,190.4,1066.9z
		 M86.5,1098.9c-8.8,0-16,7.2-16,16c0,8.8,7.2,16,16,16c3.2,0,6.1-1,8.6-2.6l3.4,2.6l4.8-6.4l-2.8-2.1c1.2-2.3,2-4.8,2-7.5
		C102.5,1106.1,95.3,1098.9,86.5,1098.9z M109.7,1129.2l-4.8,6.4l6.4,4.8l4.8-6.4L109.7,1129.2z M178.9,1197.4l-6.5,4.6l4.6,6.5
		l6.5-4.6L178.9,1197.4z M188.2,1210.4l-6.5,4.6l4.6,6.5l6.5-4.6L188.2,1210.4z M197.5,1223.4l-6.5,4.6l4.6,6.5l6.5-4.6
		L197.5,1223.4z M218.3,1234.6c-3.9,0-7.5,1.2-10.6,3.1l-1-1.3l-6.5,4.6l1.6,2.3c-2.2,3.2-3.6,7.1-3.6,11.3c0,11,9,20,20,20
		s20-9,20-20S229.3,1234.6,218.3,1234.6z"/>
</g>
</svg>
