<?xml version="1.0" encoding="utf-8"?>
<!-- Generator: Adobe Illustrator 23.0.1, SVG Export Plug-In . SVG Version: 6.00 Build 0)  -->
<svg version="1.1" id="Capa_1" xmlns="http://www.w3.org/2000/svg" xmlns:xlink="http://www.w3.org/1999/xlink" x="0px" y="0px"
	 viewBox="0 0 100 100" style="enable-background:new 0 0 100 100;" xml:space="preserve">
<style type="text/css">
	.st0{fill:#F2F2F2;}
</style>
<g>
	<g>
		<g>
			<g>
				<path class="st0" d="M72.1,61.9c1.3,0,2.4-1.1,2.4-2.4V29c0-5.3-4.3-9.7-9.7-9.7H35.1c-5.3,0-9.7,4.3-9.7,9.7v42.6
					c0,5.3,4.3,9.7,9.7,9.7h29.7c5.3,0,9.7-4.3,9.7-9.7c0-1.3-1.1-2.4-2.4-2.4c-1.3,0-2.4,1.1-2.4,2.4c0,2.7-2.2,4.8-4.8,4.8H35.1
					c-2.7,0-4.8-2.2-4.8-4.8V29c0-2.7,2.2-4.8,4.8-4.8h29.7c2.7,0,4.8,2.2,4.8,4.8v30.5C69.7,60.8,70.8,61.9,72.1,61.9z"/>
			</g>
		</g>
		<g>
			<g>
				<path class="st0" d="M62.4,33.8H37.5c-1.3,0-2.4,1.1-2.4,2.4s1.1,2.4,2.4,2.4h24.9c1.3,0,2.4-1.1,2.4-2.4S63.8,33.8,62.4,33.8z"
					/>
			</g>
		</g>
		<g>
			<g>
				<path class="st0" d="M62.4,43.5H37.5c-1.3,0-2.4,1.1-2.4,2.4s1.1,2.4,2.4,2.4h24.9c1.3,0,2.4-1.1,2.4-2.4S63.8,43.5,62.4,43.5z"
					/>
			</g>
		</g>
		<g>
			<g>
				<path class="st0" d="M52.7,53.2H37.5c-1.3,0-2.4,1.1-2.4,2.4c0,1.3,1.1,2.4,2.4,2.4h15.1c1.3,0,2.4-1.1,2.4-2.4
					C55.1,54.3,54,53.2,52.7,53.2z"/>
			</g>
		</g>
	</g>
</g>
</svg>
