<?xml version="1.0" encoding="utf-8"?>
<!-- Generator: Adobe Illustrator 23.0.1, SVG Export Plug-In . SVG Version: 6.00 Build 0)  -->
<svg version="1.1" id="Capa_1" xmlns="http://www.w3.org/2000/svg" xmlns:xlink="http://www.w3.org/1999/xlink" x="0px" y="0px"
	 viewBox="0 0 300 300" style="enable-background:new 0 0 300 300;" xml:space="preserve">
<style type="text/css">
	.st0{fill:#FFFFFF;}
	.st1{fill:none;stroke:#4C5868;stroke-width:5.4;stroke-linecap:round;stroke-linejoin:round;stroke-dasharray:0.2717,16.3038;}
	.st2{fill:none;stroke:#E30A14;stroke-width:4.32;stroke-miterlimit:10;}
	.st3{fill:#E30A14;}
	.st4{fill-rule:evenodd;clip-rule:evenodd;fill:#E30A14;}
</style>
<g>
	<g>
		<circle class="st0" cx="149.1" cy="149.3" r="134.5"/>
		<circle class="st1" cx="149.1" cy="149.3" r="134.5"/>
	</g>
	<g>
		<title>membertype-manufacturing</title>
		<desc>Created with Sketch.</desc>
		<g id="membertype-manufacturing_1_">
			<g transform="translate(14.000000, 18.000000)">
				<path id="Shape_1_" class="st2" d="M57.3,174.8h155.5 M57.3,194.3h155.5"/>
				<path class="st3" d="M91.9,103.5v6.9c8.6,2.7,8.6,12.3,8.6,12.3v39.1H74.6v-39.1c0,0,0-9.6,8.6-12.3v-6.9H91.9z M96.2,99.2H78.9
					v8.4c-6.7,3.7-8.6,11-8.6,15.1v43.4h34.6v-43.4c0-4.2-1.9-11.5-8.6-15.1L96.2,99.2L96.2,99.2z M139.4,103.5v6.9
					c8.6,2.7,8.6,12.3,8.6,12.3v39.1h-25.9v-39.1c0,0,0-9.6,8.6-12.3v-6.9H139.4z M143.7,99.2h-17.3v8.4c-6.7,3.7-8.6,11-8.6,15.1
					v43.4h34.6v-43.4c0-4.2-1.9-11.5-8.6-15.1V99.2z"/>
				<path class="st2" d="M128.6,58.2v15.1 M139.4,58.2v15.1 M128.6,84.1v13 M139.4,84.1v13"/>
				<circle id="Oval_1_" class="st4" cx="129.5" cy="78.2" r="2.4"/>
				<circle class="st4" cx="139.5" cy="78.2" r="2.4"/>
				<path class="st2" d="M128.7,139.1l11.5-11.5 M128.7,149.3l11.5-11.5"/>
				<path class="st3" d="M184.8,103.5v6.9c8.6,2.7,8.6,12.3,8.6,12.3v39.1h-25.9v-39.1c0,0,0-9.6,8.6-12.3v-6.9H184.8z M189.1,99.2
					h-17.3v8.4c-6.7,3.7-8.6,11-8.6,15.1v43.4h34.6v-43.4c0-4.2-1.9-11.5-8.6-15.1L189.1,99.2L189.1,99.2z"/>
				<path class="st2" d="M169.7,99.2h21.6 M174.8,139.1l11.5-11.5 M174.8,149.3l11.5-11.5 M167.5,116.5h28.1"/>
			</g>
		</g>
	</g>
</g>
</svg>
