<?xml version="1.0" encoding="utf-8"?>
<!-- Generator: Adobe Illustrator 23.0.1, SVG Export Plug-In . SVG Version: 6.00 Build 0)  -->
<svg version="1.1" id="Capa_1" xmlns="http://www.w3.org/2000/svg" xmlns:xlink="http://www.w3.org/1999/xlink" x="0px" y="0px"
	 viewBox="0 0 300 300" style="enable-background:new 0 0 300 300;" xml:space="preserve">
<style type="text/css">
	.st0{fill:#FFFFFF;}
	.st1{fill:none;stroke:#4C5868;stroke-width:5.4;stroke-linecap:round;stroke-linejoin:round;stroke-dasharray:0.2717,16.3038;}
	.st2{fill:#E30A14;}
	.st3{fill-rule:evenodd;clip-rule:evenodd;fill:#E30A14;}
</style>
<g>
	<g>
		<circle class="st0" cx="149.1" cy="149.3" r="134.5"/>
		<circle class="st1" cx="149.1" cy="149.3" r="134.5"/>
	</g>
</g>
<g>
	<g>
		<g transform="translate(9 14)">
			<path class="st2" d="M118.1,179.9h-3.6v-9h3.6V179.9z M118.1,160.1h-3.6v-9h3.6V160.1z M118.1,140.3h-3.6v-9h3.6V140.3z
				 M118.1,122.3h-3.6v-9h3.6V122.3z"/>
			<g transform="translate(37.184)">
				<path class="st3" d="M140.2,174.5h-27.3c0,0-2.1-0.1-1.3-1.2v-11.1c-0.7-1.1,0.2-2.1,1.3-2.1c1.1,0,2.1,0.9,2.3,2.1v8.7h23.4
					v-8.7c-0.4-1.1,0.5-2.1,1.6-2.1c1.1,0,2.1,0.9,2,2.1v11.1C142.2,174.5,140.2,174.5,140.2,174.5z"/>
				<path class="st3" d="M140.2,88c-1.1,0-2.1-0.9-1.6-1.9v-9h-23.4v9c-0.2,1.1-1.1,1.9-2.3,1.9c-1.1,0-2.1-0.9-1.3-1.9v-9v-1.5
					c-0.7-1.1,0.2-1.9,1.3-1.9h27.3c1.1,0,2.1,0.9,2,1.9v10.5C142.2,87.1,141.3,88,140.2,88z"/>
				<path class="st2" d="M149.1,163.7h-46.3c-1.1,0-2.1-0.9-2.1-2.1V86.6c0-1.1,0.9-2.1,2.1-2.1h46.3c1.1,0,2.1,0.9,2.1,2.1v75.1
					C151.1,162.8,150.2,163.7,149.1,163.7z M105.2,160.1h42.3V89h-42.3L105.2,160.1z"/>
				
					<rect x="95.9" y="103" transform="matrix(0.7071 -0.7071 0.7071 0.7071 -38.7372 116.534)" class="st3" width="50.8" height="4.1"/>
				
					<rect x="93.9" y="123" transform="matrix(0.7071 -0.7071 0.7071 0.7071 -51.4879 125.7308)" class="st3" width="64.2" height="4.1"/>
				
					<rect x="107.7" y="142.4" transform="matrix(0.7071 -0.7071 0.7071 0.7071 -63.3903 135.8046)" class="st3" width="49.1" height="4.1"/>
			</g>
			<path class="st3" d="M188.2,129.3c3.8-3,8.5-6.2,13.6-5.5c2.3,0.1,4.4,1.3,5.7,3.2s1.7,4.3,1,6.5c-1.4,5.1-5.4,9-7.6,13.7
				c-2.1,4.4-2.8,10,0.9,13.8c3.5,3.6,9.2,3.6,13.8,3.1c2.6-0.2,2.6-4.4,0-4.1c-3.7,0.3-9.9,0.9-11.8-3.2c-2.3-5,2.4-10.6,5-14.6
				c2.9-4.3,5.5-10,3.5-15.2c-1.9-4.3-6-7.2-10.7-7.4c-6.2-0.6-11.7,3.1-16.3,6.8C183.3,128,186.2,130.9,188.2,129.3L188.2,129.3z"
				/>
			<path class="st3" d="M120,199.7h-6.6c-1.8,0-3.4-0.9-4.3-2.4c-2.5-3.5-6.6-5.4-10.9-5.2c-3.1-0.1-6.1,0.9-8.5,2.7
				c-1.2,0.9-2.6,1.2-4,0.9c-1.4-0.3-2.7-1.2-3.4-2.4l-9.9-17.1c-0.8-1.3-0.9-2.9-0.4-4.3c0.5-1.4,1.6-2.5,3.1-3
				c6.8-2.4,11.6-10.7,11.6-20.1c0-9.1-4.4-17.1-11-19.8c-1.3-0.6-2.4-1.7-2.8-3s-0.3-2.9,0.4-4.1l7.8-13.5c1.3-2.2,3.9-3.1,6.2-2.2
				c1.4,0.6,2.9,0.8,4.5,0.8c5.7,0,10.4-3.8,10.4-8.5c0-2.8,2.3-5,5-5h19.8c2.8,0,5,2.3,5,5c0,4.7,4.7,8.5,10.4,8.5v3.7
				c-8.1,0-14.6-5.7-14.7-12.7c0-0.5-0.4-1-0.9-1c-3.6,0-16.4,0-20,0c-0.5,0-0.9,0.4-0.9,1c0,7-6.6,12.7-14.7,12.7
				c-2.1,0-4.1-0.4-6-1.1c-0.4-0.2-1,0-1.2,0.4l-7.9,13.6c-0.1,0.2-0.2,0.5-0.1,0.8c0.1,0.3,0.3,0.5,0.5,0.6
				c8.2,3.4,13.6,13,13.6,23.8c0,11.2-6,21.2-14.5,24.2c-0.3,0.1-0.5,0.3-0.6,0.6c-0.1,0.3-0.1,0.6,0.1,0.8l10,17.3
				c0.1,0.2,0.4,0.4,0.6,0.5c0.3,0.1,0.5,0,0.8-0.2c3.2-2.4,7.1-3.6,11.1-3.6c6.2,0,11.8,2.8,14.5,7.2c0.2,0.3,0.5,0.5,0.8,0.5
				l6.9,0c0,0,0.6-0.2,0.8-0.4l1.4-1.8c3.4-3.6,8.2-5.5,13.1-5.4c4-0.1,7.9,1.2,11.1,3.5c0.2,0.2,0.5,0.2,0.8,0.2
				c0.3-0.1,0.5-0.2,0.6-0.5l9.9-17.2c0.1-0.2,0.2-0.5,0.1-0.8l3.9-1.4c0.5,1.4,0.4,3-0.4,4.3l-9.9,17.2c-0.7,1.3-2,2.1-3.4,2.4
				c-1.4,0.3-2.9-0.1-4.1-0.9c-2.5-1.8-5.5-2.8-8.6-2.7c-3.7-0.1-7.3,1.3-10,4l-1.2,1.6C123.1,199.4,120,199.7,120,199.7z"/>
		</g>
	</g>
</g>
</svg>
