<?xml version="1.0" encoding="utf-8"?>
<!-- Generator: Adobe Illustrator 23.0.1, SVG Export Plug-In . SVG Version: 6.00 Build 0)  -->
<svg version="1.1" id="Capa_1" xmlns="http://www.w3.org/2000/svg" xmlns:xlink="http://www.w3.org/1999/xlink" x="0px" y="0px"
	 viewBox="0 0 300 300" style="enable-background:new 0 0 300 300;" xml:space="preserve">
<style type="text/css">
	.st0{opacity:0.5;}
	.st1{fill:#E30A14;}
	.st2{fill:none;stroke:#E30A14;stroke-width:6.4167;stroke-miterlimit:10;}
	.st3{fill:none;stroke:#E30A14;stroke-width:6.48;stroke-miterlimit:10;}
</style>
<g class="st0">
	<circle class="st1" cx="69.1" cy="128.1" r="21.6"/>
	<circle class="st1" cx="233.3" cy="128.1" r="21.6"/>
	<polygon class="st1" points="69.1,149.7 34.4,149.7 34.4,210.4 47.5,210.4 47.5,276.1 90.7,276.1 90.7,192 131.7,192 131.7,178.3 
		108.3,178.3 108.3,149.7 	"/>
	<polygon class="st1" points="173.6,120.3 193.2,120.3 193.2,149.7 271.3,149.7 271.3,210.8 254.9,210.8 254.9,276.1 208.6,276.1 
		208.6,172 173.6,172 	"/>
	<rect x="158.6" y="189" class="st1" width="11.1" height="11.1"/>
	<rect x="175.3" y="189" class="st1" width="11.1" height="11.1"/>
	<rect x="191" y="189" class="st1" width="11.1" height="11.1"/>
	<line class="st2" x1="83.1" y1="210.8" x2="210.6" y2="210.8"/>
	<polyline class="st2" points="34.4,210.8 34.4,35 271.3,35 271.3,210.8 	"/>
	<line class="st2" x1="34.4" y1="55.6" x2="271.3" y2="55.6"/>
	<circle class="st2" cx="71.8" cy="80" r="10.5"/>
	<circle class="st2" cx="111" cy="112.4" r="10.5"/>
	<circle class="st2" cx="150.1" cy="83.8" r="10.5"/>
	<circle class="st2" cx="191.3" cy="96.4" r="10.5"/>
	<circle class="st2" cx="233.3" cy="77.8" r="10.5"/>
	<line class="st3" x1="133.9" y1="126.3" x2="158.6" y2="126.3"/>
	<line class="st3" x1="123.6" y1="143.1" x2="158.6" y2="143.1"/>
	<line class="st3" x1="123.6" y1="163.4" x2="158.6" y2="163.4"/>
	<line class="st3" x1="78.7" y1="87.8" x2="100.5" y2="106.5"/>
	<line class="st3" x1="119.6" y1="106.5" x2="141.1" y2="90.4"/>
	<line class="st3" x1="160.6" y1="83.8" x2="180.8" y2="92.4"/>
	<line class="st3" x1="200.9" y1="92.4" x2="222.4" y2="83.5"/>
</g>
</svg>
