<?xml version="1.0" encoding="utf-8"?>
<!-- Generator: Adobe Illustrator 23.0.1, SVG Export Plug-In . SVG Version: 6.00 Build 0)  -->
<svg version="1.1" id="Capa_1" xmlns="http://www.w3.org/2000/svg" xmlns:xlink="http://www.w3.org/1999/xlink" x="0px" y="0px"
	 viewBox="0 0 353 83" style="enable-background:new 0 0 353 83;" xml:space="preserve">
<style type="text/css">
	.st0{fill:#BF0909;}
	.st1{fill:#FFFFFF;}
</style>
<g>
	<g>
		<path class="st0" d="M98.7,28.3h12.1c5.1,0,9.4,3,9.4,9.5c0,5.9-4.4,9.3-9.4,9.3h-8v7.7h-4.1V28.3z M102.7,31.9v11.7h7.4
			c3.2,0,5.9-2.2,5.9-5.8c0-3.9-2.6-5.9-5.9-5.9H102.7z"/>
		<path class="st0" d="M125.2,34.4h4.1v4c1.2-2.6,3-4.4,5.9-4.4c1.8,0,3.2,0.6,4.3,1.5l-1.6,3.4c-0.9-0.6-2.1-1.1-3.4-1.1
			c-2.7,0-4.4,2.1-5.2,4.6v12.4h-4.1V34.4z"/>
		<path class="st0" d="M152.5,33.9c6.4,0,10.9,4.6,10.9,10.8c0,6.1-4.5,10.7-10.9,10.7c-6.3,0-10.9-4.6-10.9-10.7
			C141.6,38.5,146.2,33.9,152.5,33.9z M152.5,51.6c4.2,0,7-3,7-6.9c0-4-2.8-7.1-7-7.1c-4.1,0-6.9,3-6.9,7.1
			C145.6,48.6,148.4,51.6,152.5,51.6z"/>
		<path class="st0" d="M177.6,34.1c2.8,0,5,1.2,6.5,2.7v-9.6h4.1v27.7h-4.1v-2.4c-1.4,1.6-3.6,2.8-6.5,2.8c-5.9,0-9.8-4.4-9.8-10.6
			C167.8,38.5,171.7,34.1,177.6,34.1z M178.6,51.7c2.3,0,4.3-1.2,5.5-2.3V40c-1.2-1.2-3.2-2.4-5.5-2.4c-4.1,0-6.7,2.8-6.7,7
			C171.9,48.8,174.6,51.7,178.6,51.7z"/>
		<path class="st0" d="M210.2,54.8v-3.2c-1.5,2.1-4,3.5-7.3,3.5c-5.5,0-8-3.9-8-9V34.4h4.1v11.1c0,3.5,1.6,5.9,5.3,5.9
			c3.2,0,5.2-2.2,5.9-4.4V34.4h4.1v20.4H210.2z"/>
		<path class="st0" d="M230.8,33.9c3.1,0,5.8,1.1,7.7,2.8l-2,3c-1.2-1.2-3-2.1-5.5-2.1c-4.1,0-6.9,2.9-6.9,7c0,4.1,2.8,7,6.9,7
			c2.5,0,4.3-0.9,5.5-2.1l2,3c-1.9,1.7-4.6,2.8-7.7,2.8c-6.4,0-10.9-4.6-10.9-10.8S224.4,33.9,230.8,33.9z"/>
		<path class="st0" d="M252.9,33.9c3.1,0,5.8,1.1,7.7,2.8l-2,3c-1.2-1.2-3-2.1-5.5-2.1c-4.1,0-6.9,2.9-6.9,7c0,4.1,2.8,7,6.9,7
			c2.5,0,4.3-0.9,5.5-2.1l2,3c-1.9,1.7-4.6,2.8-7.7,2.8c-6.4,0-10.9-4.6-10.9-10.8S246.5,33.9,252.9,33.9z"/>
		<path class="st0" d="M268,26.4c1.4,0,2.4,0.6,2.4,2.2c0,1.6-1,2.2-2.4,2.2c-1.5,0-2.5-0.6-2.5-2.2C265.5,27,266.5,26.4,268,26.4z
			 M265.9,34.4h4.1v20.4h-4.1V34.4z"/>
		<path class="st0" d="M286.5,33.9c6.4,0,10.9,4.6,10.9,10.8c0,6.1-4.5,10.7-10.9,10.7c-6.3,0-10.9-4.6-10.9-10.7
			C275.7,38.5,280.2,33.9,286.5,33.9z M286.5,51.6c4.2,0,7-3,7-6.9c0-4-2.8-7.1-7-7.1c-4.1,0-6.9,3-6.9,7.1
			C279.6,48.6,282.4,51.6,286.5,51.6z M288.1,31.6h-3.5l3.2-5.7h4.1L288.1,31.6z"/>
		<path class="st0" d="M307.2,34.4v3.2c1.5-2.1,4-3.5,7.3-3.5c5.5,0,8,3.9,8,9v11.7h-4.1V43.7c0-3.5-1.6-5.9-5.2-5.9
			c-3.2,0-5.3,2.2-6,4.4v12.6h-4.1V34.4H307.2z"/>
	</g>
	<g>
		<path class="st1" d="M24.9,28.5H29V55h-4.1V28.5z"/>
		<path class="st1" d="M49.4,32.1V55h-4.1V32.1h-9.5v-3.6h22.6v3.6H49.4z"/>
		<path class="st1" d="M65.2,28.5h12.1c5.1,0,9.4,3,9.4,9.5c0,5.9-4.4,9.3-9.4,9.3h-8V55h-4.1V28.5z M69.3,32v11.7h7.4
			c3.2,0,5.9-2.2,5.9-5.8c0-3.9-2.6-5.9-5.9-5.9H69.3z"/>
	</g>
</g>
</svg>
