<?xml version="1.0" encoding="utf-8"?>
<!-- Generator: Adobe Illustrator 23.0.1, SVG Export Plug-In . SVG Version: 6.00 Build 0)  -->
<svg version="1.1" id="Capa_1" xmlns="http://www.w3.org/2000/svg" xmlns:xlink="http://www.w3.org/1999/xlink" x="0px" y="0px"
	 viewBox="0 0 405 90" style="enable-background:new 0 0 405 90;" xml:space="preserve">
<style type="text/css">
	.st0{fill:#BF0909;}
	.st1{fill:#FFFFFF;}
</style>
<g>
	<g>
		<path class="st0" d="M108.9,30.2H124c6.3,0,11.8,3.8,11.8,11.9c0,7.3-5.5,11.7-11.8,11.7h-10v9.7h-5.1V30.2z M114,34.7v14.6h9.2
			c4,0,7.3-2.7,7.3-7.2c0-4.9-3.3-7.4-7.3-7.4H114z"/>
		<path class="st0" d="M142.1,37.9h5.1v5c1.6-3.3,3.8-5.5,7.3-5.5c2.2,0,4,0.7,5.4,1.9l-2,4.2c-1.1-0.8-2.6-1.4-4.2-1.4
			c-3.3,0-5.6,2.6-6.5,5.8v15.5h-5.1V37.9z"/>
		<path class="st0" d="M176.2,37.2c8,0,13.7,5.8,13.7,13.5s-5.7,13.4-13.7,13.4c-7.9,0-13.6-5.7-13.6-13.4
			C162.6,43,168.3,37.2,176.2,37.2z M176.2,59.4c5.2,0,8.8-3.8,8.8-8.7c0-5-3.6-8.8-8.8-8.8s-8.7,3.8-8.7,8.8
			C167.5,55.6,171.1,59.4,176.2,59.4z"/>
		<path class="st0" d="M207.5,37.4c3.5,0,6.3,1.5,8.1,3.3v-12h5.1v34.6h-5.1v-3c-1.8,2-4.5,3.5-8.1,3.5c-7.4,0-12.2-5.6-12.2-13.3
			C195.3,42.9,200.2,37.4,207.5,37.4z M208.9,59.4c2.9,0,5.4-1.5,6.8-2.9V44.9c-1.5-1.5-4-3-6.8-3c-5.1,0-8.4,3.6-8.4,8.7
			C200.5,55.8,203.8,59.4,208.9,59.4z"/>
		<path class="st0" d="M248.3,63.4v-4c-1.9,2.7-5,4.4-9.1,4.4c-6.9,0-10-4.9-10-11.3V37.9h5.1v13.9c0,4.3,2,7.4,6.6,7.4
			c4,0,6.5-2.7,7.4-5.5V37.9h5.1v25.5H248.3z"/>
		<path class="st0" d="M274.1,37.2c3.9,0,7.2,1.4,9.6,3.5l-2.5,3.8c-1.6-1.5-3.8-2.6-6.9-2.6c-5.2,0-8.7,3.7-8.7,8.7
			c0,5.1,3.5,8.8,8.7,8.8c3.1,0,5.3-1.1,6.9-2.6l2.5,3.8c-2.4,2.1-5.7,3.5-9.6,3.5c-8,0-13.7-5.8-13.7-13.5S266,37.2,274.1,37.2z"/>
		<path class="st0" d="M301.8,37.2c3.9,0,7.2,1.4,9.6,3.5l-2.5,3.8c-1.6-1.5-3.8-2.6-6.9-2.6c-5.2,0-8.7,3.7-8.7,8.7
			c0,5.1,3.5,8.8,8.7,8.8c3.1,0,5.3-1.1,6.9-2.6l2.5,3.8c-2.4,2.1-5.7,3.5-9.6,3.5c-8,0-13.7-5.8-13.7-13.5S293.7,37.2,301.8,37.2z"
			/>
		<path class="st0" d="M320.6,27.9c1.8,0,3,0.7,3,2.7s-1.2,2.8-3,2.8c-1.9,0-3.1-0.7-3.1-2.8C317.5,28.6,318.7,27.9,320.6,27.9z
			 M318,37.9h5.1v25.5H318V37.9z"/>
		<path class="st0" d="M343.8,37.2c8,0,13.7,5.8,13.7,13.5s-5.7,13.4-13.7,13.4c-7.9,0-13.6-5.7-13.6-13.4
			C330.2,43,335.9,37.2,343.8,37.2z M343.8,59.4c5.2,0,8.8-3.8,8.8-8.7c0-5-3.6-8.8-8.8-8.8c-5.2,0-8.7,3.8-8.7,8.8
			C335.1,55.6,338.6,59.4,343.8,59.4z M345.8,34.3h-4.4l4-7.1h5.1L345.8,34.3z"/>
		<path class="st0" d="M369.5,37.9v4c1.9-2.7,5-4.4,9.1-4.4c6.9,0,10,4.9,10,11.3v14.7h-5.1v-14c0-4.3-2-7.4-6.5-7.4
			c-4,0-6.6,2.7-7.5,5.5v15.8h-5.1V37.9H369.5z"/>
	</g>
	<g>
		<path class="st1" d="M16.7,30.4h5.1v33.2h-5.1V30.4z"/>
		<path class="st1" d="M47.3,34.9v28.7h-5.1V34.9H30.3v-4.5h28.3v4.5H47.3z"/>
		<path class="st1" d="M67.1,30.4h15.1c6.3,0,11.8,3.8,11.8,11.9C94,49.6,88.5,54,82.2,54h-10v9.7h-5.1V30.4z M72.2,34.9v14.6h9.2
			c4,0,7.3-2.7,7.3-7.2c0-4.9-3.3-7.4-7.3-7.4C81.4,34.9,72.2,34.9,72.2,34.9z"/>
	</g>
</g>
</svg>
