<?xml version="1.0" encoding="utf-8"?>
<!-- Generator: Adobe Illustrator 23.0.1, SVG Export Plug-In . SVG Version: 6.00 Build 0)  -->
<svg version="1.1" id="Capa_1" xmlns="http://www.w3.org/2000/svg" xmlns:xlink="http://www.w3.org/1999/xlink" x="0px" y="0px"
	 viewBox="0 0 198 100" style="enable-background:new 0 0 198 100;" xml:space="preserve">
<style type="text/css">
	.st0{clip-path:url(#SVGID_2_);}
	.st1{clip-path:url(#SVGID_4_);fill:#FFCC38;}
	.st2{clip-path:url(#SVGID_6_);}
	.st3{clip-path:url(#SVGID_8_);fill:#FFCC38;}
	.st4{clip-path:url(#SVGID_10_);}
	.st5{clip-path:url(#SVGID_12_);fill:#FFCC38;}
	.st6{clip-path:url(#SVGID_14_);}
	.st7{clip-path:url(#SVGID_16_);fill:#FFCC38;}
	.st8{clip-path:url(#SVGID_18_);}
	.st9{clip-path:url(#SVGID_20_);fill:#FFCC38;}
	.st10{clip-path:url(#SVGID_22_);}
	.st11{clip-path:url(#SVGID_24_);fill:#FFCC38;}
	.st12{clip-path:url(#SVGID_26_);}
	.st13{clip-path:url(#SVGID_28_);fill:#FFCC38;}
	.st14{clip-path:url(#SVGID_30_);}
	.st15{clip-path:url(#SVGID_32_);fill:#FFCC38;}
	.st16{clip-path:url(#SVGID_34_);}
	.st17{clip-path:url(#SVGID_36_);fill:#FFCC38;}
	.st18{clip-path:url(#SVGID_38_);}
	.st19{clip-path:url(#SVGID_40_);fill:#FFFFFF;}
	.st20{clip-path:url(#SVGID_42_);}
	.st21{clip-path:url(#SVGID_44_);fill:#FFFFFF;}
	.st22{clip-path:url(#SVGID_46_);}
	.st23{clip-path:url(#SVGID_48_);fill:#FFFFFF;}
	.st24{clip-path:url(#SVGID_50_);}
	.st25{clip-path:url(#SVGID_52_);fill:#FFFFFF;}
	.st26{clip-path:url(#SVGID_54_);}
	.st27{clip-path:url(#SVGID_56_);fill:#FFFFFF;}
	.st28{clip-path:url(#SVGID_58_);}
	.st29{clip-path:url(#SVGID_60_);fill:#FFFFFF;}
	.st30{clip-path:url(#SVGID_62_);}
	.st31{clip-path:url(#SVGID_64_);fill:#FFFFFF;}
	.st32{clip-path:url(#SVGID_66_);}
	.st33{clip-path:url(#SVGID_68_);fill:#FFFFFF;}
	.st34{clip-path:url(#SVGID_70_);}
	.st35{clip-path:url(#SVGID_72_);fill:#FFFFFF;}
</style>
<g>
	<defs>
		<path id="SVGID_1_" d="M15.9,52.2c0,4.6,1.7,8.8,4.4,12l-1.5,1.5c-3.1-3.6-5-8.4-5-13.5c0-5.2,1.9-9.9,5-13.5l1.5,1.5
			C17.6,43.4,15.9,47.6,15.9,52.2z"/>
	</defs>
	<clipPath id="SVGID_2_">
		<use xlink:href="#SVGID_1_"  style="overflow:visible;"/>
	</clipPath>
	<g class="st0">
		<defs>
			<rect id="SVGID_3_" x="6.4" y="24.9" width="178.9" height="55.1"/>
		</defs>
		<clipPath id="SVGID_4_">
			<use xlink:href="#SVGID_3_"  style="overflow:visible;"/>
		</clipPath>
		<rect x="12.4" y="37.3" class="st1" width="9.2" height="29.8"/>
	</g>
</g>
<g>
	<defs>
		<path id="SVGID_5_" d="M34.5,33.6c4.6,0,8.8,1.7,12,4.4l1.5-1.5c-3.6-3.1-8.4-5-13.5-5s-9.9,1.9-13.5,5l1.5,1.5
			C25.8,35.2,30,33.6,34.5,33.6"/>
	</defs>
	<clipPath id="SVGID_6_">
		<use xlink:href="#SVGID_5_"  style="overflow:visible;"/>
	</clipPath>
	<g class="st2">
		<defs>
			<rect id="SVGID_7_" x="6.4" y="24.9" width="178.9" height="55.1"/>
		</defs>
		<clipPath id="SVGID_8_">
			<use xlink:href="#SVGID_7_"  style="overflow:visible;"/>
		</clipPath>
		<rect x="19.7" y="30.1" class="st3" width="29.8" height="9.2"/>
	</g>
</g>
<g>
	<defs>
		<path id="SVGID_9_" d="M53.2,52.2c0,4.6-1.7,8.8-4.4,12l1.5,1.5c3.1-3.6,5-8.4,5-13.5c0-5.2-1.9-9.9-5-13.5l-1.5,1.5
			C51.5,43.4,53.2,47.6,53.2,52.2"/>
	</defs>
	<clipPath id="SVGID_10_">
		<use xlink:href="#SVGID_9_"  style="overflow:visible;"/>
	</clipPath>
	<g class="st4">
		<defs>
			<rect id="SVGID_11_" x="6.4" y="24.9" width="178.9" height="55.1"/>
		</defs>
		<clipPath id="SVGID_12_">
			<use xlink:href="#SVGID_11_"  style="overflow:visible;"/>
		</clipPath>
		<rect x="47.4" y="37.3" class="st5" width="9.2" height="29.8"/>
	</g>
</g>
<g>
	<defs>
		<path id="SVGID_13_" d="M34.5,70.9c-4.6,0-8.8-1.7-12-4.4L21,67.9c3.6,3.1,8.4,5,13.5,5s9.9-1.9,13.5-5l-1.5-1.5
			C43.3,69.2,39.1,70.9,34.5,70.9"/>
	</defs>
	<clipPath id="SVGID_14_">
		<use xlink:href="#SVGID_13_"  style="overflow:visible;"/>
	</clipPath>
	<g class="st6">
		<defs>
			<rect id="SVGID_15_" x="6.4" y="24.9" width="178.9" height="55.1"/>
		</defs>
		<clipPath id="SVGID_16_">
			<use xlink:href="#SVGID_15_"  style="overflow:visible;"/>
		</clipPath>
		<rect x="19.7" y="65.1" class="st7" width="29.8" height="9.2"/>
	</g>
</g>
<g>
	<defs>
		<path id="SVGID_17_" d="M43.6,39.6l-1,1.8c3.3,2.5,5.4,6.4,5.4,10.8c0,4.4-2.1,8.4-5.4,10.8l1,1.8c3.9-2.8,6.5-7.4,6.5-12.6
			C50.1,47,47.5,42.4,43.6,39.6"/>
	</defs>
	<clipPath id="SVGID_18_">
		<use xlink:href="#SVGID_17_"  style="overflow:visible;"/>
	</clipPath>
	<g class="st8">
		<defs>
			<rect id="SVGID_19_" x="6.4" y="24.9" width="178.9" height="55.1"/>
		</defs>
		<clipPath id="SVGID_20_">
			<use xlink:href="#SVGID_19_"  style="overflow:visible;"/>
		</clipPath>
		<rect x="41.2" y="38.2" class="st9" width="10.3" height="28"/>
	</g>
</g>
<g>
	<defs>
		<path id="SVGID_21_" d="M34.5,65.7c-6.9,0-12.6-5.2-13.4-11.9h-2.1c0.8,7.9,7.4,14,15.5,14c2.3,0,4.4-0.5,6.4-1.4l-1-1.8
			C38.3,65.3,36.4,65.7,34.5,65.7"/>
	</defs>
	<clipPath id="SVGID_22_">
		<use xlink:href="#SVGID_21_"  style="overflow:visible;"/>
	</clipPath>
	<g class="st10">
		<defs>
			<rect id="SVGID_23_" x="6.4" y="24.9" width="178.9" height="55.1"/>
		</defs>
		<clipPath id="SVGID_24_">
			<use xlink:href="#SVGID_23_"  style="overflow:visible;"/>
		</clipPath>
		<rect x="17.7" y="52.4" class="st11" width="24.6" height="16.7"/>
	</g>
</g>
<g>
	<defs>
		<path id="SVGID_25_" d="M34.5,38.8c1.9,0,3.7,0.4,5.3,1.1l1-1.8c-1.9-0.9-4.1-1.4-6.4-1.4c-8.1,0-14.7,6.1-15.5,14h2.1
			C21.9,44,27.6,38.8,34.5,38.8"/>
	</defs>
	<clipPath id="SVGID_26_">
		<use xlink:href="#SVGID_25_"  style="overflow:visible;"/>
	</clipPath>
	<g class="st12">
		<defs>
			<rect id="SVGID_27_" x="6.4" y="24.9" width="178.9" height="55.1"/>
		</defs>
		<clipPath id="SVGID_28_">
			<use xlink:href="#SVGID_27_"  style="overflow:visible;"/>
		</clipPath>
		<rect x="17.7" y="35.3" class="st13" width="24.6" height="16.7"/>
	</g>
</g>
<g>
	<defs>
		<path id="SVGID_29_" d="M26.3,53.2c-0.5-4,2-7.7,5.8-8.9l-0.2-2.1c-4.9,1.3-8.2,6-7.6,11.2c0.6,5.2,4.9,9,9.9,9.2l-0.2-2.1
			C30,60.2,26.8,57.2,26.3,53.2"/>
	</defs>
	<clipPath id="SVGID_30_">
		<use xlink:href="#SVGID_29_"  style="overflow:visible;"/>
	</clipPath>
	<g class="st14">
		<defs>
			<rect id="SVGID_31_" x="6.4" y="24.9" width="178.9" height="55.1"/>
		</defs>
		<clipPath id="SVGID_32_">
			<use xlink:href="#SVGID_31_"  style="overflow:visible;"/>
		</clipPath>
		<rect x="22.8" y="40.9" class="st15" width="12.7" height="23.1"/>
	</g>
</g>
<g>
	<defs>
		<path id="SVGID_33_" d="M35.2,44c3.9,0.3,7.2,3.3,7.6,7.3c0.5,4-2,7.7-5.8,8.9l0.2,2.1c4.9-1.3,8.2-6,7.6-11.2
			c-0.6-5.2-4.9-9-9.9-9.2L35.2,44z"/>
	</defs>
	<clipPath id="SVGID_34_">
		<use xlink:href="#SVGID_33_"  style="overflow:visible;"/>
	</clipPath>
	<g class="st16">
		<defs>
			<rect id="SVGID_35_" x="6.4" y="24.9" width="178.9" height="55.1"/>
		</defs>
		<clipPath id="SVGID_36_">
			<use xlink:href="#SVGID_35_"  style="overflow:visible;"/>
		</clipPath>
		<rect x="33.6" y="40.5" class="st17" width="12.7" height="23.1"/>
	</g>
</g>
<g>
	<defs>
		<rect id="SVGID_37_" x="175.6" y="43.4" width="2" height="17.6"/>
	</defs>
	<use xlink:href="#SVGID_37_"  style="overflow:visible;fill-rule:evenodd;clip-rule:evenodd;fill:#FFFFFF;"/>
	<clipPath id="SVGID_38_">
		<use xlink:href="#SVGID_37_"  style="overflow:visible;"/>
	</clipPath>
	<g class="st18">
		<defs>
			<rect id="SVGID_39_" x="6.4" y="24.9" width="178.9" height="55.1"/>
		</defs>
		<use xlink:href="#SVGID_39_"  style="overflow:visible;fill:#FFFFFF;"/>
		<clipPath id="SVGID_40_">
			<use xlink:href="#SVGID_39_"  style="overflow:visible;"/>
		</clipPath>
		<rect x="174.3" y="42" class="st19" width="4.8" height="20.3"/>
	</g>
</g>
<g>
	<defs>
		<path id="SVGID_41_" d="M173.1,58.6c-1.6,1.8-3.3,2.6-5.4,2.6c-4.3,0-6.6-3.1-6.6-6.3c0-3.4,2.5-6.3,6.2-6.3
			c3.7,0,6.3,2.8,6.3,7.1h-10.3c0.3,2.1,2,3.6,4.3,3.6c1.5,0,2.8-0.7,3.9-1.9L173.1,58.6z M171.3,54c-0.2-2-1.8-3.4-4-3.4
			c-2.5,0-3.8,1.8-4,3.4H171.3z"/>
	</defs>
	<use xlink:href="#SVGID_41_"  style="overflow:visible;fill-rule:evenodd;clip-rule:evenodd;fill:#FFFFFF;"/>
	<clipPath id="SVGID_42_">
		<use xlink:href="#SVGID_41_"  style="overflow:visible;"/>
	</clipPath>
	<g class="st20">
		<defs>
			<rect id="SVGID_43_" x="6.4" y="24.9" width="178.9" height="55.1"/>
		</defs>
		<use xlink:href="#SVGID_43_"  style="overflow:visible;fill:#FFFFFF;"/>
		<clipPath id="SVGID_44_">
			<use xlink:href="#SVGID_43_"  style="overflow:visible;"/>
		</clipPath>
		<rect x="159.7" y="47.3" class="st21" width="15.3" height="15.4"/>
	</g>
</g>
<g>
	<defs>
		<path id="SVGID_45_" d="M158.5,58.6c-1.6,1.8-3.3,2.6-5.4,2.6c-4.3,0-6.6-3.1-6.6-6.3c0-3.4,2.5-6.3,6.2-6.3
			c3.7,0,6.3,2.8,6.3,7.1h-10.3c0.3,2.1,2,3.6,4.3,3.6c1.5,0,2.8-0.7,3.9-1.9L158.5,58.6z M156.7,54c-0.2-2-1.8-3.4-4-3.4
			c-2.5,0-3.8,1.8-4,3.4H156.7z"/>
	</defs>
	<use xlink:href="#SVGID_45_"  style="overflow:visible;fill-rule:evenodd;clip-rule:evenodd;fill:#FFFFFF;"/>
	<clipPath id="SVGID_46_">
		<use xlink:href="#SVGID_45_"  style="overflow:visible;"/>
	</clipPath>
	<g class="st22">
		<defs>
			<rect id="SVGID_47_" x="6.4" y="24.9" width="178.9" height="55.1"/>
		</defs>
		<use xlink:href="#SVGID_47_"  style="overflow:visible;fill:#FFFFFF;"/>
		<clipPath id="SVGID_48_">
			<use xlink:href="#SVGID_47_"  style="overflow:visible;"/>
		</clipPath>
		<rect x="145.2" y="47.3" class="st23" width="15.3" height="15.4"/>
	</g>
</g>
<g>
	<defs>
		<path id="SVGID_49_" d="M142.3,54c0-1.8-0.7-3.4-2.8-3.4c-1.9,0-3.1,1.3-3.1,3.6V61h-2.1V43.4h2.1v6.9h0c0.6-1.1,2-1.7,3.3-1.7
			c2.3,0,4.6,1.3,4.6,4.5V61h-2.1V54z"/>
	</defs>
	<use xlink:href="#SVGID_49_"  style="overflow:visible;fill-rule:evenodd;clip-rule:evenodd;fill:#FFFFFF;"/>
	<clipPath id="SVGID_50_">
		<use xlink:href="#SVGID_49_"  style="overflow:visible;"/>
	</clipPath>
	<g class="st24">
		<defs>
			<rect id="SVGID_51_" x="6.4" y="24.9" width="178.9" height="55.1"/>
		</defs>
		<use xlink:href="#SVGID_51_"  style="overflow:visible;fill:#FFFFFF;"/>
		<clipPath id="SVGID_52_">
			<use xlink:href="#SVGID_51_"  style="overflow:visible;"/>
		</clipPath>
		<rect x="133" y="42" class="st25" width="12.8" height="20.3"/>
	</g>
</g>
<g>
	<defs>
		<polygon id="SVGID_53_" points="130.1,48.9 132.3,48.9 127.9,61 126.2,61 122.9,51.6 122.9,51.6 119.6,61 117.9,61 113.5,48.9 
			115.7,48.9 118.7,57.7 118.8,57.7 121.8,48.9 124,48.9 127,57.7 127.1,57.7 		"/>
	</defs>
	<use xlink:href="#SVGID_53_"  style="overflow:visible;fill-rule:evenodd;clip-rule:evenodd;fill:#FFFFFF;"/>
	<clipPath id="SVGID_54_">
		<use xlink:href="#SVGID_53_"  style="overflow:visible;"/>
	</clipPath>
	<g class="st26">
		<defs>
			<rect id="SVGID_55_" x="6.4" y="24.9" width="178.9" height="55.1"/>
		</defs>
		<use xlink:href="#SVGID_55_"  style="overflow:visible;fill:#FFFFFF;"/>
		<clipPath id="SVGID_56_">
			<use xlink:href="#SVGID_55_"  style="overflow:visible;"/>
		</clipPath>
		<rect x="112.1" y="47.6" class="st27" width="21.6" height="14.8"/>
	</g>
</g>
<g>
	<defs>
		<path id="SVGID_57_" d="M111.3,61h-2v-1.7h-0.1c-1,1.3-2.4,2-4.1,2c-3.5,0-5.7-3-5.7-6.3c0-3.4,2.2-6.3,5.7-6.3
			c1.6,0,3.1,0.8,4.1,2h0.1v-1.8h2V61z M101.4,54.8c0,2.3,1.4,4.5,3.9,4.5c2.6,0,4-2.1,4-4.5c0-2.4-1.5-4.3-4-4.3
			C103,50.5,101.4,52.6,101.4,54.8z"/>
	</defs>
	<use xlink:href="#SVGID_57_"  style="overflow:visible;fill-rule:evenodd;clip-rule:evenodd;fill:#FFFFFF;"/>
	<clipPath id="SVGID_58_">
		<use xlink:href="#SVGID_57_"  style="overflow:visible;"/>
	</clipPath>
	<g class="st28">
		<defs>
			<rect id="SVGID_59_" x="6.4" y="24.9" width="178.9" height="55.1"/>
		</defs>
		<use xlink:href="#SVGID_59_"  style="overflow:visible;fill:#FFFFFF;"/>
		<clipPath id="SVGID_60_">
			<use xlink:href="#SVGID_59_"  style="overflow:visible;"/>
		</clipPath>
		<rect x="98" y="47.3" class="st29" width="14.7" height="15.3"/>
	</g>
</g>
<g>
	<defs>
		<polygon id="SVGID_61_" points="95.5,61 93.5,61 93.5,50.8 91.4,50.8 91.4,48.9 93.5,48.9 93.5,43.4 95.5,43.4 95.5,48.9 
			97.7,48.9 97.7,50.8 95.5,50.8 		"/>
	</defs>
	<use xlink:href="#SVGID_61_"  style="overflow:visible;fill-rule:evenodd;clip-rule:evenodd;fill:#FFFFFF;"/>
	<clipPath id="SVGID_62_">
		<use xlink:href="#SVGID_61_"  style="overflow:visible;"/>
	</clipPath>
	<g class="st30">
		<defs>
			<rect id="SVGID_63_" x="6.4" y="24.9" width="178.9" height="55.1"/>
		</defs>
		<use xlink:href="#SVGID_63_"  style="overflow:visible;fill:#FFFFFF;"/>
		<clipPath id="SVGID_64_">
			<use xlink:href="#SVGID_63_"  style="overflow:visible;"/>
		</clipPath>
		<rect x="90" y="42" class="st31" width="9" height="20.3"/>
	</g>
</g>
<g>
	<defs>
		<path id="SVGID_65_" d="M89.1,61h-2v-1.7H87c-1,1.3-2.4,2-4.1,2c-3.5,0-5.7-3-5.7-6.3c0-3.4,2.2-6.3,5.7-6.3c1.6,0,3.1,0.8,4.1,2
			h0.1v-1.8h2V61z M79.3,54.8c0,2.3,1.4,4.5,3.9,4.5c2.6,0,4-2.1,4-4.5c0-2.4-1.5-4.3-4-4.3C80.8,50.5,79.3,52.6,79.3,54.8z"/>
	</defs>
	<use xlink:href="#SVGID_65_"  style="overflow:visible;fill-rule:evenodd;clip-rule:evenodd;fill:#FFFFFF;"/>
	<clipPath id="SVGID_66_">
		<use xlink:href="#SVGID_65_"  style="overflow:visible;"/>
	</clipPath>
	<g class="st32">
		<defs>
			<rect id="SVGID_67_" x="6.4" y="24.9" width="178.9" height="55.1"/>
		</defs>
		<use xlink:href="#SVGID_67_"  style="overflow:visible;fill:#FFFFFF;"/>
		<clipPath id="SVGID_68_">
			<use xlink:href="#SVGID_67_"  style="overflow:visible;"/>
		</clipPath>
		<rect x="75.8" y="47.3" class="st33" width="14.7" height="15.3"/>
	</g>
</g>
<g>
	<defs>
		<path id="SVGID_69_" d="M61.6,43.4h5.8c4.3,0,8.4,3.7,8.4,8.7c0,5-4,8.9-9,8.9h-5.2V43.4z M66.8,58.9c3.9,0,6.7-3,6.7-6.9
			c0-3.7-3-6.5-6.8-6.5h-2.8v13.4H66.8z"/>
	</defs>
	<use xlink:href="#SVGID_69_"  style="overflow:visible;fill-rule:evenodd;clip-rule:evenodd;fill:#FFFFFF;"/>
	<clipPath id="SVGID_70_">
		<use xlink:href="#SVGID_69_"  style="overflow:visible;"/>
	</clipPath>
	<g class="st34">
		<defs>
			<rect id="SVGID_71_" x="6.4" y="24.9" width="178.9" height="55.1"/>
		</defs>
		<use xlink:href="#SVGID_71_"  style="overflow:visible;fill:#FFFFFF;"/>
		<clipPath id="SVGID_72_">
			<use xlink:href="#SVGID_71_"  style="overflow:visible;"/>
		</clipPath>
		<rect x="60.2" y="42" class="st35" width="17" height="20.3"/>
	</g>
</g>
</svg>
