<?xml version="1.0" encoding="utf-8"?>
<!-- Generator: Adobe Illustrator 23.0.1, SVG Export Plug-In . SVG Version: 6.00 Build 0)  -->
<svg version="1.1" id="Capa_1" xmlns="http://www.w3.org/2000/svg" xmlns:xlink="http://www.w3.org/1999/xlink" x="0px" y="0px"
	 viewBox="0 0 163 100" style="enable-background:new 0 0 163 100;" xml:space="preserve">
<style type="text/css">
	.st0{fill:#DE0015;}
	.st1{fill:#FFFFFF;}
</style>
<g>
	<polygon class="st0" points="59.1,37.7 50.3,37.7 39.8,37.7 31,37.7 29.3,48.2 38.1,48.2 34.7,68.5 45.1,68.5 48.5,48.2 57.3,48.2 
			"/>
	<g>
		<path class="st1" d="M75.7,37.7h-4.5H60.7l-5.2,30.8H61c4.5-0.1,5.7-4,6-5.3l0.9-5.1h4.5c5.6,0,10.9-4.6,11.9-10.2
			C85.1,42.2,81.3,37.7,75.7,37.7 M75.9,47.9c-0.3,1.8-2,3.3-3.9,3.3h-3.1l0.5-3.2l0.6-3.4h3.1C75,44.5,76.2,46,75.9,47.9"/>
		<path class="st1" d="M24.4,37.7c-4.8,0-5.9,4.2-6.2,5.4l-0.1,0.3v0l-4.2,25h10.4l5.2-30.8H24.4z"/>
		<path class="st1" d="M63.8,35c-7.2-6.8-16.3-10.9-26.2-10.9c-5.3,0-10.4,1.2-15,3.3c7.8-5.6,16.9-8.9,26.6-8.9
			c13.6,0,25.9,6.3,35,16.4H63.8z"/>
		<path class="st0" d="M34.4,35c7.2-6.8,16.3-10.9,26.2-10.9c5.3,0,10.4,1.1,15.1,3.2C68,21.7,58.8,18.5,49,18.5
			c-13.6,0-25.9,6.3-35,16.4H34.4z"/>
		<rect x="97" y="46.3" class="st1" width="0.6" height="4.4"/>
		<path class="st1" d="M98.5,48.4c0-0.3,0-0.6,0-0.9H99l0,0.5h0c0.2-0.3,0.5-0.6,1-0.6c0.4,0,1.1,0.3,1.1,1.3v1.9h-0.6v-1.8
			c0-0.5-0.2-0.9-0.7-0.9c-0.4,0-0.7,0.3-0.8,0.6c0,0.1,0,0.2,0,0.3v1.9h-0.6V48.4z"/>
		<path class="st1" d="M102,50.1c0.2,0.1,0.5,0.2,0.8,0.2c0.4,0,0.6-0.2,0.6-0.5c0-0.3-0.2-0.4-0.6-0.6c-0.6-0.2-0.8-0.5-0.8-0.9
			c0-0.5,0.4-0.9,1.1-0.9c0.3,0,0.6,0.1,0.8,0.2l-0.1,0.4c-0.1-0.1-0.3-0.2-0.6-0.2c-0.3,0-0.5,0.2-0.5,0.4c0,0.3,0.2,0.4,0.6,0.5
			c0.5,0.2,0.8,0.5,0.8,0.9c0,0.6-0.4,1-1.2,1c-0.3,0-0.7-0.1-0.9-0.2L102,50.1z"/>
		<path class="st1" d="M105.3,46.8v0.8h0.8V48h-0.8v1.7c0,0.4,0.1,0.6,0.4,0.6c0.2,0,0.2,0,0.3,0l0,0.4c-0.1,0-0.3,0.1-0.5,0.1
			c-0.3,0-0.5-0.1-0.6-0.2c-0.2-0.2-0.2-0.5-0.2-0.8V48h-0.5v-0.4h0.5V47L105.3,46.8z"/>
		<path class="st1" d="M107.4,46.7c0,0.2-0.1,0.3-0.4,0.3c-0.2,0-0.3-0.2-0.3-0.3c0-0.2,0.1-0.4,0.4-0.4
			C107.2,46.3,107.4,46.5,107.4,46.7 M106.7,47.5h0.6v3.1h-0.6V47.5z"/>
		<path class="st1" d="M108.9,46.8v0.8h0.8V48h-0.8v1.7c0,0.4,0.1,0.6,0.4,0.6c0.2,0,0.2,0,0.3,0l0,0.4c-0.1,0-0.3,0.1-0.5,0.1
			c-0.3,0-0.5-0.1-0.6-0.2c-0.2-0.2-0.2-0.5-0.2-0.8V48h-0.5v-0.4h0.5V47L108.9,46.8z"/>
		<path class="st1" d="M112.9,49.8c0,0.3,0,0.6,0,0.9h-0.5l0-0.5h0c-0.1,0.3-0.5,0.6-1,0.6c-0.5,0-1.1-0.3-1.1-1.4v-1.8h0.6v1.7
			c0,0.6,0.2,1,0.7,1c0.4,0,0.6-0.3,0.8-0.5c0-0.1,0.1-0.2,0.1-0.3v-1.9h0.6V49.8z"/>
		<path class="st1" d="M114.5,46.8v0.8h0.8V48h-0.8v1.7c0,0.4,0.1,0.6,0.4,0.6c0.2,0,0.2,0,0.3,0l0,0.4c-0.1,0-0.3,0.1-0.5,0.1
			c-0.3,0-0.5-0.1-0.6-0.2c-0.2-0.2-0.2-0.5-0.2-0.8V48h-0.5v-0.4h0.5V47L114.5,46.8z"/>
		<path class="st1" d="M118.8,49.1c0,1.2-0.8,1.7-1.6,1.7c-0.8,0-1.5-0.6-1.5-1.6c0-1,0.7-1.7,1.6-1.7
			C118.2,47.5,118.8,48.1,118.8,49.1 M116.3,49.1c0,0.7,0.4,1.2,0.9,1.2c0.5,0,1-0.5,1-1.2c0-0.5-0.3-1.2-0.9-1.2
			C116.6,47.9,116.3,48.5,116.3,49.1"/>
		<polygon class="st1" points="97.8,54.6 96.5,54.6 96.5,54.1 99.7,54.1 99.7,54.6 98.4,54.6 98.4,58.5 97.8,58.5 		"/>
		<path class="st1" d="M100,57c0,0.8,0.5,1.1,1.1,1.1c0.4,0,0.7-0.1,0.9-0.2l0.1,0.4c-0.2,0.1-0.6,0.2-1.1,0.2c-1,0-1.5-0.6-1.5-1.6
			c0-1,0.6-1.7,1.5-1.7c1,0,1.3,0.9,1.3,1.5c0,0.1,0,0.2,0,0.3H100z M101.7,56.6c0-0.4-0.1-0.9-0.8-0.9c-0.6,0-0.8,0.5-0.9,0.9
			H101.7z"/>
		<path class="st1" d="M105.1,58.4c-0.1,0.1-0.5,0.2-0.9,0.2c-0.9,0-1.6-0.6-1.6-1.6c0-1,0.7-1.7,1.7-1.7c0.3,0,0.6,0.1,0.8,0.2
			l-0.1,0.4c-0.1-0.1-0.4-0.1-0.7-0.1c-0.7,0-1.1,0.5-1.1,1.2c0,0.7,0.5,1.2,1.1,1.2c0.3,0,0.5-0.1,0.7-0.1L105.1,58.4z"/>
		<path class="st1" d="M105.8,56.2c0-0.3,0-0.6,0-0.9h0.5l0,0.5h0c0.2-0.3,0.5-0.6,1-0.6c0.4,0,1.1,0.3,1.1,1.3v1.9h-0.6v-1.8
			c0-0.5-0.2-0.9-0.7-0.9c-0.4,0-0.7,0.3-0.8,0.6c0,0.1,0,0.2,0,0.3v1.9h-0.6V56.2z"/>
		<path class="st1" d="M112.2,56.9c0,1.2-0.8,1.7-1.6,1.7c-0.8,0-1.5-0.6-1.5-1.6c0-1,0.7-1.7,1.6-1.7
			C111.6,55.3,112.2,55.9,112.2,56.9 M109.7,56.9c0,0.7,0.4,1.2,0.9,1.2c0.5,0,1-0.5,1-1.2c0-0.5-0.3-1.2-0.9-1.2
			C110,55.7,109.7,56.3,109.7,56.9"/>
		<rect x="112.8" y="53.9" class="st1" width="0.6" height="4.6"/>
		<path class="st1" d="M117.2,56.9c0,1.2-0.8,1.7-1.6,1.7c-0.8,0-1.5-0.6-1.5-1.6c0-1,0.7-1.7,1.6-1.7
			C116.6,55.3,117.2,55.9,117.2,56.9 M114.7,56.9c0,0.7,0.4,1.2,0.9,1.2c0.5,0,1-0.5,1-1.2c0-0.5-0.3-1.2-0.9-1.2
			C115,55.7,114.7,56.3,114.7,56.9 M116.5,54l-0.8,0.9h-0.4l0.6-0.9H116.5z"/>
		<path class="st1" d="M120.5,58c0,0.7-0.2,1.2-0.4,1.4c-0.3,0.3-0.8,0.4-1.1,0.4c-0.4,0-0.8-0.1-1-0.3l0.1-0.4
			c0.2,0.1,0.5,0.3,0.9,0.3c0.6,0,1-0.3,1-1.1V58h0c-0.2,0.3-0.5,0.5-1,0.5c-0.8,0-1.3-0.7-1.3-1.5c0-1.1,0.7-1.7,1.4-1.7
			c0.5,0,0.8,0.3,1,0.5h0l0-0.5h0.5c0,0.2,0,0.5,0,0.9V58z M120,56.6c0-0.1,0-0.2,0-0.3c-0.1-0.3-0.4-0.6-0.8-0.6
			c-0.5,0-0.9,0.5-0.9,1.2c0,0.6,0.3,1.1,0.9,1.1c0.4,0,0.7-0.2,0.8-0.6c0-0.1,0-0.2,0-0.3V56.6z"/>
		<path class="st1" d="M122,54.5c0,0.2-0.1,0.4-0.4,0.4c-0.2,0-0.3-0.2-0.3-0.4c0-0.2,0.1-0.4,0.4-0.4C121.9,54.1,122,54.3,122,54.5
			 M121.4,55.3h0.6v3.1h-0.6V55.3z"/>
		<path class="st1" d="M125.1,58.4c-0.1,0.1-0.5,0.2-0.9,0.2c-0.9,0-1.6-0.6-1.6-1.6c0-1,0.7-1.7,1.7-1.7c0.3,0,0.6,0.1,0.8,0.2
			l-0.1,0.4c-0.1-0.1-0.4-0.1-0.7-0.1c-0.7,0-1.1,0.5-1.1,1.2c0,0.7,0.5,1.2,1.1,1.2c0.3,0,0.5-0.1,0.7-0.1L125.1,58.4z"/>
		<path class="st1" d="M128.6,56.9c0,1.2-0.8,1.7-1.6,1.7c-0.8,0-1.5-0.6-1.5-1.6c0-1,0.7-1.7,1.6-1.7
			C128,55.3,128.6,55.9,128.6,56.9 M126.1,56.9c0,0.7,0.4,1.2,0.9,1.2c0.5,0,1-0.5,1-1.2c0-0.5-0.3-1.2-0.9-1.2
			C126.4,55.7,126.1,56.3,126.1,56.9"/>
		<path class="st1" d="M99.7,61.7v3.8c0,0.3,0,0.6,0,0.8h-0.5l0-0.5h0c-0.2,0.4-0.5,0.6-1.1,0.6c-0.8,0-1.3-0.6-1.3-1.6
			c0-1,0.7-1.7,1.4-1.7c0.5,0,0.8,0.2,0.9,0.5h0v-1.9H99.7z M99.1,64.4c0-0.1,0-0.2,0-0.2c-0.1-0.4-0.4-0.7-0.8-0.7
			c-0.6,0-0.9,0.5-0.9,1.2c0,0.6,0.3,1.2,0.9,1.2c0.4,0,0.7-0.3,0.8-0.7c0-0.1,0-0.2,0-0.2V64.4z"/>
		<path class="st1" d="M100.9,64.8c0,0.8,0.5,1.1,1.1,1.1c0.4,0,0.7-0.1,0.9-0.2l0.1,0.4c-0.2,0.1-0.6,0.2-1.1,0.2
			c-1,0-1.5-0.6-1.5-1.6c0-0.9,0.6-1.7,1.5-1.7c1,0,1.3,0.9,1.3,1.5c0,0.1,0,0.2,0,0.3H100.9z M102.6,64.4c0-0.4-0.2-0.9-0.8-0.9
			c-0.6,0-0.8,0.5-0.9,0.9H102.6z"/>
		<rect x="105.1" y="61.7" class="st1" width="0.6" height="4.6"/>
		<path class="st1" d="M108.8,65.5c0,0.3,0,0.5,0,0.8h-0.5l0-0.4h0c-0.2,0.2-0.5,0.5-1,0.5c-0.6,0-1-0.4-1-0.9
			c0-0.8,0.7-1.2,1.9-1.2v-0.1c0-0.3-0.1-0.7-0.7-0.7c-0.3,0-0.6,0.1-0.8,0.2l-0.1-0.4c0.3-0.2,0.6-0.3,1-0.3c1,0,1.2,0.7,1.2,1.3
			V65.5z M108.3,64.7c-0.6,0-1.3,0.1-1.3,0.7c0,0.4,0.2,0.5,0.5,0.5c0.4,0,0.7-0.3,0.8-0.5c0-0.1,0-0.1,0-0.2V64.7z"/>
		<path class="st1" d="M111.1,62c0.3,0,0.6-0.1,1.1-0.1c0.6,0,1,0.1,1.2,0.4c0.2,0.2,0.4,0.5,0.4,0.9c0,0.4-0.1,0.7-0.3,0.9
			c-0.3,0.3-0.8,0.5-1.3,0.5c-0.2,0-0.3,0-0.5,0v1.8h-0.6V62z M111.6,64.1c0.1,0,0.3,0,0.5,0c0.7,0,1.1-0.3,1.1-0.9
			c0-0.6-0.4-0.9-1-0.9c-0.2,0-0.4,0-0.5,0V64.1z"/>
		<path class="st1" d="M114.3,64.1c0-0.4,0-0.7,0-1h0.5l0,0.6h0c0.1-0.4,0.5-0.7,0.9-0.7c0.1,0,0.1,0,0.2,0v0.5c-0.1,0-0.1,0-0.2,0
			c-0.4,0-0.7,0.3-0.8,0.7c0,0.1,0,0.2,0,0.3v1.7h-0.6V64.1z"/>
		<path class="st1" d="M119.2,64.7c0,1.2-0.8,1.7-1.6,1.7c-0.8,0-1.5-0.6-1.5-1.6c0-1,0.7-1.7,1.6-1.7
			C118.6,63.1,119.2,63.7,119.2,64.7 M116.7,64.7c0,0.7,0.4,1.2,0.9,1.2c0.5,0,1-0.5,1-1.2c0-0.5-0.3-1.2-0.9-1.2
			C117,63.5,116.7,64.1,116.7,64.7"/>
		<path class="st1" d="M122.6,61.7v3.8c0,0.3,0,0.6,0,0.8h-0.5l0-0.5h0c-0.2,0.4-0.5,0.6-1.1,0.6c-0.8,0-1.3-0.6-1.3-1.6
			c0-1,0.7-1.7,1.4-1.7c0.5,0,0.8,0.2,0.9,0.5h0v-1.9H122.6z M122,64.4c0-0.1,0-0.2,0-0.2c-0.1-0.4-0.4-0.7-0.8-0.7
			c-0.6,0-0.9,0.5-0.9,1.2c0,0.6,0.3,1.2,0.9,1.2c0.4,0,0.7-0.3,0.8-0.7c0-0.1,0-0.2,0-0.2V64.4z"/>
		<path class="st1" d="M126.1,65.4c0,0.3,0,0.6,0,0.9h-0.5l0-0.5h0c-0.1,0.3-0.5,0.6-1,0.6c-0.5,0-1.1-0.3-1.1-1.4v-1.8h0.6v1.7
			c0,0.6,0.2,1,0.7,1c0.4,0,0.7-0.3,0.8-0.5c0-0.1,0.1-0.2,0.1-0.3v-1.9h0.6V65.4z"/>
		<path class="st1" d="M129.3,66.2c-0.1,0.1-0.5,0.2-0.9,0.2c-0.9,0-1.6-0.6-1.6-1.6c0-1,0.7-1.7,1.7-1.7c0.3,0,0.6,0.1,0.8,0.2
			l-0.1,0.4c-0.1-0.1-0.4-0.1-0.7-0.1c-0.7,0-1.1,0.5-1.1,1.2c0,0.7,0.5,1.2,1.1,1.2c0.3,0,0.5-0.1,0.7-0.1L129.3,66.2z"/>
		<path class="st1" d="M132.1,66.2c-0.2,0.1-0.5,0.2-0.9,0.2c-0.9,0-1.6-0.6-1.6-1.6c0-1,0.7-1.7,1.7-1.7c0.3,0,0.6,0.1,0.8,0.2
			l-0.1,0.4c-0.1-0.1-0.4-0.1-0.7-0.1c-0.7,0-1.1,0.5-1.1,1.2c0,0.7,0.5,1.2,1.1,1.2c0.3,0,0.5-0.1,0.7-0.1L132.1,66.2z"/>
		<path class="st1" d="M133.4,62.3c0,0.2-0.1,0.4-0.4,0.4c-0.2,0-0.3-0.2-0.3-0.4c0-0.2,0.1-0.4,0.4-0.4
			C133.2,61.9,133.4,62.1,133.4,62.3 M132.7,63.1h0.6v3.1h-0.6V63.1z"/>
		<path class="st1" d="M137.1,64.7c0,1.2-0.8,1.7-1.6,1.7c-0.8,0-1.5-0.6-1.5-1.6c0-1,0.7-1.7,1.6-1.7
			C136.5,63.1,137.1,63.7,137.1,64.7 M134.6,64.7c0,0.7,0.4,1.2,0.9,1.2c0.5,0,1-0.5,1-1.2c0-0.5-0.3-1.2-0.9-1.2
			C134.9,63.5,134.6,64.1,134.6,64.7 M136.4,61.8l-0.8,0.9h-0.4l0.6-0.9H136.4z"/>
		<path class="st1" d="M137.8,64c0-0.3,0-0.6,0-0.9h0.5l0,0.5h0c0.2-0.3,0.5-0.6,1-0.6c0.4,0,1.1,0.3,1.1,1.3v1.9h-0.6v-1.8
			c0-0.5-0.2-0.9-0.7-0.9c-0.4,0-0.7,0.3-0.8,0.6c0,0.1,0,0.2,0,0.3v1.9h-0.6V64z"/>
		<rect x="90.2" y="35.1" class="st1" width="0.7" height="42.4"/>
		<path class="st1" d="M20.6,73.7l-0.3,2h-4.1l-0.9,5.6h-2l0.9-5.7c0.2-1,1.2-1.9,2.2-1.9H20.6z"/>
		<path class="st1" d="M29.5,75.6L29,78.5h-5.7l-0.1,0.8h5.7l-0.3,2h-5.8c-1,0-1.8-0.9-1.6-1.9l0.6-3.8c0.2-1,1.2-1.9,2.2-1.9h3.9
			C29,73.7,29.7,74.6,29.5,75.6 M27.3,76.8l0.2-1.1h-3.7l-0.2,1.1H27.3z"/>
		<path class="st1" d="M39.5,71.2l-1.7,10.1H32c-1.1,0-1.8-0.9-1.6-1.9l0.6-3.8c0.2-1,1.2-1.9,2.2-1.9h3.8l0.4-2.5H39.5z M32.4,79.3
			h3.7l0.6-3.6H33L32.4,79.3z"/>
		<path class="st1" d="M51.9,73.9L51,79.3h7.4l-0.3,2.1h-7.5c-1.1,0-1.8-0.9-1.6-1.9l0.9-5.6c0.2-1.1,1.2-1.9,2.3-1.9h7.5l-0.3,2
			H51.9z"/>
		<polygon class="st1" points="61.1,71.9 63.2,71.9 61.6,81.3 59.6,81.3 		"/>
		<polygon class="st1" points="74.2,71.9 73.8,73.9 70.1,73.9 68.9,81.3 66.8,81.3 68.1,73.9 64.4,73.9 64.7,71.9 		"/>
		<polygon class="st1" points="84,73.9 77.4,73.9 77.1,75.6 82.5,75.6 82.1,77.6 76.8,77.6 76.5,79.3 83.2,79.3 82.8,81.3 
			74.1,81.3 75.6,71.9 84.4,71.9 		"/>
	</g>
</g>
</svg>
