<?xml version="1.0" encoding="utf-8"?>
<!-- Generator: Adobe Illustrator 23.0.1, SVG Export Plug-In . SVG Version: 6.00 Build 0)  -->
<svg version="1.1" id="Capa_1" xmlns="http://www.w3.org/2000/svg" xmlns:xlink="http://www.w3.org/1999/xlink" x="0px" y="0px"
	 viewBox="0 0 200 200" style="enable-background:new 0 0 200 200;" xml:space="preserve">
<style type="text/css">
	.st0{fill:#BF0909;}
</style>
<g>
	<path class="st0" d="M100,109.4c-6.3-0.1-12.5-2-17.9-5.4l-54.6,47.7c2.8,1.8,6.1,2.7,9.5,2.7H163c3.4,0,6.6-0.9,9.5-2.7L117.7,104
		C112.4,107.4,106.2,109.3,100,109.4z"/>
	<path class="st0" d="M74.7,98.6L22.5,53c-2.2,3.1-3.5,6.8-3.5,10.6v72.8c0,3.8,1.2,7.5,3.5,10.6l53.9-47
		C75.8,99.5,75.2,99.1,74.7,98.6z"/>
	<path class="st0" d="M27.5,48.3l51.6,45.1c14.5,12.3,27.2,12.3,41.4,0l51.9-45.1c-2.8-1.8-6.1-2.7-9.5-2.7H37
		C33.6,45.6,30.3,46.6,27.5,48.3z"/>
	<path class="st0" d="M125.1,98.6c-0.5,0.5-1.1,0.9-1.7,1.3l54.1,47c2.2-3.1,3.5-6.8,3.5-10.5V63.6c0-3.8-1.2-7.5-3.5-10.5
		L125.1,98.6z"/>
</g>
</svg>
