<?xml version="1.0" encoding="utf-8"?>
<!-- Generator: Adobe Illustrator 23.0.1, SVG Export Plug-In . SVG Version: 6.00 Build 0)  -->
<svg version="1.1" id="Capa_1" xmlns="http://www.w3.org/2000/svg" xmlns:xlink="http://www.w3.org/1999/xlink" x="0px" y="0px"
	 viewBox="0 0 200 200" style="enable-background:new 0 0 200 200;" xml:space="preserve">
<style type="text/css">
	.st0{fill:#FFFFFF;}
</style>
<g>
	<path class="st0" d="M175.6,100.9c0-10.2,4.7-28.2,4.7-28.4c0.1-0.4,0-0.9-0.3-1.2c-0.4-0.5-1.2-0.7-1.8-0.4
		c-12.3,6.2-20.7,16.1-25.3,22.7C135.4,80.2,113.7,72.1,90,72.1c-27.2,0-51.9,10.5-70.3,27.6c-0.7,0.7-0.7,1.7,0,2.4
		c18.5,17.1,43.2,27.6,70.3,27.6c23.7,0,45.5-8.1,62.9-21.5c4.6,6.6,13,16.5,25.3,22.7c0.2,0.1,0.5,0.1,0.7,0.1
		c0.4,0,0.9-0.2,1.1-0.6c0.3-0.4,0.4-0.8,0.3-1.2C180.3,129.2,175.6,111.1,175.6,100.9z M46.5,100.9c-2.4,0-4.3-1.9-4.3-4.3
		c0-2.4,1.9-4.3,4.3-4.3c2.4,0,4.3,1.9,4.3,4.3C50.8,99,48.9,100.9,46.5,100.9z M60.9,112.8c2.3-3.4,3.6-7.5,3.6-11.9
		c0-4.4-1.3-8.5-3.6-11.9c5,1.7,8.6,6.3,8.6,11.9C69.5,106.5,65.9,111.2,60.9,112.8z"/>
	<path class="st0" d="M108.3,70.9c1.4-6.4,4.2-15.1,10-23.9c0.3-0.5,0.3-1.1,0-1.6s-0.9-0.7-1.5-0.6c-18.4,3.7-32,16.2-39.7,25.3
		c4.3-0.5,8.6-0.9,12.9-0.9C96.2,69.3,102.3,69.9,108.3,70.9z"/>
	<path class="st0" d="M111.5,130.4c-7,1.5-14.2,2.3-21.5,2.3c-1.5,0-3-0.1-4.4-0.2c8.2,5.8,18.6,11,31.3,13.2c0.1,0,0.1,0,0.2,0
		c0.5,0,0.9-0.2,1.2-0.7c0.3-0.5,0.3-1.1,0-1.6C115.3,138.9,113.1,134.5,111.5,130.4z"/>
</g>
</svg>
