<?xml version="1.0" encoding="utf-8"?>
<!-- Generator: Adobe Illustrator 23.0.1, SVG Export Plug-In . SVG Version: 6.00 Build 0)  -->
<svg version="1.1" id="Capa_1" xmlns="http://www.w3.org/2000/svg" xmlns:xlink="http://www.w3.org/1999/xlink" x="0px" y="0px"
	 viewBox="0 0 200 200" style="enable-background:new 0 0 200 200;" xml:space="preserve">
<style type="text/css">
	.st0{fill:#FFFFFF;}
</style>
<path class="st0" d="M120.6,46c0.4-1.5-0.3-3-1.6-3.8c-1.3-0.7-3-0.5-4,0.6L62.1,96.5c-0.9,1-1.2,2.4-0.7,3.7
	c0.5,1.2,1.7,2.1,3.1,2.1h20l-18.7,42.3c-0.6,1.4-0.2,3.1,1.1,4.1c1.3,0.9,3,0.9,4.2-0.2L140.7,88c1.1-0.9,1.4-2.4,0.9-3.7
	c-0.5-1.3-1.7-2.2-3.1-2.2h-27.1L120.6,46z"/>
</svg>
