<?xml version="1.0" encoding="utf-8"?>
<!-- Generator: Adobe Illustrator 23.0.1, SVG Export Plug-In . SVG Version: 6.00 Build 0)  -->
<svg version="1.1" id="Capa_1" xmlns="http://www.w3.org/2000/svg" xmlns:xlink="http://www.w3.org/1999/xlink" x="0px" y="0px"
	 viewBox="0 0 200 200" style="enable-background:new 0 0 200 200;" xml:space="preserve">
<style type="text/css">
	.st0{fill:#BF0909;}
</style>
<g transform="translate(0,-952.36218)">
	<path class="st0" d="M72.7,1012.5c-4,0-7.7,0.9-11,2.6l-0.2,0.1l-0.1,0.1l-26.6,19.2l-0.1,0.1l-0.1,0.1c-6.2,6.1-10.1,14.6-10.1,24
		c0,18.5,15.1,33.6,33.6,33.6c12.4,0,23.1-6.9,28.9-16.9h26.2c5.8,10,16.5,16.9,28.9,16.9v-4.2c-11.3,0-21.1-6.4-26.1-15.8l-0.6-1.1
		h-1.2H85.9h-1.2l-0.6,1.1c-4.9,9.4-14.7,15.8-26.1,15.8c-16.3,0-29.4-13.1-29.4-29.4c0-8.1,3.3-15.5,8.6-20.8l26.6-19.2
		c0,0,0,0,0.1,0c2.7-1.3,5.7-2,8.9-2c11.6,0,21,9.4,21,21v2.1h2.1h8.4h2.1v-2.1c0-11.6,9.4-21,21-21c3.2,0,6.2,0.7,8.9,2
		c0,0,0,0,0.1,0l26.6,19.2c5.3,5.3,8.6,12.7,8.6,20.8c0,12.1-7.3,22.4-17.7,27l1.7,3.8c11.9-5.2,20.2-17,20.2-30.8
		c0-9.4-3.9-17.9-10.1-24l-0.1-0.1l-0.1-0.1l-26.6-19.2l-0.1-0.1l-0.2-0.1c-3.3-1.6-7.1-2.6-11-2.6c-13.2,0-23.7,10.2-24.8,23.1h-5
		C96.4,1022.7,85.9,1012.5,72.7,1012.5z M58,1035.6c-12.7,0-23.1,10.4-23.1,23.1c0,12.7,10.4,23.1,23.1,23.1s23.1-10.4,23.1-23.1
		C81.1,1045.9,70.7,1035.6,58,1035.6z M142,1035.6c-12.7,0-23.1,10.4-23.1,23.1c0,12.7,10.4,23.1,23.1,23.1
		c12.7,0,23.1-10.4,23.1-23.1C165.1,1045.9,154.7,1035.6,142,1035.6z M58,1039.8c10.5,0,18.9,8.4,18.9,18.9
		c0,10.5-8.4,18.9-18.9,18.9s-18.9-8.4-18.9-18.9C39.1,1048.2,47.5,1039.8,58,1039.8z M142,1039.8c10.5,0,18.9,8.4,18.9,18.9
		c0,10.5-8.4,18.9-18.9,18.9c-10.5,0-18.9-8.4-18.9-18.9C123.1,1048.2,131.5,1039.8,142,1039.8z"/>
</g>
</svg>
