<?xml version="1.0" encoding="utf-8"?>
<!-- Generator: Adobe Illustrator 23.0.1, SVG Export Plug-In . SVG Version: 6.00 Build 0)  -->
<svg version="1.1" id="Capa_1" xmlns="http://www.w3.org/2000/svg" xmlns:xlink="http://www.w3.org/1999/xlink" x="0px" y="0px"
	 viewBox="0 0 200 200" style="enable-background:new 0 0 200 200;" xml:space="preserve">
<style type="text/css">
	.st0{fill:#FFFFFF;}
</style>
<g>
	<path class="st0" d="M73.2,65.9c0,3.6,2.9,6.5,6.5,6.5c3.3,0,4.8-2.1,5.9-0.8c0.5,0.7,0.6,1.5,0.6,3.9v12.8l10.9,0
		c1.6,0,1.8-0.2,2-0.5c0.3-0.6-0.3-1.7-0.3-4c0-5,5.3-9,9.9-9c4.6,0,9.9,3.8,9.9,9c0,2.4-0.6,3.4-0.3,4c0.1,0.3,0.4,0.5,2,0.5h10.9
		V48.8c0,0,0.2-2.8-1.2-4.1c-1.3-1.3-4.5-1.2-4.5-1.2H86.3v12.8c0,2.5-0.1,3.3-0.6,3.9c-1.1,1.3-2.6-0.8-5.9-0.8
		C76.2,59.4,73.2,62.3,73.2,65.9z"/>
	<path class="st0" d="M38.2,88.4H51c2.5,0,3.3,0.1,3.9,0.6c1.3,1.1-0.8,2.6-0.8,5.9c0,3.6,2.9,6.5,6.5,6.5c3.6,0,6.5-2.9,6.5-6.5
		c0-3.2-2.1-4.8-0.8-5.9c0.7-0.5,1.5-0.6,3.9-0.6h12.8V77.5c0-1.6-0.2-1.8-0.5-2c-0.6-0.3-1.7,0.3-4,0.3c-5,0-9-5.3-9-9.9
		c0-4.6,3.8-9.9,9-9.9c2.4,0,3.4,0.6,4,0.3c0.3-0.1,0.5-0.4,0.5-2V43.5H44.5c0,0-3.7-0.3-5.2,1.2c-1.4,1.4-1.2,4.6-1.2,4.6
		L38.2,88.4L38.2,88.4z"/>
	<path class="st0" d="M96.1,114.3c0-3.6-2.9-6.5-6.5-6.5c-3.3,0-4.8,2.1-5.9,0.8c-0.5-0.7-0.6-1.5-0.6-3.9V91.8l-10.9,0
		c-1.6,0-1.8,0.2-2,0.5c-0.3,0.6,0.3,1.7,0.3,4c0,5-5.3,9-9.9,9s-9.9-3.8-9.9-9c0-2.4,0.6-3.4,0.3-4c-0.1-0.3-0.4-0.5-2-0.5H38.2
		v38.7c0,0-0.1,3.3,1.3,4.7c1.4,1.4,4.6,1.5,4.6,1.5h38.9v-12.8c0-2.5,0.1-3.3,0.6-3.9c1.1-1.3,2.6,0.8,5.9,0.8
		C93.2,120.8,96.1,117.9,96.1,114.3z"/>
	<path class="st0" d="M135.4,157.1l27.5-27.5l-9-9c-1.7-1.7-2.3-2.4-2.3-3.2c-0.1-1.7,2.4-1.3,4.7-3.6c2.5-2.5,2.5-6.7,0-9.2
		c-2.5-2.5-6.7-2.5-9.2,0c-2.3,2.3-2,4.9-3.6,4.7c-0.9-0.1-1.5-0.6-3.2-2.3l-9-9l-7.7,7.7c-1.1,1.1-1.2,1.4-1.1,1.7
		c0.3,0.6,1.4,1,3.1,2.6c3.5,3.5,2.6,10.1-0.6,13.4c-3.3,3.3-9.7,4.3-13.4,0.6c-1.7-1.7-2-2.8-2.7-3.1c-0.3-0.1-0.6-0.1-1.7,1.1
		l-7.7,7.7l27.6,27.6c0,0,2.2,2.5,4.1,2.5C133.1,159.7,135.4,157.1,135.4,157.1z"/>
</g>
</svg>
