<?xml version="1.0" encoding="utf-8"?>
<!-- Generator: Adobe Illustrator 21.1.0, SVG Export Plug-In . SVG Version: 6.00 Build 0)  -->
<svg version="1.1" id="Capa_1" xmlns="http://www.w3.org/2000/svg" xmlns:xlink="http://www.w3.org/1999/xlink" x="0px" y="0px"
	 viewBox="0 0 107.2 50" style="enable-background:new 0 0 107.2 50;" xml:space="preserve">
<style type="text/css">
	.st0{fill:#134380;}
	.st1{fill:#FFFFFF;}
	.st2{fill:#F5F5F5;}
	.st3{filter:url(#Adobe_OpacityMaskFilter);}
	.st4{fill:url(#SVGID_2_);}
	.st5{mask:url(#SVGID_1_);}
	.st6{fill:none;}
	.st7{fill:none;stroke:#FFFFFF;stroke-linecap:round;stroke-linejoin:round;stroke-miterlimit:10;}
</style>
<g>
	<polygon class="st0" points="102.2,48.3 32,48.3 33.8,37.3 104,37.3 	"/>
	<g>
		<g>
			<g>
				<g>
					<path class="st1" d="M83.9,39.3l-0.3,1.5h-5.1c-0.1,0-0.2,0-0.3,0.1c-0.1,0.1-0.2,0.2-0.2,0.3l-0.6,3.2c0,0.1,0,0.2,0.1,0.3
						c0.1,0.1,0.2,0.1,0.3,0.1h5.1l-0.3,1.5h-6.2c-0.2,0-0.4-0.1-0.6-0.2c-0.1-0.2-0.2-0.4-0.1-0.6l1-5.3c0-0.2,0.2-0.4,0.4-0.6
						c0.2-0.2,0.4-0.2,0.6-0.2H83.9z"/>
					<path class="st1" d="M84.9,39.3h1.5l-1.3,7h-1.5L84.9,39.3z"/>
					<path class="st1" d="M90.3,46.3h-1.5l0.9-5.1c0-0.1,0-0.2-0.1-0.3c-0.1-0.1-0.2-0.1-0.3-0.1H87l0.3-1.5h7L94,40.8h-2.3
						c-0.1,0-0.2,0-0.3,0.1c-0.1,0.1-0.2,0.2-0.2,0.3L90.3,46.3z"/>
					<path class="st1" d="M100.2,42l-0.3,1.5h-4.5l-0.2,0.8c0,0.1,0,0.2,0.1,0.3c0.1,0.1,0.2,0.1,0.3,0.1h5.1l-0.3,1.5h-6.2
						c-0.2,0-0.4-0.1-0.6-0.2c-0.1-0.2-0.2-0.4-0.1-0.6l1-5.3c0-0.2,0.2-0.4,0.4-0.6c0.2-0.2,0.4-0.2,0.6-0.2h6.2l-0.3,1.5h-5.1
						c-0.1,0-0.2,0-0.3,0.1c-0.1,0.1-0.2,0.2-0.2,0.3L95.8,42H100.2z"/>
				</g>
			</g>
		</g>
	</g>
	<g>
		<path class="st2" d="M95.9,42.7C95.9,42.7,96,42.7,95.9,42.7L95.9,42.7z"/>
	</g>
	<g>
		<g>
			<path class="st1" d="M54,35.6h-5.2l8.4-23.5h5.7l8.3,23.5h-5.3l-1.5-4.9h-8.7L54,35.6z M57,26.7h6l-2.9-9.3H60L57,26.7z"/>
			<path class="st1" d="M79.8,35.6h-4.9V16.2h-7.1v-4.2h19.1v4.2h-7.1V35.6z"/>
			<path class="st1" d="M88.6,35.6h-5.2l8.4-23.5h5.7l8.3,23.5h-5.3l-1.5-4.9h-8.7L88.6,35.6z M91.5,26.7h6l-2.9-9.3h-0.1L91.5,26.7
				z"/>
		</g>
		<defs>
			<filter id="Adobe_OpacityMaskFilter" filterUnits="userSpaceOnUse" x="17.2" y="10.5" width="17.2" height="25">
				<feColorMatrix  type="matrix" values="1 0 0 0 0  0 1 0 0 0  0 0 1 0 0  0 0 0 1 0"/>
			</filter>
		</defs>
		<mask maskUnits="userSpaceOnUse" x="17.2" y="10.5" width="17.2" height="25" id="SVGID_1_">
			<g class="st3">
				
					<linearGradient id="SVGID_2_" gradientUnits="userSpaceOnUse" x1="5093.2075" y1="-193.2923" x2="5114.3853" y2="-193.2923" gradientTransform="matrix(-1 0 0 -1 5128 -169.44)">
					<stop  offset="0.3628" style="stop-color:#FFFFFF"/>
					<stop  offset="1" style="stop-color:#FFFFFF;stop-opacity:0"/>
				</linearGradient>
				<polygon class="st4" points="13.6,12 34.8,12 34.8,35.7 13.6,35.7 				"/>
			</g>
		</mask>
		<g class="st5">
			<rect x="30" y="34.5" transform="matrix(-1 -1.224647e-16 1.224647e-16 -1 60.9523 69.9232)" class="st1" width="1" height="1"/>
			<rect x="30" y="25.9" transform="matrix(-1 -1.224647e-16 1.224647e-16 -1 60.9523 52.7833)" class="st1" width="1" height="1"/>
			<rect x="30" y="15.6" transform="matrix(-1 -1.224647e-16 1.224647e-16 -1 60.9523 32.2155)" class="st1" width="1" height="1"/>
			<rect x="30" y="12.2" transform="matrix(-1 -1.224647e-16 1.224647e-16 -1 60.9523 25.3595)" class="st1" width="1" height="1"/>
			
				<rect x="31.7" y="32.7" transform="matrix(-1 -1.224647e-16 1.224647e-16 -1 64.3407 66.4952)" class="st1" width="1" height="1"/>
			
				<rect x="31.7" y="29.3" transform="matrix(-1 -1.224647e-16 1.224647e-16 -1 64.3407 59.6392)" class="st1" width="1" height="1"/>
			
				<rect x="31.7" y="22.5" transform="matrix(-1 -1.224647e-16 1.224647e-16 -1 64.3407 45.9274)" class="st1" width="1" height="1"/>
			<rect x="31.7" y="19" transform="matrix(-1 -1.224647e-16 1.224647e-16 -1 64.3407 39.0714)" class="st1" width="1" height="1"/>
			
				<rect x="31.7" y="15.6" transform="matrix(-1 -1.224647e-16 1.224647e-16 -1 64.3407 32.2155)" class="st1" width="1" height="1"/>
			
				<rect x="31.7" y="13.9" transform="matrix(-1 -1.224647e-16 1.224647e-16 -1 64.3407 28.7875)" class="st1" width="1" height="1"/>
			<rect x="33.4" y="31" transform="matrix(-1 -1.224647e-16 1.224647e-16 -1 67.7291 63.0672)" class="st1" width="1" height="1"/>
			
				<rect x="33.4" y="29.3" transform="matrix(-1 -1.224647e-16 1.224647e-16 -1 67.7291 59.6392)" class="st1" width="1" height="1"/>
			
				<rect x="33.4" y="27.6" transform="matrix(-1 -1.224647e-16 1.224647e-16 -1 67.7291 56.2113)" class="st1" width="1" height="1"/>
			
				<rect x="33.4" y="24.2" transform="matrix(-1 -1.224647e-16 1.224647e-16 -1 67.7291 49.3553)" class="st1" width="1" height="1"/>
			
				<rect x="33.4" y="22.5" transform="matrix(-1 -1.224647e-16 1.224647e-16 -1 67.7291 45.9274)" class="st1" width="1" height="1"/>
			
				<rect x="33.4" y="15.6" transform="matrix(-1 -1.224647e-16 1.224647e-16 -1 67.7291 32.2155)" class="st1" width="1" height="1"/>
			<g>
				
					<rect x="33.4" y="34.5" transform="matrix(-1 -1.224647e-16 1.224647e-16 -1 67.7291 69.9232)" class="st1" width="1" height="1"/>
				
					<rect x="33.4" y="25.9" transform="matrix(-1 -1.224647e-16 1.224647e-16 -1 67.7291 52.7833)" class="st1" width="1" height="1"/>
				
					<rect x="33.4" y="20.7" transform="matrix(-1 -1.224647e-16 1.224647e-16 -1 67.7291 42.4994)" class="st1" width="1" height="1"/>
				
					<rect x="33.4" y="19" transform="matrix(-1 -1.224647e-16 1.224647e-16 -1 67.7291 39.0714)" class="st1" width="1" height="1"/>
				
					<rect x="33.4" y="17.3" transform="matrix(-1 -1.224647e-16 1.224647e-16 -1 67.7291 35.6434)" class="st1" width="1" height="1"/>
				
					<rect x="33.4" y="12.2" transform="matrix(-1 -1.224647e-16 1.224647e-16 -1 67.7291 25.3595)" class="st1" width="1" height="1"/>
			</g>
			
				<rect x="20.4" y="32.7" transform="matrix(-1 -1.224647e-16 1.224647e-16 -1 41.7425 66.4952)" class="st1" width="1" height="1"/>
			
				<rect x="28.3" y="34.5" transform="matrix(-1 -1.224647e-16 1.224647e-16 -1 57.5639 69.9232)" class="st1" width="1" height="1"/>
			
				<rect x="28.3" y="32.7" transform="matrix(-1 -1.224647e-16 1.224647e-16 -1 57.5639 66.4952)" class="st1" width="1" height="1"/>
			
				<rect x="26.7" y="32.7" transform="matrix(-1 -1.224647e-16 1.224647e-16 -1 54.3996 66.4952)" class="st1" width="1" height="1"/>
			<rect x="26.7" y="31" transform="matrix(-1 -1.224647e-16 1.224647e-16 -1 54.3996 63.0672)" class="st1" width="1" height="1"/>
			<rect x="25.1" y="31" transform="matrix(-1 -1.224647e-16 1.224647e-16 -1 51.2353 63.0672)" class="st1" width="1" height="1"/>
			<rect x="23.5" y="31" transform="matrix(-1 -1.224647e-16 1.224647e-16 -1 48.071 63.0672)" class="st1" width="1" height="1"/>
			<rect x="21.9" y="31" transform="matrix(-1 -1.224647e-16 1.224647e-16 -1 44.9068 63.0672)" class="st1" width="1" height="1"/>
			
				<rect x="28.3" y="29.3" transform="matrix(-1 -1.224647e-16 1.224647e-16 -1 57.5639 59.6392)" class="st1" width="1" height="1"/>
			
				<rect x="26.7" y="29.3" transform="matrix(-1 -1.224647e-16 1.224647e-16 -1 54.3996 59.6392)" class="st1" width="1" height="1"/>
			
				<rect x="23.5" y="29.3" transform="matrix(-1 -1.224647e-16 1.224647e-16 -1 48.071 59.6392)" class="st1" width="1" height="1"/>
			
				<rect x="21.9" y="29.3" transform="matrix(-1 -1.224647e-16 1.224647e-16 -1 44.9068 59.6392)" class="st1" width="1" height="1"/>
			
				<rect x="20.4" y="29.3" transform="matrix(-1 -1.224647e-16 1.224647e-16 -1 41.7425 59.6392)" class="st1" width="1" height="1"/>
			
				<rect x="26.7" y="27.6" transform="matrix(-1 -1.224647e-16 1.224647e-16 -1 54.3996 56.2113)" class="st1" width="1" height="1"/>
			
				<rect x="25.1" y="27.6" transform="matrix(-1 -1.224647e-16 1.224647e-16 -1 51.2353 56.2113)" class="st1" width="1" height="1"/>
			
				<rect x="23.5" y="27.6" transform="matrix(-1 -1.224647e-16 1.224647e-16 -1 48.071 56.2113)" class="st1" width="1" height="1"/>
			
				<rect x="20.4" y="27.6" transform="matrix(-1 -1.224647e-16 1.224647e-16 -1 41.7425 56.2113)" class="st1" width="1" height="1"/>
			
				<rect x="18.8" y="27.6" transform="matrix(-1 -1.224647e-16 1.224647e-16 -1 38.5782 56.2113)" class="st1" width="1" height="1"/>
			
				<rect x="17.2" y="27.6" transform="matrix(-1 -1.224647e-16 1.224647e-16 -1 35.4139 56.2113)" class="st1" width="1" height="1"/>
			
				<rect x="28.3" y="25.9" transform="matrix(-1 -1.224647e-16 1.224647e-16 -1 57.5639 52.7833)" class="st1" width="1" height="1"/>
			
				<rect x="25.1" y="25.9" transform="matrix(-1 -1.224647e-16 1.224647e-16 -1 51.2353 52.7833)" class="st1" width="1" height="1"/>
			
				<rect x="23.5" y="25.9" transform="matrix(-1 -1.224647e-16 1.224647e-16 -1 48.071 52.7833)" class="st1" width="1" height="1"/>
			
				<rect x="21.9" y="25.9" transform="matrix(-1 -1.224647e-16 1.224647e-16 -1 44.9068 52.7833)" class="st1" width="1" height="1"/>
			
				<rect x="20.4" y="25.9" transform="matrix(-1 -1.224647e-16 1.224647e-16 -1 41.7425 52.7833)" class="st1" width="1" height="1"/>
			
				<rect x="17.2" y="25.9" transform="matrix(-1 -1.224647e-16 1.224647e-16 -1 35.4139 52.7833)" class="st1" width="1" height="1"/>
			
				<rect x="26.7" y="24.2" transform="matrix(-1 -1.224647e-16 1.224647e-16 -1 54.3996 49.3553)" class="st1" width="1" height="1"/>
			
				<rect x="25.1" y="24.2" transform="matrix(-1 -1.224647e-16 1.224647e-16 -1 51.2353 49.3553)" class="st1" width="1" height="1"/>
			
				<rect x="21.9" y="24.2" transform="matrix(-1 -1.224647e-16 1.224647e-16 -1 44.9068 49.3553)" class="st1" width="1" height="1"/>
			
				<rect x="20.4" y="24.2" transform="matrix(-1 -1.224647e-16 1.224647e-16 -1 41.7425 49.3553)" class="st1" width="1" height="1"/>
			
				<rect x="28.3" y="22.5" transform="matrix(-1 -1.224647e-16 1.224647e-16 -1 57.5639 45.9274)" class="st1" width="1" height="1"/>
			
				<rect x="26.7" y="22.5" transform="matrix(-1 -1.224647e-16 1.224647e-16 -1 54.3996 45.9274)" class="st1" width="1" height="1"/>
			
				<rect x="23.5" y="22.5" transform="matrix(-1 -1.224647e-16 1.224647e-16 -1 48.071 45.9274)" class="st1" width="1" height="1"/>
			
				<rect x="21.9" y="22.5" transform="matrix(-1 -1.224647e-16 1.224647e-16 -1 44.9068 45.9274)" class="st1" width="1" height="1"/>
			
				<rect x="20.4" y="22.5" transform="matrix(-1 -1.224647e-16 1.224647e-16 -1 41.7425 45.9274)" class="st1" width="1" height="1"/>
			
				<rect x="18.8" y="22.5" transform="matrix(-1 -1.224647e-16 1.224647e-16 -1 38.5782 45.9274)" class="st1" width="1" height="1"/>
			
				<rect x="25.1" y="20.7" transform="matrix(-1 -1.224647e-16 1.224647e-16 -1 51.2353 42.4994)" class="st1" width="1" height="1"/>
			
				<rect x="23.5" y="20.7" transform="matrix(-1 -1.224647e-16 1.224647e-16 -1 48.071 42.4994)" class="st1" width="1" height="1"/>
			
				<rect x="21.9" y="20.7" transform="matrix(-1 -1.224647e-16 1.224647e-16 -1 44.9068 42.4994)" class="st1" width="1" height="1"/>
			<rect x="28.3" y="19" transform="matrix(-1 -1.224647e-16 1.224647e-16 -1 57.5639 39.0714)" class="st1" width="1" height="1"/>
			<rect x="26.7" y="19" transform="matrix(-1 -1.224647e-16 1.224647e-16 -1 54.3996 39.0714)" class="st1" width="1" height="1"/>
			<rect x="25.1" y="19" transform="matrix(-1 -1.224647e-16 1.224647e-16 -1 51.2353 39.0714)" class="st1" width="1" height="1"/>
			<rect x="20.4" y="19" transform="matrix(-1 -1.224647e-16 1.224647e-16 -1 41.7425 39.0714)" class="st1" width="1" height="1"/>
			
				<rect x="26.7" y="17.3" transform="matrix(-1 -1.224647e-16 1.224647e-16 -1 54.3996 35.6434)" class="st1" width="1" height="1"/>
			
				<rect x="25.1" y="17.3" transform="matrix(-1 -1.224647e-16 1.224647e-16 -1 51.2353 35.6434)" class="st1" width="1" height="1"/>
			
				<rect x="23.5" y="17.3" transform="matrix(-1 -1.224647e-16 1.224647e-16 -1 48.071 35.6434)" class="st1" width="1" height="1"/>
			<rect x="22" y="17.3" transform="matrix(-1 -1.224647e-16 1.224647e-16 -1 44.9068 35.6434)" class="st1" width="1" height="1"/>
			
				<rect x="20.4" y="17.3" transform="matrix(-1 -1.224647e-16 1.224647e-16 -1 41.7425 35.6434)" class="st1" width="1" height="1"/>
			
				<rect x="18.8" y="17.3" transform="matrix(-1 -1.224647e-16 1.224647e-16 -1 38.5782 35.6434)" class="st1" width="1" height="1"/>
			
				<rect x="26.7" y="15.6" transform="matrix(-1 -1.224647e-16 1.224647e-16 -1 54.3996 32.2155)" class="st1" width="1" height="1"/>
			
				<rect x="23.5" y="15.6" transform="matrix(-1 -1.224647e-16 1.224647e-16 -1 48.071 32.2155)" class="st1" width="1" height="1"/>
			
				<rect x="20.4" y="15.6" transform="matrix(-1 -1.224647e-16 1.224647e-16 -1 41.7425 32.2155)" class="st1" width="1" height="1"/>
			
				<rect x="28.3" y="13.9" transform="matrix(-1 -1.224647e-16 1.224647e-16 -1 57.5639 28.7875)" class="st1" width="1" height="1"/>
			
				<rect x="26.7" y="13.9" transform="matrix(-1 -1.224647e-16 1.224647e-16 -1 54.3996 28.7875)" class="st1" width="1" height="1"/>
			
				<rect x="25.1" y="13.9" transform="matrix(-1 -1.224647e-16 1.224647e-16 -1 51.2353 28.7875)" class="st1" width="1" height="1"/>
			
				<rect x="23.5" y="13.9" transform="matrix(-1 -1.224647e-16 1.224647e-16 -1 48.071 28.7875)" class="st1" width="1" height="1"/>
			
				<rect x="21.9" y="13.9" transform="matrix(-1 -1.224647e-16 1.224647e-16 -1 44.9068 28.7875)" class="st1" width="1" height="1"/>
			
				<rect x="20.4" y="13.9" transform="matrix(-1 -1.224647e-16 1.224647e-16 -1 41.7425 28.7875)" class="st1" width="1" height="1"/>
			
				<rect x="18.8" y="13.9" transform="matrix(-1 -1.224647e-16 1.224647e-16 -1 38.5782 28.7875)" class="st1" width="1" height="1"/>
			
				<rect x="17.2" y="13.9" transform="matrix(-1 -1.224647e-16 1.224647e-16 -1 35.4139 28.7875)" class="st1" width="1" height="1"/>
			
				<rect x="28.3" y="12.2" transform="matrix(-1 -1.224647e-16 1.224647e-16 -1 57.5639 25.3595)" class="st1" width="1" height="1"/>
			
				<rect x="21.9" y="12.2" transform="matrix(-1 -1.224647e-16 1.224647e-16 -1 44.9068 25.3595)" class="st1" width="1" height="1"/>
			
				<rect x="18.8" y="12.2" transform="matrix(-1 -1.224647e-16 1.224647e-16 -1 38.5782 25.3595)" class="st1" width="1" height="1"/>
			
				<rect x="17.2" y="10.5" transform="matrix(-1 -1.224647e-16 1.224647e-16 -1 35.4139 21.9316)" class="st1" width="1" height="1"/>
		</g>
		<g>
			<rect x="31.7" y="24.2" class="st6" width="1" height="1"/>
			<rect x="31.7" y="20.7" class="st6" width="1" height="1"/>
			<rect x="31.7" y="31" class="st6" width="1" height="1"/>
			<rect x="31.7" y="27.6" class="st6" width="1" height="1"/>
			<rect x="31.7" y="17.3" class="st6" width="1" height="1"/>
			<rect x="31.7" y="34.5" class="st6" width="1" height="1"/>
			<path class="st6" d="M39.5,16.1h-4.7v15.4h4.8c4,0,5.3-4,5.3-7.9C44.9,16.7,41.6,16.1,39.5,16.1z"/>
			<rect x="33.4" y="13.9" class="st6" width="1" height="1"/>
			<rect x="33.4" y="32.7" class="st6" width="1" height="1"/>
			<rect x="31.7" y="12.2" class="st6" width="1" height="1"/>
			<path class="st1" d="M40.4,12.1H30v1.8h1v1h-1v2.4h1v1h-1V19h1v1h-1v2.4h1v1h-1v0.7h1v1h-1v2.4h1v1h-1v0.7h1v1h-1V31h1v1h-1v0.7
				h1v1h-1v1.9h10.2c7.8,0,9.8-7.3,9.8-12.3C49.9,18.8,48.3,12.1,40.4,12.1z M31.7,25.9h1v1h-1V25.9z M32.7,35.5h-1v-1h1V35.5z
				 M32.7,32h-1v-1h1V32z M32.7,28.6h-1v-1h1V28.6z M32.7,25.2h-1v-1h1V25.2z M32.7,21.8h-1v-1h1V21.8z M31.7,18.3v-1h1v1H31.7z
				 M32.7,13.2h-1v-1h1V13.2z M34.4,33.8h-1v-1h1V33.8z M34.4,14.9h-1v-1h1V14.9z M39.6,31.5h-4.8V16.1h4.7c2.1,0,5.4,0.6,5.4,7.5
				C44.9,27.5,43.6,31.5,39.6,31.5z"/>
		</g>
	</g>
	<path class="st7" d="M30,11.6c-0.1-0.1-0.1-0.1-0.1-0.1s-0.1-0.1-0.2-0.1c-0.1,0-0.1-0.3-0.1-0.3s-0.4-0.2-0.4-0.2
		c-0.1,0-0.2,0.1-0.2,0.1s-0.6-0.2-0.6-0.2c0,0,0.3-0.4,0.4-0.6c0.2-0.2,0.4-0.7,0.4-0.8c0-0.1,0.8-1.2,0.8-1.2s-0.1-0.2-0.2-0.2
		c-0.1,0-0.2,0-0.2-0.1c0-0.2-0.1,0-0.2-0.1c-0.1-0.1-0.1-0.1-0.2-0.1c-0.2,0-0.1-0.1-0.1-0.2c-0.1-0.1-0.2,0.1-0.3,0.1
		c-0.2,0-0.1-0.2-0.1-0.3c0-0.1-0.9-0.5-0.9-0.5s0,0.2-0.1,0.2c-0.1,0.1-0.2-0.1-0.3,0c-0.2,0.1-0.4,0.3-0.4,0.3
		c-0.5,0.1-0.3,0-0.3-0.2c0-0.2-0.1-0.1-0.2-0.1c-0.1,0.1-0.2-0.1-0.3-0.3c-0.2-0.2-0.2,0-0.3,0c-0.1-0.1-0.2-0.2-0.2,0
		c-0.1,0.2-0.2,0.3-0.4,0.3c-0.2,0-0.3,0-0.3,0.1c0,0.1-0.1,0.2-0.1,0.2s-0.2-0.2-0.2-0.1s-0.1,0.1-0.2,0c-0.1-0.1-0.1,0.1-0.1,0.1
		s-0.4-0.1-0.6-0.2c-0.2-0.2-0.1,0.2-0.2,0.1c-0.1-0.1-0.2-0.2-0.3-0.1c-0.1,0.1-0.3,0.2-0.4,0c0-0.2-0.3-0.2-0.4-0.4
		c-0.1-0.3,0.1-0.2,0-0.5c-0.1-0.3,0-0.1,0-0.3c0-0.2-0.1-0.4-0.3-0.4s-0.3,0.1-0.4,0.1c-0.1-0.1-0.2-0.2-0.2-0.4
		c0-0.2,0-0.2-0.1-0.4c-0.1-0.1-0.2-0.4-0.2-0.5c-0.1-0.1-0.2-0.1-0.3-0.2c-0.1-0.1-0.1-0.1-0.2,0c-0.1,0.1-0.2-0.1-0.4-0.3
		c-0.2-0.2-0.1-0.3-0.2-0.3c-0.1,0-0.4,0.1-0.5,0c-0.1-0.1-0.2-0.5-0.3-0.7c0-0.2-0.2-0.3-0.2-0.4c0-0.1-0.3-0.2-0.3-0.2
		c-0.5-0.2-0.7-0.4-0.7-0.6c0-0.2-0.2,0-0.2,0c0,0-0.5-0.3-0.7-0.4c-0.2-0.1-0.3,0-0.4,0.1c-0.1,0.1-0.1,0.1-0.4,0
		c-0.2-0.1-0.2,0-0.4,0c-0.1,0,0,0.2,0.1,0.2c0.1,0.1,0.2,0.1,0.3,0.3c0.1,0.2,0.2,0.2,0.3,0.4c0.1,0.1,0.3,0.2,0.3,0.4
		c0,0.2-0.2,0.2-0.2,0.3C17,3,17.1,3.5,17,3.5c-0.2,0.1-0.2,0.1-0.3,0.3c-0.1,0.3,0,0.3-0.1,0.5c-0.1,0.1-0.2,0.5-0.3,0.6
		C16.2,5.1,16,5.1,16,5.1c-1,1.5-1.6,1.7-2.2,2.2c-0.6,0.5-2.6,0.9-2.8,1c-0.2,0.1-0.2,0.1-0.4,0.2C10.3,8.6,9.9,9,9.8,9.1
		C9.7,9.2,9.7,9.2,9.7,9.4c0,0.2-0.1,0.2-0.2,0.1c-0.1-0.1-0.2,0-0.4,0.2C8.9,10.1,9,10.1,9,10.3c0,0.2-0.2,0.6-0.4,0.6
		c-0.2,0.1-0.1,0-0.1,0.3c0,0.2,0,0.2-0.1,0.3c-0.1,0.1-0.2,0.6-0.2,0.7c0,0.1,0.1,0.1-0.1,0.2c0,0-0.1,0.1-0.1,0.1
		c-0.1,0-0.1,0-0.2,0.1c-0.1,0.1-0.1,0.2-0.3,0.4c-0.2,0.2-0.2,0.1-0.2,0.3c-0.1,0.2-0.3,0.2-0.4,0.2c-0.1-0.1-0.2,0-0.3,0
		c0,0,0,0-0.1-0.1c-0.2-0.2-0.4-0.5-0.5-0.7c-0.1-0.1,0-0.2-0.1-0.3c-0.1-0.1-0.3-0.3-0.4-0.2c-0.2,0.1-0.3-0.1-0.4-0.2
		c0-0.1-0.3,0-0.4-0.1c-0.1-0.1-0.2-0.1-0.3-0.1c-0.1,0-0.2,0.2-0.4,0.3c-0.2,0.2-0.1,0.2-0.3,0.1c-0.1-0.1-0.1-0.3,0-0.4
		c0.1-0.1,0.4-0.3,0.1-0.3c-0.3,0-0.2,0.1-0.2-0.2c0-0.2,0-0.2,0.1-0.3c0,0,0,0,0-0.1c0.1-0.2,0.4-0.2,0.5-0.3c0.1-0.1,0-0.3,0-0.5
		c0-0.2-0.1-0.3-0.1-0.5c0-0.2,0-0.2-0.2-0.2c-0.2,0-0.1,0.3-0.2,0.4C3.7,10,3.6,9.9,3.5,10.1c-0.2,0.2-0.2,0.1-0.3,0.3
		c-0.2,0.2-0.6,0.4-0.8,0.6c-0.1,0.1-0.1,0.2-0.1,0.3c0,0,0,0,0,0.1c-0.1,0.1-0.2,0.2-0.2,0.2s-0.1,0-0.1,0c0,0-0.2,0.1-0.2,0.2
		c0,0.1,0,0.2,0,0.3c0,0.1-0.1,0.1-0.1,0.3c0.1,0.2,0.1,0.1-0.1,0.2c-0.1,0.1-0.1,0.1,0.1,0.2C1.8,12.8,1.9,13,2,13.1
		C2,13.3,2,13.2,2.1,13.3c0.1,0.1,0.2,0.2,0.1,0.3c-0.1,0.1-0.1,0-0.3,0c-0.1,0,0,0.2,0.1,0.4c0.1,0.2,0.2,0.2,0.4,0.3
		c0.2,0.1,0.1,0.3,0.2,0.5c0.1,0.2,0.1,0.1,0.1,0.2c-0.1,0.1-0.1,0.3-0.1,0.3c-0.1,0-0.3,0-0.4,0c-0.1-0.1-0.1,0-0.2,0.2
		c-0.1,0.2,0,0.3,0,0.4c0,0.1,0.2,0.1,0.4,0.3c0.2,0.2,0.3,0.3,0.5,0.3c0.1,0,0.1,0.1,0.2,0.1c0.2,0.1,0.4,0.3,0.5,0.4
		c0.2,0.1,0.3,0.1,0.4,0.2c0.1,0,0.1,0.2,0.4,0.3c0.2,0,0.3,0.3,0.4,0.6c0.1,0.3,0.1,0.1,0.5,0.5c0.1,0.1,0.1,0.1,0.1,0.1
		c0,0,0,0,0.1,0.1c0,0,0,0,0,0c0,0,0,0,0,0c0.2,0.2,0.1,0.2,0.2,0.4c0.1,0.2,0,0.2,0.1,0.3c0.1,0.1,0.1,0.1,0.2,0.5
		c0.1,0.4,0.1,0.1,0.1,0.1c0,0,0.1,0.1,0.5,0.5c0.3,0.3,0.3,0.3,0.5,0.5c0.1,0.1,0.2,0.1,0.2,0.4c0,0.3,0.1,0.5,0.3,0.6
		C8,22.3,8,22.6,8.1,23.1c0,0.1,0,0.2,0.1,0.3c0,0.1,0,0,0.2,0.3c0.2,0.4,0.1,0.2,0.2,0.4c0.1,0.2,0.1,0.4,0.4,0.7
		c0.2,0.2,0.2,0.6,0.3,0.9c0.1,0.2,0,0.4,0,0.5c0,0.2,0.6,1,0.8,1.4c0,0,0.1,0.1,0.1,0.1c0.2,0.3,0.3,0.4,0.5,0.6
		c0.2,0.2,0,0.2,0.1,0.5c0.1,0.3,0.1,0.3,0,0.3c-0.1,0.1,0,0.2,0.1,0.3c0.1,0.1,0.2,0.2,0.6,0.4c0.3,0.2,0.2,0.3,0.3,0.6
		c0.1,0.3,0.1,0.3,0.1,0.5c0,0.2,0,0.2,0.2,0.4c0.2,0.2,0.1,0.1,0.2,0.2c0.1,0.2,0.3,0.3,0.5,0.4c0,0,0,0,0,0c0,0,0,0,0,0
		c0.2,0.2,0,0.3,0,0.4c0,0.2,0.4,0.6,0.5,0.7c0.1,0,0.2,0.6,0.3,0.7c0.1,0.1,0.3,0.4,0.4,0.6c0,0.1,0.1,0.1,0.1,0.2
		c0.1,0.1,0.1,0.4,0.1,0.6c0,0.2-0.1,0.3-0.1,0.5c0,0.2-0.3,0.2-0.4,0.2c-0.1,0,0,0.1,0.1,0.3c0.2,0.2,0,0.1,0.1,0.4
		c0.1,0.3,0.1,0,0.2,0.2c0.1,0.1,0.1,0.3,0.2,0.4c0.1,0.1,0.2,0.1,0.3,0.2c0.1,0.1,0,0.2,0.1,0.2c0,0,0.2,0.1,0.3,0.2
		c0.1,0.1,0.1,0,0.2,0.3c0.1,0.3,0.2,0.1,0.3,0.2c0.1,0.1,0.2,0.2,0.3,0.3c0.1,0.1,0.2,0.3,0.3,0.4c0.1,0.1,0.3,0.2,0.4,0.3
		c0.1,0.1,0,0.2,0.1,0.3c0.1,0.1,0.2,0.1,0.3,0.1c0.1,0,0.2,0,0.2,0s0.2,0.2,0.4,0.3c0.2,0.1,0.8,0.5,0.8,0.5s0,0.2,0.2,0.2
		c0.2,0,0.4,0.1,1,0.5c0.5,0.4,1.2,0.4,1.6,0.8c0.5,0.5,0.5,0.4,1.3,0.7c0.8,0.4,1,0.5,1.2,0.6c0.2,0.1,0.4,0.5,0.6,0.6
		c0.2,0.1,0.4,0.2,0.5,0.2c0.1,0,0.4,0.2,0.4,0.2c0.2,0,0.4,0.1,0.5,0.2c0.2,0.2,0.2,0.5,0.2,0.7c0,0.4,0,0.3,0.1,0.4
		c0,0,0.1,0.1,0.2,0.2c0.3,0.2,0.7,0.4,0.9,0.5c0.2,0.2,0.5,0.4,0.7,0.5c0.2,0.2,0.2,0.3,0.3,0.3c0.1,0,0.1-0.1,0.4-0.1
		c0.3,0,0.3,0,0.8-0.2c0.1,0,0.2-0.1,0.2-0.1c0,0,0,0,0,0c0-0.1,0.1-0.4,0.2-0.5c0-0.2,0-0.2-0.2-0.4c-0.2-0.2,0-0.2,0-0.2
		c0-0.1,0.2-0.1,0.4-0.1c0.1,0,0.5-0.4,0.5-0.4s0-0.1,0-0.3c0-0.1-0.1-0.1-0.1-0.2c0,0,0-0.1,0-0.2c0.1-0.3,0.2-0.2,0.3-0.2
		c0.2,0,0.1-0.1,0.2-0.3c0.1-0.2,0.1-0.2,0.3-0.3c0.1-0.1,0.3-0.3,0.3-0.4c0,0,0.1-0.1,0.2-0.1c0,0,0.1,0,0.2,0c0.2,0,0.2,0,0.3-0.2
		c0.1-0.3-0.1-0.1-0.1-0.3c0-0.1,0.4,0.1,0.5,0c0.1-0.1,0.2-0.1,0.3-0.3c0.1-0.2,0-0.1-0.2-0.1c-0.2-0.1-0.4,0-0.4-0.2
		c0-0.3,0.1-0.5,0-0.6c-0.1-0.1-0.2-0.1-0.2-0.1c-0.1-0.1-0.2-0.1-0.2-0.1s0-0.1-0.2-0.3c-0.1-0.1-0.2-0.1-0.2-0.2
		c0-0.1-0.2-0.2-0.2-0.3c0,0,0,0,0,0c0,0,0,0,0,0c0,0,0,0,0-0.1c0.2-0.2,0-0.1,0.1-0.2c0.1-0.1,0.1-0.3,0.1-0.3s-0.1-0.3-0.2-0.3
		c-0.1-0.1,0-0.1-0.2-0.4c-0.2-0.3,0-0.2,0.1-0.4c0-0.2,0.1,0,0.2-0.1c0.1-0.1,0.1,0,0.1-0.4c0-0.4,0.2-0.1,0.3-0.2
		c0.1-0.1,0.2,0,0.3-0.2c0.1-0.1,0-0.2-0.1-0.4c-0.1-0.2,0.2,0,0.4,0c0.2,0-0.1-0.1-0.1-0.4c0-0.3-0.1-0.2-0.2-0.3
		C31.8,36.3,32,36,32,35.9"/>
	<g>
		<path class="st1" d="M36.7,39.2h1.5L37,46.3h-1.5L36.7,39.2z"/>
		<path class="st1" d="M42.1,46.3h-1.5l0.9-5.1c0-0.1,0-0.2-0.1-0.3c-0.1-0.1-0.2-0.1-0.3-0.1h-2.4l0.3-1.5h7.1l-0.3,1.5h-2.4
			c-0.1,0-0.2,0-0.3,0.1c-0.1,0.1-0.2,0.2-0.2,0.3L42.1,46.3z"/>
		<path class="st1" d="M53,43.3c0,0.2-0.2,0.4-0.4,0.6c-0.2,0.2-0.4,0.3-0.6,0.3h-4.7l-0.4,2.1h-1.5l1.1-6.2c0-0.2,0.2-0.4,0.4-0.6
			c0.2-0.2,0.4-0.3,0.6-0.3h5.4c0.2,0,0.4,0.1,0.6,0.3c0.1,0.2,0.2,0.4,0.1,0.6L53,43.3z M51.7,42.2l0.2-1.1c0-0.1,0-0.2-0.1-0.3
			c-0.1-0.1-0.2-0.1-0.3-0.1h-3.2c-0.1,0-0.2,0-0.3,0.1c-0.1,0.1-0.2,0.2-0.2,0.3l-0.2,1.1c0,0.1,0,0.2,0.1,0.3
			c0.1,0.1,0.2,0.1,0.3,0.1h3.2c0.1,0,0.2,0,0.3-0.1C51.6,42.4,51.7,42.3,51.7,42.2z"/>
	</g>
	<g>
		<path class="st1" d="M61,42.3h-3.6c-0.1,0-0.2,0-0.3,0.1c-0.1,0.1-0.1,0.2-0.2,0.3l-0.6,3.6H55l0.8-4.5c0-0.2,0.1-0.4,0.3-0.5
			c0.2-0.1,0.4-0.2,0.6-0.2h4.5L61,42.3z"/>
		<path class="st1" d="M66.6,46.3h-4.5c-0.2,0-0.4-0.1-0.5-0.2c-0.1-0.1-0.2-0.3-0.1-0.5l0.7-3.8c0-0.2,0.1-0.4,0.3-0.5
			S62.8,41,63,41h3.8c0.2,0,0.4,0.1,0.5,0.2c0.1,0.1,0.2,0.3,0.1,0.5l-0.4,2c0,0.2-0.1,0.4-0.3,0.5c-0.2,0.1-0.4,0.2-0.6,0.2h-3.2
			l0,0.1c0,0.1,0,0.2,0.1,0.3c0.1,0.1,0.1,0.1,0.2,0.1h3.6L66.6,46.3z M65.9,42.8L65.9,42.8c0-0.2,0-0.3,0-0.4
			c-0.1-0.1-0.1-0.1-0.2-0.1h-1.9c-0.1,0-0.2,0-0.3,0.1c-0.1,0.1-0.1,0.2-0.2,0.3l0,0.1c0,0.1,0,0.2,0.1,0.3
			c0.1,0.1,0.1,0.1,0.2,0.1h1.9c0.1,0,0.2,0,0.3-0.1C65.8,43,65.9,42.9,65.9,42.8z"/>
		<path class="st1" d="M72.9,46.3h-4.5c-0.2,0-0.4-0.1-0.5-0.2c-0.1-0.1-0.2-0.3-0.1-0.5l0.7-3.8c0-0.2,0.1-0.4,0.3-0.5
			c0.2-0.1,0.4-0.2,0.6-0.2h3.2l0.3-1.7h1.3L72.9,46.3z M71.8,45l0.5-2.6H70c-0.1,0-0.2,0-0.3,0.1c-0.1,0.1-0.1,0.2-0.2,0.3
			l-0.3,1.9c0,0.1,0,0.2,0.1,0.3c0.1,0.1,0.1,0.1,0.2,0.1H71.8z"/>
	</g>
</g>
</svg>
