<?xml version="1.0" encoding="utf-8"?>
<!-- Generator: Adobe Illustrator 23.0.1, SVG Export Plug-In . SVG Version: 6.00 Build 0)  -->
<svg version="1.1" id="Capa_1" xmlns="http://www.w3.org/2000/svg" xmlns:xlink="http://www.w3.org/1999/xlink" x="0px" y="0px"
	 viewBox="0 0 200 200" style="enable-background:new 0 0 200 200;" xml:space="preserve">
<style type="text/css">
	.st0{fill:#FFFFFF;}
</style>
<g>
	<path class="st0" d="M125.8,93.4c-0.4-0.4-0.6-1.1-0.3-1.7c0.2-0.6,0.8-1,1.4-1h10.8l-27.1-20.3c-0.5-0.4-0.7-1.1-0.5-1.7
		c0.2-0.6,0.8-1.1,1.5-1.1h8.2l-19.8-23l-19.8,23h8.2c0.7,0,1.3,0.4,1.5,1.1c0.2,0.6,0,1.3-0.5,1.7L62.2,90.8H73
		c0.6,0,1.2,0.4,1.4,1c0.2,0.6,0.1,1.2-0.3,1.7l-28.2,28.2h46.3h7.7h7.7h46.3L125.8,93.4z"/>
	<polygon class="st0" points="99.9,124.6 93.6,124.6 90.1,156.2 109.7,156.2 106.2,124.6 	"/>
</g>
</svg>
