<?xml version="1.0" encoding="utf-8"?>
<!-- Generator: Adobe Illustrator 23.0.1, SVG Export Plug-In . SVG Version: 6.00 Build 0)  -->
<svg version="1.1" id="Capa_1" xmlns="http://www.w3.org/2000/svg" xmlns:xlink="http://www.w3.org/1999/xlink" x="0px" y="0px"
	 viewBox="0 0 200 200" style="enable-background:new 0 0 200 200;" xml:space="preserve">
<style type="text/css">
	.st0{fill:#FFFFFF;}
</style>
<path class="st0" d="M45.4,103.5c0-28.4,23-51.4,51.3-51.4c9.2,0,18.2,2.4,26.1,7.1c-0.2,0.8-0.3,1.6-0.3,2.5l0.1,4.9l-4.2,4.2
	c-18.1-12-42.5-7-54.5,11.1s-7,42.5,11.1,54.5c18.1,12,42.5,7,54.5-11.1c8.7-13.2,8.7-30.2,0-43.4l4.2-4.2l5.1,0.1
	c0.8,0,1.6-0.1,2.3-0.3c14.4,24.5,6.2,55.9-18.3,70.3c-24.5,14.4-55.9,6.2-70.3-18.3C47.9,121.6,45.4,112.6,45.4,103.5z M96.8,86.1
	c1.8,0,3.6,0.3,5.4,0.9l9.1-9.1c-14.2-8-32.2-3-40.2,11.1s-3,32.2,11.1,40.2s32.2,3,40.2-11.1c5.1-9,5.1-20.1,0-29.1l-9.1,9.1
	c3,9.1-2,18.9-11.1,21.9c-9.1,3-18.9-2-21.9-11.1s2-18.9,11.1-21.9C93.2,86.4,95,86.1,96.8,86.1z M99.8,96.2
	c-4-1.7-8.6,0.3-10.3,4.3s0.3,8.6,4.3,10.3c4,1.7,8.6-0.3,10.3-4.3c0.8-1.9,0.8-4.1,0-6l27.7-27.7l6.9,0.1c1.2,0,2.3-0.4,3.2-1.3
	l12.4-12.4c0.1-0.1,0.1-0.2,0-0.3c0,0-0.1-0.1-0.1-0.1l-11-1c-0.4,0-0.6-0.3-0.7-0.7l-1-11c0-0.1-0.1-0.2-0.3-0.2
	c-0.1,0-0.1,0-0.1,0.1l-12.4,12.4c-0.8,0.8-1.3,2-1.3,3.2l0.1,6.9L99.8,96.2z"/>
</svg>
