<?xml version="1.0" encoding="utf-8"?>
<!-- Generator: Adobe Illustrator 23.0.1, SVG Export Plug-In . SVG Version: 6.00 Build 0)  -->
<svg version="1.1" id="Capa_1" xmlns="http://www.w3.org/2000/svg" xmlns:xlink="http://www.w3.org/1999/xlink" x="0px" y="0px"
	 viewBox="0 0 200 200" style="enable-background:new 0 0 200 200;" xml:space="preserve">
<style type="text/css">
	.st0{fill:#FFFFFF;}
</style>
<g>
	<path class="st0" d="M156.3,124.3l-15.5,1.8c0,0.3,0,0.6,0,0.7c-0.4,4.1-2.7,7-6.2,8.1c-6.7,2.1-22.7,5.6-23.4,5.7
		c-0.3,0-0.4,0-0.7,0l0,0l-18.1-0.3c-1.8,0-3.2-1.5-3.2-3.4c0-1.8,1.5-3.4,3.4-3.2l16.8,0.4c0.6,0,1,0,1.5-0.1
		c3.8-0.8,15.5-3.4,21-5.2c1.1-0.4,2.1-0.7,2.2-2.7c0.3-3.2-1.7-7.1-3.5-8.1c-2.2-1.3-9.2-0.7-15.4-0.3c-5.5,0.4-8.4,0.8-14,0.4
		c-3.2-0.1-7.6-1.3-10.8-2c-9.9-2.1-16.5-1-22.5,1.3c-2.2,0.8-4.6,1.8-6.7,2.7c-4.5,1.8-9.1,3.2-13.9,4.2l-9.1,1.7
		c-2.1,0.4-3.6,2.2-3.6,4.5v25.5c0,2.9,2.7,5,5.5,4.5l9.1-1.8c3.6-0.7,7.3-0.7,10.9,0l27.9,6.2c6.3,1.8,13,1.4,19-1.4l54.7-26.2
		c0.8-0.4,1.4-1,1.8-1.8C166.3,128.8,161.5,123.9,156.3,124.3z"/>
	<path class="st0" d="M81.2,78.4L80.3,79l-1.7,1.1c-1.7,1.1-2.1,3.2-1.1,5l4.8,8.4c0.3,0.6,0.7,1,1.3,1.3c1.1,0.7,2.4,0.8,3.6,0.3
		l2.8-1.3c1.4-0.7,2.9-1,4.5-1s3.1,0.4,4.3,1.3l0,0l0,0c0.3,0.1,0.6,0.4,0.8,0.6c2.2,1.7,3.8,4.1,3.9,6.9l0.3,3.1
		c0.1,2,1.8,3.5,3.8,3.5h9.7c1,0,1.8-0.4,2.5-1c0.7-0.6,1.1-1.5,1.3-2.5l0.3-3.1c0.1-2.4,1.3-4.5,2.9-6.2l0.1-0.1
		c0.6-0.4,1.1-1,1.7-1.3l0,0l0,0c1.3-0.7,2.7-1.1,4.1-1.3c0.1,0,0.3,0,0.4,0h0.1c1.4,0,2.9,0.3,4.2,0.8l2.8,1.3
		c1.5,0.7,3.4,0.3,4.5-1.1c0.1-0.1,0.3-0.3,0.4-0.4l4.8-8.4c0.7-1.3,0.7-2.8-0.1-3.9c-0.3-0.4-0.6-0.7-1-1l-2.4-1.7
		c-0.4-0.3-0.7-0.6-1-0.8c-2-1.8-3.2-4.3-3.2-7c0-2,0.7-3.8,1.7-5.3c0.7-1,1.4-2,2.5-2.7l2.4-1.7c0.1-0.1,0.3-0.3,0.6-0.6
		c1.1-1.1,1.5-2.9,0.7-4.5l-4.8-8.4c-0.1-0.4-0.4-0.7-0.8-0.8l-0.1-0.1c-0.3,0-0.4,0-0.7-0.1c-1-0.6-2.2-0.7-3.4-0.1l-1,0.6
		l-1.7,0.8c-2.8,1.4-6.2,1.3-8.8-0.3l0,0l0,0c-0.6-0.4-1.1-0.8-1.7-1.3l-0.1-0.1c-0.1-0.1-0.1-0.3-0.3-0.4c-0.4-0.4-0.8-0.8-1.1-1.4
		c-0.8-1.3-1.3-2.8-1.4-4.3l-0.6-3.1c0-0.7-0.3-1.3-0.7-1.7c-0.7-1-1.8-1.7-3.1-1.7h-9.7c-2,0-3.6,1.5-3.8,3.5l-0.1,2.8
		c-0.1,2.1-1,3.9-2.4,5.5c-0.7,0.8-1.4,1.5-2.4,2.1c0,0,0,0-0.1,0c-1.3,0.7-2.7,1.1-4.1,1.3c-0.1,0-0.3,0-0.4,0
		c-0.8,0-1.8-0.1-2.7-0.3c-0.6-0.1-1.3-0.3-1.8-0.6l-1-0.6l-1.7-0.8c-0.8-0.4-1.8-0.4-2.7-0.3c-0.8,0.3-1.7,0.8-2.2,1.7l-4.8,8.4
		c-1,1.7-0.4,3.9,1.1,5l1.7,1.1l0.8,0.6c0.7,0.4,1.3,1,1.8,1.5c1.5,1.7,2.4,4.1,2.4,6.4c0,2.1-0.8,4.2-2.1,5.9
		C82.7,77.2,82,77.9,81.2,78.4z M112.5,54.6c4.3,0,8.4,1.8,11.3,4.6c2.9,2.8,4.6,6.9,4.6,11.3c0,5.3-2.7,9.9-6.6,12.9
		c-2.7,2-5.9,3.1-9.4,3.1c-8.8,0-16-7.1-16-16S103.7,54.6,112.5,54.6z"/>
	<path class="st0" d="M112.5,80c2.5,0,4.9-1,6.6-2.8c1.7-1.7,2.8-4.1,2.8-6.6c0-1.3-0.3-2.5-0.7-3.6c-1.4-3.4-4.8-5.7-8.7-5.7
		c-5.2,0-9.4,4.2-9.4,9.4S107.3,80,112.5,80z"/>
</g>
</svg>
