<?xml version="1.0" encoding="utf-8"?>
<!-- Generator: Adobe Illustrator 23.0.1, SVG Export Plug-In . SVG Version: 6.00 Build 0)  -->
<svg version="1.1" id="Capa_1" xmlns="http://www.w3.org/2000/svg" xmlns:xlink="http://www.w3.org/1999/xlink" x="0px" y="0px"
	 viewBox="0 0 255.1 85" style="enable-background:new 0 0 255.1 85;" xml:space="preserve">
<style type="text/css">
	.st0{fill:#3C3C3B;}
	.st1{fill:#2FAC66;}
</style>
<g>
	<g>
		<path class="st0" d="M27.8,27.5l-1.5,8.8h12.2l-0.6,3.4H25.6c-1.8,0-3-1.4-2.7-3.2l1.5-9.2c0.3-1.8,2-3.2,3.7-3.2h12.3l-0.6,3.4
			H27.8z"/>
		<path class="st0" d="M42.9,24.2h3.4l-2.6,15.6h-3.4L42.9,24.2z"/>
		<path class="st0" d="M64.3,24.2l-0.6,3.4h-6.1l-2,12.2h-3.4l2-12.2h-6.1l0.6-3.4H64.3z"/>
		<path class="st0" d="M80.6,27.5h-11l-0.5,2.7H78l-0.6,3.4h-8.8l-0.5,2.7h11l-0.6,3.4H64.2l2.6-15.6h14.4L80.6,27.5z"/>
	</g>
	<g>
		<path class="st1" d="M89.4,39.9l-1.5-0.1l-0.3-0.9c-1.1,0.7-2.3,1.1-3.8,1c-3.3-0.1-4.2-2.4-3.6-6c0.6-3.7,2.1-5.8,5.4-5.7
			c1.5,0.1,2.6,0.5,3.5,1.3l0.6-0.9l1.5,0.1L89.4,39.9z M88.3,31c-0.4-0.3-1.1-0.7-2.3-0.7c-2.2-0.1-2.8,1.6-3.2,3.7
			c-0.3,2.1-0.2,3.8,2,3.8c1.2,0,2-0.3,2.5-0.6L88.3,31z"/>
		<path class="st1" d="M101.4,40.6c-0.4,2.8-1.6,5.1-6.3,4.9c-1.4,0-2.9-0.4-3.9-0.9l0.4-2.2c1.2,0.7,2.6,0.9,3.9,1
			c2.5,0.1,3.2-1.1,3.4-2.5l0.3-1.6c-0.9,0.5-1.9,0.7-3.1,0.7c-3.3-0.1-4.2-2.4-3.6-6c0.6-3.7,2.1-5.8,5.4-5.7
			c1.5,0.1,2.6,0.5,3.5,1.3l0.6-0.9l1.5,0.1L101.4,40.6z M100.4,31c-0.4-0.3-1.1-0.7-2.3-0.7c-2.2-0.1-2.8,1.6-3.2,3.7
			c-0.3,2.1-0.2,3.8,2,3.8c1.2,0,2-0.3,2.5-0.6L100.4,31z"/>
		<path class="st1" d="M112,30.6c-0.3-0.1-0.7-0.2-1.2-0.2c-1.3,0-2.4,0.2-3,0.6l-1.4,8.7l-2.5-0.1l1.8-11.2l1.5,0.1l0.3,0.9
			c0.9-0.6,2.3-1.1,3.7-1c0.5,0,0.9,0.1,1.2,0.2L112,30.6z"/>
		<path class="st1" d="M112.5,33.9c0.6-3.5,1.9-5.9,5.9-5.7c4,0.1,4.6,2.6,4.1,6.1c-0.6,3.5-1.9,5.9-5.9,5.7
			C112.6,39.8,112,37.3,112.5,33.9z M120,34.2c0.4-2.4,0.3-3.8-1.9-3.9c-2.1-0.1-2.7,1.3-3.1,3.7s-0.3,3.8,1.9,3.9
			C119.1,37.9,119.6,36.6,120,34.2z"/>
		<path class="st1" d="M124.4,36.9l1.3-8.5l2.5,0.1l-1.3,8.4c-0.1,0.6,0.1,0.9,0.8,0.9l-0.3,2c0,0-0.2,0-0.5,0
			C124.8,39.8,124.1,38.8,124.4,36.9z M127.6,23.5c0.9,0,1.6,0.8,1.6,1.7c0,0.9-0.8,1.6-1.7,1.6c-0.9,0-1.6-0.8-1.6-1.7
			C125.9,24.2,126.6,23.4,127.6,23.5z"/>
		<path class="st1" d="M136.3,39.8l1.2-7.7c0.2-1.1-0.3-1.7-1.5-1.7c-1.2,0-2,0.2-2.7,0.6l-1.4,8.7l-2.5-0.1l1.8-11.2l1.5,0.1
			l0.3,0.9c1.3-0.7,2.6-1.1,3.8-1c2.9,0.1,3.7,1.6,3.3,3.7l-1.3,7.9L136.3,39.8z"/>
		<path class="st1" d="M150,29.1l1-6.2l2.5,0.1l-2.7,16.9l-1.5-0.1l-0.3-0.9c-1.1,0.7-2.3,1.1-3.8,1c-3.3-0.1-4.2-2.4-3.6-6
			c0.6-3.7,2.1-5.8,5.4-5.7C148.2,28.2,149.2,28.6,150,29.1z M144.2,34c-0.3,2.1-0.2,3.8,2,3.8c1.2,0,2-0.3,2.5-0.6l1-6.2
			c-0.4-0.3-1.1-0.7-2.3-0.7C145.1,30.2,144.5,31.9,144.2,34z"/>
		<path class="st1" d="M157.4,28.4l-1.2,7.7c-0.2,1.1,0.3,1.7,1.5,1.7c1.2,0,2-0.2,2.7-0.6l1.4-8.7l2.5,0.1l-1.8,11.2l-1.5-0.1
			l-0.3-0.9c-1.3,0.7-2.6,1.1-3.8,1c-2.9-0.1-3.7-1.6-3.3-3.7l1.2-7.9L157.4,28.4z"/>
		<path class="st1" d="M169.9,32.9c3.4,0.4,4.1,1.5,3.7,3.5c-0.3,1.9-1.8,3.6-5.4,3.4c-1.6-0.1-2.9-0.4-3.6-0.7L165,37
			c0.7,0.3,1.9,0.7,3.3,0.7c1.8,0.1,2.7-0.3,2.9-1.3c0.1-0.8-0.2-1.3-1.6-1.5c-3.4-0.4-4-1.5-3.7-3.4c0.3-1.9,1.8-3.5,5.1-3.4
			c1.5,0.1,2.6,0.3,3.4,0.7l-0.3,2.2c-0.9-0.4-1.9-0.7-3.3-0.8c-1.3,0-2.2,0.3-2.4,1.3C168.1,32.4,168.5,32.8,169.9,32.9z"/>
		<path class="st1" d="M181.6,39.9c-0.4,0.1-1,0.1-1.4,0.1c-2.5-0.1-3.8-1.2-3.4-3.6l0.9-5.9l-2.1-0.1l0.3-1.5l2.1-0.5l0.4-2.7
			l2.6-0.6l-0.5,3.4l3.2,0.1l-0.3,2.1l-3.2-0.1l-0.9,5.6c-0.2,1.1,0.3,1.7,1.6,1.7c0.4,0,0.7,0,1-0.1L181.6,39.9z"/>
		<path class="st1" d="M191.7,30.6c-0.3-0.1-0.7-0.2-1.2-0.2c-1.3,0-2.4,0.2-3,0.6l-1.4,8.7l-2.5-0.1l1.8-11.2l1.5,0.1l0.3,0.9
			c0.9-0.6,2.3-1.1,3.7-1c0.5,0,0.9,0.1,1.2,0.2L191.7,30.6z"/>
		<path class="st1" d="M192.4,36.9l1.3-8.5l2.5,0.1l-1.3,8.4c-0.1,0.6,0.1,0.9,0.8,0.9l-0.3,2c0,0-0.2,0-0.5,0
			C192.9,39.8,192.1,38.8,192.4,36.9z M195.6,23.5c0.9,0,1.6,0.8,1.6,1.7c0,0.9-0.8,1.6-1.7,1.6c-0.9,0-1.6-0.8-1.6-1.7
			C193.9,24.2,194.7,23.4,195.6,23.5z"/>
		<path class="st1" d="M207.1,39.9l-1.5-0.1l-0.3-0.9c-1.1,0.7-2.3,1.1-3.8,1c-3.3-0.1-4.2-2.4-3.6-6c0.6-3.7,2.1-5.8,5.4-5.7
			c1.5,0.1,2.6,0.5,3.5,1.3l0.6-0.9l1.5,0.1L207.1,39.9z M206,31c-0.4-0.3-1.1-0.7-2.3-0.7c-2.2-0.1-2.8,1.6-3.2,3.7
			c-0.3,2.1-0.2,3.8,2,3.8c1.2,0,2-0.3,2.5-0.6L206,31z"/>
		<path class="st1" d="M210.1,36.9l2.2-14.1l2.5,0.1l-2.2,14.1c-0.1,0.6,0.1,0.9,0.8,0.9l-0.3,2c0,0-0.2,0-0.5,0
			C210.6,39.8,209.8,38.8,210.1,36.9z"/>
	</g>
	<g>
		<path class="st0" d="M158.7,50.7c1.4,0,2.3,0.3,2.9,0.5v1c-1-0.4-1.8-0.6-2.9-0.6c-2.5,0-3.3,2.1-3.3,4.8s0.9,4.8,3.3,4.8
			c1.1,0,1.9-0.2,2.9-0.6v1c-0.6,0.3-1.5,0.5-2.9,0.5c-3.4,0-4.4-2.6-4.4-5.8S155.3,50.7,158.7,50.7z"/>
		<path class="st0" d="M166.5,55.4c-1,0-1.5,0.2-2.1,0.5v6.2h-1V50.8h1v4.2c0.6-0.4,1.4-0.6,2.1-0.6c1.8,0,2.6,0.8,2.6,2.3v5.4H168
			v-5.5C168,55.7,167.5,55.4,166.5,55.4z"/>
		<path class="st0" d="M173.6,55.4c-1,0-1.7,0.2-2.3,0.4v-0.9c0.7-0.3,1.5-0.4,2.3-0.4c2.3,0,2.8,1,2.8,2.5v5.1h-0.6l-0.2-0.6
			c-0.7,0.5-1.5,0.8-2.3,0.8c-2,0-2.6-1.2-2.6-2.4c0-1.3,0.7-2.2,2.7-2.3l2-0.1V57C175.4,55.9,175,55.4,173.6,55.4z M173.3,58.3
			c-1.1,0.1-1.5,0.7-1.5,1.5c0,0.7,0.2,1.5,1.6,1.5c0.8,0,1.4-0.2,2-0.6v-2.6L173.3,58.3z"/>
		<path class="st0" d="M178.9,54.6l2.1,6.2l2.1-6.2h1.2l-2.9,7.7h-0.8l-2.9-7.7H178.9z"/>
		<path class="st0" d="M186.4,51.6c0.4,0,0.8,0.3,0.8,0.8c0,0.4-0.3,0.8-0.8,0.8c-0.4,0-0.8-0.3-0.8-0.8
			C185.6,51.9,185.9,51.6,186.4,51.6z M185.9,60.6v-6h1v6.1c0,0.5,0.2,0.7,0.6,0.7v0.9C186.4,62.3,185.9,61.8,185.9,60.6z"/>
		<path class="st0" d="M198.1,56.7c0-1-0.6-1.3-1.4-1.3c-0.9,0-1.4,0.2-2,0.5c0.1,0.2,0.1,0.5,0.1,0.8v5.5h-1.1v-5.5
			c0-1-0.6-1.3-1.4-1.3c-0.9,0-1.4,0.2-2,0.5v6.3h-1.1v-7.5h0.6l0.2,0.6c0.7-0.5,1.5-0.8,2.2-0.8c1,0,1.7,0.3,2.1,0.9
			c0.8-0.5,1.6-0.9,2.3-0.9c1.6,0,2.5,0.8,2.5,2.3v5.4h-1.1V56.7z"/>
		<path class="st0" d="M204,62.3c-2.6,0-3.2-1.6-3.2-3.9c0-2.3,0.6-3.9,3.2-3.9c2.6,0,3.2,1.6,3.2,3.9
			C207.2,60.7,206.6,62.3,204,62.3z M204,55.4c-2,0-2.1,1.3-2.1,3c0,1.7,0.1,3,2.1,3c2,0,2.1-1.3,2.1-3
			C206.1,56.7,206,55.4,204,55.4z"/>
		<path class="st0" d="M212,54.5c0.7,0,1.6,0.1,2.2,0.4v0.9c-0.6-0.2-1.2-0.3-2.3-0.3c-1.9,0-2.1,1.5-2.1,3s0.2,3,2.1,3
			c1.1,0,1.7-0.2,2.3-0.3v0.9c-0.7,0.3-1.5,0.4-2.2,0.4c-2.5,0-3.2-1.7-3.2-3.9S209.4,54.5,212,54.5z"/>
		<path class="st0" d="M218.9,55.4c-1,0-1.5,0.2-2.1,0.5v6.2h-1V50.8h1v4.2c0.6-0.4,1.4-0.6,2.1-0.6c1.8,0,2.6,0.8,2.6,2.3v5.4h-1.1
			v-5.5C220.4,55.7,219.9,55.4,218.9,55.4z"/>
		<path class="st0" d="M224.1,51.6c0.4,0,0.8,0.3,0.8,0.8c0,0.4-0.3,0.8-0.8,0.8c-0.4,0-0.8-0.3-0.8-0.8
			C223.4,51.9,223.7,51.6,224.1,51.6z M223.6,60.6v-6h1v6.1c0,0.5,0.2,0.7,0.6,0.7v0.9C224.2,62.3,223.6,61.8,223.6,60.6z"/>
		<path class="st0" d="M230,54.5c0.7,0,1.6,0.1,2.2,0.4v0.9c-0.6-0.2-1.2-0.3-2.3-0.3c-1.9,0-2.1,1.5-2.1,3s0.2,3,2.1,3
			c1.1,0,1.7-0.2,2.3-0.3v0.9c-0.7,0.3-1.5,0.4-2.2,0.4c-2.5,0-3.2-1.7-3.2-3.9S227.5,54.5,230,54.5z"/>
	</g>
</g>
</svg>
