<?xml version="1.0" encoding="utf-8"?>
<!-- Generator: Adobe Illustrator 23.0.1, SVG Export Plug-In . SVG Version: 6.00 Build 0)  -->
<svg version="1.1" id="Capa_1" xmlns="http://www.w3.org/2000/svg" xmlns:xlink="http://www.w3.org/1999/xlink" x="0px" y="0px"
	 viewBox="0 0 255.1 85" style="enable-background:new 0 0 255.1 85;" xml:space="preserve">
<style type="text/css">
	.st0{fill:#3C3C3B;}
	.st1{fill:#2FAC66;}
</style>
<g>
	<g>
		<path class="st0" d="M27.8,25.7l-1.5,8.8h12.2l-0.6,3.4H25.6c-1.8,0-3-1.4-2.7-3.2l1.5-9.2c0.3-1.8,2-3.2,3.7-3.2h12.3l-0.6,3.4
			H27.8z"/>
		<path class="st0" d="M42.9,22.3h3.4l-2.6,15.6h-3.4L42.9,22.3z"/>
		<path class="st0" d="M64.3,22.3l-0.6,3.4h-6.1l-2,12.2h-3.4l2-12.2h-6.1l0.6-3.4H64.3z"/>
		<path class="st0" d="M80.6,25.7h-11l-0.5,2.7H78l-0.6,3.4h-8.8l-0.5,2.7h11l-0.6,3.4H64.2l2.6-15.6h14.4L80.6,25.7z"/>
	</g>
	<g>
		<path class="st1" d="M89.4,38l-1.5-0.1L87.7,37c-1.1,0.7-2.3,1.1-3.8,1c-3.3-0.1-4.2-2.4-3.6-6c0.6-3.7,2.1-5.8,5.4-5.7
			c1.5,0.1,2.6,0.5,3.5,1.3l0.6-0.9l1.5,0.1L89.4,38z M88.3,29.2c-0.4-0.3-1.1-0.7-2.3-0.7c-2.2-0.1-2.8,1.6-3.2,3.7
			c-0.3,2.1-0.2,3.8,2,3.8c1.2,0,2-0.3,2.5-0.6L88.3,29.2z"/>
		<path class="st1" d="M101.4,38.8c-0.4,2.8-1.6,5.1-6.3,4.9c-1.4,0-2.9-0.4-3.9-0.9l0.4-2.2c1.2,0.7,2.6,0.9,3.9,1
			c2.5,0.1,3.2-1.1,3.4-2.5l0.3-1.6c-0.9,0.5-1.9,0.7-3.1,0.7c-3.3-0.1-4.2-2.4-3.6-6c0.6-3.7,2.1-5.8,5.4-5.7
			c1.5,0.1,2.6,0.5,3.5,1.3l0.6-0.9l1.5,0.1L101.4,38.8z M100.4,29.2c-0.4-0.3-1.1-0.7-2.3-0.7c-2.2-0.1-2.8,1.6-3.2,3.7
			c-0.3,2.1-0.2,3.8,2,3.8c1.2,0,2-0.3,2.5-0.6L100.4,29.2z"/>
		<path class="st1" d="M112,28.7c-0.3-0.1-0.7-0.2-1.2-0.2c-1.3,0-2.4,0.2-3,0.6l-1.4,8.7l-2.5-0.1l1.8-11.2l1.5,0.1l0.3,0.9
			c0.9-0.6,2.3-1.1,3.7-1c0.5,0,0.9,0.1,1.2,0.2L112,28.7z"/>
		<path class="st1" d="M112.5,32c0.6-3.5,1.9-5.9,5.9-5.7c4,0.1,4.6,2.6,4.1,6.1c-0.6,3.5-1.9,5.9-5.9,5.7
			C112.6,37.9,112,35.5,112.5,32z M120,32.3c0.4-2.4,0.3-3.8-1.9-3.9c-2.1-0.1-2.7,1.3-3.1,3.7c-0.4,2.4-0.3,3.8,1.9,3.9
			S119.6,34.7,120,32.3z"/>
		<path class="st1" d="M124.4,35l1.3-8.5l2.5,0.1l-1.3,8.4c-0.1,0.6,0.1,0.9,0.8,0.9l-0.3,2c0,0-0.2,0-0.5,0
			C124.8,37.9,124.1,36.9,124.4,35z M127.6,21.6c0.9,0,1.6,0.8,1.6,1.7c0,0.9-0.8,1.6-1.7,1.6c-0.9,0-1.6-0.8-1.6-1.7
			C125.9,22.3,126.7,21.6,127.6,21.6z"/>
		<path class="st1" d="M136.3,37.9l1.2-7.7c0.2-1.1-0.3-1.7-1.5-1.7c-1.2,0-2,0.2-2.7,0.6l-1.4,8.7l-2.5-0.1l1.8-11.2l1.5,0.1
			l0.3,0.9c1.3-0.7,2.6-1.1,3.8-1c2.9,0.1,3.7,1.6,3.3,3.7l-1.2,7.9L136.3,37.9z"/>
		<path class="st1" d="M150,27.3l1-6.2l2.5,0.1L150.8,38l-1.5-0.1L149,37c-1.1,0.7-2.3,1.1-3.8,1c-3.3-0.1-4.2-2.4-3.6-6
			c0.6-3.7,2.1-5.8,5.4-5.7C148.2,26.3,149.2,26.7,150,27.3z M144.2,32.1c-0.3,2.1-0.2,3.8,2,3.8c1.2,0,2-0.3,2.5-0.6l1-6.2
			c-0.4-0.3-1.1-0.7-2.3-0.7C145.1,28.4,144.5,30,144.2,32.1z"/>
		<path class="st1" d="M157.4,26.5l-1.2,7.7c-0.2,1.1,0.3,1.7,1.5,1.7c1.2,0,2-0.2,2.7-0.6l1.4-8.7l2.5,0.1L162.5,38l-1.5-0.1
			l-0.3-0.9c-1.3,0.7-2.6,1.1-3.8,1c-2.9-0.1-3.7-1.6-3.3-3.7l1.2-7.9L157.4,26.5z"/>
		<path class="st1" d="M169.9,31.1c3.4,0.4,4.1,1.5,3.7,3.5c-0.3,1.9-1.8,3.6-5.4,3.4c-1.6-0.1-2.9-0.4-3.6-0.7l0.3-2.2
			c0.7,0.3,1.9,0.7,3.3,0.7c1.8,0.1,2.7-0.3,2.9-1.3c0.1-0.8-0.2-1.3-1.6-1.5c-3.4-0.4-4-1.5-3.7-3.4c0.3-1.9,1.8-3.5,5.1-3.4
			c1.5,0.1,2.6,0.3,3.4,0.7l-0.3,2.2c-0.9-0.4-1.9-0.7-3.3-0.8c-1.3,0-2.2,0.3-2.4,1.3C168.1,30.5,168.5,30.9,169.9,31.1z"/>
		<path class="st1" d="M181.6,38c-0.4,0.1-1,0.1-1.4,0.1c-2.5-0.1-3.8-1.2-3.4-3.6l0.9-5.9l-2.1-0.1l0.3-1.5l2.1-0.5l0.4-2.7
			l2.6-0.6l-0.5,3.4l3.2,0.1l-0.3,2.1l-3.2-0.1l-0.9,5.6c-0.2,1.1,0.3,1.7,1.6,1.7c0.4,0,0.7,0,1-0.1L181.6,38z"/>
		<path class="st1" d="M191.7,28.7c-0.3-0.1-0.7-0.2-1.2-0.2c-1.3,0-2.4,0.2-3,0.6l-1.4,8.7l-2.5-0.1l1.8-11.2l1.5,0.1l0.3,0.9
			c0.9-0.6,2.3-1.1,3.7-1c0.5,0,0.9,0.1,1.2,0.2L191.7,28.7z"/>
		<path class="st1" d="M192.4,35l1.3-8.5l2.5,0.1l-1.3,8.4c-0.1,0.6,0.1,0.9,0.8,0.9l-0.3,2c0,0-0.2,0-0.5,0
			C192.9,37.9,192.1,36.9,192.4,35z M195.6,21.6c0.9,0,1.6,0.8,1.6,1.7c0,0.9-0.8,1.6-1.7,1.6c-0.9,0-1.6-0.8-1.6-1.7
			C193.9,22.3,194.7,21.6,195.6,21.6z"/>
		<path class="st1" d="M207.1,38l-1.5-0.1l-0.3-0.9c-1.1,0.7-2.3,1.1-3.8,1c-3.3-0.1-4.2-2.4-3.6-6c0.6-3.7,2.1-5.8,5.4-5.7
			c1.5,0.1,2.6,0.5,3.5,1.3l0.6-0.9l1.5,0.1L207.1,38z M206,29.2c-0.4-0.3-1.1-0.7-2.3-0.7c-2.2-0.1-2.8,1.6-3.2,3.7
			c-0.3,2.1-0.2,3.8,2,3.8c1.2,0,2-0.3,2.5-0.6L206,29.2z"/>
		<path class="st1" d="M210.2,35l2.2-14.1l2.5,0.1l-2.2,14.1c-0.1,0.6,0.1,0.9,0.8,0.9l-0.3,2c0,0-0.2,0-0.5,0
			C210.6,37.9,209.8,36.9,210.2,35z"/>
	</g>
	<g>
		<path class="st0" d="M188.1,60.2v-5.4h-5.6v5.4h-1V49h1v4.9h5.6V49h1v11.3H188.1z"/>
		<path class="st0" d="M192.2,58.2c0,1,0.6,1.3,1.5,1.3c1,0,1.5-0.2,2-0.5v-6.2h1.1v7.5h-0.6l-0.2-0.6c-0.7,0.5-1.5,0.8-2.3,0.8
			c-1.8,0-2.6-0.8-2.6-2.3v-5.4h1.1V58.2z"/>
		<path class="st0" d="M201.4,53.5c-1,0-1.7,0.2-2.3,0.4V53c0.7-0.3,1.5-0.4,2.3-0.4c2.3,0,2.8,1,2.8,2.5v5.1h-0.6l-0.2-0.6
			c-0.7,0.5-1.5,0.8-2.3,0.8c-2,0-2.6-1.2-2.6-2.4c0-1.3,0.7-2.2,2.7-2.3l2-0.1v-0.4C203.2,54,202.8,53.5,201.4,53.5z M201.1,56.4
			c-1.1,0.1-1.5,0.7-1.5,1.5c0,0.7,0.2,1.5,1.6,1.5c0.8,0,1.4-0.2,2-0.6v-2.6L201.1,56.4z"/>
		<path class="st0" d="M206.4,58.7V49h1v9.9c0,0.5,0.2,0.7,0.6,0.7v0.9C207,60.4,206.4,59.9,206.4,58.7z"/>
		<path class="st0" d="M210,58.7V49h1v9.9c0,0.5,0.2,0.7,0.6,0.7v0.9C210.6,60.4,210,59.9,210,58.7z"/>
		<path class="st0" d="M216,53.5c-1,0-1.7,0.2-2.3,0.4V53c0.7-0.3,1.5-0.4,2.3-0.4c2.3,0,2.8,1,2.8,2.5v5.1h-0.6l-0.2-0.6
			c-0.7,0.5-1.5,0.8-2.3,0.8c-2,0-2.6-1.2-2.6-2.4c0-1.3,0.7-2.2,2.7-2.3l2-0.1v-0.4C217.8,54,217.4,53.5,216,53.5z M215.7,56.4
			c-1.1,0.1-1.5,0.7-1.5,1.5c0,0.7,0.2,1.5,1.6,1.5c0.8,0,1.4-0.2,2-0.6v-2.6L215.7,56.4z"/>
		<path class="st0" d="M222.5,58.1c-0.2,0.2-0.3,0.4-0.3,0.6c0,0.4,0.2,0.5,0.6,0.6l2.6,0.3c1.4,0.2,2.1,0.7,2.1,2
			c0,1.8-1.8,2.6-3.9,2.6c-2.1,0-3.4-0.6-3.4-2.3c0-1,0.7-1.7,1.5-2v0c-0.3-0.2-0.5-0.5-0.5-1c0-0.4,0.3-0.8,0.6-1
			c-0.9-0.5-1.2-1.4-1.2-2.5c0-1.5,0.7-2.8,2.9-2.8c0.5,0,0.9,0.1,1.2,0.2h2.6v0.6l-1.3,0.4c0.3,0.5,0.4,1.1,0.4,1.7
			c0,1.5-0.7,2.8-2.9,2.8C223.1,58.2,222.7,58.2,222.5,58.1z M222.9,60.2c-1,0.2-1.8,0.7-1.8,1.7c0,1.1,0.8,1.4,2.4,1.4
			c1.5,0,2.9-0.4,2.9-1.7c0-0.8-0.4-1.1-1.3-1.2L222.9,60.2z M225.4,55.4c0-1-0.2-1.9-2-1.9s-2,0.9-2,1.9c0,1,0.2,1.9,2,1.9
			S225.4,56.4,225.4,55.4z"/>
		<path class="st0" d="M231.1,53.5c-1,0-1.7,0.2-2.3,0.4V53c0.7-0.3,1.5-0.4,2.3-0.4c2.3,0,2.8,1,2.8,2.5v5.1h-0.6l-0.2-0.6
			c-0.7,0.5-1.5,0.8-2.3,0.8c-2,0-2.6-1.2-2.6-2.4c0-1.3,0.7-2.2,2.7-2.3l2-0.1v-0.4C232.9,54,232.5,53.5,231.1,53.5z M230.8,56.4
			c-1.1,0.1-1.5,0.7-1.5,1.5c0,0.7,0.2,1.5,1.6,1.5c0.8,0,1.4-0.2,2-0.6v-2.6L230.8,56.4z"/>
	</g>
</g>
</svg>
