<?xml version="1.0" encoding="utf-8"?>
<!-- Generator: Adobe Illustrator 23.0.1, SVG Export Plug-In . SVG Version: 6.00 Build 0)  -->
<svg version="1.1" id="Capa_1" xmlns="http://www.w3.org/2000/svg" xmlns:xlink="http://www.w3.org/1999/xlink" x="0px" y="0px"
	 viewBox="0 0 255.1 85" style="enable-background:new 0 0 255.1 85;" xml:space="preserve">
<style type="text/css">
	.st0{fill:#3C3C3B;}
	.st1{fill:#2FAC66;}
</style>
<g>
	<g>
		<path class="st0" d="M26.8,25.7l-1.5,8.8h12.2L37,37.8H24.7c-1.8,0-3-1.4-2.7-3.2l1.5-9.2c0.3-1.8,2-3.2,3.7-3.2h12.3L39,25.7
			H26.8z"/>
		<path class="st0" d="M42,22.3h3.4l-2.6,15.6h-3.4L42,22.3z"/>
		<path class="st0" d="M63.4,22.3l-0.6,3.4h-6.1l-2,12.2h-3.4l2-12.2h-6.1l0.6-3.4H63.4z"/>
		<path class="st0" d="M79.6,25.7h-11l-0.5,2.7H77l-0.6,3.4h-8.8l-0.5,2.7h11l-0.6,3.4H63.3l2.6-15.6h14.4L79.6,25.7z"/>
	</g>
	<g>
		<path class="st1" d="M88.5,38L87,37.9L86.7,37c-1.1,0.7-2.3,1.1-3.8,1c-3.3-0.1-4.2-2.4-3.6-6c0.6-3.7,2.1-5.8,5.4-5.7
			c1.5,0.1,2.6,0.5,3.5,1.3l0.6-0.9l1.5,0.1L88.5,38z M87.3,29.2c-0.4-0.3-1.1-0.7-2.3-0.7c-2.2-0.1-2.8,1.6-3.2,3.7
			c-0.3,2.1-0.2,3.8,2,3.8c1.2,0,2-0.3,2.5-0.6L87.3,29.2z"/>
		<path class="st1" d="M100.4,38.8c-0.4,2.8-1.6,5.1-6.3,4.9c-1.4,0-2.9-0.4-3.9-0.9l0.4-2.2c1.2,0.7,2.6,0.9,3.9,1
			c2.5,0.1,3.2-1.1,3.4-2.5l0.3-1.6c-0.9,0.5-1.9,0.7-3.1,0.7c-3.3-0.1-4.2-2.4-3.6-6c0.6-3.7,2.1-5.8,5.4-5.7
			c1.5,0.1,2.6,0.5,3.5,1.3l0.6-0.9l1.5,0.1L100.4,38.8z M99.4,29.2c-0.4-0.3-1.1-0.7-2.3-0.7c-2.2-0.1-2.8,1.6-3.2,3.7
			c-0.3,2.1-0.2,3.8,2,3.8c1.2,0,2-0.3,2.5-0.6L99.4,29.2z"/>
		<path class="st1" d="M111,28.7c-0.3-0.1-0.7-0.2-1.2-0.2c-1.3,0-2.4,0.2-3,0.6l-1.4,8.7l-2.5-0.1l1.8-11.2l1.5,0.1l0.3,0.9
			c0.9-0.6,2.3-1.1,3.7-1c0.5,0,0.9,0.1,1.2,0.2L111,28.7z"/>
		<path class="st1" d="M111.6,32c0.6-3.5,1.9-5.9,5.9-5.7c4,0.1,4.6,2.6,4.1,6.1c-0.6,3.5-1.9,5.9-5.9,5.7
			C111.7,37.9,111,35.5,111.6,32z M119.1,32.3c0.4-2.4,0.3-3.8-1.9-3.9c-2.1-0.1-2.7,1.3-3.1,3.7c-0.4,2.4-0.3,3.8,1.9,3.9
			S118.7,34.7,119.1,32.3z"/>
		<path class="st1" d="M123.4,35l1.3-8.5l2.5,0.1l-1.3,8.4c-0.1,0.6,0.1,0.9,0.8,0.9l-0.3,2c0,0-0.2,0-0.5,0
			C123.9,37.9,123.1,36.9,123.4,35z M126.6,21.6c0.9,0,1.6,0.8,1.6,1.7c0,0.9-0.8,1.6-1.7,1.6s-1.6-0.8-1.6-1.7
			C124.9,22.3,125.7,21.6,126.6,21.6z"/>
		<path class="st1" d="M135.3,37.9l1.2-7.7c0.2-1.1-0.3-1.7-1.5-1.7c-1.2,0-2,0.2-2.7,0.6l-1.4,8.7l-2.5-0.1l1.8-11.2l1.5,0.1
			l0.3,0.9c1.3-0.7,2.6-1.1,3.8-1c2.9,0.1,3.7,1.6,3.3,3.7l-1.2,7.9L135.3,37.9z"/>
		<path class="st1" d="M149,27.3l1-6.2l2.5,0.1L149.9,38l-1.5-0.1l-0.3-0.9c-1.1,0.7-2.3,1.1-3.8,1c-3.3-0.1-4.2-2.4-3.6-6
			c0.6-3.7,2.1-5.8,5.4-5.7C147.2,26.3,148.3,26.7,149,27.3z M143.2,32.1c-0.3,2.1-0.2,3.8,2,3.8c1.2,0,2-0.3,2.5-0.6l1-6.2
			c-0.4-0.3-1.1-0.7-2.3-0.7C144.2,28.4,143.5,30,143.2,32.1z"/>
		<path class="st1" d="M156.4,26.5l-1.2,7.7c-0.2,1.1,0.3,1.7,1.5,1.7c1.2,0,2-0.2,2.7-0.6l1.4-8.7l2.5,0.1L161.5,38l-1.5-0.1
			l-0.3-0.9c-1.3,0.7-2.6,1.1-3.8,1c-2.9-0.1-3.7-1.6-3.3-3.7l1.2-7.9L156.4,26.5z"/>
		<path class="st1" d="M169,31.1c3.4,0.4,4.1,1.5,3.7,3.5c-0.3,1.9-1.8,3.6-5.4,3.4c-1.6-0.1-2.9-0.4-3.6-0.7l0.3-2.2
			c0.7,0.3,1.9,0.7,3.3,0.7c1.8,0.1,2.7-0.3,2.9-1.3c0.1-0.8-0.2-1.3-1.6-1.5c-3.4-0.4-4-1.5-3.7-3.4c0.3-1.9,1.8-3.5,5.1-3.4
			c1.5,0.1,2.6,0.3,3.4,0.7l-0.3,2.2c-0.9-0.4-1.9-0.7-3.3-0.8c-1.3,0-2.2,0.3-2.4,1.3C167.2,30.5,167.5,30.9,169,31.1z"/>
		<path class="st1" d="M180.7,38c-0.4,0.1-1,0.1-1.4,0.1c-2.5-0.1-3.8-1.2-3.4-3.6l0.9-5.9l-2.1-0.1L175,27l2.1-0.5l0.4-2.7l2.6-0.6
			l-0.5,3.4l3.2,0.1l-0.3,2.1l-3.2-0.1l-0.9,5.6c-0.2,1.1,0.3,1.7,1.6,1.7c0.4,0,0.7,0,1-0.1L180.7,38z"/>
		<path class="st1" d="M190.8,28.7c-0.3-0.1-0.7-0.2-1.2-0.2c-1.3,0-2.4,0.2-3,0.6l-1.4,8.7l-2.5-0.1l1.8-11.2l1.5,0.1l0.3,0.9
			c0.9-0.6,2.3-1.1,3.7-1c0.5,0,0.9,0.1,1.2,0.2L190.8,28.7z"/>
		<path class="st1" d="M191.4,35l1.3-8.5l2.5,0.1l-1.3,8.4c-0.1,0.6,0.1,0.9,0.8,0.9l-0.3,2c0,0-0.2,0-0.5,0
			C191.9,37.9,191.1,36.9,191.4,35z M194.6,21.6c0.9,0,1.6,0.8,1.6,1.7c0,0.9-0.8,1.6-1.7,1.6c-0.9,0-1.6-0.8-1.6-1.7
			C193,22.3,193.7,21.6,194.6,21.6z"/>
		<path class="st1" d="M206.2,38l-1.5-0.1l-0.3-0.9c-1.1,0.7-2.3,1.1-3.8,1c-3.3-0.1-4.2-2.4-3.6-6c0.6-3.7,2.1-5.8,5.4-5.7
			c1.5,0.1,2.6,0.5,3.5,1.3l0.6-0.9l1.5,0.1L206.2,38z M205,29.2c-0.4-0.3-1.1-0.7-2.3-0.7c-2.2-0.1-2.8,1.6-3.2,3.7
			c-0.3,2.1-0.2,3.8,2,3.8c1.2,0,2-0.3,2.5-0.6L205,29.2z"/>
		<path class="st1" d="M209.2,35l2.2-14.1L214,21l-2.2,14.1c-0.1,0.6,0.1,0.9,0.8,0.9l-0.3,2c0,0-0.2,0-0.5,0
			C209.7,37.9,208.9,36.9,209.2,35z"/>
	</g>
	<g>
		<path class="st0" d="M202.6,58.5h-0.8l-3.8-8.2l0.1,9.9h-1V49h1.4l3.8,8.3L206,49h1.4v11.3h-1l0.1-9.9L202.6,58.5z"/>
		<path class="st0" d="M212.1,53.5c-1,0-1.7,0.2-2.3,0.4V53c0.7-0.3,1.5-0.4,2.3-0.4c2.3,0,2.8,1,2.8,2.5v5.1h-0.6l-0.2-0.6
			c-0.7,0.5-1.5,0.8-2.3,0.8c-2,0-2.6-1.2-2.6-2.4c0-1.3,0.7-2.2,2.7-2.3l2-0.1v-0.4C213.9,54,213.5,53.5,212.1,53.5z M211.9,56.4
			c-1.1,0.1-1.5,0.7-1.5,1.5c0,0.7,0.2,1.5,1.6,1.5c0.8,0,1.4-0.2,2-0.6v-2.6L211.9,56.4z"/>
		<path class="st0" d="M215.2,63.3c0.9-0.1,1.9-0.6,1.9-1.7v-8.8h1v8.9c0,1.6-1.6,2.4-2.9,2.5V63.3z M217.7,49.7
			c0.4,0,0.8,0.3,0.8,0.8c0,0.4-0.3,0.8-0.8,0.8c-0.4,0-0.8-0.3-0.8-0.8C216.9,50.1,217.2,49.7,217.7,49.7z"/>
		<path class="st0" d="M223.4,52.6c2.6,0,2.9,1.7,2.9,3.9V57h-5c0.1,1.3,0.4,2.5,2.1,2.5c1.1,0,1.7-0.1,2.5-0.4v0.9
			c-0.8,0.4-1.7,0.5-2.5,0.5c-2.5,0-3.2-1.7-3.2-3.9S220.8,52.6,223.4,52.6z M221.3,56.1h3.9c0-1.3-0.1-2.6-1.8-2.6
			C221.6,53.5,221.3,54.8,221.3,56.1z"/>
		<path class="st0" d="M230.5,55.9c2.1,0.2,2.6,0.9,2.6,2.1c0,1.2-0.7,2.3-3,2.3c-0.7,0-1.8-0.2-2.2-0.4v-0.9
			c0.5,0.2,1.2,0.3,2.3,0.3c1.6,0,2-0.7,2-1.4c0-0.7-0.2-1.2-1.7-1.3c-2.2-0.2-2.6-1-2.6-2c0-1.1,0.7-2.2,2.8-2.2
			c0.7,0,1.5,0.1,2.2,0.4v0.9c-0.6-0.2-1.2-0.3-2.2-0.3c-1.5,0-1.8,0.6-1.8,1.3C228.8,55.5,229.1,55.8,230.5,55.9z"/>
	</g>
</g>
</svg>
