<?xml version="1.0" encoding="utf-8"?>
<!-- Generator: Adobe Illustrator 23.0.1, SVG Export Plug-In . SVG Version: 6.00 Build 0)  -->
<svg version="1.1" id="Capa_1" xmlns="http://www.w3.org/2000/svg" xmlns:xlink="http://www.w3.org/1999/xlink" x="0px" y="0px"
	 viewBox="0 0 255.1 85" style="enable-background:new 0 0 255.1 85;" xml:space="preserve">
<style type="text/css">
	.st0{fill:#3C3C3B;}
	.st1{fill:#2FAC66;}
</style>
<g>
	<g>
		<path class="st0" d="M26.9,25.7l-1.5,8.8h12.2l-0.6,3.4H24.8c-1.8,0-3-1.4-2.7-3.2l1.5-9.2c0.3-1.8,2-3.2,3.7-3.2h12.3l-0.6,3.4
			H26.9z"/>
		<path class="st0" d="M42.1,22.4h3.4l-2.6,15.6h-3.4L42.1,22.4z"/>
		<path class="st0" d="M63.5,22.4l-0.6,3.4h-6.1l-2,12.2h-3.4l2-12.2h-6.1l0.6-3.4H63.5z"/>
		<path class="st0" d="M79.7,25.7h-11l-0.5,2.7h8.8l-0.6,3.4h-8.8l-0.5,2.7h11l-0.6,3.4H63.4l2.6-15.6h14.4L79.7,25.7z"/>
	</g>
	<g>
		<path class="st1" d="M88.6,38.1L87.1,38l-0.3-0.9c-1.1,0.7-2.3,1.1-3.8,1c-3.3-0.1-4.2-2.4-3.6-6c0.6-3.7,2.1-5.8,5.4-5.7
			c1.5,0.1,2.6,0.5,3.5,1.3l0.6-0.9l1.5,0.1L88.6,38.1z M87.4,29.2c-0.4-0.3-1.1-0.7-2.3-0.7c-2.2-0.1-2.8,1.6-3.2,3.7
			c-0.3,2.1-0.2,3.8,2,3.8c1.2,0,2-0.3,2.5-0.6L87.4,29.2z"/>
		<path class="st1" d="M100.5,38.8c-0.4,2.8-1.6,5.1-6.3,4.9c-1.4,0-2.9-0.4-3.9-0.9l0.4-2.2c1.2,0.7,2.6,0.9,3.9,1
			c2.5,0.1,3.2-1.1,3.4-2.5l0.3-1.6c-0.9,0.5-1.9,0.7-3.1,0.7c-3.3-0.1-4.2-2.4-3.6-6c0.6-3.7,2.1-5.8,5.4-5.7
			c1.5,0.1,2.6,0.5,3.5,1.3l0.6-0.9l1.5,0.1L100.5,38.8z M99.5,29.2c-0.4-0.3-1.1-0.7-2.3-0.7c-2.2-0.1-2.8,1.6-3.2,3.7
			c-0.3,2.1-0.2,3.8,2,3.8c1.2,0,2-0.3,2.5-0.6L99.5,29.2z"/>
		<path class="st1" d="M111.1,28.8c-0.3-0.1-0.7-0.2-1.2-0.2c-1.3,0-2.4,0.2-3,0.6l-1.4,8.7l-2.5-0.1l1.8-11.2l1.5,0.1l0.3,0.9
			c0.9-0.6,2.3-1.1,3.7-1c0.5,0,0.9,0.1,1.2,0.2L111.1,28.8z"/>
		<path class="st1" d="M111.7,32.1c0.6-3.5,1.9-5.9,5.9-5.7c4,0.1,4.6,2.6,4.1,6.1c-0.6,3.5-1.9,5.9-5.9,5.7
			C111.8,38,111.1,35.5,111.7,32.1z M119.2,32.3c0.4-2.4,0.3-3.8-1.9-3.9c-2.1-0.1-2.7,1.3-3.1,3.7c-0.4,2.4-0.3,3.8,1.9,3.9
			S118.8,34.8,119.2,32.3z"/>
		<path class="st1" d="M123.5,35.1l1.3-8.5l2.5,0.1l-1.3,8.4c-0.1,0.6,0.1,0.9,0.8,0.9l-0.3,2c0,0-0.2,0-0.5,0
			C124,38,123.2,37,123.5,35.1z M126.7,21.7c0.9,0,1.6,0.8,1.6,1.7c0,0.9-0.8,1.6-1.7,1.6s-1.6-0.8-1.6-1.7
			C125,22.4,125.8,21.6,126.7,21.7z"/>
		<path class="st1" d="M135.4,38l1.2-7.7c0.2-1.1-0.3-1.7-1.5-1.7c-1.2,0-2,0.2-2.7,0.6l-1.4,8.7l-2.5-0.1l1.8-11.2l1.5,0.1l0.3,0.9
			c1.3-0.7,2.6-1.1,3.8-1c2.9,0.1,3.7,1.6,3.3,3.7L138,38L135.4,38z"/>
		<path class="st1" d="M149.1,27.3l1-6.2l2.5,0.1L150,38.1l-1.5-0.1l-0.3-0.9c-1.1,0.7-2.3,1.1-3.8,1c-3.3-0.1-4.2-2.4-3.6-6
			c0.6-3.7,2.1-5.8,5.4-5.7C147.3,26.4,148.4,26.8,149.1,27.3z M143.3,32.2c-0.3,2.1-0.2,3.8,2,3.8c1.2,0,2-0.3,2.5-0.6l1-6.2
			c-0.4-0.3-1.1-0.7-2.3-0.7C144.3,28.4,143.6,30.1,143.3,32.2z"/>
		<path class="st1" d="M156.5,26.6l-1.2,7.7c-0.2,1.1,0.3,1.7,1.5,1.7c1.2,0,2-0.2,2.7-0.6l1.4-8.7l2.5,0.1L161.6,38l-1.5-0.1
			l-0.3-0.9c-1.3,0.7-2.6,1.1-3.8,1c-2.9-0.1-3.7-1.6-3.3-3.7l1.2-7.9L156.5,26.6z"/>
		<path class="st1" d="M169.1,31.1c3.4,0.4,4.1,1.5,3.7,3.5c-0.3,1.9-1.8,3.6-5.4,3.4c-1.6-0.1-2.9-0.4-3.6-0.7l0.3-2.2
			c0.7,0.3,1.9,0.7,3.3,0.7c1.8,0.1,2.7-0.3,2.9-1.3c0.1-0.8-0.2-1.3-1.6-1.5c-3.4-0.4-4-1.5-3.7-3.4c0.3-1.9,1.8-3.5,5.1-3.4
			c1.5,0.1,2.6,0.3,3.4,0.7l-0.3,2.2c-0.9-0.4-1.9-0.7-3.3-0.8c-1.3,0-2.2,0.3-2.4,1.3C167.3,30.6,167.6,31,169.1,31.1z"/>
		<path class="st1" d="M180.8,38.1c-0.4,0.1-1,0.1-1.4,0.1c-2.5-0.1-3.8-1.2-3.4-3.6l0.9-5.9l-2.1-0.1l0.3-1.5l2.1-0.5l0.4-2.7
			l2.6-0.6l-0.5,3.4l3.2,0.1l-0.3,2.1l-3.2-0.1l-0.9,5.6c-0.2,1.1,0.3,1.7,1.6,1.7c0.4,0,0.7,0,1-0.1L180.8,38.1z"/>
		<path class="st1" d="M190.9,28.8c-0.3-0.1-0.7-0.2-1.2-0.2c-1.3,0-2.4,0.2-3,0.6l-1.4,8.7l-2.5-0.1l1.8-11.2l1.5,0.1l0.3,0.9
			c0.9-0.6,2.3-1.1,3.7-1c0.5,0,0.9,0.1,1.2,0.2L190.9,28.8z"/>
		<path class="st1" d="M191.5,35.1l1.3-8.5l2.5,0.1l-1.3,8.4c-0.1,0.6,0.1,0.9,0.8,0.9l-0.3,2c0,0-0.2,0-0.5,0
			C192,38,191.2,37,191.5,35.1z M194.7,21.7c0.9,0,1.6,0.8,1.6,1.7c0,0.9-0.8,1.6-1.7,1.6c-0.9,0-1.6-0.8-1.6-1.7
			C193.1,22.4,193.8,21.6,194.7,21.7z"/>
		<path class="st1" d="M206.3,38.1l-1.5-0.1l-0.3-0.9c-1.1,0.7-2.3,1.1-3.8,1c-3.3-0.1-4.2-2.4-3.6-6c0.6-3.7,2.1-5.8,5.4-5.7
			c1.5,0.1,2.6,0.5,3.5,1.3l0.6-0.9l1.5,0.1L206.3,38.1z M205.1,29.2c-0.4-0.3-1.1-0.7-2.3-0.7c-2.2-0.1-2.8,1.6-3.2,3.7
			c-0.3,2.1-0.2,3.8,2,3.8c1.2,0,2-0.3,2.5-0.6L205.1,29.2z"/>
		<path class="st1" d="M209.3,35.1l2.2-14.1l2.5,0.1l-2.2,14.1c-0.1,0.6,0.1,0.9,0.8,0.9l-0.3,2c0,0-0.2,0-0.5,0
			C209.8,38,209,37,209.3,35.1z"/>
	</g>
	<g>
		<path class="st0" d="M167.5,54.7c0-2.9,0.5-5.8,4.2-5.8c3.7,0,4.2,2.8,4.2,5.8c0,2.9-0.5,5.8-4.2,5.8
			C168.1,60.5,167.5,57.6,167.5,54.7z M174.9,54.7c0-2.7-0.4-4.8-3.1-4.8c-2.7,0-3.1,2.1-3.1,4.8c0,2.7,0.4,4.8,3.1,4.8
			C174.5,59.5,174.9,57.4,174.9,54.7z"/>
		<path class="st0" d="M177.2,60.3l2.8-3.9l-2.6-3.6h1.2l2,2.9l2-2.9h1.2l-2.6,3.6l2.8,3.9h-1.2l-2.1-3.2l-2.1,3.2H177.2z"/>
		<path class="st0" d="M187.5,53.6c-1,0-1.7,0.2-2.3,0.4v-0.9c0.7-0.3,1.5-0.4,2.3-0.4c2.3,0,2.8,1,2.8,2.5v5.1h-0.6l-0.2-0.6
			c-0.7,0.5-1.5,0.8-2.3,0.8c-2,0-2.6-1.2-2.6-2.4c0-1.3,0.7-2.2,2.7-2.3l2-0.1v-0.4C189.3,54.1,188.9,53.6,187.5,53.6z M187.3,56.5
			c-1.1,0.1-1.5,0.7-1.5,1.5c0,0.7,0.2,1.5,1.6,1.5c0.8,0,1.4-0.2,2-0.6v-2.6L187.3,56.5z"/>
		<path class="st0" d="M193.4,59.8v4.2h-1.1V52.8h0.6l0.2,0.6c0.8-0.5,1.5-0.8,2.3-0.8c2.4,0,3.1,1.7,3.1,3.9s-0.7,3.9-3.1,3.9
			C194.8,60.5,194,60.3,193.4,59.8z M197.5,56.6c0-1.5-0.2-3-2-3c-1,0-1.5,0.2-2.1,0.5v5c0.6,0.3,1.1,0.5,2.1,0.5
			C197.3,59.5,197.5,58,197.5,56.6z"/>
		<path class="st0" d="M203,53.6c-1,0-1.7,0.2-2.3,0.4v-0.9c0.7-0.3,1.5-0.4,2.3-0.4c2.3,0,2.8,1,2.8,2.5v5.1h-0.6l-0.2-0.6
			c-0.7,0.5-1.5,0.8-2.3,0.8c-2,0-2.6-1.2-2.6-2.4c0-1.3,0.7-2.2,2.7-2.3l2-0.1v-0.4C204.8,54.1,204.4,53.6,203,53.6z M202.7,56.5
			c-1.1,0.1-1.5,0.7-1.5,1.5c0,0.7,0.2,1.5,1.6,1.5c0.8,0,1.4-0.2,2-0.6v-2.6L202.7,56.5z"/>
		<path class="st0" d="M216.6,54.9c0-1-0.6-1.3-1.4-1.3c-0.9,0-1.4,0.2-2,0.5c0.1,0.2,0.1,0.5,0.1,0.8v5.5h-1.1v-5.5
			c0-1-0.6-1.3-1.4-1.3c-0.9,0-1.4,0.2-2,0.5v6.3h-1.1v-7.5h0.6l0.2,0.6c0.7-0.5,1.5-0.8,2.2-0.8c1,0,1.7,0.3,2.1,0.9
			c0.8-0.5,1.6-0.9,2.3-0.9c1.6,0,2.5,0.8,2.5,2.3v5.4h-1.1V54.9z"/>
		<path class="st0" d="M220.6,59.8v4.2h-1.1V52.8h0.6l0.2,0.6c0.8-0.5,1.5-0.8,2.3-0.8c2.4,0,3.1,1.7,3.1,3.9s-0.7,3.9-3.1,3.9
			C222,60.5,221.3,60.3,220.6,59.8z M224.7,56.6c0-1.5-0.2-3-2-3c-1,0-1.5,0.2-2.1,0.5v5c0.6,0.3,1.1,0.5,2.1,0.5
			C224.5,59.5,224.7,58,224.7,56.6z"/>
		<path class="st0" d="M230.2,53.6c-1,0-1.7,0.2-2.3,0.4v-0.9c0.7-0.3,1.5-0.4,2.3-0.4c2.3,0,2.8,1,2.8,2.5v5.1h-0.6l-0.2-0.6
			c-0.7,0.5-1.5,0.8-2.3,0.8c-2,0-2.6-1.2-2.6-2.4c0-1.3,0.7-2.2,2.7-2.3l2-0.1v-0.4C232,54.1,231.6,53.6,230.2,53.6z M230,56.5
			c-1.1,0.1-1.5,0.7-1.5,1.5c0,0.7,0.2,1.5,1.6,1.5c0.8,0,1.4-0.2,2-0.6v-2.6L230,56.5z"/>
	</g>
</g>
</svg>
