<?xml version="1.0" encoding="utf-8"?>
<!-- Generator: Adobe Illustrator 23.0.1, SVG Export Plug-In . SVG Version: 6.00 Build 0)  -->
<svg version="1.1" id="Capa_1" xmlns="http://www.w3.org/2000/svg" xmlns:xlink="http://www.w3.org/1999/xlink" x="0px" y="0px"
	 viewBox="0 0 180.5 85" style="enable-background:new 0 0 180.5 85;" xml:space="preserve">
<style type="text/css">
	.st0{fill:#3C3C3B;}
	.st1{fill:#E84910;}
</style>
<g>
	<g>
		<path class="st0" d="M41.4,27.5L40,36.3h12.2l-0.6,3.4H39.3c-1.8,0-3-1.4-2.7-3.2l1.5-9.2c0.3-1.8,2-3.2,3.7-3.2h12.3l-0.6,3.4
			H41.4z"/>
		<path class="st0" d="M56.6,24.2H60l-2.6,15.6H54L56.6,24.2z"/>
		<path class="st0" d="M78,24.2l-0.6,3.4h-6.1l-2,12.2H66l2-12.2h-6.1l0.6-3.4H78z"/>
		<path class="st0" d="M94.2,27.5h-11l-0.5,2.7h8.8l-0.6,3.4h-8.8l-0.5,2.7h11l-0.6,3.4H77.9l2.6-15.6h14.4L94.2,27.5z"/>
	</g>
	<g>
		<path class="st1" d="M98.7,37.8c1.3,0,2.2-0.1,3-0.4l-0.3,2.2c-0.9,0.4-2,0.5-3.2,0.5c-4-0.1-4.8-2.6-4.3-6.1
			c0.6-3.5,2.1-5.8,6.1-5.7c1.2,0,2.2,0.3,3,0.7l-0.3,2.2c-0.8-0.3-1.6-0.6-2.9-0.6c-2.2-0.1-3.1,1.4-3.4,3.6
			C96.1,36.2,96.5,37.7,98.7,37.8z"/>
		<path class="st1" d="M108.7,37.8c1.3,0,2.2-0.1,3-0.4l-0.3,2.2c-0.9,0.4-2,0.5-3.2,0.5c-4-0.1-4.8-2.6-4.3-6.1
			c0.6-3.5,2.1-5.8,6.1-5.7c1.2,0,2.2,0.3,3,0.7l-0.3,2.2c-0.8-0.3-1.6-0.6-2.9-0.6c-2.2-0.1-3.1,1.4-3.4,3.6
			C106.1,36.2,106.5,37.7,108.7,37.8z"/>
		<path class="st1" d="M123.1,39.9l-1.5-0.1l-0.3-0.9c-1.1,0.7-2.3,1.1-3.8,1c-3.3-0.1-4.2-2.4-3.6-6s2.1-5.8,5.4-5.7
			c1.5,0.1,2.6,0.5,3.5,1.3l0.6-0.9l1.5,0.1L123.1,39.9z M122,31c-0.4-0.3-1.1-0.7-2.3-0.7c-2.2-0.1-2.8,1.6-3.2,3.7
			c-0.3,2.1-0.2,3.8,2,3.8c1.2,0,2-0.3,2.5-0.6L122,31z"/>
		<path class="st1" d="M126.1,36.9l2.2-14.1l2.5,0.1l-2.2,14.1c-0.1,0.6,0.1,0.9,0.8,0.9l-0.3,2c0,0-0.2,0-0.5,0
			C126.6,39.8,125.8,38.8,126.1,36.9z"/>
	</g>
	<g>
		<path class="st0" d="M116.2,61.2h5.2v0.9h-6.2V50.8h1V61.2z"/>
		<path class="st0" d="M123.8,51.6c0.4,0,0.8,0.3,0.8,0.8c0,0.4-0.3,0.8-0.8,0.8c-0.4,0-0.8-0.3-0.8-0.8
			C123,51.9,123.4,51.6,123.8,51.6z M123.3,60.6v-6h1v6.1c0,0.5,0.2,0.7,0.6,0.7v0.9C123.8,62.3,123.3,61.8,123.3,60.6z"/>
		<path class="st0" d="M135.5,56.7c0-1-0.6-1.3-1.4-1.3c-0.9,0-1.4,0.2-2,0.5c0.1,0.2,0.1,0.5,0.1,0.8v5.5h-1.1v-5.5
			c0-1-0.6-1.3-1.4-1.3c-0.9,0-1.4,0.2-2,0.5v6.3h-1.1v-7.5h0.6l0.2,0.6c0.7-0.5,1.5-0.8,2.2-0.8c1,0,1.7,0.3,2.1,0.9
			c0.8-0.5,1.6-0.9,2.3-0.9c1.6,0,2.5,0.8,2.5,2.3v5.4h-1.1V56.7z"/>
		<path class="st0" d="M141.1,55.4c-1,0-1.7,0.2-2.3,0.4v-0.9c0.7-0.3,1.5-0.4,2.3-0.4c2.3,0,2.8,1,2.8,2.5v5.1h-0.6l-0.2-0.6
			c-0.7,0.5-1.5,0.8-2.3,0.8c-2,0-2.6-1.2-2.6-2.4c0-1.3,0.7-2.2,2.7-2.3l2-0.1V57C142.9,55.9,142.5,55.4,141.1,55.4z M140.8,58.3
			c-1.1,0.1-1.5,0.7-1.5,1.5c0,0.7,0.2,1.5,1.6,1.5c0.8,0,1.4-0.2,2-0.6v-2.6L140.8,58.3z"/>
	</g>
</g>
</svg>
