<?xml version="1.0" encoding="utf-8"?>
<!-- Generator: Adobe Illustrator 23.0.1, SVG Export Plug-In . SVG Version: 6.00 Build 0)  -->
<svg version="1.1" id="Capa_1" xmlns="http://www.w3.org/2000/svg" xmlns:xlink="http://www.w3.org/1999/xlink" x="0px" y="0px"
	 viewBox="0 0 180.5 85" style="enable-background:new 0 0 180.5 85;" xml:space="preserve">
<style type="text/css">
	.st0{fill:#3C3C3B;}
	.st1{fill:#E84910;}
</style>
<g>
	<g>
		<path class="st0" d="M38.4,25.7L37,34.5h12.2l-0.6,3.4H36.3c-1.8,0-3-1.4-2.7-3.2l1.5-9.2c0.3-1.8,2-3.2,3.7-3.2h12.3l-0.6,3.4
			H38.4z"/>
		<path class="st0" d="M53.6,22.4H57l-2.6,15.6H51L53.6,22.4z"/>
		<path class="st0" d="M75,22.4l-0.6,3.4h-6.1l-2,12.2H63l2-12.2h-6.1l0.6-3.4H75z"/>
		<path class="st0" d="M91.2,25.7h-11l-0.5,2.7h8.8l-0.6,3.4h-8.8l-0.5,2.7h11l-0.6,3.4H74.9l2.6-15.6h14.4L91.2,25.7z"/>
	</g>
	<g>
		<path class="st1" d="M95.7,36c1.3,0,2.2-0.1,3-0.4l-0.3,2.2c-0.9,0.4-2,0.5-3.2,0.5c-4-0.1-4.8-2.6-4.3-6.1
			c0.6-3.5,2.1-5.8,6.1-5.7c1.2,0,2.2,0.3,3,0.7l-0.3,2.2c-0.8-0.3-1.6-0.6-2.9-0.6c-2.2-0.1-3.1,1.4-3.4,3.6
			C93.1,34.4,93.5,35.9,95.7,36z"/>
		<path class="st1" d="M105.7,36c1.3,0,2.2-0.1,3-0.4l-0.3,2.2c-0.9,0.4-2,0.5-3.2,0.5c-4-0.1-4.8-2.6-4.3-6.1
			c0.6-3.5,2.1-5.8,6.1-5.7c1.2,0,2.2,0.3,3,0.7l-0.3,2.2c-0.8-0.3-1.6-0.6-2.9-0.6c-2.2-0.1-3.1,1.4-3.4,3.6
			C103.1,34.4,103.5,35.9,105.7,36z"/>
		<path class="st1" d="M120.1,38.1l-1.5-0.1l-0.3-0.9c-1.1,0.7-2.3,1.1-3.8,1c-3.3-0.1-4.2-2.4-3.6-6s2.1-5.8,5.4-5.7
			c1.5,0.1,2.6,0.5,3.5,1.3l0.6-0.9l1.5,0.1L120.1,38.1z M119,29.2c-0.4-0.3-1.1-0.7-2.3-0.7c-2.2-0.1-2.8,1.6-3.2,3.7
			c-0.3,2.1-0.2,3.8,2,3.8c1.2,0,2-0.3,2.5-0.6L119,29.2z"/>
		<path class="st1" d="M123.1,35.1l2.2-14.1l2.5,0.1l-2.2,14.1c-0.1,0.6,0.1,0.9,0.8,0.9l-0.3,2c0,0-0.2,0-0.5,0
			C123.6,38,122.8,37,123.1,35.1z"/>
	</g>
	<g>
		<path class="st0" d="M91.1,60.3l4-11.4h0.8l4,11.4h-1.2l-1-3.2h-4.3l-1,3.2H91.1z M93.6,56.3h3.7l-1.9-5.7L93.6,56.3z"/>
		<path class="st0" d="M105.3,53.7c-0.2-0.1-0.5-0.1-0.9-0.1c-1,0-1.6,0.2-2.2,0.5v6.2h-1.1v-7.5h0.6l0.2,0.6
			c0.7-0.5,1.6-0.8,2.4-0.8c0.3,0,0.6,0,0.9,0.1V53.7z"/>
		<path class="st0" d="M109.6,52.7c2.6,0,2.9,1.7,2.9,3.9V57h-5c0.1,1.3,0.4,2.5,2.1,2.5c1.1,0,1.7-0.1,2.5-0.4V60
			c-0.8,0.4-1.7,0.5-2.5,0.5c-2.5,0-3.2-1.7-3.2-3.9S107.1,52.7,109.6,52.7z M107.5,56.2h3.9c0-1.3-0.1-2.6-1.8-2.6
			C107.9,53.6,107.5,54.8,107.5,56.2z"/>
		<path class="st0" d="M114.1,56.6c0-2.2,0.7-3.9,3.1-3.9c0.8,0,1.6,0.3,2.3,0.8l0.2-0.6h0.6v11.3h-1.1v-4.2
			c-0.6,0.4-1.4,0.6-2.1,0.6C114.8,60.5,114.1,58.7,114.1,56.6z M119.3,59v-5c-0.6-0.3-1.1-0.5-2.1-0.5c-1.8,0-2,1.5-2,3s0.2,3,2,3
			C118.2,59.5,118.7,59.4,119.3,59z"/>
		<path class="st0" d="M123.3,58.3c0,1,0.6,1.3,1.5,1.3c1,0,1.5-0.2,2-0.5v-6.2h1.1v7.5h-0.6l-0.2-0.6c-0.7,0.5-1.5,0.8-2.3,0.8
			c-1.8,0-2.6-0.8-2.6-2.3v-5.4h1.1V58.3z"/>
		<path class="st0" d="M130.5,49.8c0.4,0,0.8,0.3,0.8,0.8c0,0.4-0.3,0.8-0.8,0.8c-0.4,0-0.8-0.3-0.8-0.8
			C129.8,50.1,130.1,49.8,130.5,49.8z M130,58.8v-6h1v6.1c0,0.5,0.2,0.7,0.6,0.7v0.9C130.6,60.5,130,60,130,58.8z"/>
		<path class="st0" d="M134.4,59.8v4.2h-1.1V52.8h0.6l0.2,0.6c0.8-0.5,1.5-0.8,2.3-0.8c2.4,0,3.1,1.7,3.1,3.9s-0.7,3.9-3.1,3.9
			C135.9,60.5,135.1,60.3,134.4,59.8z M138.6,56.6c0-1.5-0.2-3-2-3c-1,0-1.5,0.2-2.1,0.5v5c0.6,0.3,1.1,0.5,2.1,0.5
			C138.3,59.5,138.6,58,138.6,56.6z"/>
		<path class="st0" d="M144.1,53.6c-1,0-1.7,0.2-2.3,0.4v-0.9c0.7-0.3,1.5-0.4,2.3-0.4c2.3,0,2.8,1,2.8,2.5v5.1h-0.6l-0.2-0.6
			c-0.7,0.5-1.5,0.8-2.3,0.8c-2,0-2.6-1.2-2.6-2.4c0-1.3,0.7-2.2,2.7-2.3l2-0.1v-0.4C145.9,54.1,145.5,53.6,144.1,53.6z M143.8,56.5
			c-1.1,0.1-1.5,0.7-1.5,1.5c0,0.7,0.2,1.5,1.6,1.5c0.8,0,1.4-0.2,2-0.6v-2.6L143.8,56.5z"/>
	</g>
</g>
</svg>
