<?xml version="1.0" encoding="utf-8"?>
<!-- Generator: Adobe Illustrator 23.0.1, SVG Export Plug-In . SVG Version: 6.00 Build 0)  -->
<svg version="1.1" id="Capa_1" xmlns="http://www.w3.org/2000/svg" xmlns:xlink="http://www.w3.org/1999/xlink" x="0px" y="0px"
	 viewBox="0 0 180.5 85" style="enable-background:new 0 0 180.5 85;" xml:space="preserve">
<style type="text/css">
	.st0{fill:#3C3C3B;}
	.st1{fill:#E84910;}
</style>
<g>
	<g>
		<path class="st0" d="M38.4,25.7l-1.5,8.8h12.2l-0.6,3.4H36.2c-1.8,0-3-1.4-2.7-3.2l1.5-9.2c0.3-1.8,2-3.2,3.7-3.2h12.3l-0.6,3.4
			H38.4z"/>
		<path class="st0" d="M53.5,22.3h3.4l-2.6,15.6h-3.4L53.5,22.3z"/>
		<path class="st0" d="M74.9,22.3l-0.6,3.4h-6.1l-2,12.2h-3.4l2-12.2h-6.1l0.6-3.4H74.9z"/>
		<path class="st0" d="M91.2,25.7h-11l-0.5,2.7h8.8L88,31.7h-8.8l-0.5,2.7h11l-0.6,3.4H74.8l2.6-15.6h14.4L91.2,25.7z"/>
	</g>
	<g>
		<path class="st1" d="M95.6,35.9c1.3,0,2.2-0.1,3-0.4l-0.3,2.2c-0.9,0.4-2,0.5-3.2,0.5c-4-0.1-4.8-2.6-4.3-6.1s2.1-5.8,6.1-5.7
			c1.2,0,2.2,0.3,3,0.7l-0.3,2.2c-0.8-0.3-1.6-0.6-2.9-0.6c-2.2-0.1-3.1,1.4-3.4,3.6C93,34.3,93.4,35.8,95.6,35.9z"/>
		<path class="st1" d="M105.6,35.9c1.3,0,2.2-0.1,3-0.4l-0.3,2.2c-0.9,0.4-2,0.5-3.2,0.5c-4-0.1-4.8-2.6-4.3-6.1
			c0.6-3.5,2.1-5.8,6.1-5.7c1.2,0,2.2,0.3,3,0.7l-0.3,2.2c-0.8-0.3-1.6-0.6-2.9-0.6c-2.2-0.1-3.1,1.4-3.4,3.6
			C103,34.3,103.4,35.8,105.6,35.9z"/>
		<path class="st1" d="M120,38l-1.5-0.1l-0.3-0.9c-1.1,0.7-2.3,1.1-3.8,1c-3.3-0.1-4.2-2.4-3.6-6c0.6-3.7,2.1-5.8,5.4-5.7
			c1.5,0.1,2.6,0.5,3.5,1.3l0.6-0.9l1.5,0.1L120,38z M118.9,29.2c-0.4-0.3-1.1-0.7-2.3-0.7c-2.2-0.1-2.8,1.6-3.2,3.7
			c-0.3,2.1-0.2,3.8,2,3.8c1.2,0,2-0.3,2.5-0.6L118.9,29.2z"/>
		<path class="st1" d="M123,35l2.2-14.1l2.5,0.1l-2.2,14.1c-0.1,0.6,0.1,0.9,0.8,0.9l-0.3,2c0,0-0.2,0-0.5,0
			C123.5,37.9,122.7,36.9,123,35z"/>
	</g>
	<g>
		<path class="st0" d="M110.1,49.9v10.3h-1V49.9H106V49h7.2v0.9H110.1z"/>
		<path class="st0" d="M117.7,53.6c-0.2-0.1-0.5-0.1-0.9-0.1c-1,0-1.6,0.2-2.2,0.5v6.2h-1.1v-7.5h0.6l0.2,0.6
			c0.7-0.5,1.6-0.8,2.4-0.8c0.3,0,0.6,0,0.9,0.1V53.6z"/>
		<path class="st0" d="M120,58.2c0,1,0.6,1.3,1.5,1.3c1,0,1.5-0.2,2-0.5v-6.2h1.1v7.5H124l-0.2-0.6c-0.7,0.5-1.5,0.8-2.3,0.8
			c-1.8,0-2.6-0.8-2.6-2.3v-5.4h1.1V58.2z"/>
		<path class="st0" d="M124.9,63.3c0.9-0.1,1.9-0.6,1.9-1.7v-8.8h1v8.9c0,1.6-1.6,2.4-2.9,2.5V63.3z M127.3,49.7
			c0.4,0,0.8,0.3,0.8,0.8c0,0.4-0.3,0.8-0.8,0.8c-0.4,0-0.8-0.3-0.8-0.8C126.6,50.1,126.9,49.7,127.3,49.7z"/>
		<path class="st0" d="M130.8,49.7c0.4,0,0.8,0.3,0.8,0.8c0,0.4-0.3,0.8-0.8,0.8c-0.4,0-0.8-0.3-0.8-0.8
			C130,50.1,130.3,49.7,130.8,49.7z M130.3,58.7v-6h1v6.1c0,0.5,0.2,0.7,0.6,0.7v0.9C130.8,60.4,130.3,59.9,130.3,58.7z"/>
		<path class="st0" d="M133.9,58.7V49h1v9.9c0,0.5,0.2,0.7,0.6,0.7v0.9C134.4,60.4,133.9,59.9,133.9,58.7z"/>
		<path class="st0" d="M137.5,58.7V49h1v9.9c0,0.5,0.2,0.7,0.6,0.7v0.9C138,60.4,137.5,59.9,137.5,58.7z"/>
		<path class="st0" d="M143.8,60.4c-2.6,0-3.2-1.6-3.2-3.9c0-2.3,0.6-3.9,3.2-3.9c2.6,0,3.2,1.6,3.2,3.9
			C147,58.8,146.4,60.4,143.8,60.4z M143.8,53.5c-2,0-2.1,1.3-2.1,3c0,1.7,0.1,3,2.1,3c2,0,2.1-1.3,2.1-3
			C145.9,54.8,145.8,53.5,143.8,53.5z"/>
	</g>
</g>
</svg>
