<?xml version="1.0" encoding="utf-8"?>
<!-- Generator: Adobe Illustrator 23.0.1, SVG Export Plug-In . SVG Version: 6.00 Build 0)  -->
<svg version="1.1" id="Capa_1" xmlns="http://www.w3.org/2000/svg" xmlns:xlink="http://www.w3.org/1999/xlink" x="0px" y="0px"
	 viewBox="0 0 215.1 85" style="enable-background:new 0 0 215.1 85;" xml:space="preserve">
<style type="text/css">
	.st0{fill:#3C3C3B;}
	.st1{fill:#AA3619;}
</style>
<g>
	<g>
		<path class="st0" d="M36.4,25.8L35,34.6h12.2L46.6,38H34.3c-1.8,0-3-1.4-2.7-3.2l1.5-9.2c0.3-1.8,2-3.2,3.7-3.2h12.3l-0.6,3.4
			H36.4z"/>
		<path class="st0" d="M51.6,22.4H55L52.4,38H49L51.6,22.4z"/>
		<path class="st0" d="M73,22.4l-0.6,3.4h-6.1l-2,12.2H61l2-12.2h-6.1l0.6-3.4H73z"/>
		<path class="st0" d="M89.2,25.8h-11l-0.5,2.7h8.8l-0.6,3.4h-8.8l-0.5,2.7h11L87.2,38H72.9l2.6-15.6h14.4L89.2,25.8z"/>
	</g>
	<g>
		<path class="st1" d="M98.1,23.4c-0.4-0.1-0.8-0.3-1.6-0.3c-1.1,0-2.1,0.4-2.3,1.6l-0.3,2l3.2,0.1L96.6,29l-3.2-0.1l-2.3,14.7
			l-2.5-0.1l2.3-14.7l-2.1-0.1l0.3-1.6l2.1-0.5l0.3-2.2c0.4-2.4,1.9-3.6,5-3.5c0.7,0,1.4,0.2,1.8,0.3L98.1,23.4z"/>
		<path class="st1" d="M97.4,32.2c0.6-3.5,1.9-5.9,5.9-5.7c4,0.1,4.6,2.6,4.1,6.1c-0.6,3.5-1.9,5.9-5.9,5.7
			C97.4,38.1,96.8,35.6,97.4,32.2z M104.9,32.4c0.4-2.4,0.3-3.8-1.9-3.9c-2.1-0.1-2.7,1.3-3.1,3.7c-0.4,2.4-0.3,3.8,1.9,3.9
			S104.5,34.8,104.9,32.4z"/>
		<path class="st1" d="M116.7,28.9c-0.3-0.1-0.7-0.2-1.2-0.2c-1.3,0-2.4,0.2-3,0.6l-1.4,8.7l-2.5-0.1l1.8-11.2l1.5,0.1l0.3,0.9
			c0.9-0.6,2.3-1.1,3.7-1c0.5,0,0.9,0.1,1.2,0.2L116.7,28.9z"/>
		<path class="st1" d="M119.6,33.2c-0.2,1.7,0.2,2.8,2.5,2.9c1.4,0,2.6-0.2,3.7-0.5l-0.3,2.2c-1.4,0.5-2.9,0.6-4.1,0.6
			c-3.8-0.1-4.8-2.4-4.2-6.1c0.6-3.6,2.3-5.8,6-5.7c3.3,0.1,4.3,1.7,4,3.6c-0.3,1.9-1.8,3.3-5.1,3.2L119.6,33.2z M122.4,31.5
			c1.3,0,2.2-0.4,2.4-1.4c0.1-1-0.6-1.5-2-1.5c-1.9-0.1-2.5,1.1-2.9,2.8L122.4,31.5z"/>
		<path class="st1" d="M133.1,31.2c3.4,0.4,4.1,1.5,3.7,3.5c-0.3,1.9-1.8,3.6-5.4,3.4c-1.6-0.1-2.9-0.4-3.6-0.7l0.3-2.2
			c0.7,0.3,1.9,0.7,3.3,0.7c1.8,0.1,2.7-0.3,2.9-1.3c0.1-0.8-0.2-1.3-1.6-1.5c-3.4-0.4-4-1.5-3.7-3.4c0.3-1.9,1.8-3.5,5.1-3.4
			c1.5,0.1,2.6,0.3,3.4,0.7l-0.3,2.2c-0.9-0.4-1.9-0.7-3.3-0.8c-1.3,0-2.2,0.3-2.4,1.3C131.3,30.7,131.7,31,133.1,31.2z"/>
		<path class="st1" d="M144.8,38.2c-0.4,0.1-1,0.1-1.4,0.1c-2.5-0.1-3.8-1.2-3.4-3.6l0.9-5.9l-2.1-0.1l0.3-1.5l2.1-0.5l0.4-2.7
			l2.6-0.6l-0.5,3.4l3.2,0.1l-0.3,2.1l-3.2-0.1l-0.9,5.6c-0.2,1.1,0.3,1.7,1.6,1.7c0.4,0,0.7,0,1-0.1L144.8,38.2z"/>
		<path class="st1" d="M156.6,38.1l-1.5-0.1l-0.3-0.9c-1.1,0.7-2.3,1.1-3.8,1c-3.3-0.1-4.2-2.4-3.6-6c0.6-3.7,2.1-5.8,5.4-5.7
			c1.5,0.1,2.6,0.5,3.5,1.3l0.6-0.9l1.5,0.1L156.6,38.1z M155.4,29.3c-0.4-0.3-1.1-0.7-2.3-0.7c-2.2-0.1-2.8,1.6-3.2,3.7
			c-0.3,2.1-0.2,3.8,2,3.8c1.2,0,2-0.3,2.5-0.6L155.4,29.3z"/>
		<path class="st1" d="M159.6,35.1l2.2-14.1l2.5,0.1l-2.2,14.1c-0.1,0.6,0.1,0.9,0.8,0.9l-0.3,2c0,0-0.2,0-0.5,0
			C160,38.1,159.3,37.1,159.6,35.1z"/>
	</g>
	<g>
		<path class="st0" d="M142,58.7h-0.8l-3.8-8.2l0.1,9.9h-1V49.1h1.4l3.8,8.3l3.8-8.3h1.4v11.3h-1l0.1-9.9L142,58.7z"/>
		<path class="st0" d="M151.5,53.7c-1,0-1.7,0.2-2.3,0.4v-0.9c0.7-0.3,1.5-0.4,2.3-0.4c2.3,0,2.8,1,2.8,2.5v5.1h-0.6l-0.2-0.6
			c-0.7,0.5-1.5,0.8-2.3,0.8c-2,0-2.6-1.2-2.6-2.4c0-1.3,0.7-2.2,2.7-2.3l2-0.1v-0.4C153.3,54.1,152.9,53.7,151.5,53.7z M151.2,56.6
			c-1.1,0.1-1.5,0.7-1.5,1.5c0,0.7,0.2,1.5,1.6,1.5c0.8,0,1.4-0.2,2-0.6v-2.6L151.2,56.6z"/>
		<path class="st0" d="M156.8,52.9l2.1,6.2l2.1-6.2h1.2l-4.3,11.3h-1.1l1.7-3.9l-2.9-7.3H156.8z"/>
		<path class="st0" d="M168.1,54.9c0-1-0.6-1.3-1.5-1.3c-1,0-1.5,0.2-2,0.5v6.2h-1.1v-7.5h0.6l0.2,0.6c0.7-0.5,1.5-0.8,2.3-0.8
			c1.8,0,2.6,0.8,2.6,2.3v5.4h-1.1V54.9z"/>
		<path class="st0" d="M173.6,53.7c-1,0-1.7,0.2-2.3,0.4v-0.9c0.7-0.3,1.5-0.4,2.3-0.4c2.3,0,2.8,1,2.8,2.5v5.1h-0.6l-0.2-0.6
			c-0.7,0.5-1.5,0.8-2.3,0.8c-2,0-2.6-1.2-2.6-2.4c0-1.3,0.7-2.2,2.7-2.3l2-0.1v-0.4C175.4,54.1,175,53.7,173.6,53.7z M173.4,56.6
			c-1.1,0.1-1.5,0.7-1.5,1.5c0,0.7,0.2,1.5,1.6,1.5c0.8,0,1.4-0.2,2-0.6v-2.6L173.4,56.6z"/>
		<path class="st0" d="M180.9,56.1c2.1,0.2,2.6,0.9,2.6,2.1c0,1.2-0.7,2.3-3,2.3c-0.7,0-1.8-0.2-2.2-0.4v-0.9
			c0.5,0.2,1.2,0.3,2.3,0.3c1.6,0,2-0.7,2-1.4c0-0.7-0.2-1.2-1.7-1.3c-2.2-0.2-2.6-1-2.6-2c0-1.1,0.7-2.2,2.8-2.2
			c0.7,0,1.5,0.1,2.2,0.4V54c-0.6-0.2-1.2-0.3-2.2-0.3c-1.5,0-1.8,0.6-1.8,1.3C179.2,55.6,179.5,55.9,180.9,56.1z"/>
	</g>
</g>
</svg>
