<?xml version="1.0" encoding="utf-8"?>
<!-- Generator: Adobe Illustrator 23.0.1, SVG Export Plug-In . SVG Version: 6.00 Build 0)  -->
<svg version="1.1" id="Capa_1" xmlns="http://www.w3.org/2000/svg" xmlns:xlink="http://www.w3.org/1999/xlink" x="0px" y="0px"
	 viewBox="0 0 215.1 85" style="enable-background:new 0 0 215.1 85;" xml:space="preserve">
<style type="text/css">
	.st0{fill:#3C3C3B;}
	.st1{fill:#AA3619;}
</style>
<g>
	<g>
		<path class="st0" d="M37.5,25.8l-1.5,8.8h12.2L47.7,38H35.4c-1.8,0-3-1.4-2.7-3.2l1.5-9.2c0.3-1.8,2-3.2,3.7-3.2h12.3l-0.6,3.4
			H37.5z"/>
		<path class="st0" d="M52.7,22.4h3.4L53.5,38h-3.4L52.7,22.4z"/>
		<path class="st0" d="M74.1,22.4l-0.6,3.4h-6.1l-2,12.2h-3.4l2-12.2H58l0.6-3.4H74.1z"/>
		<path class="st0" d="M90.3,25.8h-11l-0.5,2.7h8.8l-0.6,3.4h-8.8l-0.5,2.7h11L88.3,38H74l2.6-15.6h14.4L90.3,25.8z"/>
	</g>
	<g>
		<path class="st1" d="M99.2,23.4c-0.4-0.1-0.8-0.3-1.6-0.3c-1.1,0-2.1,0.4-2.3,1.6l-0.3,2l3.2,0.1L97.7,29l-3.2-0.1l-2.3,14.7
			l-2.5-0.1L92,28.8L90,28.7l0.3-1.6l2.1-0.5l0.3-2.2c0.4-2.4,1.9-3.6,5-3.5c0.7,0,1.4,0.2,1.8,0.3L99.2,23.4z"/>
		<path class="st1" d="M98.5,32.2c0.6-3.5,1.9-5.9,5.9-5.7c4,0.1,4.6,2.6,4.1,6.1c-0.6,3.5-1.9,5.9-5.9,5.7S97.9,35.6,98.5,32.2z
			 M106,32.4c0.4-2.4,0.3-3.8-1.9-3.9c-2.1-0.1-2.7,1.3-3.1,3.7c-0.4,2.4-0.3,3.8,1.9,3.9C105.1,36.2,105.6,34.8,106,32.4z"/>
		<path class="st1" d="M117.8,28.9c-0.3-0.1-0.7-0.2-1.2-0.2c-1.3,0-2.4,0.2-3,0.6l-1.4,8.7l-2.5-0.1l1.8-11.2l1.5,0.1l0.3,0.9
			c0.9-0.6,2.3-1.1,3.7-1c0.5,0,0.9,0.1,1.2,0.2L117.8,28.9z"/>
		<path class="st1" d="M120.7,33.2c-0.2,1.7,0.2,2.8,2.5,2.9c1.4,0,2.6-0.2,3.7-0.5l-0.3,2.2c-1.4,0.5-2.9,0.6-4.1,0.6
			c-3.8-0.1-4.8-2.4-4.2-6.1c0.6-3.6,2.3-5.8,6-5.7c3.3,0.1,4.3,1.7,4,3.6c-0.3,1.9-1.8,3.3-5.1,3.2L120.7,33.2z M123.5,31.5
			c1.3,0,2.2-0.4,2.4-1.4c0.1-1-0.6-1.5-2-1.5c-1.9-0.1-2.5,1.1-2.9,2.8L123.5,31.5z"/>
		<path class="st1" d="M134.2,31.2c3.4,0.4,4.1,1.5,3.7,3.5c-0.3,1.9-1.8,3.6-5.4,3.4c-1.6-0.1-2.9-0.4-3.6-0.7l0.3-2.2
			c0.7,0.3,1.9,0.7,3.3,0.7c1.8,0.1,2.7-0.3,2.9-1.3c0.1-0.8-0.2-1.3-1.6-1.5c-3.4-0.4-4-1.5-3.7-3.4c0.3-1.9,1.8-3.5,5.1-3.4
			c1.5,0.1,2.6,0.3,3.4,0.7l-0.3,2.2c-0.9-0.4-1.9-0.7-3.3-0.8c-1.3,0-2.2,0.3-2.4,1.3C132.4,30.7,132.8,31,134.2,31.2z"/>
		<path class="st1" d="M145.9,38.2c-0.4,0.1-1,0.1-1.4,0.1c-2.5-0.1-3.8-1.2-3.4-3.6l0.9-5.9l-2.1-0.1l0.3-1.5l2.1-0.5l0.4-2.7
			l2.6-0.6l-0.5,3.4l3.2,0.1l-0.3,2.1l-3.2-0.1l-0.9,5.6c-0.2,1.1,0.3,1.7,1.6,1.7c0.4,0,0.7,0,1-0.1L145.9,38.2z"/>
		<path class="st1" d="M157.7,38.1l-1.5-0.1l-0.3-0.9c-1.1,0.7-2.3,1.1-3.8,1c-3.3-0.1-4.2-2.4-3.6-6s2.1-5.8,5.4-5.7
			c1.5,0.1,2.6,0.5,3.5,1.3l0.6-0.9l1.5,0.1L157.7,38.1z M156.5,29.3c-0.4-0.3-1.1-0.7-2.3-0.7c-2.2-0.1-2.8,1.6-3.2,3.7
			c-0.3,2.1-0.2,3.8,2,3.8c1.2,0,2-0.3,2.5-0.6L156.5,29.3z"/>
		<path class="st1" d="M160.7,35.1l2.2-14.1l2.5,0.1l-2.2,14.1c-0.1,0.6,0.1,0.9,0.8,0.9l-0.3,2c0,0-0.2,0-0.5,0
			C161.1,38.1,160.4,37.1,160.7,35.1z"/>
	</g>
	<g>
		<path class="st0" d="M132.4,60.4h-1V49.1h3.4c2.8,0,3.8,1.6,3.8,3.4s-1,3.4-3.8,3.4h-2.4V60.4z M132.4,54.9h2.6
			c2.1,0,2.5-1.4,2.5-2.4s-0.4-2.4-2.5-2.4h-2.6V54.9z"/>
		<path class="st0" d="M140.9,58.3c0,1,0.6,1.3,1.5,1.3c1,0,1.5-0.2,2-0.5v-6.2h1.1v7.5h-0.6l-0.2-0.6c-0.7,0.5-1.5,0.8-2.3,0.8
			c-1.8,0-2.6-0.8-2.6-2.3v-5.4h1.1V58.3z"/>
		<path class="st0" d="M150.4,52.7c0.7,0,1.6,0.1,2.2,0.4V54c-0.6-0.2-1.2-0.3-2.3-0.3c-1.9,0-2.1,1.5-2.1,3s0.2,3,2.1,3
			c1.1,0,1.7-0.2,2.3-0.3v0.9c-0.7,0.3-1.5,0.4-2.2,0.4c-2.5,0-3.2-1.7-3.2-3.9S147.9,52.7,150.4,52.7z"/>
		<path class="st0" d="M157,53.7c-1,0-1.7,0.2-2.3,0.4v-0.9c0.7-0.3,1.5-0.4,2.3-0.4c2.3,0,2.8,1,2.8,2.5v5.1h-0.6l-0.2-0.6
			c-0.7,0.5-1.5,0.8-2.3,0.8c-2,0-2.6-1.2-2.6-2.4c0-1.3,0.7-2.2,2.7-2.3l2-0.1v-0.4C158.7,54.1,158.4,53.7,157,53.7z M156.7,56.6
			c-1.1,0.1-1.5,0.7-1.5,1.5c0,0.7,0.2,1.5,1.6,1.5c0.8,0,1.4-0.2,2-0.6v-2.6L156.7,56.6z"/>
		<path class="st0" d="M162,58.9v-9.8h1V59c0,0.5,0.2,0.7,0.6,0.7v0.9C162.6,60.5,162,60.1,162,58.9z"/>
		<path class="st0" d="M165.6,58.9v-9.8h1V59c0,0.5,0.2,0.7,0.6,0.7v0.9C166.2,60.5,165.6,60.1,165.6,58.9z"/>
		<path class="st0" d="M170,59.9v4.2H169V52.9h0.6l0.2,0.6c0.8-0.5,1.5-0.8,2.3-0.8c2.4,0,3.1,1.7,3.1,3.9s-0.7,3.9-3.1,3.9
			C171.4,60.5,170.6,60.3,170,59.9z M174.1,56.6c0-1.5-0.2-3-2-3c-1,0-1.5,0.2-2.1,0.5v5c0.6,0.3,1.1,0.5,2.1,0.5
			C173.9,59.6,174.1,58.1,174.1,56.6z"/>
		<path class="st0" d="M179.6,53.7c-1,0-1.7,0.2-2.3,0.4v-0.9c0.7-0.3,1.5-0.4,2.3-0.4c2.3,0,2.8,1,2.8,2.5v5.1h-0.6l-0.2-0.6
			c-0.7,0.5-1.5,0.8-2.3,0.8c-2,0-2.6-1.2-2.6-2.4c0-1.3,0.7-2.2,2.7-2.3l2-0.1v-0.4C181.4,54.1,181,53.7,179.6,53.7z M179.4,56.6
			c-1.1,0.1-1.5,0.7-1.5,1.5c0,0.7,0.2,1.5,1.6,1.5c0.8,0,1.4-0.2,2-0.6v-2.6L179.4,56.6z"/>
	</g>
</g>
</svg>
