<?xml version="1.0" encoding="utf-8"?>
<!-- Generator: Adobe Illustrator 23.0.1, SVG Export Plug-In . SVG Version: 6.00 Build 0)  -->
<svg version="1.1" id="Capa_1" xmlns="http://www.w3.org/2000/svg" xmlns:xlink="http://www.w3.org/1999/xlink" x="0px" y="0px"
	 viewBox="0 0 215.1 85" style="enable-background:new 0 0 215.1 85;" xml:space="preserve">
<style type="text/css">
	.st0{fill:#3C3C3B;}
	.st1{fill:#AA3619;}
</style>
<g>
	<g>
		<path class="st0" d="M40,27.5l-1.5,8.8h12.2l-0.6,3.4H37.9c-1.8,0-3-1.4-2.7-3.2l1.5-9.2c0.3-1.8,2-3.2,3.7-3.2h12.3l-0.6,3.4H40z
			"/>
		<path class="st0" d="M55.2,24.1h3.4L56,39.6h-3.4L55.2,24.1z"/>
		<path class="st0" d="M76.6,24.1l-0.6,3.4H70l-2,12.2h-3.4l2-12.2h-6.1l0.6-3.4H76.6z"/>
		<path class="st0" d="M92.9,27.5h-11l-0.5,2.7h8.8l-0.6,3.4h-8.8l-0.5,2.7h11l-0.6,3.4H76.5l2.6-15.6h14.4L92.9,27.5z"/>
	</g>
	<g>
		<path class="st1" d="M106.2,31.9c0.2-1.1-0.4-1.5-1.4-1.5c-1.1,0-1.9,0.3-2.6,0.6c0,0.4,0,0.8-0.1,1.2l-1.2,7.4l-2.5-0.1l1.3-7.9
			c0.2-1.1-0.4-1.5-1.4-1.5c-1,0-1.8,0.3-2.5,0.6l-1.4,8.7L92,39.3l1.8-11.2l1.5,0.1l0.3,0.9c1.1-0.7,2.5-1.1,3.6-1
			c1.5,0.1,2.4,0.5,2.7,1.2c1.1-0.7,2.5-1,3.8-1c2.7,0.1,3.5,1.6,3.2,3.7l-1.3,7.9l-2.5-0.1L106.2,31.9z"/>
		<path class="st1" d="M119.5,39.8l-1.5-0.1l-0.3-0.9c-1.1,0.7-2.3,1.1-3.8,1c-3.3-0.1-4.2-2.4-3.6-6c0.6-3.7,2.1-5.8,5.4-5.7
			c1.5,0.1,2.6,0.5,3.5,1.3l0.6-0.9l1.5,0.1L119.5,39.8z M118.3,31c-0.4-0.3-1.1-0.7-2.3-0.7c-2.2-0.1-2.8,1.6-3.2,3.7
			c-0.3,2.1-0.2,3.8,2,3.8c1.2,0,2-0.3,2.5-0.6L118.3,31z"/>
		<path class="st1" d="M130.7,29.1l1-6.2l2.5,0.1l-2.7,16.9l-1.5-0.1l-0.3-0.9c-1.1,0.7-2.3,1.1-3.8,1c-3.3-0.1-4.2-2.4-3.6-6
			c0.6-3.7,2.1-5.8,5.4-5.7C129,28.1,130,28.5,130.7,29.1z M124.9,33.9c-0.3,2.1-0.2,3.8,2,3.8c1.2,0,2-0.3,2.5-0.6l1-6.2
			c-0.4-0.3-1.1-0.7-2.3-0.7C125.9,30.2,125.3,31.8,124.9,33.9z"/>
		<path class="st1" d="M136.9,34.8c-0.2,1.7,0.2,2.8,2.5,2.9c1.4,0,2.6-0.2,3.7-0.5l-0.3,2.2c-1.4,0.5-2.9,0.6-4.1,0.6
			c-3.8-0.1-4.8-2.4-4.2-6.1c0.6-3.6,2.3-5.8,6-5.7c3.3,0.1,4.3,1.7,4,3.6c-0.3,1.9-1.8,3.3-5.1,3.2L136.9,34.8z M139.6,33.2
			c1.3,0,2.2-0.4,2.4-1.4c0.1-1-0.6-1.5-2-1.5c-1.9-0.1-2.5,1.1-2.9,2.8L139.6,33.2z"/>
		<path class="st1" d="M153.4,30.5c-0.3-0.1-0.7-0.2-1.2-0.2c-1.3,0-2.4,0.2-3,0.6l-1.4,8.7l-2.5-0.1l1.8-11.2l1.5,0.1l0.3,0.9
			c0.9-0.6,2.3-1.1,3.7-1c0.5,0,0.9,0.1,1.2,0.2L153.4,30.5z"/>
		<path class="st1" d="M163.2,39.8l-1.5-0.1l-0.3-0.9c-1.1,0.7-2.3,1.1-3.8,1c-3.3-0.1-4.2-2.4-3.6-6c0.6-3.7,2.1-5.8,5.4-5.7
			c1.5,0.1,2.6,0.5,3.5,1.3l0.6-0.9l1.5,0.1L163.2,39.8z M162,31c-0.4-0.3-1.1-0.7-2.3-0.7c-2.2-0.1-2.8,1.6-3.2,3.7
			c-0.3,2.1-0.2,3.8,2,3.8c1.2,0,2-0.3,2.5-0.6L162,31z"/>
	</g>
	<g>
		<path class="st0" d="M152.3,61.1h5.2V62h-6.2V50.8h1V61.1z"/>
		<path class="st0" d="M159.8,51.5c0.4,0,0.8,0.3,0.8,0.8c0,0.4-0.3,0.8-0.8,0.8c-0.4,0-0.8-0.3-0.8-0.8
			C159.1,51.9,159.4,51.5,159.8,51.5z M159.3,60.5v-6h1v6.1c0,0.5,0.2,0.7,0.6,0.7v0.9C159.9,62.2,159.3,61.7,159.3,60.5z"/>
		<path class="st0" d="M171.5,56.6c0-1-0.6-1.3-1.4-1.3c-0.9,0-1.4,0.2-2,0.5c0.1,0.2,0.1,0.5,0.1,0.8V62h-1.1v-5.5
			c0-1-0.6-1.3-1.4-1.3c-0.9,0-1.4,0.2-2,0.5V62h-1.1v-7.5h0.6l0.2,0.6c0.7-0.5,1.5-0.8,2.2-0.8c1,0,1.7,0.3,2.1,0.9
			c0.8-0.5,1.6-0.9,2.3-0.9c1.6,0,2.5,0.8,2.5,2.3V62h-1.1V56.6z"/>
		<path class="st0" d="M177.1,55.3c-1,0-1.7,0.2-2.3,0.4v-0.9c0.7-0.3,1.5-0.4,2.3-0.4c2.3,0,2.8,1,2.8,2.5V62h-0.6l-0.2-0.6
			c-0.7,0.5-1.5,0.8-2.3,0.8c-2,0-2.6-1.2-2.6-2.4c0-1.3,0.7-2.2,2.7-2.3l2-0.1v-0.4C178.9,55.8,178.5,55.3,177.1,55.3z M176.8,58.2
			c-1.1,0.1-1.5,0.7-1.5,1.5c0,0.7,0.2,1.5,1.6,1.5c0.8,0,1.4-0.2,2-0.6V58L176.8,58.2z"/>
	</g>
</g>
</svg>
