<?xml version="1.0" encoding="utf-8"?>
<!-- Generator: Adobe Illustrator 23.0.1, SVG Export Plug-In . SVG Version: 6.00 Build 0)  -->
<svg version="1.1" id="Capa_1" xmlns="http://www.w3.org/2000/svg" xmlns:xlink="http://www.w3.org/1999/xlink" x="0px" y="0px"
	 viewBox="0 0 255.1 85" style="enable-background:new 0 0 255.1 85;" xml:space="preserve">
<style type="text/css">
	.st0{fill:#3C3C3B;}
	.st1{fill:#0069B4;}
</style>
<g>
	<g>
		<path class="st0" d="M50.9,26.8l-1.5,8.8h12.2L61,39H48.7c-1.8,0-3-1.4-2.7-3.2l1.5-9.2c0.3-1.8,2-3.2,3.7-3.2h12.3L63,26.8H50.9z
			"/>
		<path class="st0" d="M66,23.5h3.4L66.8,39h-3.4L66,23.5z"/>
		<path class="st0" d="M87.4,23.5l-0.6,3.4h-6.1l-2,12.2h-3.4l2-12.2h-6.1l0.6-3.4H87.4z"/>
		<path class="st0" d="M103.7,26.8h-11l-0.5,2.7h8.8l-0.6,3.4h-8.8l-0.5,2.7h11l-0.6,3.4H87.3l2.6-15.6h14.4L103.7,26.8z"/>
	</g>
	<g>
		<g>
			<path class="st1" d="M105.4,38.3l-1,6.2l-2.5-0.1l2.7-16.9l1.5,0.1l0.3,0.9c1.1-0.7,2.3-1.1,3.8-1c3.3,0.1,4.2,2.4,3.6,6
				c-0.6,3.7-2.1,5.8-5.4,5.7C107.1,39.2,106.1,38.8,105.4,38.3z M111.2,33.5c0.3-2.1,0.3-3.8-1.9-3.8c-1.2,0-2.1,0.3-2.5,0.6
				l-1,6.2c0.4,0.3,1.2,0.7,2.3,0.7C110.2,37.2,110.8,35.5,111.2,33.5z"/>
			<path class="st1" d="M117.8,34.2c-0.2,1.7,0.2,2.8,2.5,2.9c1.4,0,2.6-0.2,3.7-0.5l-0.3,2.2c-1.4,0.5-2.9,0.6-4.1,0.6
				c-3.8-0.1-4.8-2.4-4.2-6.1c0.6-3.6,2.3-5.8,6-5.7c3.3,0.1,4.3,1.7,4,3.6c-0.3,1.9-1.8,3.3-5.1,3.2L117.8,34.2z M120.6,32.6
				c1.3,0,2.2-0.4,2.4-1.4c0.1-1-0.6-1.5-2-1.5c-1.9-0.1-2.5,1.1-2.9,2.8L120.6,32.6z"/>
			<path class="st1" d="M131.3,32.3c3.4,0.4,4.1,1.5,3.7,3.5c-0.3,1.9-1.8,3.6-5.4,3.4c-1.6-0.1-2.9-0.4-3.6-0.7l0.3-2.2
				c0.7,0.3,1.9,0.7,3.3,0.7c1.8,0.1,2.7-0.3,2.9-1.3c0.1-0.8-0.2-1.3-1.6-1.5c-3.4-0.4-4-1.5-3.7-3.4c0.3-1.9,1.8-3.5,5.1-3.4
				c1.5,0.1,2.6,0.3,3.4,0.7l-0.3,2.2c-0.9-0.4-1.9-0.7-3.3-0.8c-1.3,0-2.2,0.3-2.4,1.3C129.5,31.7,129.9,32.1,131.3,32.3z"/>
			<path class="st1" d="M137.1,33.2c0.6-3.7,2.1-5.8,5.4-5.7c1.5,0.1,2.6,0.5,3.5,1.3l0.6-0.9l1.5,0.1l-2.7,16.9l-2.5-0.1l1-6.2
				c-0.9,0.5-2,0.8-3.2,0.8C137.4,39.1,136.6,36.9,137.1,33.2z M144.2,36.6l1-6.2c-0.4-0.3-1.1-0.7-2.3-0.7
				c-2.2-0.1-2.8,1.6-3.2,3.7c-0.3,2.1-0.2,3.8,2,3.8C142.9,37.2,143.7,36.8,144.2,36.6z"/>
			<path class="st1" d="M152.9,27.7l-1.2,7.7c-0.2,1.1,0.3,1.7,1.5,1.7c1.2,0,2-0.2,2.7-0.6l1.4-8.7l2.5,0.1L158,39.2l-1.5-0.1
				l-0.3-0.9c-1.3,0.7-2.6,1.1-3.8,1c-2.9-0.1-3.7-1.6-3.3-3.7l1.2-7.9L152.9,27.7z"/>
			<path class="st1" d="M163.3,34.2c-0.2,1.7,0.2,2.8,2.5,2.9c1.4,0,2.6-0.2,3.7-0.5l-0.3,2.2c-1.4,0.5-2.9,0.6-4.1,0.6
				c-3.8-0.1-4.8-2.4-4.2-6.1c0.6-3.6,2.3-5.8,6-5.7c3.3,0.1,4.3,1.7,4,3.6c-0.3,1.9-1.8,3.3-5.1,3.2L163.3,34.2z M166.1,32.6
				c1.3,0,2.2-0.4,2.4-1.4c0.1-1-0.6-1.5-2-1.5c-1.9-0.1-2.5,1.1-2.9,2.8L166.1,32.6z"/>
			<path class="st1" d="M179.8,29.9c-0.3-0.1-0.7-0.2-1.2-0.2c-1.3,0-2.4,0.2-3,0.6l-1.4,8.7l-2.5-0.1l1.8-11.2l1.5,0.1l0.3,0.9
				c0.9-0.6,2.3-1.1,3.7-1c0.5,0,0.9,0.1,1.2,0.2L179.8,29.9z"/>
			<path class="st1" d="M180.4,33.2c0.6-3.5,1.9-5.9,5.9-5.7c4,0.1,4.6,2.6,4.1,6.1c-0.6,3.5-1.9,5.9-5.9,5.7
				C180.5,39.1,179.9,36.7,180.4,33.2z M187.9,33.5c0.4-2.4,0.3-3.8-1.9-3.9c-2.1-0.1-2.7,1.3-3.1,3.7c-0.4,2.4-0.3,3.8,1.9,3.9
				C187,37.2,187.5,35.9,187.9,33.5z"/>
		</g>
	</g>
	<g>
		<path class="st0" d="M176.1,50c1.4,0,2.3,0.3,2.9,0.5v1c-1-0.4-1.8-0.6-2.9-0.6c-2.5,0-3.3,2.1-3.3,4.8s0.9,4.8,3.3,4.8
			c1.1,0,1.9-0.2,2.9-0.6v1c-0.6,0.3-1.5,0.5-2.9,0.5c-3.4,0-4.4-2.6-4.4-5.8S172.7,50,176.1,50z"/>
		<path class="st0" d="M183.5,54.7c-1,0-1.7,0.2-2.3,0.4v-0.9c0.7-0.3,1.5-0.4,2.3-0.4c2.3,0,2.8,1,2.8,2.5v5.1h-0.6l-0.2-0.6
			c-0.7,0.5-1.5,0.8-2.3,0.8c-2,0-2.6-1.2-2.6-2.4c0-1.3,0.7-2.2,2.7-2.3l2-0.1v-0.4C185.3,55.2,184.9,54.7,183.5,54.7z M183.3,57.6
			c-1.1,0.1-1.5,0.7-1.5,1.5c0,0.7,0.2,1.5,1.6,1.5c0.8,0,1.4-0.2,2-0.6v-2.6L183.3,57.6z"/>
		<path class="st0" d="M188.6,59.9v-9.8h1V60c0,0.5,0.2,0.7,0.6,0.7v0.9C189.1,61.6,188.6,61.1,188.6,59.9z"/>
		<path class="st0" d="M192.2,59.9v-9.8h1V60c0,0.5,0.2,0.7,0.6,0.7v0.9C192.8,61.6,192.2,61.1,192.2,59.9z"/>
		<path class="st0" d="M198.2,54.7c-1,0-1.7,0.2-2.3,0.4v-0.9c0.7-0.3,1.5-0.4,2.3-0.4c2.3,0,2.8,1,2.8,2.5v5.1h-0.6l-0.2-0.6
			c-0.7,0.5-1.5,0.8-2.3,0.8c-2,0-2.6-1.2-2.6-2.4c0-1.3,0.7-2.2,2.7-2.3l2-0.1v-0.4C200,55.2,199.6,54.7,198.2,54.7z M197.9,57.6
			c-1.1,0.1-1.5,0.7-1.5,1.5c0,0.7,0.2,1.5,1.6,1.5c0.8,0,1.4-0.2,2-0.6v-2.6L197.9,57.6z"/>
		<path class="st0" d="M206,61.6c-2.6,0-3.2-1.6-3.2-3.9c0-2.3,0.6-3.9,3.2-3.9c2.6,0,3.2,1.6,3.2,3.9C209.1,60,208.6,61.6,206,61.6
			z M206,54.7c-2,0-2.1,1.3-2.1,3c0,1.7,0.1,3,2.1,3c2,0,2.1-1.3,2.1-3C208.1,56,207.9,54.7,206,54.7z"/>
	</g>
</g>
</svg>
