<?xml version="1.0" encoding="utf-8"?>
<!-- Generator: Adobe Illustrator 23.0.1, SVG Export Plug-In . SVG Version: 6.00 Build 0)  -->
<svg version="1.1" id="Capa_1" xmlns="http://www.w3.org/2000/svg" xmlns:xlink="http://www.w3.org/1999/xlink" x="0px" y="0px"
	 viewBox="0 0 255.1 85" style="enable-background:new 0 0 255.1 85;" xml:space="preserve">
<style type="text/css">
	.st0{fill:#3C3C3B;}
	.st1{fill:#0069B4;}
</style>
<g>
	<g>
		<path class="st0" d="M57.1,26.8l-1.5,8.8h12.2L67.3,39H55c-1.8,0-3-1.4-2.7-3.2l1.5-9.2c0.3-1.8,2-3.2,3.7-3.2h12.3l-0.6,3.4H57.1
			z"/>
		<path class="st0" d="M72.3,23.5h3.4L73.1,39h-3.4L72.3,23.5z"/>
		<path class="st0" d="M93.7,23.5l-0.6,3.4h-6.1L85,39h-3.4l2-12.2h-6.1l0.6-3.4H93.7z"/>
		<path class="st0" d="M109.9,26.8H99l-0.5,2.7h8.8l-0.6,3.4H98l-0.5,2.7h11l-0.6,3.4H93.6l2.6-15.6h14.4L109.9,26.8z"/>
	</g>
	<g>
		<g>
			<path class="st1" d="M111.7,38.3l-1,6.2l-2.5-0.1l2.7-16.9l1.5,0.1l0.3,0.9c1.1-0.7,2.3-1.1,3.8-1c3.3,0.1,4.2,2.4,3.6,6
				c-0.6,3.7-2.1,5.8-5.4,5.7C113.4,39.2,112.4,38.8,111.7,38.3z M117.4,33.5c0.3-2.1,0.3-3.8-1.9-3.8c-1.2,0-2.1,0.3-2.6,0.6
				l-1,6.2c0.4,0.3,1.2,0.7,2.3,0.7C116.5,37.2,117.1,35.5,117.4,33.5z"/>
			<path class="st1" d="M124.1,34.2c-0.2,1.7,0.2,2.8,2.5,2.9c1.4,0,2.6-0.2,3.7-0.5l-0.3,2.2c-1.4,0.5-2.9,0.6-4.1,0.6
				c-3.8-0.1-4.8-2.4-4.2-6.1c0.6-3.6,2.3-5.8,6-5.7c3.3,0.1,4.3,1.7,4,3.6c-0.3,1.9-1.8,3.3-5.1,3.2L124.1,34.2z M126.8,32.6
				c1.3,0,2.2-0.4,2.4-1.4c0.1-1-0.6-1.5-2-1.5c-1.9-0.1-2.5,1.1-2.9,2.8L126.8,32.6z"/>
			<path class="st1" d="M137.6,32.3c3.4,0.4,4.1,1.5,3.7,3.5c-0.3,1.9-1.8,3.6-5.4,3.4c-1.6-0.1-2.9-0.4-3.6-0.7l0.3-2.2
				c0.7,0.3,1.9,0.7,3.3,0.7c1.8,0.1,2.7-0.3,2.9-1.3c0.1-0.8-0.2-1.3-1.6-1.5c-3.4-0.4-4-1.5-3.7-3.4c0.3-1.9,1.8-3.5,5.1-3.4
				c1.5,0.1,2.6,0.3,3.4,0.7l-0.3,2.2c-0.9-0.4-1.9-0.7-3.3-0.8c-1.3,0-2.2,0.3-2.4,1.3C135.8,31.7,136.2,32.1,137.6,32.3z"/>
			<path class="st1" d="M143.4,33.2c0.6-3.7,2.1-5.8,5.4-5.7c1.5,0.1,2.6,0.5,3.5,1.3l0.6-0.9l1.5,0.1l-2.7,16.9l-2.5-0.1l1-6.2
				c-0.9,0.5-2,0.8-3.2,0.8C143.7,39.1,142.8,36.9,143.4,33.2z M150.5,36.6l1-6.2c-0.4-0.3-1.1-0.7-2.3-0.7
				c-2.2-0.1-2.8,1.6-3.2,3.7c-0.3,2.1-0.2,3.8,2,3.8C149.1,37.2,150,36.8,150.5,36.6z"/>
			<path class="st1" d="M159.2,27.7l-1.2,7.7c-0.2,1.1,0.3,1.7,1.5,1.7c1.2,0,2-0.2,2.7-0.6l1.4-8.7l2.5,0.1l-1.8,11.2l-1.5-0.1
				l-0.3-0.9c-1.3,0.7-2.6,1.1-3.8,1c-2.9-0.1-3.7-1.6-3.3-3.7l1.3-7.9L159.2,27.7z"/>
			<path class="st1" d="M169.6,34.2c-0.2,1.7,0.2,2.8,2.5,2.9c1.4,0,2.6-0.2,3.7-0.5l-0.3,2.2c-1.4,0.5-2.9,0.6-4.1,0.6
				c-3.8-0.1-4.8-2.4-4.2-6.1c0.6-3.6,2.3-5.8,6-5.7c3.3,0.1,4.3,1.7,4,3.6c-0.3,1.9-1.8,3.3-5.1,3.2L169.6,34.2z M172.3,32.6
				c1.3,0,2.2-0.4,2.4-1.4c0.1-1-0.6-1.5-2-1.5c-1.9-0.1-2.5,1.1-2.9,2.8L172.3,32.6z"/>
			<path class="st1" d="M186.1,29.9c-0.3-0.1-0.7-0.2-1.2-0.2c-1.3,0-2.4,0.2-3,0.6l-1.4,8.7l-2.5-0.1l1.8-11.2l1.5,0.1l0.3,0.9
				c0.9-0.6,2.3-1.1,3.7-1c0.5,0,0.9,0.1,1.2,0.2L186.1,29.9z"/>
			<path class="st1" d="M186.7,33.2c0.6-3.5,1.9-5.9,5.9-5.7c4,0.1,4.6,2.6,4.1,6.1c-0.6,3.5-1.9,5.9-5.9,5.7
				C186.7,39.1,186.1,36.7,186.7,33.2z M194.1,33.5c0.4-2.4,0.3-3.8-1.9-3.9c-2.1-0.1-2.7,1.3-3.1,3.7c-0.4,2.4-0.3,3.8,1.9,3.9
				C193.2,37.2,193.8,35.9,194.1,33.5z"/>
		</g>
	</g>
	<g>
		<path class="st0" d="M189.7,61.4V50.2h1.1v11.3H189.7z"/>
		<path class="st0" d="M193.3,59.9v-9.8h1V60c0,0.5,0.2,0.7,0.6,0.7v0.9C193.9,61.6,193.3,61.1,193.3,59.9z"/>
		<path class="st0" d="M199.7,61.6c-2.6,0-3.2-1.6-3.2-3.9c0-2.3,0.6-3.9,3.2-3.9c2.6,0,3.2,1.6,3.2,3.9
			C202.9,60,202.3,61.6,199.7,61.6z M199.7,54.7c-2,0-2.1,1.3-2.1,3c0,1.7,0.1,3,2.1,3c2,0,2.1-1.3,2.1-3
			C201.8,56,201.7,54.7,199.7,54.7z"/>
	</g>
</g>
</svg>
