<?xml version="1.0" encoding="utf-8"?>
<!-- Generator: Adobe Illustrator 23.0.1, SVG Export Plug-In . SVG Version: 6.00 Build 0)  -->
<svg version="1.1" id="Capa_1" xmlns="http://www.w3.org/2000/svg" xmlns:xlink="http://www.w3.org/1999/xlink" x="0px" y="0px"
	 viewBox="0 0 255.1 85" style="enable-background:new 0 0 255.1 85;" xml:space="preserve">
<style type="text/css">
	.st0{fill:#3C3C3B;}
	.st1{fill:#0069B4;}
</style>
<g>
	<g>
		<path class="st0" d="M52.9,26.8l-1.5,8.8h12.2L63.1,39H50.8c-1.8,0-3-1.4-2.7-3.2l1.5-9.2c0.3-1.8,2-3.2,3.7-3.2h12.3l-0.6,3.4
			H52.9z"/>
		<path class="st0" d="M68.1,23.5h3.4L68.9,39h-3.4L68.1,23.5z"/>
		<path class="st0" d="M89.5,23.5l-0.6,3.4h-6.1l-2,12.2h-3.4l2-12.2h-6.1l0.6-3.4H89.5z"/>
		<path class="st0" d="M105.8,26.8h-11l-0.5,2.7h8.8l-0.6,3.4h-8.8l-0.5,2.7h11l-0.6,3.4H89.4L92,23.5h14.4L105.8,26.8z"/>
	</g>
	<g>
		<g>
			<path class="st1" d="M107.5,38.3l-1,6.2l-2.5-0.1l2.7-16.9l1.5,0.1l0.3,0.9c1.1-0.7,2.3-1.1,3.8-1c3.3,0.1,4.2,2.4,3.6,6
				c-0.6,3.7-2.1,5.8-5.4,5.7C109.2,39.2,108.2,38.8,107.5,38.3z M113.2,33.5c0.3-2.1,0.3-3.8-1.9-3.8c-1.2,0-2.1,0.3-2.5,0.6
				l-1,6.2c0.4,0.3,1.2,0.7,2.3,0.7C112.3,37.2,112.9,35.5,113.2,33.5z"/>
			<path class="st1" d="M119.9,34.2c-0.2,1.7,0.2,2.8,2.5,2.9c1.4,0,2.6-0.2,3.7-0.5l-0.3,2.2c-1.4,0.5-2.9,0.6-4.1,0.6
				c-3.8-0.1-4.8-2.4-4.2-6.1c0.6-3.6,2.3-5.8,6-5.7c3.3,0.1,4.3,1.7,4,3.6c-0.3,1.9-1.8,3.3-5.1,3.2L119.9,34.2z M122.7,32.6
				c1.3,0,2.2-0.4,2.4-1.4c0.1-1-0.6-1.5-2-1.5c-1.9-0.1-2.5,1.1-2.9,2.8L122.7,32.6z"/>
			<path class="st1" d="M133.4,32.3c3.4,0.4,4.1,1.5,3.7,3.5c-0.3,1.9-1.8,3.6-5.4,3.4c-1.6-0.1-2.9-0.4-3.6-0.7l0.3-2.2
				c0.7,0.3,1.9,0.7,3.3,0.7c1.8,0.1,2.7-0.3,2.9-1.3c0.1-0.8-0.2-1.3-1.6-1.5c-3.4-0.4-4-1.5-3.7-3.4c0.3-1.9,1.8-3.5,5.1-3.4
				c1.5,0.1,2.6,0.3,3.4,0.7l-0.3,2.2c-0.9-0.4-1.9-0.7-3.3-0.8c-1.3,0-2.2,0.3-2.4,1.3C131.6,31.7,132,32.1,133.4,32.3z"/>
			<path class="st1" d="M139.2,33.2c0.6-3.7,2.1-5.8,5.4-5.7c1.5,0.1,2.6,0.5,3.5,1.3l0.6-0.9l1.5,0.1l-2.7,16.9l-2.5-0.1l1-6.2
				c-0.9,0.5-2,0.8-3.2,0.8C139.5,39.1,138.6,36.9,139.2,33.2z M146.3,36.6l1-6.2c-0.4-0.3-1.1-0.7-2.3-0.7
				c-2.2-0.1-2.8,1.6-3.2,3.7c-0.3,2.1-0.2,3.8,2,3.8C144.9,37.2,145.8,36.8,146.3,36.6z"/>
			<path class="st1" d="M155,27.7l-1.2,7.7c-0.2,1.1,0.3,1.7,1.5,1.7c1.2,0,2-0.2,2.7-0.6l1.4-8.7l2.5,0.1l-1.8,11.2l-1.5-0.1
				l-0.3-0.9c-1.3,0.7-2.6,1.1-3.8,1c-2.9-0.1-3.7-1.6-3.3-3.7l1.2-7.9L155,27.7z"/>
			<path class="st1" d="M165.4,34.2c-0.2,1.7,0.2,2.8,2.5,2.9c1.4,0,2.6-0.2,3.7-0.5l-0.3,2.2c-1.4,0.5-2.9,0.6-4.1,0.6
				c-3.8-0.1-4.8-2.4-4.2-6.1c0.6-3.6,2.3-5.8,6-5.7c3.3,0.1,4.3,1.7,4,3.6c-0.3,1.9-1.8,3.3-5.1,3.2L165.4,34.2z M168.1,32.6
				c1.3,0,2.2-0.4,2.4-1.4c0.1-1-0.6-1.5-2-1.5c-1.9-0.1-2.5,1.1-2.9,2.8L168.1,32.6z"/>
			<path class="st1" d="M181.9,29.9c-0.3-0.1-0.7-0.2-1.2-0.2c-1.3,0-2.4,0.2-3,0.6l-1.4,8.7l-2.5-0.1l1.8-11.2l1.5,0.1l0.3,0.9
				c0.9-0.6,2.3-1.1,3.7-1c0.5,0,0.9,0.1,1.2,0.2L181.9,29.9z"/>
			<path class="st1" d="M182.5,33.2c0.6-3.5,1.9-5.9,5.9-5.7c4,0.1,4.6,2.6,4.1,6.1c-0.6,3.5-1.9,5.9-5.9,5.7
				C182.5,39.1,181.9,36.7,182.5,33.2z M190,33.5c0.4-2.4,0.3-3.8-1.9-3.9c-2.1-0.1-2.7,1.3-3.1,3.7c-0.4,2.4-0.3,3.8,1.9,3.9
				C189.1,37.2,189.6,35.9,190,33.5z"/>
		</g>
	</g>
	<g>
		<path class="st0" d="M177.6,61.4h-1V50.2h3.4c2.8,0,3.8,1.6,3.8,3.4s-1,3.4-3.8,3.4h-2.4V61.4z M177.6,56h2.6
			c2.1,0,2.5-1.4,2.5-2.4s-0.4-2.4-2.5-2.4h-2.6V56z"/>
		<path class="st0" d="M186.1,50.9c0.4,0,0.8,0.3,0.8,0.8c0,0.4-0.3,0.8-0.8,0.8c-0.4,0-0.8-0.3-0.8-0.8
			C185.3,51.2,185.6,50.9,186.1,50.9z M185.6,59.9v-6h1V60c0,0.5,0.2,0.7,0.6,0.7v0.9C186.1,61.6,185.6,61.1,185.6,59.9z"/>
		<path class="st0" d="M189.9,59.4c0,1,0.6,1.3,1.5,1.3c1,0,1.5-0.2,2-0.5v-6.2h1.1v7.5h-0.6l-0.2-0.6c-0.7,0.5-1.5,0.8-2.3,0.8
			c-1.8,0-2.6-0.8-2.6-2.3v-5.4h1.1V59.4z"/>
		<path class="st0" d="M200.6,54.8c-0.2-0.1-0.5-0.1-0.9-0.1c-1,0-1.6,0.2-2.2,0.5v6.2h-1.1v-7.5h0.6l0.2,0.6
			c0.7-0.5,1.6-0.8,2.4-0.8c0.3,0,0.6,0,0.9,0.1V54.8z"/>
		<path class="st0" d="M204.2,54.7c-1,0-1.7,0.2-2.3,0.4v-0.9c0.7-0.3,1.5-0.4,2.3-0.4c2.3,0,2.8,1,2.8,2.5v5.1h-0.6l-0.2-0.6
			c-0.7,0.5-1.5,0.8-2.3,0.8c-2,0-2.6-1.2-2.6-2.4c0-1.3,0.7-2.2,2.7-2.3l2-0.1v-0.4C206,55.2,205.6,54.7,204.2,54.7z M203.9,57.6
			c-1.1,0.1-1.5,0.7-1.5,1.5c0,0.7,0.2,1.5,1.6,1.5c0.8,0,1.4-0.2,2-0.6v-2.6L203.9,57.6z"/>
	</g>
</g>
</svg>
