<?xml version="1.0" encoding="utf-8"?>
<!-- Generator: Adobe Illustrator 23.0.1, SVG Export Plug-In . SVG Version: 6.00 Build 0)  -->
<svg version="1.1" id="Capa_1" xmlns="http://www.w3.org/2000/svg" xmlns:xlink="http://www.w3.org/1999/xlink" x="0px" y="0px"
	 viewBox="0 0 317.8 85" style="enable-background:new 0 0 317.8 85;" xml:space="preserve">
<style type="text/css">
	.st0{fill:#3C3C3B;}
	.st1{fill:#0069B4;}
</style>
<g>
	<g>
		<path class="st0" d="M23.8,25.7l-1.5,8.8h12.2L34,37.9H21.6c-1.8,0-3-1.4-2.7-3.2l1.5-9.2c0.3-1.8,2-3.2,3.7-3.2h12.3L36,25.7
			H23.8z"/>
		<path class="st0" d="M39,22.3h3.4l-2.6,15.6h-3.4L39,22.3z"/>
		<path class="st0" d="M60.4,22.3l-0.6,3.4h-6.1l-2,12.2h-3.4l2-12.2h-6.1l0.6-3.4H60.4z"/>
		<path class="st0" d="M76.6,25.7h-11l-0.5,2.7H74l-0.6,3.4h-8.8l-0.5,2.7h11l-0.6,3.4H60.3l2.6-15.6h14.4L76.6,25.7z"/>
	</g>
	<g>
		<g>
			<path class="st1" d="M78.3,37.2l-1,6.2l-2.5-0.1l2.7-16.9l1.5,0.1l0.3,0.9c1.1-0.7,2.3-1.1,3.8-1c3.3,0.1,4.2,2.4,3.6,6
				c-0.6,3.7-2.1,5.8-5.4,5.7C80.1,38.1,79.1,37.7,78.3,37.2z M84.1,32.3c0.3-2.1,0.3-3.8-1.9-3.8c-1.2,0-2.1,0.3-2.6,0.6l-1,6.2
				c0.4,0.3,1.2,0.7,2.3,0.7C83.2,36.1,83.8,34.4,84.1,32.3z"/>
			<path class="st1" d="M90.8,33.1c-0.2,1.7,0.2,2.8,2.5,2.9c1.4,0,2.6-0.2,3.7-0.5l-0.3,2.2c-1.4,0.5-2.9,0.6-4.1,0.6
				c-3.8-0.1-4.8-2.4-4.2-6.1c0.6-3.6,2.3-5.8,6-5.7c3.3,0.1,4.3,1.7,4,3.6c-0.3,1.9-1.8,3.3-5.1,3.2L90.8,33.1z M93.5,31.4
				c1.3,0,2.2-0.4,2.4-1.4c0.1-1-0.6-1.5-2-1.5c-1.9-0.1-2.5,1.1-2.9,2.8L93.5,31.4z"/>
			<path class="st1" d="M104.3,31.1c3.4,0.4,4.1,1.5,3.7,3.5c-0.3,1.9-1.8,3.6-5.4,3.4c-1.6-0.1-2.9-0.4-3.6-0.7l0.3-2.2
				c0.7,0.3,1.9,0.7,3.3,0.7c1.8,0.1,2.7-0.3,2.9-1.3c0.1-0.8-0.2-1.3-1.6-1.5c-3.4-0.4-4-1.5-3.7-3.4c0.3-1.9,1.8-3.5,5.1-3.4
				c1.5,0.1,2.6,0.3,3.4,0.7l-0.3,2.2c-0.9-0.4-1.9-0.7-3.3-0.8c-1.3,0-2.2,0.3-2.4,1.3C102.5,30.6,102.8,30.9,104.3,31.1z"/>
			<path class="st1" d="M110.1,32.1c0.6-3.7,2.1-5.8,5.4-5.7c1.5,0.1,2.6,0.5,3.5,1.3l0.6-0.9l1.5,0.1l-2.7,16.9l-2.5-0.1l1-6.2
				c-0.9,0.5-2,0.8-3.2,0.8C110.4,38,109.5,35.7,110.1,32.1z M117.1,35.4l1-6.2c-0.4-0.3-1.1-0.7-2.3-0.7c-2.2-0.1-2.8,1.6-3.2,3.7
				c-0.3,2.1-0.2,3.8,2,3.8C115.8,36,116.7,35.6,117.1,35.4z"/>
			<path class="st1" d="M125.8,26.5l-1.2,7.7c-0.2,1.1,0.3,1.7,1.5,1.7c1.2,0,2-0.2,2.7-0.6l1.4-8.7l2.5,0.1L131,38l-1.5-0.1
				l-0.3-0.9c-1.3,0.7-2.6,1.1-3.8,1c-2.9-0.1-3.7-1.6-3.3-3.7l1.3-7.9L125.8,26.5z"/>
			<path class="st1" d="M136.3,33.1c-0.2,1.7,0.2,2.8,2.5,2.9c1.4,0,2.6-0.2,3.7-0.5l-0.3,2.2c-1.4,0.5-2.9,0.6-4.1,0.6
				c-3.8-0.1-4.8-2.4-4.2-6.1c0.6-3.6,2.3-5.8,6-5.7c3.3,0.1,4.3,1.7,4,3.6c-0.3,1.9-1.8,3.3-5.1,3.2L136.3,33.1z M139,31.4
				c1.3,0,2.2-0.4,2.4-1.4c0.1-1-0.6-1.5-2-1.5c-1.9-0.1-2.5,1.1-2.9,2.8L139,31.4z"/>
			<path class="st1" d="M152.8,28.8c-0.3-0.1-0.7-0.2-1.2-0.2c-1.3,0-2.4,0.2-3,0.6l-1.4,8.7l-2.5-0.1l1.8-11.2l1.5,0.1l0.3,0.9
				c0.9-0.6,2.3-1.1,3.7-1c0.5,0,0.9,0.1,1.2,0.2L152.8,28.8z"/>
			<path class="st1" d="M153.4,32.1c0.6-3.5,1.9-5.9,5.9-5.7c4,0.1,4.6,2.6,4.1,6.1c-0.6,3.5-1.9,5.9-5.9,5.7
				C153.4,38,152.8,35.5,153.4,32.1z M160.8,32.3c0.4-2.4,0.3-3.8-1.9-3.9c-2.1-0.1-2.7,1.3-3.1,3.7c-0.4,2.4-0.3,3.8,1.9,3.9
				C159.9,36.1,160.5,34.7,160.8,32.3z"/>
			<path class="st1" d="M178.7,38l-1.5-0.1l-0.3-0.9c-1.1,0.7-2.3,1.1-3.8,1c-3.3-0.1-4.2-2.4-3.6-6c0.6-3.7,2.1-5.8,5.4-5.7
				c1.5,0.1,2.6,0.5,3.5,1.3l0.6-0.9l1.5,0.1L178.7,38z M177.5,29.2c-0.4-0.3-1.1-0.7-2.3-0.7c-2.2-0.1-2.8,1.6-3.2,3.7
				c-0.3,2.1-0.2,3.8,2,3.8c1.2,0,2-0.3,2.5-0.6L177.5,29.2z"/>
			<path class="st1" d="M195.2,30.1c0.2-1.1-0.4-1.5-1.4-1.5c-1.1,0-1.9,0.3-2.6,0.6c0,0.4-0.1,0.8-0.1,1.2l-1.2,7.4l-2.5-0.1
				l1.3-7.9c0.2-1.1-0.4-1.5-1.4-1.5c-1,0-1.8,0.3-2.5,0.6l-1.4,8.7l-2.5-0.1l1.8-11.2l1.5,0.1l0.3,0.9c1.1-0.7,2.5-1.1,3.6-1
				c1.5,0.1,2.4,0.5,2.7,1.2c1.1-0.7,2.5-1,3.8-1c2.7,0.1,3.5,1.6,3.2,3.7l-1.2,7.9L194,38L195.2,30.1z"/>
			<path class="st1" d="M208.5,38L207,38l-0.3-0.9c-1.1,0.7-2.3,1.1-3.8,1c-3.3-0.1-4.2-2.4-3.6-6c0.6-3.7,2.1-5.8,5.4-5.7
				c1.5,0.1,2.6,0.5,3.5,1.3l0.6-0.9l1.5,0.1L208.5,38z M207.4,29.2c-0.4-0.3-1.1-0.7-2.3-0.7c-2.2-0.1-2.8,1.6-3.2,3.7
				c-0.3,2.1-0.2,3.8,2,3.8c1.2,0,2-0.3,2.5-0.6L207.4,29.2z"/>
			<path class="st1" d="M210,37.7l0.3-1.8l6.9-7.1l-5.3-0.2l0.3-2.2l8.6,0.3l-0.3,1.8l-6.9,7.1l6,0.2l-0.3,2.2L210,37.7z"/>
			<path class="st1" d="M221.2,32.1c0.6-3.5,1.9-5.9,5.9-5.7c4,0.1,4.6,2.6,4.1,6.1c-0.6,3.5-1.9,5.9-5.9,5.7
				C221.2,38,220.6,35.5,221.2,32.1z M228.7,32.3c0.4-2.4,0.3-3.8-1.9-3.9c-2.1-0.1-2.7,1.3-3.1,3.7c-0.4,2.4-0.3,3.8,1.9,3.9
				C227.8,36.1,228.3,34.7,228.7,32.3z M226.2,25.5l2-4.4l3,0.1l-3,4.4L226.2,25.5z"/>
			<path class="st1" d="M239.3,37.9l1.2-7.7c0.2-1.1-0.3-1.7-1.5-1.7c-1.2,0-2,0.2-2.7,0.6l-1.4,8.7l-2.5-0.1l1.8-11.2l1.5,0.1
				l0.3,0.9c1.3-0.7,2.6-1.1,3.8-1c2.9,0.1,3.7,1.6,3.3,3.7l-1.3,7.9L239.3,37.9z"/>
			<path class="st1" d="M244.7,35l1.3-8.5l2.5,0.1l-1.3,8.4c-0.1,0.6,0.1,0.9,0.8,0.9l-0.3,2c0,0-0.2,0-0.5,0
				C245.2,38,244.4,37,244.7,35z M247.9,21.6c0.9,0,1.6,0.8,1.6,1.7c0,0.9-0.8,1.6-1.7,1.6c-0.9,0-1.6-0.8-1.6-1.7
				C246.2,22.3,247,21.6,247.9,21.6z"/>
			<path class="st1" d="M255.1,35.9c1.3,0,2.2-0.1,3-0.4l-0.3,2.2c-0.9,0.4-2,0.5-3.2,0.5c-4-0.1-4.8-2.6-4.3-6.1
				c0.6-3.5,2.1-5.8,6.1-5.7c1.2,0,2.2,0.3,3,0.7l-0.3,2.2c-0.8-0.3-1.6-0.6-2.9-0.6c-2.2-0.1-3.1,1.4-3.4,3.6
				C252.5,34.4,252.9,35.9,255.1,35.9z"/>
			<path class="st1" d="M260.3,32.1c0.6-3.5,1.9-5.9,5.9-5.7c4,0.1,4.6,2.6,4.1,6.1c-0.6,3.5-1.9,5.9-5.9,5.7
				C260.3,38,259.7,35.5,260.3,32.1z M267.7,32.3c0.4-2.4,0.3-3.8-1.9-3.9c-2.1-0.1-2.7,1.3-3.1,3.7c-0.4,2.4-0.3,3.8,1.9,3.9
				C266.8,36.1,267.4,34.7,267.7,32.3z"/>
		</g>
	</g>
	<g>
		<path class="st0" d="M248.7,60.3h-1V49h3.4c2.8,0,3.8,1.6,3.8,3.4s-1,3.4-3.8,3.4h-2.4V60.3z M248.7,54.8h2.6
			c2.1,0,2.5-1.4,2.5-2.4s-0.4-2.4-2.5-2.4h-2.6V54.8z"/>
		<path class="st0" d="M257.3,58.2c0,1,0.6,1.3,1.5,1.3c1,0,1.5-0.2,2-0.5v-6.2h1.1v7.5h-0.6l-0.2-0.6c-0.7,0.5-1.5,0.8-2.3,0.8
			c-1.8,0-2.6-0.8-2.6-2.3v-5.4h1.1V58.2z"/>
		<path class="st0" d="M266.8,52.6c0.7,0,1.6,0.1,2.2,0.4v0.9c-0.6-0.2-1.2-0.3-2.3-0.3c-1.9,0-2.1,1.5-2.1,3s0.2,3,2.1,3
			c1.1,0,1.7-0.2,2.3-0.3v0.9c-0.7,0.3-1.5,0.4-2.2,0.4c-2.5,0-3.2-1.7-3.2-3.9S264.3,52.6,266.8,52.6z"/>
		<path class="st0" d="M273.3,53.6c-1,0-1.7,0.2-2.3,0.4V53c0.7-0.3,1.5-0.4,2.3-0.4c2.3,0,2.8,1,2.8,2.5v5.1h-0.6l-0.2-0.6
			c-0.7,0.5-1.5,0.8-2.3,0.8c-2,0-2.6-1.2-2.6-2.4c0-1.3,0.7-2.2,2.7-2.3l2-0.1v-0.4C275.1,54,274.7,53.6,273.3,53.6z M273.1,56.5
			c-1.1,0.1-1.5,0.7-1.5,1.5c0,0.7,0.2,1.5,1.6,1.5c0.8,0,1.4-0.2,2-0.6v-2.6L273.1,56.5z"/>
		<path class="st0" d="M278.4,58.8V49h1v9.9c0,0.5,0.2,0.7,0.6,0.7v0.9C278.9,60.4,278.4,60,278.4,58.8z"/>
		<path class="st0" d="M282,58.8V49h1v9.9c0,0.5,0.2,0.7,0.6,0.7v0.9C282.5,60.4,282,60,282,58.8z"/>
		<path class="st0" d="M286.4,59.8V64h-1.1V52.8h0.6l0.2,0.6c0.8-0.5,1.5-0.8,2.3-0.8c2.4,0,3.1,1.7,3.1,3.9s-0.7,3.9-3.1,3.9
			C287.8,60.4,287,60.2,286.4,59.8z M290.5,56.5c0-1.5-0.2-3-2-3c-1,0-1.5,0.2-2.1,0.5v5c0.6,0.3,1.1,0.5,2.1,0.5
			C290.3,59.5,290.5,58,290.5,56.5z"/>
		<path class="st0" d="M296,53.6c-1,0-1.7,0.2-2.3,0.4V53c0.7-0.3,1.5-0.4,2.3-0.4c2.3,0,2.8,1,2.8,2.5v5.1h-0.6l-0.2-0.6
			c-0.7,0.5-1.5,0.8-2.3,0.8c-2,0-2.6-1.2-2.6-2.4c0-1.3,0.7-2.2,2.7-2.3l2-0.1v-0.4C297.8,54,297.4,53.6,296,53.6z M295.7,56.5
			c-1.1,0.1-1.5,0.7-1.5,1.5c0,0.7,0.2,1.5,1.6,1.5c0.8,0,1.4-0.2,2-0.6v-2.6L295.7,56.5z"/>
	</g>
</g>
</svg>
