<?xml version="1.0" encoding="utf-8"?>
<!-- Generator: Adobe Illustrator 23.0.1, SVG Export Plug-In . SVG Version: 6.00 Build 0)  -->
<svg version="1.1" id="Capa_1" xmlns="http://www.w3.org/2000/svg" xmlns:xlink="http://www.w3.org/1999/xlink" x="0px" y="0px"
	 viewBox="0 0 236.5 85" style="enable-background:new 0 0 236.5 85;" xml:space="preserve">
<style type="text/css">
	.st0{fill:#3C3C3B;}
	.st1{fill:#E49C21;}
</style>
<g>
	<g>
		<path class="st0" d="M29.6,27.5l-1.5,8.8h12.2l-0.6,3.4H27.4c-1.8,0-3-1.4-2.7-3.2l1.5-9.2c0.3-1.8,2-3.2,3.7-3.2h12.3l-0.6,3.4
			H29.6z"/>
		<path class="st0" d="M44.7,24.1h3.4l-2.6,15.6h-3.4L44.7,24.1z"/>
		<path class="st0" d="M66.1,24.1l-0.6,3.4h-6.1l-2,12.2h-3.4l2-12.2H50l0.6-3.4H66.1z"/>
		<path class="st0" d="M82.4,27.5h-11L71,30.2h8.8l-0.6,3.4h-8.8l-0.5,2.7h11l-0.6,3.4H66l2.6-15.6h14.4L82.4,27.5z"/>
	</g>
	<g>
		<path class="st1" d="M84.1,38.9l-1,6.2l-2.5-0.1l2.7-16.9l1.5,0.1l0.3,0.9c1.1-0.7,2.3-1.1,3.8-1c3.3,0.1,4.2,2.4,3.6,6
			c-0.6,3.7-2.1,5.8-5.4,5.7C85.8,39.9,84.8,39.5,84.1,38.9z M89.9,34.1c0.3-2.1,0.3-3.8-1.9-3.8c-1.2,0-2.1,0.3-2.6,0.6l-1,6.2
			c0.4,0.3,1.2,0.7,2.3,0.7C88.9,37.8,89.5,36.2,89.9,34.1z"/>
		<path class="st1" d="M101.7,30.5c-0.3-0.1-0.7-0.2-1.2-0.2c-1.3,0-2.4,0.2-3,0.6l-1.4,8.7l-2.5-0.1l1.8-11.2l1.5,0.1l0.3,0.9
			c0.9-0.6,2.3-1.1,3.7-1c0.5,0,0.9,0.1,1.2,0.2L101.7,30.5z"/>
		<path class="st1" d="M102.2,33.8c0.6-3.5,1.9-5.9,5.9-5.7c4,0.1,4.6,2.6,4.1,6.1c-0.6,3.5-1.9,5.9-5.9,5.7
			C102.3,39.7,101.7,37.3,102.2,33.8z M109.7,34.1c0.4-2.4,0.3-3.8-1.9-3.9c-2.1-0.1-2.7,1.3-3.1,3.7c-0.4,2.4-0.3,3.8,1.9,3.9
			S109.3,36.5,109.7,34.1z"/>
		<path class="st1" d="M122.3,29.1l1-6.2l2.5,0.1l-2.7,16.9l-1.5-0.1l-0.3-0.9c-1.1,0.7-2.3,1.1-3.8,1c-3.3-0.1-4.2-2.4-3.6-6
			c0.6-3.7,2.1-5.8,5.4-5.7C120.5,28.1,121.6,28.5,122.3,29.1z M116.5,33.9c-0.3,2.1-0.2,3.8,2,3.8c1.2,0,2-0.3,2.5-0.6l1-6.2
			c-0.4-0.3-1.1-0.7-2.3-0.7C117.5,30.2,116.8,31.8,116.5,33.9z"/>
		<path class="st1" d="M129.7,28.3l-1.2,7.7c-0.2,1.1,0.3,1.7,1.5,1.7c1.2,0,2-0.2,2.7-0.6l1.4-8.7l2.5,0.1l-1.8,11.2l-1.5-0.1
			l-0.3-0.9c-1.3,0.7-2.6,1.1-3.8,1c-2.9-0.1-3.7-1.6-3.3-3.7l1.2-7.9L129.7,28.3z"/>
		<path class="st1" d="M142.5,37.7c1.3,0,2.2-0.1,3-0.4l-0.3,2.2c-0.9,0.4-2,0.5-3.2,0.5c-4-0.1-4.8-2.6-4.3-6.1
			c0.6-3.5,2.1-5.8,6.1-5.7c1.2,0,2.2,0.3,3,0.7l-0.3,2.2c-0.8-0.3-1.6-0.6-2.9-0.6c-2.2-0.1-3.1,1.4-3.4,3.6S140.3,37.6,142.5,37.7
			z"/>
		<path class="st1" d="M153.7,39.8c-0.4,0.1-1,0.1-1.4,0.1c-2.5-0.1-3.8-1.2-3.4-3.6l0.9-5.9l-2.1-0.1l0.3-1.5l2.1-0.5l0.4-2.7
			l2.6-0.6l-0.5,3.4l3.2,0.1l-0.3,2.1l-3.2-0.1l-0.9,5.6c-0.2,1.1,0.3,1.7,1.6,1.7c0.4,0,0.7,0,1-0.1L153.7,39.8z"/>
		<path class="st1" d="M156.3,36.8l1.3-8.5l2.5,0.1l-1.3,8.4c-0.1,0.6,0.1,0.9,0.8,0.9l-0.3,2c0,0-0.2,0-0.5,0
			C156.8,39.8,156,38.7,156.3,36.8z M159.5,23.4c0.9,0,1.6,0.8,1.6,1.7c0,0.9-0.8,1.6-1.7,1.6c-0.9,0-1.6-0.8-1.6-1.7
			C157.8,24.1,158.6,23.4,159.5,23.4z"/>
		<path class="st1" d="M164.9,28.3l1.3,8.2l3.9-8l2.7,0.1l-6.1,11.3l-2.1-0.1l-2.5-11.6L164.9,28.3z"/>
		<path class="st1" d="M173,33.8c0.6-3.5,1.9-5.9,5.9-5.7c4,0.1,4.6,2.6,4.1,6.1c-0.6,3.5-1.9,5.9-5.9,5.7
			C173.1,39.7,172.4,37.3,173,33.8z M180.5,34.1c0.4-2.4,0.3-3.8-1.9-3.9c-2.1-0.1-2.7,1.3-3.1,3.7c-0.4,2.4-0.3,3.8,1.9,3.9
			C179.6,37.8,180.1,36.5,180.5,34.1z"/>
	</g>
	<g>
		<path class="st0" d="M129,60.3h-0.8l-3.8-8.2l0.1,9.9h-1V50.8h1.4l3.8,8.3l3.8-8.3h1.4V62h-1l0.1-9.9L129,60.3z"/>
		<path class="st0" d="M138.5,55.3c-1,0-1.7,0.2-2.3,0.4v-0.9c0.7-0.3,1.5-0.4,2.3-0.4c2.3,0,2.8,1,2.8,2.5V62h-0.6l-0.2-0.6
			c-0.7,0.5-1.5,0.8-2.3,0.8c-2,0-2.6-1.2-2.6-2.4c0-1.3,0.7-2.2,2.7-2.3l2-0.1v-0.4C140.3,55.8,139.9,55.3,138.5,55.3z M138.2,58.2
			c-1.1,0.1-1.5,0.7-1.5,1.5c0,0.7,0.2,1.5,1.6,1.5c0.8,0,1.4-0.2,2-0.6V58L138.2,58.2z"/>
		<path class="st0" d="M148.3,55v-4.2h1.1V62h-0.6l-0.2-0.6c-0.8,0.5-1.5,0.8-2.3,0.8c-2.4,0-3.1-1.7-3.1-3.9s0.7-3.9,3.1-3.9
			C146.9,54.4,147.7,54.6,148.3,55z M144.2,58.3c0,1.5,0.2,3,2,3c1,0,1.5-0.2,2.1-0.5v-5c-0.6-0.3-1.1-0.5-2.1-0.5
			C144.4,55.3,144.2,56.8,144.2,58.3z"/>
		<path class="st0" d="M155.5,55.4c-0.2-0.1-0.5-0.1-0.9-0.1c-1,0-1.6,0.2-2.2,0.5V62h-1.1v-7.5h0.6l0.2,0.6
			c0.7-0.5,1.6-0.8,2.4-0.8c0.3,0,0.6,0,0.9,0.1V55.4z"/>
		<path class="st0" d="M159.8,54.4c2.6,0,2.9,1.7,2.9,3.9v0.5h-5c0.1,1.3,0.4,2.5,2.1,2.5c1.1,0,1.7-0.1,2.5-0.4v0.9
			c-0.8,0.4-1.7,0.5-2.5,0.5c-2.5,0-3.2-1.7-3.2-3.9S157.2,54.4,159.8,54.4z M157.7,57.9h3.9c0-1.3-0.1-2.6-1.8-2.6
			C158,55.3,157.7,56.6,157.7,57.9z"/>
		<path class="st0" d="M172,55v-4.2h1.1V62h-0.6l-0.2-0.6c-0.8,0.5-1.5,0.8-2.3,0.8c-2.4,0-3.1-1.7-3.1-3.9s0.7-3.9,3.1-3.9
			C170.6,54.4,171.4,54.6,172,55z M167.9,58.3c0,1.5,0.2,3,2,3c1,0,1.5-0.2,2.1-0.5v-5c-0.6-0.3-1.1-0.5-2.1-0.5
			C168.1,55.3,167.9,56.8,167.9,58.3z"/>
		<path class="st0" d="M178,54.4c2.6,0,2.9,1.7,2.9,3.9v0.5h-5c0.1,1.3,0.4,2.5,2.1,2.5c1.1,0,1.7-0.1,2.5-0.4v0.9
			c-0.8,0.4-1.7,0.5-2.5,0.5c-2.5,0-3.2-1.7-3.2-3.9S175.5,54.4,178,54.4z M175.9,57.9h3.9c0-1.3-0.1-2.6-1.8-2.6
			C176.3,55.3,176,56.6,175.9,57.9z"/>
		<path class="st0" d="M185.4,62V50.8h3.1c3.7,0,4.7,2.4,4.7,5.6s-1.1,5.6-4.7,5.6H185.4z M186.4,61.1h2.1c2.7,0,3.6-2,3.6-4.7
			c0-2.7-0.9-4.7-3.6-4.7h-2.1V61.1z"/>
		<path class="st0" d="M195.8,51.5c0.4,0,0.8,0.3,0.8,0.8c0,0.4-0.3,0.8-0.8,0.8c-0.4,0-0.8-0.3-0.8-0.8
			C195.1,51.9,195.4,51.5,195.8,51.5z M195.3,60.5v-6h1v6.1c0,0.5,0.2,0.7,0.6,0.7v0.9C195.9,62.2,195.3,61.7,195.3,60.5z"/>
		<path class="st0" d="M201.7,62.2c-2.6,0-3.2-1.6-3.2-3.9c0-2.3,0.6-3.9,3.2-3.9c2.6,0,3.2,1.6,3.2,3.9
			C204.8,60.6,204.2,62.2,201.7,62.2z M201.7,55.3c-2,0-2.1,1.3-2.1,3c0,1.7,0.1,3,2.1,3c2,0,2.1-1.3,2.1-3
			C203.8,56.6,203.6,55.3,201.7,55.3z"/>
		<path class="st0" d="M209.1,57.7c2.1,0.2,2.6,0.9,2.6,2.1c0,1.2-0.7,2.3-3,2.3c-0.7,0-1.8-0.2-2.2-0.4v-0.9
			c0.5,0.2,1.2,0.3,2.3,0.3c1.6,0,2-0.7,2-1.4c0-0.7-0.2-1.2-1.7-1.3c-2.2-0.2-2.6-1-2.6-2c0-1.1,0.7-2.2,2.8-2.2
			c0.7,0,1.5,0.1,2.2,0.4v0.9c-0.6-0.2-1.2-0.3-2.2-0.3c-1.5,0-1.8,0.6-1.8,1.3C207.4,57.3,207.7,57.6,209.1,57.7z"/>
	</g>
</g>
</svg>
