<?xml version="1.0" encoding="utf-8"?>
<!-- Generator: Adobe Illustrator 23.0.1, SVG Export Plug-In . SVG Version: 6.00 Build 0)  -->
<svg version="1.1" id="Capa_1" xmlns="http://www.w3.org/2000/svg" xmlns:xlink="http://www.w3.org/1999/xlink" x="0px" y="0px"
	 viewBox="0 0 236.5 85" style="enable-background:new 0 0 236.5 85;" xml:space="preserve">
<style type="text/css">
	.st0{fill:#3C3C3B;}
	.st1{fill:#E49C21;}
</style>
<g>
	<g>
		<path class="st0" d="M33.8,25.7l-1.5,8.8h12.2L44,37.8H31.7c-1.8,0-3-1.4-2.7-3.2l1.5-9.2c0.3-1.8,2-3.2,3.7-3.2h12.3L46,25.7
			H33.8z"/>
		<path class="st0" d="M49,22.3h3.4l-2.6,15.6h-3.4L49,22.3z"/>
		<path class="st0" d="M70.4,22.3l-0.6,3.4h-6.1l-2,12.2h-3.4l2-12.2h-6.1l0.6-3.4H70.4z"/>
		<path class="st0" d="M86.6,25.7h-11l-0.5,2.7h8.8l-0.6,3.4h-8.8l-0.5,2.7h11l-0.6,3.4H70.3l2.6-15.6h14.4L86.6,25.7z"/>
	</g>
	<g>
		<path class="st1" d="M88.4,37.1l-1,6.2l-2.5-0.1l2.7-16.9l1.5,0.1l0.3,0.9c1.1-0.7,2.3-1.1,3.8-1c3.3,0.1,4.2,2.4,3.6,6
			c-0.6,3.7-2.1,5.8-5.4,5.7C90.1,38.1,89.1,37.7,88.4,37.1z M94.1,32.3c0.3-2.1,0.3-3.8-1.9-3.8c-1.2,0-2.1,0.3-2.6,0.6l-1,6.2
			c0.4,0.3,1.2,0.7,2.3,0.7C93.2,36,93.8,34.4,94.1,32.3z"/>
		<path class="st1" d="M105.9,28.7c-0.3-0.1-0.7-0.2-1.2-0.2c-1.3,0-2.4,0.2-3,0.6l-1.4,8.7l-2.5-0.1l1.8-11.2l1.5,0.1l0.3,0.9
			c0.9-0.6,2.3-1.1,3.7-1c0.5,0,0.9,0.1,1.2,0.2L105.9,28.7z"/>
		<path class="st1" d="M106.5,32c0.6-3.5,1.9-5.9,5.9-5.7c4,0.1,4.6,2.6,4.1,6.1c-0.6,3.5-1.9,5.9-5.9,5.7
			C106.6,37.9,106,35.5,106.5,32z M114,32.3c0.4-2.4,0.3-3.8-1.9-3.9s-2.7,1.3-3.1,3.7c-0.4,2.4-0.3,3.8,1.9,3.9
			C113.1,36,113.6,34.7,114,32.3z"/>
		<path class="st1" d="M126.6,27.3l1-6.2l2.5,0.1L127.4,38l-1.5-0.1l-0.3-0.9c-1.1,0.7-2.3,1.1-3.8,1c-3.3-0.1-4.2-2.4-3.6-6
			c0.6-3.7,2.1-5.8,5.4-5.7C124.8,26.3,125.8,26.7,126.6,27.3z M120.8,32.1c-0.3,2.1-0.2,3.8,2,3.8c1.2,0,2-0.3,2.5-0.6l1-6.2
			c-0.4-0.3-1.1-0.7-2.3-0.7C121.7,28.4,121.1,30,120.8,32.1z"/>
		<path class="st1" d="M134,26.5l-1.2,7.7c-0.2,1.1,0.3,1.7,1.5,1.7c1.2,0,2-0.2,2.7-0.6l1.4-8.7l2.5,0.1L139.1,38l-1.5-0.1
			l-0.3-0.9c-1.3,0.7-2.6,1.1-3.8,1c-2.9-0.1-3.7-1.6-3.3-3.7l1.3-7.9L134,26.5z"/>
		<path class="st1" d="M146.8,35.9c1.3,0,2.2-0.1,3-0.4l-0.3,2.2c-0.9,0.4-2,0.5-3.2,0.5c-4-0.1-4.8-2.6-4.3-6.1s2.1-5.8,6.1-5.7
			c1.2,0,2.2,0.3,3,0.7l-0.3,2.2c-0.8-0.3-1.6-0.6-2.9-0.6c-2.2-0.1-3.1,1.4-3.4,3.6C144.2,34.3,144.6,35.8,146.8,35.9z"/>
		<path class="st1" d="M157.9,38c-0.4,0.1-1,0.1-1.4,0.1c-2.5-0.1-3.8-1.2-3.4-3.6l0.9-5.9l-2.1-0.1l0.3-1.5l2.1-0.5l0.4-2.7
			l2.6-0.6l-0.5,3.4l3.2,0.1l-0.3,2.1l-3.2-0.1l-0.9,5.6c-0.2,1.1,0.3,1.7,1.6,1.7c0.4,0,0.7,0,1-0.1L157.9,38z"/>
		<path class="st1" d="M160.6,35l1.3-8.5l2.5,0.1l-1.3,8.4c-0.1,0.6,0.1,0.9,0.8,0.9l-0.3,2c0,0-0.2,0-0.5,0
			C161,38,160.3,36.9,160.6,35z M163.7,21.6c0.9,0,1.6,0.8,1.6,1.7c0,0.9-0.8,1.6-1.7,1.6c-0.9,0-1.6-0.8-1.6-1.7
			C162.1,22.3,162.8,21.6,163.7,21.6z"/>
		<path class="st1" d="M169.1,26.5l1.3,8.2l3.9-8l2.7,0.1L171,38.1l-2.1-0.1l-2.5-11.6L169.1,26.5z"/>
		<path class="st1" d="M177.3,32c0.6-3.5,1.9-5.9,5.9-5.7c4,0.1,4.6,2.6,4.1,6.1c-0.6,3.5-1.9,5.9-5.9,5.7
			C177.3,37.9,176.7,35.5,177.3,32z M184.7,32.3c0.4-2.4,0.3-3.8-1.9-3.9c-2.1-0.1-2.7,1.3-3.1,3.7c-0.4,2.4-0.3,3.8,1.9,3.9
			C183.8,36,184.4,34.7,184.7,32.3z"/>
	</g>
	<g>
		<path class="st0" d="M165.9,58.5h-0.8l-3.8-8.2l0.1,9.9h-1V49h1.4l3.8,8.3l3.8-8.3h1.4v11.3h-1l0.1-9.9L165.9,58.5z"/>
		<path class="st0" d="M175.4,53.5c-1,0-1.7,0.2-2.3,0.4V53c0.7-0.3,1.5-0.4,2.3-0.4c2.3,0,2.8,1,2.8,2.5v5.1h-0.6l-0.2-0.6
			c-0.7,0.5-1.5,0.8-2.3,0.8c-2,0-2.6-1.2-2.6-2.4c0-1.3,0.7-2.2,2.7-2.3l2-0.1v-0.4C177.2,54,176.8,53.5,175.4,53.5z M175.1,56.4
			c-1.1,0.1-1.5,0.7-1.5,1.5c0,0.7,0.2,1.5,1.6,1.5c0.8,0,1.4-0.2,2-0.6v-2.6L175.1,56.4z"/>
		<path class="st0" d="M180.7,52.7l2.1,6.2l2.1-6.2h1.2L181.8,64h-1.1l1.7-3.9l-2.9-7.3H180.7z"/>
		<path class="st0" d="M192,54.8c0-1-0.6-1.3-1.5-1.3c-1,0-1.5,0.2-2,0.5v6.2h-1.1v-7.5h0.6l0.2,0.6c0.7-0.5,1.5-0.8,2.3-0.8
			c1.8,0,2.6,0.8,2.6,2.3v5.4H192V54.8z"/>
		<path class="st0" d="M197.6,53.5c-1,0-1.7,0.2-2.3,0.4V53c0.7-0.3,1.5-0.4,2.3-0.4c2.3,0,2.8,1,2.8,2.5v5.1h-0.6l-0.2-0.6
			c-0.7,0.5-1.5,0.8-2.3,0.8c-2,0-2.6-1.2-2.6-2.4c0-1.3,0.7-2.2,2.7-2.3l2-0.1v-0.4C199.3,54,199,53.5,197.6,53.5z M197.3,56.4
			c-1.1,0.1-1.5,0.7-1.5,1.5c0,0.7,0.2,1.5,1.6,1.5c0.8,0,1.4-0.2,2-0.6v-2.6L197.3,56.4z"/>
		<path class="st0" d="M204.9,55.9c2.1,0.2,2.6,0.9,2.6,2.1c0,1.2-0.7,2.3-3,2.3c-0.7,0-1.8-0.2-2.2-0.4v-0.9
			c0.5,0.2,1.2,0.3,2.3,0.3c1.6,0,2-0.7,2-1.4c0-0.7-0.2-1.2-1.7-1.3c-2.2-0.2-2.6-1-2.6-2c0-1.1,0.7-2.2,2.8-2.2
			c0.7,0,1.5,0.1,2.2,0.4v0.9c-0.6-0.2-1.2-0.3-2.2-0.3c-1.5,0-1.8,0.6-1.8,1.3C203.1,55.5,203.4,55.8,204.9,55.9z"/>
	</g>
</g>
</svg>
