<?xml version="1.0" encoding="utf-8"?>
<!-- Generator: Adobe Illustrator 23.0.1, SVG Export Plug-In . SVG Version: 6.00 Build 0)  -->
<svg version="1.1" id="Capa_1" xmlns="http://www.w3.org/2000/svg" xmlns:xlink="http://www.w3.org/1999/xlink" x="0px" y="0px"
	 viewBox="0 0 285.8 85" style="enable-background:new 0 0 285.8 85;" xml:space="preserve">
<style type="text/css">
	.st0{fill:#3C3C3B;}
	.st1{fill:#793282;}
</style>
<g>
	<g>
		<path class="st0" d="M29.7,25.7l-1.5,8.8h12.2l-0.6,3.4H27.5c-1.8,0-3-1.4-2.7-3.2l1.5-9.2c0.3-1.8,2-3.2,3.7-3.2h12.3l-0.6,3.4
			H29.7z"/>
		<path class="st0" d="M44.8,22.4h3.4l-2.6,15.6h-3.4L44.8,22.4z"/>
		<path class="st0" d="M66.2,22.4l-0.6,3.4h-6.1l-2,12.2h-3.4l2-12.2h-6.1l0.6-3.4H66.2z"/>
		<path class="st0" d="M82.5,25.7h-11L71,28.4h8.8l-0.6,3.4h-8.8L70,34.5h11l-0.6,3.4H66.1l2.6-15.6H83L82.5,25.7z"/>
	</g>
	<g>
		<path class="st1" d="M88,38.1c-0.4,0.1-1,0.1-1.4,0.1c-2.5-0.1-3.8-1.2-3.4-3.6l0.9-5.9L82,28.6l0.3-1.5l2.1-0.5l0.4-2.7l2.6-0.6
			L87,26.7l3.2,0.1l-0.3,2.1l-3.2-0.1l-0.9,5.6c-0.2,1.1,0.3,1.7,1.6,1.7c0.4,0,0.7,0,1-0.1L88,38.1z"/>
		<path class="st1" d="M93,33.1c-0.2,1.7,0.2,2.8,2.5,2.9c1.4,0,2.6-0.2,3.7-0.5l-0.3,2.2c-1.4,0.5-2.9,0.6-4.1,0.6
			C91,38,90,35.7,90.6,32.1c0.6-3.6,2.3-5.8,6-5.7c3.3,0.1,4.3,1.7,4,3.6c-0.3,1.9-1.8,3.3-5.1,3.2L93,33.1z M95.7,31.4
			c1.3,0,2.2-0.4,2.4-1.4c0.1-1-0.6-1.5-2-1.5c-1.9-0.1-2.5,1.1-2.9,2.8L95.7,31.4z"/>
		<path class="st1" d="M106.5,33.7l-3.1,4.1l-2.9-0.1l4.7-5.6l-2.7-5.6l2.9,0.1l1.7,4l2.9-3.8l2.9,0.1l-4.5,5.3l2.9,5.9l-2.9-0.1
			L106.5,33.7z"/>
		<path class="st1" d="M119.2,38.1c-0.4,0.1-1,0.1-1.4,0.1c-2.5-0.1-3.8-1.2-3.4-3.6l0.9-5.9l-2.1-0.1l0.3-1.5l2.1-0.5l0.4-2.7
			l2.6-0.6l-0.5,3.4l3.2,0.1l-0.3,2.1l-3.2-0.1l-0.9,5.6c-0.2,1.1,0.3,1.7,1.6,1.7c0.4,0,0.7,0,1-0.1L119.2,38.1z"/>
		<path class="st1" d="M121.8,35.1l1.3-8.5l2.5,0.1l-1.3,8.4c-0.1,0.6,0.1,0.9,0.8,0.9l-0.3,2c0,0-0.2,0-0.5,0
			C122.3,38,121.5,37,121.8,35.1z M125,21.7c0.9,0,1.6,0.8,1.6,1.7s-0.8,1.6-1.7,1.6c-0.9,0-1.6-0.8-1.6-1.7S124.1,21.6,125,21.7z"
			/>
		<path class="st1" d="M127.5,35.1l2.2-14.1l2.5,0.1L130,35.1c-0.1,0.6,0.1,0.9,0.8,0.9l-0.3,2c0,0-0.2,0-0.5,0
			C128,38,127.2,37,127.5,35.1z"/>
		<path class="st1" d="M142.2,36c1.3,0,2.2-0.1,3-0.4l-0.3,2.2c-0.9,0.4-2,0.5-3.2,0.5c-4-0.1-4.8-2.6-4.3-6.1
			c0.6-3.5,2.1-5.8,6.1-5.7c1.2,0,2.2,0.3,3,0.7l-0.3,2.2c-0.8-0.3-1.6-0.6-2.9-0.6c-2.2-0.1-3.1,1.4-3.4,3.6
			C139.6,34.4,140,35.9,142.2,36z"/>
		<path class="st1" d="M156.6,38.1l-1.5-0.1l-0.3-0.9c-1.1,0.7-2.3,1.1-3.8,1c-3.3-0.1-4.2-2.4-3.6-6s2.1-5.8,5.4-5.7
			c1.5,0.1,2.6,0.5,3.5,1.3l0.6-0.9l1.5,0.1L156.6,38.1z M155.5,29.2c-0.4-0.3-1.1-0.7-2.3-0.7c-2.2-0.1-2.8,1.6-3.2,3.7
			c-0.3,2.1-0.2,3.8,2,3.8c1.2,0,2-0.3,2.5-0.6L155.5,29.2z"/>
		<path class="st1" d="M173.2,30.1c0.2-1.1-0.4-1.5-1.4-1.5c-1.1,0-1.9,0.3-2.6,0.6c0,0.4-0.1,0.8-0.1,1.2l-1.2,7.4l-2.5-0.1
			l1.3-7.9c0.2-1.1-0.4-1.5-1.4-1.5c-1,0-1.8,0.3-2.5,0.6l-1.4,8.7l-2.5-0.1l1.8-11.2l1.5,0.1l0.3,0.9c1.1-0.7,2.5-1.1,3.6-1
			c1.5,0.1,2.4,0.5,2.7,1.2c1.1-0.7,2.5-1,3.8-1c2.7,0.1,3.5,1.6,3.2,3.7l-1.3,7.9l-2.5-0.1L173.2,30.1z"/>
		<path class="st1" d="M179.7,33.1c-0.2,1.7,0.2,2.8,2.5,2.9c1.4,0,2.6-0.2,3.7-0.5l-0.3,2.2c-1.4,0.5-2.9,0.6-4.1,0.6
			c-3.8-0.1-4.8-2.4-4.2-6.1c0.6-3.6,2.3-5.8,6-5.7c3.3,0.1,4.3,1.7,4,3.6c-0.3,1.9-1.8,3.3-5.1,3.2L179.7,33.1z M182.5,31.4
			c1.3,0,2.2-0.4,2.4-1.4c0.1-1-0.6-1.5-2-1.5c-1.9-0.1-2.5,1.1-2.9,2.8L182.5,31.4z M182.3,25.5l2-4.4l3,0.1l-3,4.4L182.3,25.5z"/>
		<path class="st1" d="M188.8,35.1L191,21l2.5,0.1l-2.2,14.1c-0.1,0.6,0.1,0.9,0.8,0.9l-0.3,2c0,0-0.2,0-0.5,0
			C189.2,38,188.5,37,188.8,35.1z"/>
		<path class="st1" d="M194.4,35.1l1.3-8.5l2.5,0.1l-1.3,8.4c-0.1,0.6,0.1,0.9,0.8,0.9l-0.3,2c0,0-0.2,0-0.5,0
			C194.9,38,194.1,37,194.4,35.1z M197.6,21.7c0.9,0,1.6,0.8,1.6,1.7c0,0.9-0.8,1.6-1.7,1.6c-0.9,0-1.6-0.8-1.6-1.7
			C195.9,22.4,196.7,21.6,197.6,21.7z"/>
		<path class="st1" d="M208.3,27.3l1-6.2l2.5,0.1l-2.7,16.9l-1.5-0.1l-0.3-0.9c-1.1,0.7-2.3,1.1-3.8,1c-3.3-0.1-4.2-2.4-3.6-6
			c0.6-3.7,2.1-5.8,5.4-5.7C206.6,26.4,207.6,26.8,208.3,27.3z M202.5,32.2c-0.3,2.1-0.2,3.8,2,3.8c1.2,0,2-0.3,2.5-0.6l1-6.2
			c-0.4-0.3-1.1-0.7-2.3-0.7C203.5,28.4,202.9,30.1,202.5,32.2z"/>
		<path class="st1" d="M212.1,32.1c0.6-3.5,1.9-5.9,5.9-5.7c4,0.1,4.6,2.6,4.1,6.1c-0.6,3.5-1.9,5.9-5.9,5.7
			C212.1,38,211.5,35.5,212.1,32.1z M219.6,32.3c0.4-2.4,0.3-3.8-1.9-3.9c-2.1-0.1-2.7,1.3-3.1,3.7c-0.4,2.4-0.3,3.8,1.9,3.9
			C218.7,36.1,219.2,34.8,219.6,32.3z"/>
		<path class="st1" d="M228.3,31.1c3.4,0.4,4.1,1.5,3.7,3.5c-0.3,1.9-1.8,3.6-5.4,3.4c-1.6-0.1-2.9-0.4-3.6-0.7l0.3-2.2
			c0.7,0.3,1.9,0.7,3.3,0.7c1.8,0.1,2.7-0.3,2.9-1.3c0.1-0.8-0.2-1.3-1.6-1.5c-3.4-0.4-4-1.5-3.7-3.4c0.3-1.9,1.8-3.5,5.1-3.4
			c1.5,0.1,2.6,0.3,3.4,0.7l-0.3,2.2c-0.9-0.4-1.9-0.7-3.3-0.8c-1.3,0-2.2,0.3-2.4,1.3C226.6,30.6,226.9,31,228.3,31.1z"/>
	</g>
	<g>
		<path class="st0" d="M205.2,60.3l4-11.4h0.8l4,11.4h-1.2l-1-3.2h-4.3l-1,3.2H205.2z M207.7,56.3h3.7l-1.9-5.7L207.7,56.3z"/>
		<path class="st0" d="M219.4,53.7c-0.2-0.1-0.5-0.1-0.9-0.1c-1,0-1.6,0.2-2.2,0.5v6.2h-1.1v-7.5h0.6l0.2,0.6
			c0.7-0.5,1.6-0.8,2.4-0.8c0.3,0,0.6,0,0.9,0.1V53.7z"/>
		<path class="st0" d="M223.7,52.7c2.6,0,2.9,1.7,2.9,3.9V57h-5c0.1,1.3,0.4,2.5,2.1,2.5c1.1,0,1.7-0.1,2.5-0.4V60
			c-0.8,0.4-1.7,0.5-2.5,0.5c-2.5,0-3.2-1.7-3.2-3.9S221.2,52.7,223.7,52.7z M221.6,56.2h3.9c0-1.3-0.1-2.6-1.8-2.6
			C222,53.6,221.6,54.8,221.6,56.2z"/>
		<path class="st0" d="M228.2,56.6c0-2.2,0.7-3.9,3.1-3.9c0.8,0,1.6,0.3,2.3,0.8l0.2-0.6h0.6v11.3h-1.1v-4.2
			c-0.6,0.4-1.4,0.6-2.1,0.6C228.9,60.5,228.2,58.7,228.2,56.6z M233.4,59v-5c-0.6-0.3-1.1-0.5-2.1-0.5c-1.8,0-2,1.5-2,3s0.2,3,2,3
			C232.3,59.5,232.8,59.4,233.4,59z"/>
		<path class="st0" d="M237.4,58.3c0,1,0.6,1.3,1.5,1.3c1,0,1.5-0.2,2-0.5v-6.2h1.1v7.5h-0.6l-0.2-0.6c-0.7,0.5-1.5,0.8-2.3,0.8
			c-1.8,0-2.6-0.8-2.6-2.3v-5.4h1.1V58.3z"/>
		<path class="st0" d="M244.6,49.8c0.4,0,0.8,0.3,0.8,0.8c0,0.4-0.3,0.8-0.8,0.8c-0.4,0-0.8-0.3-0.8-0.8
			C243.9,50.1,244.2,49.8,244.6,49.8z M244.1,58.8v-6h1v6.1c0,0.5,0.2,0.7,0.6,0.7v0.9C244.7,60.5,244.1,60,244.1,58.8z"/>
		<path class="st0" d="M248.5,59.8v4.2h-1.1V52.8h0.6l0.2,0.6c0.8-0.5,1.5-0.8,2.3-0.8c2.4,0,3.1,1.7,3.1,3.9s-0.7,3.9-3.1,3.9
			C250,60.5,249.2,60.3,248.5,59.8z M252.7,56.6c0-1.5-0.2-3-2-3c-1,0-1.5,0.2-2.1,0.5v5c0.6,0.3,1.1,0.5,2.1,0.5
			C252.5,59.5,252.7,58,252.7,56.6z"/>
		<path class="st0" d="M258.2,53.6c-1,0-1.7,0.2-2.3,0.4v-0.9c0.7-0.3,1.5-0.4,2.3-0.4c2.3,0,2.8,1,2.8,2.5v5.1h-0.6l-0.2-0.6
			c-0.7,0.5-1.5,0.8-2.3,0.8c-2,0-2.6-1.2-2.6-2.4c0-1.3,0.7-2.2,2.7-2.3l2-0.1v-0.4C260,54.1,259.6,53.6,258.2,53.6z M257.9,56.5
			c-1.1,0.1-1.5,0.7-1.5,1.5c0,0.7,0.2,1.5,1.6,1.5c0.8,0,1.4-0.2,2-0.6v-2.6L257.9,56.5z"/>
	</g>
</g>
</svg>
