<?xml version="1.0" encoding="utf-8"?>
<!-- Generator: Adobe Illustrator 23.0.1, SVG Export Plug-In . SVG Version: 6.00 Build 0)  -->
<svg version="1.1" id="Capa_1" xmlns="http://www.w3.org/2000/svg" xmlns:xlink="http://www.w3.org/1999/xlink" x="0px" y="0px"
	 viewBox="0 0 285.8 85" style="enable-background:new 0 0 285.8 85;" xml:space="preserve">
<style type="text/css">
	.st0{fill:#3C3C3B;}
	.st1{fill:#793282;}
</style>
<g>
	<g>
		<path class="st0" d="M36.3,27.5l-1.5,8.8H47l-0.6,3.4H34.2c-1.8,0-3-1.4-2.7-3.2l1.5-9.2c0.3-1.8,2-3.2,3.7-3.2h12.3l-0.6,3.4
			H36.3z"/>
		<path class="st0" d="M51.5,24.2h3.4l-2.6,15.6h-3.4L51.5,24.2z"/>
		<path class="st0" d="M72.9,24.2l-0.6,3.4h-6.1l-2,12.2h-3.4l2-12.2h-6.1l0.6-3.4H72.9z"/>
		<path class="st0" d="M89.2,27.5h-11l-0.5,2.7h8.8L86,33.6h-8.8l-0.5,2.7h11l-0.6,3.4H72.8l2.6-15.6h14.4L89.2,27.5z"/>
	</g>
	<g>
		<path class="st1" d="M94.7,39.9c-0.4,0.1-1,0.1-1.4,0.1c-2.5-0.1-3.8-1.2-3.4-3.6l0.9-5.9l-2.1-0.1l0.3-1.5l2.1-0.5l0.4-2.7
			l2.6-0.6l-0.5,3.4l3.2,0.1l-0.3,2.1l-3.2-0.1l-0.9,5.6c-0.2,1.1,0.3,1.7,1.6,1.7c0.4,0,0.7,0,1-0.1L94.7,39.9z"/>
		<path class="st1" d="M99.7,34.9c-0.2,1.7,0.2,2.8,2.5,2.9c1.4,0,2.6-0.2,3.7-0.5l-0.3,2.2c-1.4,0.5-2.9,0.6-4.1,0.6
			c-3.8-0.1-4.8-2.4-4.2-6.1c0.6-3.6,2.3-5.8,6-5.7c3.3,0.1,4.3,1.7,4,3.6c-0.3,1.9-1.8,3.3-5.1,3.2L99.7,34.9z M102.4,33.2
			c1.3,0,2.2-0.4,2.4-1.4c0.1-1-0.6-1.5-2-1.5c-1.9-0.1-2.5,1.1-2.9,2.8L102.4,33.2z"/>
		<path class="st1" d="M113.2,35.5l-3.1,4.1l-2.9-0.1l4.7-5.6l-2.7-5.6l2.9,0.1l1.7,4l2.9-3.8l2.9,0.1l-4.5,5.3l2.9,5.9l-2.9-0.1
			L113.2,35.5z"/>
		<path class="st1" d="M125.9,39.9c-0.4,0.1-1,0.1-1.4,0.1c-2.5-0.1-3.8-1.2-3.4-3.6l0.9-5.9l-2.1-0.1l0.3-1.5l2.1-0.5l0.4-2.7
			l2.6-0.6l-0.5,3.4l3.2,0.1l-0.3,2.1l-3.2-0.1l-0.9,5.6c-0.2,1.1,0.3,1.7,1.6,1.7c0.4,0,0.7,0,1-0.1L125.9,39.9z"/>
		<path class="st1" d="M128.5,36.9l1.3-8.5l2.5,0.1l-1.3,8.4c-0.1,0.6,0.1,0.9,0.8,0.9l-0.3,2c0,0-0.2,0-0.5,0
			C129,39.8,128.2,38.8,128.5,36.9z M131.7,23.5c0.9,0,1.6,0.8,1.6,1.7c0,0.9-0.8,1.6-1.7,1.6c-0.9,0-1.6-0.8-1.6-1.7
			C130,24.2,130.8,23.4,131.7,23.5z"/>
		<path class="st1" d="M134.2,36.9l2.2-14.1l2.5,0.1l-2.2,14.1c-0.1,0.6,0.1,0.9,0.8,0.9l-0.3,2c0,0-0.2,0-0.5,0
			C134.6,39.8,133.9,38.8,134.2,36.9z"/>
		<path class="st1" d="M148.9,37.8c1.3,0,2.2-0.1,3-0.4l-0.3,2.2c-0.9,0.4-2,0.5-3.2,0.5c-4-0.1-4.8-2.6-4.3-6.1s2.1-5.8,6.1-5.7
			c1.2,0,2.2,0.3,3,0.7l-0.3,2.2c-0.8-0.3-1.6-0.6-2.9-0.6c-2.2-0.1-3.1,1.4-3.4,3.6C146.3,36.2,146.7,37.7,148.9,37.8z"/>
		<path class="st1" d="M163.3,39.9l-1.5-0.1l-0.3-0.9c-1.1,0.7-2.3,1.1-3.8,1c-3.3-0.1-4.2-2.4-3.6-6c0.6-3.7,2.1-5.8,5.4-5.7
			c1.5,0.1,2.6,0.5,3.5,1.3l0.6-0.9l1.5,0.1L163.3,39.9z M162.2,31c-0.4-0.3-1.1-0.7-2.3-0.7c-2.2-0.1-2.8,1.6-3.2,3.7
			c-0.3,2.1-0.2,3.8,2,3.8c1.2,0,2-0.3,2.5-0.6L162.2,31z"/>
		<path class="st1" d="M179.9,31.9c0.2-1.1-0.4-1.5-1.4-1.5c-1.1,0-1.9,0.3-2.6,0.6c0,0.4-0.1,0.8-0.1,1.2l-1.2,7.4l-2.5-0.1
			l1.3-7.9c0.2-1.1-0.4-1.5-1.4-1.5c-1,0-1.8,0.3-2.5,0.6l-1.4,8.7l-2.5-0.1l1.8-11.2l1.5,0.1l0.3,0.9c1.1-0.7,2.5-1.1,3.6-1
			c1.5,0.1,2.4,0.5,2.7,1.2c1.1-0.7,2.5-1,3.8-1c2.7,0.1,3.5,1.6,3.2,3.7l-1.3,7.9l-2.5-0.1L179.9,31.9z"/>
		<path class="st1" d="M186.4,34.9c-0.2,1.7,0.2,2.8,2.5,2.9c1.4,0,2.6-0.2,3.7-0.5l-0.3,2.2c-1.4,0.5-2.9,0.6-4.1,0.6
			c-3.8-0.1-4.8-2.4-4.2-6.1c0.6-3.6,2.3-5.8,6-5.7c3.3,0.1,4.3,1.7,4,3.6c-0.3,1.9-1.8,3.3-5.1,3.2L186.4,34.9z M189.2,33.2
			c1.3,0,2.2-0.4,2.4-1.4c0.1-1-0.6-1.5-2-1.5c-1.9-0.1-2.5,1.1-2.9,2.8L189.2,33.2z M189,27.3l2-4.4l3,0.1l-3,4.4L189,27.3z"/>
		<path class="st1" d="M195.5,36.9l2.2-14.1l2.5,0.1L198,36.9c-0.1,0.6,0.1,0.9,0.8,0.9l-0.3,2c0,0-0.2,0-0.5,0
			C195.9,39.8,195.2,38.8,195.5,36.9z"/>
		<path class="st1" d="M201.1,36.9l1.3-8.5l2.5,0.1l-1.3,8.4c-0.1,0.6,0.1,0.9,0.8,0.9l-0.3,2c0,0-0.2,0-0.5,0
			C201.6,39.8,200.8,38.8,201.1,36.9z M204.3,23.5c0.9,0,1.6,0.8,1.6,1.7c0,0.9-0.8,1.6-1.7,1.6c-0.9,0-1.6-0.8-1.6-1.7
			C202.6,24.2,203.4,23.4,204.3,23.5z"/>
		<path class="st1" d="M215,29.1l1-6.2l2.5,0.1l-2.7,16.9l-1.5-0.1l-0.3-0.9c-1.1,0.7-2.3,1.1-3.8,1c-3.3-0.1-4.2-2.4-3.6-6
			c0.6-3.7,2.1-5.8,5.4-5.7C213.3,28.2,214.3,28.6,215,29.1z M209.2,34c-0.3,2.1-0.2,3.8,2,3.8c1.2,0,2-0.3,2.5-0.6l1-6.2
			c-0.4-0.3-1.1-0.7-2.3-0.7C210.2,30.2,209.6,31.9,209.2,34z"/>
		<path class="st1" d="M218.8,33.9c0.6-3.5,1.9-5.9,5.9-5.7c4,0.1,4.6,2.6,4.1,6.1c-0.6,3.5-1.9,5.9-5.9,5.7
			C218.8,39.8,218.2,37.3,218.8,33.9z M226.2,34.2c0.4-2.4,0.3-3.8-1.9-3.9c-2.1-0.1-2.7,1.3-3.1,3.7c-0.4,2.4-0.3,3.8,1.9,3.9
			C225.3,37.9,225.9,36.6,226.2,34.2z"/>
		<path class="st1" d="M235,32.9c3.4,0.4,4.1,1.5,3.7,3.5c-0.3,1.9-1.8,3.6-5.4,3.4c-1.6-0.1-2.9-0.4-3.6-0.7l0.3-2.2
			c0.7,0.3,1.9,0.7,3.3,0.7c1.8,0.1,2.7-0.3,2.9-1.3c0.1-0.8-0.2-1.3-1.6-1.5c-3.4-0.4-4-1.5-3.7-3.4c0.3-1.9,1.8-3.5,5.1-3.4
			c1.5,0.1,2.6,0.3,3.4,0.7l-0.3,2.2c-0.9-0.4-1.9-0.7-3.3-0.8c-1.3,0-2.2,0.3-2.4,1.3C233.2,32.4,233.6,32.8,235,32.9z"/>
	</g>
	<g>
		<path class="st0" d="M222,50.7c1.4,0,2.3,0.3,2.9,0.5v1c-1-0.4-1.8-0.6-2.9-0.6c-2.5,0-3.3,2.1-3.3,4.8s0.9,4.8,3.3,4.8
			c1.1,0,1.9-0.2,2.9-0.6v1c-0.6,0.3-1.5,0.5-2.9,0.5c-3.4,0-4.4-2.6-4.4-5.8S218.7,50.7,222,50.7z"/>
		<path class="st0" d="M227.8,60.1c0,1,0.6,1.3,1.5,1.3c1,0,1.5-0.2,2-0.5v-6.2h1.1v7.5h-0.6l-0.2-0.6c-0.7,0.5-1.5,0.8-2.3,0.8
			c-1.8,0-2.6-0.8-2.6-2.3v-5.4h1.1V60.1z"/>
		<path class="st0" d="M236.9,57.8c2.1,0.2,2.6,0.9,2.6,2.1c0,1.2-0.7,2.3-3,2.3c-0.7,0-1.8-0.2-2.2-0.4V61c0.5,0.2,1.2,0.3,2.3,0.3
			c1.6,0,2-0.7,2-1.4c0-0.7-0.2-1.2-1.7-1.3c-2.2-0.2-2.6-1-2.6-2c0-1.1,0.7-2.2,2.8-2.2c0.7,0,1.5,0.1,2.2,0.4v0.9
			c-0.6-0.2-1.2-0.3-2.2-0.3c-1.5,0-1.8,0.6-1.8,1.3C235.1,57.3,235.4,57.7,236.9,57.8z"/>
		<path class="st0" d="M244.3,54.5c0.7,0,1.6,0.1,2.2,0.4v0.9c-0.6-0.2-1.2-0.3-2.3-0.3c-1.9,0-2.1,1.5-2.1,3s0.2,3,2.1,3
			c1.1,0,1.7-0.2,2.3-0.3v0.9c-0.7,0.3-1.5,0.4-2.2,0.4c-2.5,0-3.2-1.7-3.2-3.9S241.7,54.5,244.3,54.5z"/>
		<path class="st0" d="M251.2,62.3c-2.6,0-3.2-1.6-3.2-3.9c0-2.3,0.6-3.9,3.2-3.9c2.6,0,3.2,1.6,3.2,3.9
			C254.3,60.7,253.7,62.3,251.2,62.3z M251.2,55.4c-2,0-2.1,1.3-2.1,3c0,1.7,0.1,3,2.1,3c2,0,2.1-1.3,2.1-3
			C253.3,56.7,253.1,55.4,251.2,55.4z"/>
	</g>
</g>
</svg>
