<?xml version="1.0" encoding="utf-8"?>
<!-- Generator: Adobe Illustrator 23.0.1, SVG Export Plug-In . SVG Version: 6.00 Build 0)  -->
<svg version="1.1" id="Capa_1" xmlns="http://www.w3.org/2000/svg" xmlns:xlink="http://www.w3.org/1999/xlink" x="0px" y="0px"
	 viewBox="0 0 255.1 85" style="enable-background:new 0 0 255.1 85;" xml:space="preserve">
<style type="text/css">
	.st0{fill:#3C3C3B;}
	.st1{fill:#2FAC66;}
</style>
<g>
	<g>
		<path class="st0" d="M27.8,27.5l-1.5,8.8h12.2L38,39.7H25.7c-1.8,0-3-1.4-2.7-3.2l1.5-9.2c0.3-1.8,2-3.2,3.7-3.2h12.3L40,27.5
			H27.8z"/>
		<path class="st0" d="M43,24.2h3.4l-2.6,15.6h-3.4L43,24.2z"/>
		<path class="st0" d="M64.4,24.2l-0.6,3.4h-6.1l-2,12.2h-3.4l2-12.2h-6.1l0.6-3.4H64.4z"/>
		<path class="st0" d="M80.7,27.5h-11l-0.5,2.7h8.8l-0.6,3.4h-8.8l-0.5,2.7h11l-0.6,3.4H64.3l2.6-15.6h14.4L80.7,27.5z"/>
	</g>
	<g>
		<path class="st1" d="M89.5,39.9L88,39.8l-0.3-0.9c-1.1,0.7-2.3,1.1-3.8,1c-3.3-0.1-4.2-2.4-3.6-6s2.1-5.8,5.4-5.7
			c1.5,0.1,2.6,0.5,3.5,1.3l0.6-0.9l1.5,0.1L89.5,39.9z M88.3,31c-0.4-0.3-1.1-0.7-2.3-0.7c-2.2-0.1-2.8,1.6-3.2,3.7
			c-0.3,2.1-0.2,3.8,2,3.8c1.2,0,2-0.3,2.5-0.6L88.3,31z"/>
		<path class="st1" d="M101.5,40.6c-0.4,2.8-1.6,5.1-6.3,4.9c-1.4,0-2.9-0.4-3.9-0.9l0.4-2.2c1.2,0.7,2.6,0.9,3.9,1
			c2.5,0.1,3.2-1.1,3.4-2.5l0.3-1.6c-0.9,0.5-1.9,0.7-3.1,0.7c-3.3-0.1-4.2-2.4-3.6-6s2.1-5.8,5.4-5.7c1.5,0.1,2.6,0.5,3.5,1.3
			l0.6-0.9l1.5,0.1L101.5,40.6z M100.4,31c-0.4-0.3-1.1-0.7-2.3-0.7c-2.2-0.1-2.8,1.6-3.2,3.7c-0.3,2.1-0.2,3.8,2,3.8
			c1.2,0,2-0.3,2.5-0.6L100.4,31z"/>
		<path class="st1" d="M112,30.6c-0.3-0.1-0.7-0.2-1.2-0.2c-1.3,0-2.4,0.2-3,0.6l-1.4,8.7l-2.5-0.1l1.8-11.2l1.5,0.1l0.3,0.9
			c0.9-0.6,2.3-1.1,3.7-1c0.5,0,0.9,0.1,1.2,0.2L112,30.6z"/>
		<path class="st1" d="M112.6,33.9c0.6-3.5,1.9-5.9,5.9-5.7c4,0.1,4.6,2.6,4.1,6.1c-0.6,3.5-1.9,5.9-5.9,5.7S112.1,37.3,112.6,33.9z
			 M120.1,34.2c0.4-2.4,0.3-3.8-1.9-3.9c-2.1-0.1-2.7,1.3-3.1,3.7c-0.4,2.4-0.3,3.8,1.9,3.9C119.2,37.9,119.7,36.6,120.1,34.2z"/>
		<path class="st1" d="M124.4,36.9l1.3-8.5l2.5,0.1l-1.3,8.4c-0.1,0.6,0.1,0.9,0.8,0.9l-0.3,2c0,0-0.2,0-0.5,0
			C124.9,39.8,124.1,38.8,124.4,36.9z M127.6,23.5c0.9,0,1.6,0.8,1.6,1.7s-0.8,1.6-1.7,1.6c-0.9,0-1.6-0.8-1.6-1.7
			S126.7,23.4,127.6,23.5z"/>
		<path class="st1" d="M136.3,39.8l1.2-7.7c0.2-1.1-0.3-1.7-1.5-1.7c-1.2,0-2,0.2-2.7,0.6l-1.4,8.7l-2.5-0.1l1.8-11.2l1.5,0.1
			l0.3,0.9c1.3-0.7,2.6-1.1,3.8-1c2.9,0.1,3.7,1.6,3.3,3.7l-1.3,7.9L136.3,39.8z"/>
		<path class="st1" d="M150,29.1l1-6.2l2.5,0.1l-2.7,16.9l-1.5-0.1l-0.3-0.9c-1.1,0.7-2.3,1.1-3.8,1c-3.3-0.1-4.2-2.4-3.6-6
			c0.6-3.7,2.1-5.8,5.4-5.7C148.3,28.2,149.3,28.6,150,29.1z M144.2,34c-0.3,2.1-0.2,3.8,2,3.8c1.2,0,2-0.3,2.5-0.6l1-6.2
			c-0.4-0.3-1.1-0.7-2.3-0.7C145.2,30.2,144.6,31.9,144.2,34z"/>
		<path class="st1" d="M157.4,28.4l-1.2,7.7c-0.2,1.1,0.3,1.7,1.5,1.7c1.2,0,2-0.2,2.7-0.6l1.4-8.7l2.5,0.1l-1.8,11.2l-1.5-0.1
			l-0.3-0.9c-1.3,0.7-2.6,1.1-3.8,1c-2.9-0.1-3.7-1.6-3.3-3.7l1.2-7.9L157.4,28.4z"/>
		<path class="st1" d="M170,32.9c3.4,0.4,4.1,1.5,3.7,3.5c-0.3,1.9-1.8,3.6-5.4,3.4c-1.6-0.1-2.9-0.4-3.6-0.7l0.3-2.2
			c0.7,0.3,1.9,0.7,3.3,0.7c1.8,0.1,2.7-0.3,2.9-1.3c0.1-0.8-0.2-1.3-1.6-1.5c-3.4-0.4-4-1.5-3.7-3.4c0.3-1.9,1.8-3.5,5.1-3.4
			c1.5,0.1,2.6,0.3,3.4,0.7l-0.3,2.2c-0.9-0.4-1.9-0.7-3.3-0.8c-1.3,0-2.2,0.3-2.4,1.3C168.2,32.4,168.6,32.8,170,32.9z"/>
		<path class="st1" d="M181.7,39.9c-0.4,0.1-1,0.1-1.4,0.1c-2.5-0.1-3.8-1.2-3.4-3.6l0.9-5.9l-2.1-0.1l0.3-1.5l2.1-0.5l0.4-2.7
			l2.6-0.6l-0.5,3.4l3.2,0.1l-0.3,2.1l-3.2-0.1l-0.9,5.6c-0.2,1.1,0.3,1.7,1.6,1.7c0.4,0,0.7,0,1-0.1L181.7,39.9z"/>
		<path class="st1" d="M191.8,30.6c-0.3-0.1-0.7-0.2-1.2-0.2c-1.3,0-2.4,0.2-3,0.6l-1.4,8.7l-2.5-0.1l1.8-11.2l1.5,0.1l0.3,0.9
			c0.9-0.6,2.3-1.1,3.7-1c0.5,0,0.9,0.1,1.2,0.2L191.8,30.6z"/>
		<path class="st1" d="M192.5,36.9l1.3-8.5l2.5,0.1l-1.3,8.4c-0.1,0.6,0.1,0.9,0.8,0.9l-0.3,2c0,0-0.2,0-0.5,0
			C192.9,39.8,192.2,38.8,192.5,36.9z M195.7,23.5c0.9,0,1.6,0.8,1.6,1.7c0,0.9-0.8,1.6-1.7,1.6c-0.9,0-1.6-0.8-1.6-1.7
			C194,24.2,194.8,23.4,195.7,23.5z"/>
		<path class="st1" d="M207.2,39.9l-1.5-0.1l-0.3-0.9c-1.1,0.7-2.3,1.1-3.8,1c-3.3-0.1-4.2-2.4-3.6-6c0.6-3.7,2.1-5.8,5.4-5.7
			c1.5,0.1,2.6,0.5,3.5,1.3l0.6-0.9l1.5,0.1L207.2,39.9z M206.1,31c-0.4-0.3-1.1-0.7-2.3-0.7c-2.2-0.1-2.8,1.6-3.2,3.7
			c-0.3,2.1-0.2,3.8,2,3.8c1.2,0,2-0.3,2.5-0.6L206.1,31z"/>
		<path class="st1" d="M210.2,36.9l2.2-14.1l2.5,0.1l-2.2,14.1c-0.1,0.6,0.1,0.9,0.8,0.9l-0.3,2c0,0-0.2,0-0.5,0
			C210.7,39.8,209.9,38.8,210.2,36.9z"/>
	</g>
	<g>
		<path class="st0" d="M179.7,58.4v-7.6h1v7.7c0,3.2-2.6,3.7-4,3.7c-1.4,0-4-0.5-4-3.7v-7.7h1v7.6c0,2.7,2,2.9,3,2.9
			S179.7,61.1,179.7,58.4z"/>
		<path class="st0" d="M183.2,60.8c0.4,0,0.8,0.3,0.8,0.8s-0.3,0.8-0.8,0.8c-0.4,0-0.8-0.3-0.8-0.8S182.8,60.8,183.2,60.8z"/>
		<path class="st0" d="M188,51.8v10.3h-1V51.8h-3.1v-0.9h7.2v0.9H188z"/>
		<path class="st0" d="M191.8,60.8c0.4,0,0.8,0.3,0.8,0.8s-0.3,0.8-0.8,0.8c-0.4,0-0.8-0.3-0.8-0.8S191.3,60.8,191.8,60.8z"/>
		<path class="st0" d="M196.1,62.1l4-11.4h0.8l4,11.4h-1.2l-1-3.2h-4.3l-1,3.2H196.1z M198.6,58.1h3.7l-1.9-5.7L198.6,58.1z"/>
		<path class="st0" d="M215,56.7c0-1-0.6-1.3-1.4-1.3c-0.9,0-1.4,0.2-2,0.5c0.1,0.2,0.1,0.5,0.1,0.8v5.5h-1.1v-5.5
			c0-1-0.6-1.3-1.4-1.3c-0.9,0-1.4,0.2-2,0.5v6.3h-1.1v-7.5h0.6l0.2,0.6c0.7-0.5,1.5-0.8,2.2-0.8c1,0,1.7,0.3,2.1,0.9
			c0.8-0.5,1.6-0.9,2.3-0.9c1.6,0,2.5,0.8,2.5,2.3v5.4H215V56.7z"/>
		<path class="st0" d="M224.2,58.4c0,2.2-0.7,3.9-3.1,3.9c-0.8,0-1.6-0.3-2.3-0.8l-0.2,0.6H218V50.8h1.1v4.2
			c0.6-0.4,1.4-0.6,2.1-0.6C223.5,54.5,224.2,56.2,224.2,58.4z M219,55.9v5c0.6,0.3,1.1,0.5,2.1,0.5c1.8,0,2-1.5,2-3s-0.2-3-2-3
			C220.1,55.4,219.6,55.5,219,55.9z"/>
		<path class="st0" d="M229,62.3c-2.6,0-3.2-1.6-3.2-3.9c0-2.3,0.6-3.9,3.2-3.9c2.6,0,3.2,1.6,3.2,3.9
			C232.2,60.7,231.6,62.3,229,62.3z M229,55.4c-2,0-2.1,1.3-2.1,3c0,1.7,0.1,3,2.1,3c2,0,2.1-1.3,2.1-3
			C231.1,56.7,231,55.4,229,55.4z"/>
	</g>
</g>
</svg>
