<?xml version="1.0" encoding="utf-8"?>
<!-- Generator: Adobe Illustrator 23.0.1, SVG Export Plug-In . SVG Version: 6.00 Build 0)  -->
<svg version="1.1" id="Capa_1" xmlns="http://www.w3.org/2000/svg" xmlns:xlink="http://www.w3.org/1999/xlink" x="0px" y="0px"
	 viewBox="0 0 255.1 85" style="enable-background:new 0 0 255.1 85;" xml:space="preserve">
<style type="text/css">
	.st0{fill:#3C3C3B;}
	.st1{fill:#2FAC66;}
</style>
<g>
	<g>
		<path class="st0" d="M26.9,27.5l-1.5,8.8h12.2l-0.6,3.4H24.8c-1.8,0-3-1.4-2.7-3.2l1.5-9.2c0.3-1.8,2-3.2,3.7-3.2h12.3l-0.6,3.4
			H26.9z"/>
		<path class="st0" d="M42.1,24.2h3.4l-2.6,15.6h-3.4L42.1,24.2z"/>
		<path class="st0" d="M63.5,24.2l-0.6,3.4h-6.1l-2,12.2h-3.4l2-12.2h-6.1l0.6-3.4H63.5z"/>
		<path class="st0" d="M79.7,27.5h-11l-0.5,2.7h8.8l-0.6,3.4h-8.8l-0.5,2.7h11l-0.6,3.4H63.4l2.6-15.6h14.4L79.7,27.5z"/>
	</g>
	<g>
		<path class="st1" d="M88.6,39.9l-1.5-0.1l-0.3-0.9c-1.1,0.7-2.3,1.1-3.8,1c-3.3-0.1-4.2-2.4-3.6-6c0.6-3.7,2.1-5.8,5.4-5.7
			c1.5,0.1,2.6,0.5,3.5,1.3l0.6-0.9l1.5,0.1L88.6,39.9z M87.4,31c-0.4-0.3-1.1-0.7-2.3-0.7c-2.2-0.1-2.8,1.6-3.2,3.7
			c-0.3,2.1-0.2,3.8,2,3.8c1.2,0,2-0.3,2.5-0.6L87.4,31z"/>
		<path class="st1" d="M100.5,40.6c-0.4,2.8-1.6,5.1-6.3,4.9c-1.4,0-2.9-0.4-3.9-0.9l0.4-2.2c1.2,0.7,2.6,0.9,3.9,1
			c2.5,0.1,3.2-1.1,3.4-2.5l0.3-1.6c-0.9,0.5-1.9,0.7-3.1,0.7c-3.3-0.1-4.2-2.4-3.6-6c0.6-3.7,2.1-5.8,5.4-5.7
			c1.5,0.1,2.6,0.5,3.5,1.3l0.6-0.9l1.5,0.1L100.5,40.6z M99.5,31c-0.4-0.3-1.1-0.7-2.3-0.7C95,30.2,94.4,31.9,94,34
			c-0.3,2.1-0.2,3.8,2,3.8c1.2,0,2-0.3,2.5-0.6L99.5,31z"/>
		<path class="st1" d="M111.1,30.6c-0.3-0.1-0.7-0.2-1.2-0.2c-1.3,0-2.4,0.2-3,0.6l-1.4,8.7l-2.5-0.1l1.8-11.2l1.5,0.1l0.3,0.9
			c0.9-0.6,2.3-1.1,3.7-1c0.5,0,0.9,0.1,1.2,0.2L111.1,30.6z"/>
		<path class="st1" d="M111.7,33.9c0.6-3.5,1.9-5.9,5.9-5.7c4,0.1,4.6,2.6,4.1,6.1c-0.6,3.5-1.9,5.9-5.9,5.7
			C111.8,39.8,111.1,37.3,111.7,33.9z M119.2,34.2c0.4-2.4,0.3-3.8-1.9-3.9c-2.1-0.1-2.7,1.3-3.1,3.7c-0.4,2.4-0.3,3.8,1.9,3.9
			S118.8,36.6,119.2,34.2z"/>
		<path class="st1" d="M123.5,36.9l1.3-8.5l2.5,0.1l-1.3,8.4c-0.1,0.6,0.1,0.9,0.8,0.9l-0.3,2c0,0-0.2,0-0.5,0
			C124,39.8,123.2,38.8,123.5,36.9z M126.7,23.5c0.9,0,1.6,0.8,1.6,1.7c0,0.9-0.8,1.6-1.7,1.6S125,26,125,25.1
			C125,24.2,125.8,23.4,126.7,23.5z"/>
		<path class="st1" d="M135.4,39.8l1.2-7.7c0.2-1.1-0.3-1.7-1.5-1.7c-1.2,0-2,0.2-2.7,0.6l-1.4,8.7l-2.5-0.1l1.8-11.2l1.5,0.1
			l0.3,0.9c1.3-0.7,2.6-1.1,3.8-1c2.9,0.1,3.7,1.6,3.3,3.7l-1.2,7.9L135.4,39.8z"/>
		<path class="st1" d="M149.1,29.1l1-6.2l2.5,0.1L150,39.9l-1.5-0.1l-0.3-0.9c-1.1,0.7-2.3,1.1-3.8,1c-3.3-0.1-4.2-2.4-3.6-6
			c0.6-3.7,2.1-5.8,5.4-5.7C147.3,28.2,148.4,28.6,149.1,29.1z M143.3,34c-0.3,2.1-0.2,3.8,2,3.8c1.2,0,2-0.3,2.5-0.6l1-6.2
			c-0.4-0.3-1.1-0.7-2.3-0.7C144.3,30.2,143.6,31.9,143.3,34z"/>
		<path class="st1" d="M156.5,28.4l-1.2,7.7c-0.2,1.1,0.3,1.7,1.5,1.7c1.2,0,2-0.2,2.7-0.6l1.4-8.7l2.5,0.1l-1.8,11.2l-1.5-0.1
			l-0.3-0.9c-1.3,0.7-2.6,1.1-3.8,1c-2.9-0.1-3.7-1.6-3.3-3.7l1.2-7.9L156.5,28.4z"/>
		<path class="st1" d="M169.1,32.9c3.4,0.4,4.1,1.5,3.7,3.5c-0.3,1.9-1.8,3.6-5.4,3.4c-1.6-0.1-2.9-0.4-3.6-0.7l0.3-2.2
			c0.7,0.3,1.9,0.7,3.3,0.7c1.8,0.1,2.7-0.3,2.9-1.3c0.1-0.8-0.2-1.3-1.6-1.5c-3.4-0.4-4-1.5-3.7-3.4c0.3-1.9,1.8-3.5,5.1-3.4
			c1.5,0.1,2.6,0.3,3.4,0.7l-0.3,2.2c-0.9-0.4-1.9-0.7-3.3-0.8c-1.3,0-2.2,0.3-2.4,1.3C167.3,32.4,167.6,32.8,169.1,32.9z"/>
		<path class="st1" d="M180.8,39.9c-0.4,0.1-1,0.1-1.4,0.1c-2.5-0.1-3.8-1.2-3.4-3.6l0.9-5.9l-2.1-0.1l0.3-1.5l2.1-0.5l0.4-2.7
			l2.6-0.6l-0.5,3.4l3.2,0.1l-0.3,2.1l-3.2-0.1l-0.9,5.6c-0.2,1.1,0.3,1.7,1.6,1.7c0.4,0,0.7,0,1-0.1L180.8,39.9z"/>
		<path class="st1" d="M190.9,30.6c-0.3-0.1-0.7-0.2-1.2-0.2c-1.3,0-2.4,0.2-3,0.6l-1.4,8.7l-2.5-0.1l1.8-11.2l1.5,0.1l0.3,0.9
			c0.9-0.6,2.3-1.1,3.7-1c0.5,0,0.9,0.1,1.2,0.2L190.9,30.6z"/>
		<path class="st1" d="M191.5,36.9l1.3-8.5l2.5,0.1l-1.3,8.4c-0.1,0.6,0.1,0.9,0.8,0.9l-0.3,2c0,0-0.2,0-0.5,0
			C192,39.8,191.2,38.8,191.5,36.9z M194.7,23.5c0.9,0,1.6,0.8,1.6,1.7c0,0.9-0.8,1.6-1.7,1.6c-0.9,0-1.6-0.8-1.6-1.7
			C193.1,24.2,193.8,23.4,194.7,23.5z"/>
		<path class="st1" d="M206.3,39.9l-1.5-0.1l-0.3-0.9c-1.1,0.7-2.3,1.1-3.8,1c-3.3-0.1-4.2-2.4-3.6-6c0.6-3.7,2.1-5.8,5.4-5.7
			c1.5,0.1,2.6,0.5,3.5,1.3l0.6-0.9l1.5,0.1L206.3,39.9z M205.1,31c-0.4-0.3-1.1-0.7-2.3-0.7c-2.2-0.1-2.8,1.6-3.2,3.7
			c-0.3,2.1-0.2,3.8,2,3.8c1.2,0,2-0.3,2.5-0.6L205.1,31z"/>
		<path class="st1" d="M209.3,36.9l2.2-14.1l2.5,0.1l-2.2,14.1c-0.1,0.6,0.1,0.9,0.8,0.9l-0.3,2c0,0-0.2,0-0.5,0
			C209.8,39.8,209,38.8,209.3,36.9z"/>
	</g>
	<g>
		<path class="st0" d="M173.1,58.4v-7.6h1v7.7c0,3.2-2.6,3.7-4,3.7c-1.4,0-4-0.5-4-3.7v-7.7h1v7.6c0,2.7,2,2.9,3,2.9
			S173.1,61.1,173.1,58.4z"/>
		<path class="st0" d="M176.6,60.8c0.4,0,0.8,0.3,0.8,0.8s-0.3,0.8-0.8,0.8c-0.4,0-0.8-0.3-0.8-0.8S176.2,60.8,176.6,60.8z"/>
		<path class="st0" d="M181.4,51.8v10.3h-1V51.8h-3.1v-0.9h7.2v0.9H181.4z"/>
		<path class="st0" d="M185.1,60.8c0.4,0,0.8,0.3,0.8,0.8s-0.3,0.8-0.8,0.8c-0.4,0-0.8-0.3-0.8-0.8S184.7,60.8,185.1,60.8z"/>
		<path class="st0" d="M196.9,62.1v-5.4h-5.6v5.4h-1V50.8h1v4.9h5.6v-4.9h1v11.3H196.9z"/>
		<path class="st0" d="M201,60.1c0,1,0.6,1.3,1.5,1.3c1,0,1.5-0.2,2-0.5v-6.2h1.1v7.5H205l-0.2-0.6c-0.7,0.5-1.5,0.8-2.3,0.8
			c-1.8,0-2.6-0.8-2.6-2.3v-5.4h1.1V60.1z"/>
		<path class="st0" d="M210.2,55.4c-1,0-1.7,0.2-2.3,0.4v-0.9c0.7-0.3,1.5-0.4,2.3-0.4c2.3,0,2.8,1,2.8,2.5v5.1h-0.6l-0.2-0.6
			c-0.7,0.5-1.5,0.8-2.3,0.8c-2,0-2.6-1.2-2.6-2.4c0-1.3,0.7-2.2,2.7-2.3l2-0.1V57C211.9,55.9,211.5,55.4,210.2,55.4z M209.9,58.3
			c-1.1,0.1-1.5,0.7-1.5,1.5c0,0.7,0.2,1.5,1.6,1.5c0.8,0,1.4-0.2,2-0.6v-2.6L209.9,58.3z"/>
		<path class="st0" d="M215.9,60.1c0,1,0.6,1.3,1.5,1.3c1,0,1.5-0.2,2-0.5v-6.2h1.1v7.5h-0.6l-0.2-0.6c-0.7,0.5-1.5,0.8-2.3,0.8
			c-1.8,0-2.6-0.8-2.6-2.3v-5.4h1.1V60.1z"/>
		<path class="st0" d="M226.6,55.5c-0.2-0.1-0.5-0.1-0.9-0.1c-1,0-1.6,0.2-2.2,0.5v6.2h-1.1v-7.5h0.6l0.2,0.6
			c0.7-0.5,1.6-0.8,2.4-0.8c0.3,0,0.6,0,0.9,0.1V55.5z"/>
		<path class="st0" d="M230.2,55.4c-1,0-1.7,0.2-2.3,0.4v-0.9c0.7-0.3,1.5-0.4,2.3-0.4c2.3,0,2.8,1,2.8,2.5v5.1h-0.6l-0.2-0.6
			c-0.7,0.5-1.5,0.8-2.3,0.8c-2,0-2.6-1.2-2.6-2.4c0-1.3,0.7-2.2,2.7-2.3l2-0.1V57C232,55.9,231.6,55.4,230.2,55.4z M230,58.3
			c-1.1,0.1-1.5,0.7-1.5,1.5c0,0.7,0.2,1.5,1.6,1.5c0.8,0,1.4-0.2,2-0.6v-2.6L230,58.3z"/>
	</g>
</g>
</svg>
