<?xml version="1.0" encoding="utf-8"?>
<!-- Generator: Adobe Illustrator 23.0.1, SVG Export Plug-In . SVG Version: 6.00 Build 0)  -->
<svg version="1.1" id="Capa_1" xmlns="http://www.w3.org/2000/svg" xmlns:xlink="http://www.w3.org/1999/xlink" x="0px" y="0px"
	 viewBox="0 0 286.6 85" style="enable-background:new 0 0 286.6 85;" xml:space="preserve">
<style type="text/css">
	.st0{clip-path:url(#SVGID_2_);fill:#0069B4;}
	.st1{clip-path:url(#SVGID_2_);fill:#3C3C3B;}
</style>
<g>
	<defs>
		<rect id="SVGID_1_" y="0" width="286.6" height="85"/>
	</defs>
	<clipPath id="SVGID_2_">
		<use xlink:href="#SVGID_1_"  style="overflow:visible;"/>
	</clipPath>
	<path class="st0" d="M85.9,38.1L84.4,38l-0.3-0.9c-1.1,0.7-2.3,1.1-3.8,1c-3.3-0.1-4.2-2.4-3.6-6c0.6-3.7,2.1-5.8,5.4-5.7
		c1.5,0.1,2.6,0.5,3.5,1.3l0.6-0.9l1.5,0.1L85.9,38.1z M84.7,29.2c-0.4-0.3-1.1-0.7-2.3-0.7c-2.2-0.1-2.8,1.6-3.2,3.7
		c-0.3,2.1-0.2,3.8,2,3.8c1.2,0,2-0.3,2.5-0.6L84.7,29.2z"/>
	<path class="st0" d="M93.6,36c1.3,0,2.2-0.1,3-0.4l-0.3,2.2c-0.9,0.4-2,0.5-3.2,0.5c-4-0.1-4.8-2.6-4.3-6.1
		c0.6-3.5,2.1-5.8,6.1-5.7c1.2,0,2.2,0.3,3,0.7l-0.3,2.2c-0.8-0.3-1.6-0.6-2.9-0.6c-2.2-0.1-3.1,1.4-3.4,3.6
		C91,34.4,91.4,35.9,93.6,36"/>
	<path class="st0" d="M102.4,26.6l-1.2,7.7c-0.2,1.1,0.3,1.7,1.5,1.7c1.2,0,2-0.2,2.7-0.6l1.4-8.7l2.5,0.1L107.6,38l-1.5-0.1
		l-0.3-0.9c-1.3,0.7-2.6,1.1-3.8,1c-2.9-0.1-3.7-1.6-3.3-3.7l1.2-7.9L102.4,26.6z"/>
	<path class="st0" d="M110.6,35.1l1.3-8.5l2.5,0.1l-1.3,8.4c-0.1,0.6,0.1,0.9,0.8,0.9l-0.3,2c0,0-0.2,0-0.5,0
		C111,38,110.2,37,110.6,35.1 M112.3,25.5l2-4.4l3,0.1l-3,4.4L112.3,25.5z"/>
	<path class="st0" d="M120.9,36c1.3,0,2.2-0.1,3-0.4l-0.3,2.2c-0.9,0.4-2,0.5-3.2,0.5c-4-0.1-4.8-2.6-4.3-6.1
		c0.6-3.5,2.1-5.8,6.1-5.7c1.2,0,2.2,0.3,3,0.7l-0.3,2.2c-0.8-0.3-1.6-0.6-2.9-0.6c-2.2-0.1-3.1,1.4-3.4,3.6
		C118.3,34.4,118.7,35.9,120.9,36"/>
	<path class="st0" d="M126.1,32.1c0.6-3.5,1.9-5.9,5.9-5.7c4,0.1,4.6,2.6,4.1,6.1c-0.6,3.5-1.9,5.9-5.9,5.7
		C126.2,38,125.6,35.5,126.1,32.1 M133.6,32.3c0.4-2.4,0.3-3.8-1.9-3.9c-2.1-0.1-2.7,1.3-3.1,3.7c-0.4,2.4-0.3,3.8,1.9,3.9
		C132.7,36.1,133.2,34.8,133.6,32.3"/>
	<path class="st0" d="M138,35.1l2.2-14.1l2.5,0.1l-2.2,14.1c-0.1,0.6,0.1,0.9,0.8,0.9l-0.3,2c0,0-0.2,0-0.5,0
		C138.4,38,137.7,37,138,35.1"/>
	<path class="st0" d="M152.7,38.1l-1.5-0.1l-0.3-0.9c-1.1,0.7-2.3,1.1-3.8,1c-3.3-0.1-4.2-2.4-3.6-6c0.6-3.7,2.1-5.8,5.4-5.7
		c1.5,0.1,2.6,0.5,3.5,1.3l0.6-0.9l1.5,0.1L152.7,38.1z M151.6,29.2c-0.4-0.3-1.1-0.7-2.3-0.7c-2.2-0.1-2.8,1.6-3.2,3.7
		c-0.3,2.1-0.2,3.8,2,3.8c1.2,0,2-0.3,2.5-0.6L151.6,29.2z"/>
	<path class="st1" d="M23.8,25.7l-1.5,8.8h12.2L34,37.9H21.6c-1.8,0-3-1.4-2.7-3.2l1.5-9.2c0.3-1.8,2-3.2,3.7-3.2h12.3L36,25.7H23.8
		z"/>
	<polygon class="st1" points="39,22.3 42.4,22.3 39.8,37.9 36.4,37.9 	"/>
	<polygon class="st1" points="60.4,22.3 59.8,25.7 53.7,25.7 51.7,37.9 48.4,37.9 50.4,25.7 44.3,25.7 44.8,22.3 	"/>
	<polygon class="st1" points="76.6,25.7 65.7,25.7 65.2,28.4 74,28.4 73.5,31.8 64.7,31.8 64.2,34.5 75.2,34.5 74.6,37.9 60.3,37.9 
		62.8,22.3 77.2,22.3 	"/>
	<path class="st0" d="M162.3,37.2l-1,6.2l-2.5-0.1l2.7-16.9l1.5,0.1l0.3,0.9c1.1-0.7,2.3-1.1,3.8-1c3.3,0.1,4.2,2.4,3.6,6
		c-0.6,3.7-2.2,5.8-5.4,5.7C164,38.1,163,37.7,162.3,37.2 M168,32.3c0.3-2.1,0.3-3.8-1.9-3.8c-1.2,0-2.1,0.3-2.6,0.6l-1,6.2
		c0.4,0.3,1.2,0.7,2.3,0.7C167.1,36.1,167.7,34.4,168,32.3"/>
	<path class="st0" d="M174.7,33.1c-0.2,1.7,0.2,2.8,2.5,2.9c1.4,0,2.6-0.2,3.7-0.5l-0.3,2.2c-1.4,0.5-2.9,0.6-4.1,0.6
		c-3.8-0.1-4.8-2.4-4.2-6.1c0.6-3.6,2.3-5.8,6-5.7c3.3,0.1,4.3,1.7,4,3.6c-0.3,1.9-1.8,3.3-5.1,3.2L174.7,33.1z M177.4,31.4
		c1.3,0,2.2-0.4,2.4-1.4c0.1-1-0.6-1.5-2-1.5c-1.8-0.1-2.5,1.1-2.9,2.8L177.4,31.4z"/>
	<path class="st0" d="M188.2,31.1c3.4,0.4,4.1,1.5,3.7,3.5c-0.3,1.9-1.8,3.6-5.4,3.4c-1.6-0.1-2.9-0.4-3.6-0.7l0.3-2.2
		c0.7,0.3,1.9,0.7,3.3,0.7c1.8,0.1,2.7-0.3,2.9-1.3c0.1-0.8-0.2-1.3-1.6-1.5c-3.4-0.4-4-1.5-3.7-3.4c0.3-1.9,1.8-3.5,5.1-3.4
		c1.5,0.1,2.6,0.3,3.4,0.7l-0.3,2.2c-0.9-0.4-1.9-0.7-3.3-0.8c-1.3,0-2.2,0.3-2.4,1.3C186.4,30.6,186.8,30.9,188.2,31.1"/>
	<path class="st0" d="M194,32.1c0.6-3.7,2.1-5.8,5.4-5.7c1.5,0.1,2.6,0.5,3.5,1.3l0.6-0.9l1.5,0.1l-2.7,16.9l-2.5-0.1l1-6.2
		c-0.9,0.5-2,0.8-3.2,0.8C194.3,38,193.4,35.7,194,32.1 M201.1,35.4l1-6.2c-0.4-0.3-1.1-0.7-2.3-0.7c-2.2-0.1-2.8,1.6-3.2,3.7
		c-0.3,2.1-0.2,3.8,2,3.8C199.7,36,200.6,35.6,201.1,35.4"/>
	<path class="st0" d="M209.8,26.5l-1.2,7.7c-0.2,1.1,0.3,1.7,1.5,1.7c1.2,0,2-0.2,2.7-0.6l1.4-8.7l2.5,0.1L214.9,38l-1.5-0.1
		l-0.3-0.9c-1.3,0.7-2.6,1.1-3.8,1c-2.9-0.1-3.7-1.6-3.3-3.7l1.3-7.9L209.8,26.5z"/>
	<path class="st0" d="M220.2,33.1c-0.2,1.7,0.2,2.8,2.5,2.9c1.4,0,2.6-0.2,3.7-0.5l-0.3,2.2c-1.4,0.5-2.9,0.6-4.1,0.6
		c-3.8-0.1-4.8-2.4-4.2-6.1c0.6-3.6,2.3-5.8,6-5.7c3.3,0.1,4.3,1.7,4,3.6c-0.3,1.9-1.8,3.3-5.1,3.2L220.2,33.1z M222.9,31.4
		c1.3,0,2.2-0.4,2.4-1.4c0.1-1-0.6-1.5-2-1.5c-1.8-0.1-2.5,1.1-2.9,2.8L222.9,31.4z"/>
	<path class="st0" d="M236.7,28.8c-0.3-0.1-0.7-0.2-1.2-0.2c-1.3,0-2.4,0.2-3,0.6l-1.4,8.7l-2.5-0.1l1.8-11.2l1.5,0.1l0.3,0.9
		c0.9-0.6,2.3-1.1,3.7-1c0.5,0,0.9,0.1,1.2,0.2L236.7,28.8z"/>
	<path class="st0" d="M237.3,32.1c0.6-3.5,1.9-5.9,5.9-5.7c4,0.1,4.6,2.6,4.1,6.1c-0.6,3.5-1.9,5.9-5.9,5.7
		C237.3,38,236.7,35.5,237.3,32.1 M244.7,32.3c0.4-2.4,0.3-3.8-1.9-3.9c-2.1-0.1-2.7,1.3-3.1,3.7c-0.4,2.4-0.3,3.8,1.9,3.9
		C243.8,36.1,244.4,34.7,244.7,32.3"/>
	<path class="st1" d="M191.2,60.3l4-11.4h0.8l4,11.4h-1.2l-1-3.2h-4.3l-1,3.2H191.2z M193.7,56.2h3.7l-1.9-5.7L193.7,56.2z"/>
	<path class="st1" d="M204.4,53.6c-1,0-1.5,0.2-2.1,0.5v6.2h-1V49h1v4.2c0.6-0.4,1.4-0.6,2.1-0.6c1.8,0,2.6,0.8,2.6,2.3v5.4h-1.1
		v-5.5C205.9,53.9,205.3,53.6,204.4,53.6"/>
	<path class="st1" d="M209.8,58.2c0,1,0.6,1.3,1.5,1.3c1,0,1.5-0.2,2-0.5v-6.2h1.1v7.5h-0.6l-0.2-0.6c-0.7,0.5-1.5,0.8-2.3,0.8
		c-1.8,0-2.6-0.8-2.6-2.3v-5.4h1.1V58.2z"/>
	<path class="st1" d="M218.9,53.6c-1,0-1.7,0.2-2.3,0.4V53c0.7-0.3,1.5-0.4,2.3-0.4c2.3,0,2.8,1,2.8,2.5v5.1h-0.6l-0.2-0.6
		c-0.7,0.5-1.5,0.8-2.3,0.8c-2,0-2.6-1.2-2.6-2.4c0-1.3,0.7-2.2,2.7-2.3l2-0.1v-0.4C220.7,54,220.3,53.6,218.9,53.6 M218.7,56.5
		c-1.1,0.1-1.5,0.7-1.5,1.5c0,0.7,0.2,1.5,1.6,1.5c0.8,0,1.4-0.2,2-0.6v-2.6L218.7,56.5z"/>
	<path class="st1" d="M226.2,56c2.1,0.2,2.6,0.9,2.6,2.1c0,1.2-0.7,2.3-3,2.3c-0.7,0-1.8-0.2-2.2-0.4v-0.9c0.5,0.2,1.2,0.3,2.3,0.3
		c1.6,0,2-0.7,2-1.4c0-0.7-0.2-1.2-1.7-1.3c-2.2-0.2-2.6-1-2.6-2c0-1.1,0.7-2.2,2.8-2.2c0.7,0,1.5,0.1,2.2,0.4v0.9
		c-0.6-0.2-1.2-0.3-2.2-0.3c-1.5,0-1.8,0.6-1.8,1.3C224.5,55.5,224.8,55.8,226.2,56"/>
	<path class="st1" d="M233.7,53.6c-1,0-1.5,0.2-2.1,0.5v6.2h-1V49h1v4.2c0.6-0.4,1.4-0.6,2.1-0.6c1.8,0,2.6,0.8,2.6,2.3v5.4h-1.1
		v-5.5C235.2,53.9,234.6,53.6,233.7,53.6"/>
	<path class="st1" d="M238.9,49.8c0.4,0,0.8,0.3,0.8,0.8c0,0.4-0.3,0.8-0.8,0.8c-0.4,0-0.8-0.3-0.8-0.8
		C238.1,50.1,238.5,49.8,238.9,49.8 M238.4,58.8v-6h1v6.1c0,0.5,0.2,0.7,0.6,0.7v0.9C239,60.4,238.4,60,238.4,58.8"/>
	<polygon class="st1" points="242.3,52.8 244.4,58.9 246.5,52.8 247.7,52.8 243.4,64 242.2,64 243.9,60.1 241.1,52.8 	"/>
	<path class="st1" d="M251.6,53.6c-1,0-1.7,0.2-2.3,0.4V53c0.7-0.3,1.5-0.4,2.3-0.4c2.3,0,2.8,1,2.8,2.5v5.1h-0.6l-0.2-0.6
		c-0.7,0.5-1.5,0.8-2.3,0.8c-2,0-2.6-1.2-2.6-2.4c0-1.3,0.7-2.2,2.7-2.3l2-0.1v-0.4C253.4,54,253,53.6,251.6,53.6 M251.3,56.5
		c-1.1,0.1-1.5,0.7-1.5,1.5c0,0.7,0.2,1.5,1.6,1.5c0.8,0,1.4-0.2,2-0.6v-2.6L251.3,56.5z"/>
	<path class="st1" d="M259.4,52.6c0.7,0,1.6,0.1,2.2,0.4v0.9c-0.6-0.2-1.2-0.3-2.3-0.3c-1.9,0-2.1,1.5-2.1,3c0,1.5,0.2,3,2.1,3
		c1.1,0,1.7-0.1,2.3-0.3v0.9c-0.7,0.3-1.5,0.4-2.2,0.4c-2.5,0-3.2-1.7-3.2-3.9C256.2,54.4,256.9,52.6,259.4,52.6"/>
	<path class="st1" d="M264.3,58.2c0,1,0.6,1.3,1.5,1.3c1,0,1.5-0.2,2-0.5v-6.2h1.1v7.5h-0.6l-0.2-0.6c-0.7,0.5-1.5,0.8-2.3,0.8
		c-1.8,0-2.6-0.8-2.6-2.3v-5.4h1.1V58.2z"/>
</g>
</svg>
