<?xml version="1.0" encoding="utf-8"?>
<!-- Generator: Adobe Illustrator 23.0.1, SVG Export Plug-In . SVG Version: 6.00 Build 0)  -->
<svg version="1.1" id="Capa_1" xmlns="http://www.w3.org/2000/svg" xmlns:xlink="http://www.w3.org/1999/xlink" x="0px" y="0px"
	 viewBox="0 0 236.5 85" style="enable-background:new 0 0 236.5 85;" xml:space="preserve">
<style type="text/css">
	.st0{fill:#3C3C3B;}
	.st1{fill:#0069B4;}
</style>
<g>
	<g>
		<path class="st0" d="M49.3,27.5l-1.5,8.8H60l-0.6,3.4H47.1c-1.8,0-3-1.4-2.7-3.2l1.5-9.2c0.3-1.8,2-3.2,3.7-3.2H62l-0.6,3.4H49.3z
			"/>
		<path class="st0" d="M64.5,24.2h3.4l-2.6,15.6h-3.4L64.5,24.2z"/>
		<path class="st0" d="M85.9,24.2l-0.6,3.4h-6.1l-2,12.2h-3.4l2-12.2h-6.1l0.6-3.4H85.9z"/>
		<path class="st0" d="M102.1,27.5h-11l-0.5,2.7h8.8L99,33.6h-8.8l-0.5,2.7h11l-0.6,3.4H85.7l2.6-15.6h14.4L102.1,27.5z"/>
	</g>
	<g>
		<g>
			<path class="st1" d="M110.9,39.9l-1.5-0.1l-0.3-0.9c-1.1,0.7-2.3,1.1-3.8,1c-3.3-0.1-4.2-2.4-3.6-6s2.1-5.8,5.4-5.7
				c1.5,0.1,2.6,0.5,3.5,1.3l0.6-0.9l1.5,0.1L110.9,39.9z M109.8,31c-0.4-0.3-1.1-0.7-2.3-0.7c-2.2-0.1-2.8,1.6-3.2,3.7
				c-0.3,2.1-0.2,3.8,2,3.8c1.2,0,2-0.3,2.5-0.6L109.8,31z"/>
			<path class="st1" d="M118.6,37.8c1.3,0,2.2-0.1,3-0.4l-0.3,2.2c-0.9,0.4-2,0.5-3.2,0.5c-4-0.1-4.8-2.6-4.3-6.1
				c0.6-3.5,2.1-5.8,6.1-5.7c1.2,0,2.2,0.3,3,0.7l-0.3,2.2c-0.8-0.3-1.6-0.6-2.9-0.6c-2.2-0.1-3.1,1.4-3.4,3.6
				C116.1,36.2,116.5,37.7,118.6,37.8z"/>
			<path class="st1" d="M127.5,28.4l-1.2,7.7c-0.2,1.1,0.3,1.7,1.5,1.7c1.2,0,2-0.2,2.7-0.6l1.4-8.7l2.5,0.1l-1.8,11.2l-1.5-0.1
				l-0.3-0.9c-1.3,0.7-2.6,1.1-3.8,1c-2.9-0.1-3.7-1.6-3.3-3.7l1.3-7.9L127.5,28.4z"/>
			<path class="st1" d="M135.7,36.9l1.3-8.5l2.5,0.1l-1.3,8.4c-0.1,0.6,0.1,0.9,0.8,0.9l-0.3,2c0,0-0.2,0-0.5,0
				C136.1,39.8,135.3,38.8,135.7,36.9z M137.4,27.3l2-4.4l3,0.1l-3,4.4L137.4,27.3z"/>
			<path class="st1" d="M146,37.8c1.3,0,2.2-0.1,3-0.4l-0.3,2.2c-0.9,0.4-2,0.5-3.2,0.5c-4-0.1-4.8-2.6-4.3-6.1
				c0.6-3.5,2.1-5.8,6.1-5.7c1.2,0,2.2,0.3,3,0.7l-0.3,2.2c-0.8-0.3-1.6-0.6-2.9-0.6c-2.2-0.1-3.1,1.4-3.4,3.6
				C143.4,36.2,143.8,37.7,146,37.8z"/>
			<path class="st1" d="M151.2,33.9c0.6-3.5,1.9-5.9,5.9-5.7c4,0.1,4.6,2.6,4.1,6.1c-0.6,3.5-1.9,5.9-5.9,5.7S150.7,37.3,151.2,33.9
				z M158.7,34.2c0.4-2.4,0.3-3.8-1.9-3.9c-2.1-0.1-2.7,1.3-3.1,3.7c-0.4,2.4-0.3,3.8,1.9,3.9C157.8,37.9,158.3,36.6,158.7,34.2z"/>
			<path class="st1" d="M163.1,36.9l2.2-14.1l2.5,0.1l-2.2,14.1c-0.1,0.6,0.1,0.9,0.8,0.9l-0.3,2c0,0-0.2,0-0.5,0
				C163.5,39.8,162.7,38.8,163.1,36.9z"/>
			<path class="st1" d="M177.8,39.9l-1.5-0.1l-0.3-0.9c-1.1,0.7-2.3,1.1-3.8,1c-3.3-0.1-4.2-2.4-3.6-6c0.6-3.7,2.1-5.8,5.4-5.7
				c1.5,0.1,2.6,0.5,3.5,1.3l0.6-0.9l1.5,0.1L177.8,39.9z M176.6,31c-0.4-0.3-1.1-0.7-2.3-0.7c-2.2-0.1-2.8,1.6-3.2,3.7
				c-0.3,2.1-0.2,3.8,2,3.8c1.2,0,2-0.3,2.5-0.6L176.6,31z"/>
		</g>
	</g>
	<g>
		<path class="st0" d="M163.3,62.1h-1V50.8h3.4c2.8,0,3.8,1.6,3.8,3.4s-1,3.4-3.8,3.4h-2.4V62.1z M163.3,56.7h2.6
			c2.1,0,2.5-1.4,2.5-2.4s-0.4-2.4-2.5-2.4h-2.6V56.7z"/>
		<path class="st0" d="M171.8,60.1c0,1,0.6,1.3,1.5,1.3c1,0,1.5-0.2,2-0.5v-6.2h1.1v7.5h-0.6l-0.2-0.6c-0.7,0.5-1.5,0.8-2.3,0.8
			c-1.8,0-2.6-0.8-2.6-2.3v-5.4h1.1V60.1z"/>
		<path class="st0" d="M183,56.7c0-1-0.6-1.3-1.5-1.3c-1,0-1.5,0.2-2,0.5v6.2h-1.1v-7.5h0.6l0.2,0.6c0.7-0.5,1.5-0.8,2.3-0.8
			c1.8,0,2.6,0.8,2.6,2.3v5.4H183V56.7z"/>
		<path class="st0" d="M188.9,62.3c-2.6,0-3.2-1.6-3.2-3.9c0-2.3,0.6-3.9,3.2-3.9c2.6,0,3.2,1.6,3.2,3.9
			C192,60.7,191.5,62.3,188.9,62.3z M188.9,55.4c-2,0-2.1,1.3-2.1,3c0,1.7,0.1,3,2.1,3c2,0,2.1-1.3,2.1-3
			C191,56.7,190.8,55.4,188.9,55.4z"/>
	</g>
</g>
</svg>
