<?xml version="1.0" encoding="utf-8"?>
<!-- Generator: Adobe Illustrator 23.0.1, SVG Export Plug-In . SVG Version: 6.00 Build 0)  -->
<svg version="1.1" id="Capa_1" xmlns="http://www.w3.org/2000/svg" xmlns:xlink="http://www.w3.org/1999/xlink" x="0px" y="0px"
	 viewBox="0 0 255.1 85" style="enable-background:new 0 0 255.1 85;" xml:space="preserve">
<style type="text/css">
	.st0{clip-path:url(#SVGID_2_);fill:#3C3C3B;}
	.st1{clip-path:url(#SVGID_2_);fill:#2FAC66;}
</style>
<g>
	<defs>
		<rect id="SVGID_1_" y="0" width="255.1" height="85"/>
	</defs>
	<clipPath id="SVGID_2_">
		<use xlink:href="#SVGID_1_"  style="overflow:visible;"/>
	</clipPath>
	<path class="st0" d="M27.8,27.5l-1.5,8.8h12.2l-0.6,3.4H25.6c-1.8,0-3-1.4-2.7-3.2l1.5-9.2c0.3-1.8,2-3.2,3.7-3.2h12.3l-0.6,3.4
		H27.8z"/>
	<polygon class="st0" points="42.9,24.2 46.3,24.2 43.7,39.7 40.4,39.7 	"/>
	<polygon class="st0" points="64.3,24.2 63.8,27.5 57.7,27.5 55.7,39.7 52.3,39.7 54.3,27.5 48.2,27.5 48.8,24.2 	"/>
	<polygon class="st0" points="80.6,27.5 69.6,27.5 69.2,30.2 78,30.2 77.4,33.6 68.6,33.6 68.2,36.3 79.1,36.3 78.6,39.7 64.2,39.7 
		66.8,24.2 81.1,24.2 	"/>
	<path class="st1" d="M89.4,39.9l-1.5-0.1l-0.3-0.9c-1.1,0.7-2.3,1.1-3.8,1c-3.3-0.1-4.2-2.4-3.6-6c0.6-3.7,2.1-5.8,5.4-5.7
		c1.5,0.1,2.6,0.5,3.5,1.3l0.6-0.9l1.5,0.1L89.4,39.9z M88.3,31c-0.4-0.3-1.1-0.7-2.3-0.7c-2.2-0.1-2.8,1.6-3.2,3.7
		c-0.3,2.1-0.2,3.8,2,3.8c1.2,0,2-0.3,2.5-0.6L88.3,31z"/>
	<path class="st1" d="M101.4,40.6c-0.4,2.8-1.6,5.1-6.3,4.9c-1.4,0-2.9-0.4-3.9-0.9l0.4-2.2c1.2,0.7,2.6,0.9,3.9,1
		c2.5,0.1,3.2-1.1,3.4-2.5l0.3-1.6c-0.9,0.5-1.9,0.7-3.1,0.7c-3.3-0.1-4.2-2.4-3.6-6c0.6-3.7,2.1-5.8,5.4-5.7
		c1.5,0.1,2.6,0.5,3.5,1.3l0.6-0.9l1.5,0.1L101.4,40.6z M100.4,31c-0.4-0.3-1.1-0.7-2.3-0.7c-2.2-0.1-2.8,1.6-3.2,3.7
		c-0.3,2.1-0.2,3.8,2,3.8c1.2,0,2-0.3,2.5-0.6L100.4,31z"/>
	<path class="st1" d="M112,30.6c-0.3-0.1-0.7-0.2-1.2-0.2c-1.3,0-2.4,0.2-3,0.6l-1.4,8.7l-2.5-0.1l1.8-11.2l1.5,0.1l0.3,0.9
		c0.9-0.6,2.3-1.1,3.7-1c0.5,0,0.9,0.1,1.2,0.2L112,30.6z"/>
	<path class="st1" d="M112.5,33.9c0.6-3.5,1.9-5.9,5.9-5.7c4,0.1,4.6,2.6,4.1,6.1c-0.6,3.5-1.9,5.9-5.9,5.7
		C112.6,39.8,112,37.3,112.5,33.9 M120,34.2c0.4-2.4,0.3-3.8-1.9-3.9c-2.1-0.1-2.7,1.3-3.1,3.7c-0.4,2.4-0.3,3.8,1.9,3.9
		C119.1,37.9,119.6,36.6,120,34.2"/>
	<path class="st1" d="M124.4,36.9l1.3-8.5l2.5,0.1l-1.3,8.4c-0.1,0.6,0.1,0.9,0.8,0.9l-0.3,2c0,0-0.2,0-0.5,0
		C124.8,39.8,124.1,38.8,124.4,36.9 M127.6,23.5c0.9,0,1.6,0.8,1.6,1.7c0,0.9-0.8,1.6-1.7,1.6c-0.9,0-1.6-0.8-1.6-1.7
		C125.9,24.2,126.6,23.4,127.6,23.5"/>
	<path class="st1" d="M136.3,39.8l1.2-7.7c0.2-1.1-0.3-1.7-1.5-1.7c-1.2,0-2,0.2-2.7,0.6l-1.4,8.7l-2.5-0.1l1.8-11.2l1.5,0.1
		l0.3,0.9c1.3-0.7,2.6-1.1,3.8-1c2.9,0.1,3.7,1.6,3.3,3.7l-1.2,7.9L136.3,39.8z"/>
	<path class="st1" d="M150,29.1l1-6.2l2.5,0.1l-2.7,16.9l-1.5-0.1l-0.3-0.9c-1.1,0.7-2.3,1.1-3.8,1c-3.3-0.1-4.2-2.4-3.6-6
		c0.6-3.7,2.2-5.8,5.4-5.7C148.2,28.2,149.2,28.6,150,29.1 M144.2,34c-0.3,2.1-0.2,3.8,2,3.8c1.2,0,2-0.3,2.5-0.6l1-6.2
		c-0.4-0.3-1.1-0.7-2.3-0.7C145.1,30.2,144.5,31.9,144.2,34"/>
	<path class="st1" d="M157.4,28.4l-1.2,7.7c-0.2,1.1,0.3,1.7,1.5,1.7c1.2,0,2-0.2,2.7-0.6l1.4-8.7l2.5,0.1l-1.8,11.2l-1.5-0.1
		l-0.3-0.9c-1.3,0.7-2.6,1.1-3.8,1c-2.9-0.1-3.7-1.6-3.3-3.7l1.2-7.9L157.4,28.4z"/>
	<path class="st1" d="M169.9,32.9c3.4,0.4,4.1,1.5,3.7,3.5c-0.3,1.9-1.8,3.6-5.4,3.4c-1.6-0.1-2.9-0.4-3.6-0.7L165,37
		c0.7,0.3,1.9,0.7,3.3,0.7c1.8,0.1,2.7-0.3,2.9-1.3c0.1-0.8-0.2-1.3-1.6-1.5c-3.4-0.4-4-1.5-3.7-3.4c0.3-1.9,1.8-3.5,5.1-3.4
		c1.5,0.1,2.6,0.3,3.4,0.7l-0.3,2.2c-0.9-0.4-1.9-0.7-3.3-0.8c-1.3,0-2.2,0.3-2.4,1.3C168.1,32.4,168.5,32.8,169.9,32.9"/>
	<path class="st1" d="M181.6,39.9c-0.4,0.1-1,0.1-1.4,0.1c-2.5-0.1-3.8-1.2-3.4-3.6l0.9-5.9l-2.1-0.1l0.3-1.5l2.1-0.5l0.4-2.7
		l2.6-0.6l-0.5,3.4l3.2,0.1l-0.3,2.1l-3.2-0.1l-0.9,5.6c-0.2,1.1,0.3,1.7,1.6,1.7c0.4,0,0.7,0,1-0.1L181.6,39.9z"/>
	<path class="st1" d="M191.7,30.6c-0.3-0.1-0.7-0.2-1.2-0.2c-1.3,0-2.4,0.2-3,0.6l-1.4,8.7l-2.5-0.1l1.8-11.2l1.5,0.1l0.3,0.9
		c0.9-0.6,2.3-1.1,3.7-1c0.5,0,0.9,0.1,1.2,0.2L191.7,30.6z"/>
	<path class="st1" d="M192.4,36.9l1.3-8.5l2.5,0.1l-1.3,8.4c-0.1,0.6,0.1,0.9,0.8,0.9l-0.3,2c0,0-0.2,0-0.5,0
		C192.9,39.8,192.1,38.8,192.4,36.9 M195.6,23.5c0.9,0,1.6,0.8,1.6,1.7c0,0.9-0.8,1.6-1.7,1.6c-0.9,0-1.6-0.8-1.6-1.7
		C193.9,24.2,194.7,23.4,195.6,23.5"/>
	<path class="st1" d="M207.1,39.9l-1.5-0.1l-0.3-0.9c-1.1,0.7-2.3,1.1-3.8,1c-3.3-0.1-4.2-2.4-3.6-6c0.6-3.7,2.1-5.8,5.4-5.7
		c1.5,0.1,2.6,0.5,3.5,1.3l0.6-0.9l1.5,0.1L207.1,39.9z M206,31c-0.4-0.3-1.1-0.7-2.3-0.7c-2.2-0.1-2.8,1.6-3.2,3.7
		c-0.3,2.1-0.2,3.8,2,3.8c1.2,0,2-0.3,2.5-0.6L206,31z"/>
	<path class="st1" d="M210.1,36.9l2.2-14.1l2.5,0.1l-2.2,14.1c-0.1,0.6,0.1,0.9,0.8,0.9l-0.3,2c0,0-0.2,0-0.5,0
		C210.6,39.8,209.8,38.8,210.1,36.9"/>
	<path class="st0" d="M168.6,58.1c0,1.8,0.7,2.9,2.3,2.9c1.7,0,2.4-1.2,2.4-2.9v-5.9h1.4v6c0,2.3-1.2,4.2-3.8,4.2
		c-2.6,0-3.8-1.7-3.8-4.2v-6h1.4V58.1z"/>
	<path class="st0" d="M177.5,60.4c0.6,0,1,0.4,1,1c0,0.6-0.4,1-1,1c-0.6,0-0.9-0.4-0.9-1C176.6,60.7,176.9,60.4,177.5,60.4"/>
	<polygon class="st0" points="183.3,53.5 183.3,62.2 181.8,62.2 181.8,53.5 178.9,53.5 178.9,52.2 186.1,52.2 186.1,53.5 	"/>
	<path class="st0" d="M187.5,60.4c0.6,0,1,0.4,1,1c0,0.6-0.4,1-1,1c-0.6,0-0.9-0.4-0.9-1C186.6,60.7,186.9,60.4,187.5,60.4"/>
	<path class="st0" d="M197.5,52c2.6,0,4.4,2.1,4.4,5.2c0,3-1.8,5.1-4.4,5.1c-2.6,0-4.4-2.1-4.4-5.1C193.1,54.1,194.9,52,197.5,52
		 M197.5,61c1.7,0,3-1.3,3-3.8c0-2.5-1.2-3.8-3-3.8c-1.7,0-3,1.3-3,3.8C194.5,59.7,195.8,61,197.5,61"/>
	<path class="st0" d="M205.2,51.7v8.5c0,0.7,0.2,0.9,0.6,0.9c0.3,0,0.6-0.1,0.8-0.3l0.1,1.1c-0.3,0.2-0.8,0.4-1.4,0.4
		c-1,0-1.5-0.5-1.5-1.7v-8.9H205.2z"/>
	<path class="st0" d="M217.5,62.2v-4.6c0-1.3-0.5-1.9-1.6-1.9c-0.9,0-1.4,0.6-1.7,1.4c0,0.1,0,0.1,0,0.2v4.9h-1.4v-4.6
		c0-1.3-0.5-1.9-1.6-1.9c-1,0-1.5,0.6-1.8,1.4v5.1h-1.4v-7.7h1.4v1.1c0.5-0.8,1.2-1.2,2.3-1.2c1.1,0,1.8,0.5,2.2,1.4
		c0.5-0.9,1.2-1.4,2.3-1.4c1.8,0,2.6,1,2.6,2.9v4.9H217.5z"/>
	<path class="st0" d="M224.3,54.3c2.1,0,3.5,1.5,3.5,4.1c0,2.5-1.4,4-3.5,4c-2.1,0-3.5-1.5-3.5-4C220.8,55.8,222.2,54.3,224.3,54.3
		 M224.3,61.1c1.3,0,2.1-1,2.1-2.7c0-1.8-0.8-2.8-2.1-2.8c-1.3,0-2.1,1-2.1,2.8C222.2,60.1,223,61.1,224.3,61.1"/>
	<path class="st0" d="M234,56.1c-0.5-0.3-1.3-0.5-2-0.5c-0.9,0-1.3,0.4-1.3,1c0,0.5,0.4,0.8,1.1,1l0.9,0.3c1.3,0.4,1.8,1.1,1.8,2.1
		c0,1.3-1.1,2.4-2.8,2.4c-1.1,0-2-0.3-2.5-0.6l0.3-1.3c0.5,0.3,1.3,0.7,2.2,0.7c0.9,0,1.4-0.4,1.4-1.1c0-0.6-0.4-0.9-1.1-1.1
		l-0.9-0.3c-1.2-0.4-1.8-1-1.8-2.1c0-1.3,1-2.3,2.7-2.3c0.8,0,1.9,0.3,2.4,0.5L234,56.1z"/>
</g>
</svg>
