<?xml version="1.0" encoding="utf-8"?>
<!-- Generator: Adobe Illustrator 23.0.1, SVG Export Plug-In . SVG Version: 6.00 Build 0)  -->
<svg version="1.1" id="Capa_1" xmlns="http://www.w3.org/2000/svg" xmlns:xlink="http://www.w3.org/1999/xlink" x="0px" y="0px"
	 viewBox="0 0 285.8 85" style="enable-background:new 0 0 285.8 85;" xml:space="preserve">
<style type="text/css">
	.st0{fill:#3C3C3B;}
	.st1{fill:#793282;}
</style>
<g>
	<g>
		<path class="st0" d="M29.7,27.5l-1.5,8.8h12.2l-0.6,3.4H27.5c-1.8,0-3-1.4-2.7-3.2l1.5-9.2c0.3-1.8,2-3.2,3.7-3.2h12.3l-0.6,3.4
			H29.7z"/>
		<path class="st0" d="M44.8,24.2h3.4l-2.6,15.6h-3.4L44.8,24.2z"/>
		<path class="st0" d="M66.2,24.2l-0.6,3.4h-6.1l-2,12.2h-3.4l2-12.2h-6.1l0.6-3.4H66.2z"/>
		<path class="st0" d="M82.5,27.5h-11L71,30.2h8.8l-0.6,3.4h-8.8L70,36.3h11l-0.6,3.4H66.1l2.6-15.6H83L82.5,27.5z"/>
	</g>
	<g>
		<path class="st1" d="M88,39.9C87.6,40,87,40,86.6,40c-2.5-0.1-3.8-1.2-3.4-3.6l0.9-5.9L82,30.4l0.3-1.5l2.1-0.5l0.4-2.7l2.6-0.6
			L87,28.5l3.2,0.1l-0.3,2.1l-3.2-0.1l-0.9,5.6c-0.2,1.1,0.3,1.7,1.6,1.7c0.4,0,0.7,0,1-0.1L88,39.9z"/>
		<path class="st1" d="M93,34.9c-0.2,1.7,0.2,2.8,2.5,2.9c1.4,0,2.6-0.2,3.7-0.5l-0.3,2.2C97.5,39.9,96,40,94.8,40
			c-3.8-0.1-4.8-2.4-4.2-6.1c0.6-3.6,2.3-5.8,6-5.7c3.3,0.1,4.3,1.7,4,3.6c-0.3,1.9-1.8,3.3-5.1,3.2L93,34.9z M95.7,33.2
			c1.3,0,2.2-0.4,2.4-1.4c0.1-1-0.6-1.5-2-1.5c-1.9-0.1-2.5,1.1-2.9,2.8L95.7,33.2z"/>
		<path class="st1" d="M106.5,35.5l-3.1,4.1l-2.9-0.1l4.7-5.6l-2.7-5.6l2.9,0.1l1.7,4l2.9-3.8l2.9,0.1l-4.5,5.3l2.9,5.9l-2.9-0.1
			L106.5,35.5z"/>
		<path class="st1" d="M119.2,39.9c-0.4,0.1-1,0.1-1.4,0.1c-2.5-0.1-3.8-1.2-3.4-3.6l0.9-5.9l-2.1-0.1l0.3-1.5l2.1-0.5l0.4-2.7
			l2.6-0.6l-0.5,3.4l3.2,0.1l-0.3,2.1l-3.2-0.1l-0.9,5.6c-0.2,1.1,0.3,1.7,1.6,1.7c0.4,0,0.7,0,1-0.1L119.2,39.9z"/>
		<path class="st1" d="M121.8,36.9l1.3-8.5l2.5,0.1l-1.3,8.4c-0.1,0.6,0.1,0.9,0.8,0.9l-0.3,2c0,0-0.2,0-0.5,0
			C122.3,39.8,121.5,38.8,121.8,36.9z M125,23.5c0.9,0,1.6,0.8,1.6,1.7s-0.8,1.6-1.7,1.6c-0.9,0-1.6-0.8-1.6-1.7
			S124.1,23.4,125,23.5z"/>
		<path class="st1" d="M127.5,36.9l2.2-14.1l2.5,0.1L130,36.9c-0.1,0.6,0.1,0.9,0.8,0.9l-0.3,2c0,0-0.2,0-0.5,0
			C128,39.8,127.2,38.8,127.5,36.9z"/>
		<path class="st1" d="M142.2,37.8c1.3,0,2.2-0.1,3-0.4l-0.3,2.2c-0.9,0.4-2,0.5-3.2,0.5c-4-0.1-4.8-2.6-4.3-6.1
			c0.6-3.5,2.1-5.8,6.1-5.7c1.2,0,2.2,0.3,3,0.7l-0.3,2.2c-0.8-0.3-1.6-0.6-2.9-0.6c-2.2-0.1-3.1,1.4-3.4,3.6
			C139.6,36.2,140,37.7,142.2,37.8z"/>
		<path class="st1" d="M156.6,39.9l-1.5-0.1l-0.3-0.9c-1.1,0.7-2.3,1.1-3.8,1c-3.3-0.1-4.2-2.4-3.6-6s2.1-5.8,5.4-5.7
			c1.5,0.1,2.6,0.5,3.5,1.3l0.6-0.9l1.5,0.1L156.6,39.9z M155.5,31c-0.4-0.3-1.1-0.7-2.3-0.7c-2.2-0.1-2.8,1.6-3.2,3.7
			c-0.3,2.1-0.2,3.8,2,3.8c1.2,0,2-0.3,2.5-0.6L155.5,31z"/>
		<path class="st1" d="M173.2,31.9c0.2-1.1-0.4-1.5-1.4-1.5c-1.1,0-1.9,0.3-2.6,0.6c0,0.4-0.1,0.8-0.1,1.2l-1.2,7.4l-2.5-0.1
			l1.3-7.9c0.2-1.1-0.4-1.5-1.4-1.5c-1,0-1.8,0.3-2.5,0.6l-1.4,8.7l-2.5-0.1l1.8-11.2l1.5,0.1l0.3,0.9c1.1-0.7,2.5-1.1,3.6-1
			c1.5,0.1,2.4,0.5,2.7,1.2c1.1-0.7,2.5-1,3.8-1c2.7,0.1,3.5,1.6,3.2,3.7l-1.3,7.9l-2.5-0.1L173.2,31.9z"/>
		<path class="st1" d="M179.7,34.9c-0.2,1.7,0.2,2.8,2.5,2.9c1.4,0,2.6-0.2,3.7-0.5l-0.3,2.2c-1.4,0.5-2.9,0.6-4.1,0.6
			c-3.8-0.1-4.8-2.4-4.2-6.1c0.6-3.6,2.3-5.8,6-5.7c3.3,0.1,4.3,1.7,4,3.6c-0.3,1.9-1.8,3.3-5.1,3.2L179.7,34.9z M182.5,33.2
			c1.3,0,2.2-0.4,2.4-1.4c0.1-1-0.6-1.5-2-1.5c-1.9-0.1-2.5,1.1-2.9,2.8L182.5,33.2z M182.3,27.3l2-4.4l3,0.1l-3,4.4L182.3,27.3z"/>
		<path class="st1" d="M188.8,36.9l2.2-14.1l2.5,0.1l-2.2,14.1c-0.1,0.6,0.1,0.9,0.8,0.9l-0.3,2c0,0-0.2,0-0.5,0
			C189.2,39.8,188.5,38.8,188.8,36.9z"/>
		<path class="st1" d="M194.4,36.9l1.3-8.5l2.5,0.1l-1.3,8.4c-0.1,0.6,0.1,0.9,0.8,0.9l-0.3,2c0,0-0.2,0-0.5,0
			C194.9,39.8,194.1,38.8,194.4,36.9z M197.6,23.5c0.9,0,1.6,0.8,1.6,1.7c0,0.9-0.8,1.6-1.7,1.6c-0.9,0-1.6-0.8-1.6-1.7
			C195.9,24.2,196.7,23.4,197.6,23.5z"/>
		<path class="st1" d="M208.3,29.1l1-6.2l2.5,0.1l-2.7,16.9l-1.5-0.1l-0.3-0.9c-1.1,0.7-2.3,1.1-3.8,1c-3.3-0.1-4.2-2.4-3.6-6
			c0.6-3.7,2.1-5.8,5.4-5.7C206.6,28.2,207.6,28.6,208.3,29.1z M202.5,34c-0.3,2.1-0.2,3.8,2,3.8c1.2,0,2-0.3,2.5-0.6l1-6.2
			c-0.4-0.3-1.1-0.7-2.3-0.7C203.5,30.2,202.9,31.9,202.5,34z"/>
		<path class="st1" d="M212.1,33.9c0.6-3.5,1.9-5.9,5.9-5.7c4,0.1,4.6,2.6,4.1,6.1c-0.6,3.5-1.9,5.9-5.9,5.7
			C212.1,39.8,211.5,37.3,212.1,33.9z M219.6,34.2c0.4-2.4,0.3-3.8-1.9-3.9c-2.1-0.1-2.7,1.3-3.1,3.7c-0.4,2.4-0.3,3.8,1.9,3.9
			C218.7,37.9,219.2,36.6,219.6,34.2z"/>
		<path class="st1" d="M228.3,32.9c3.4,0.4,4.1,1.5,3.7,3.5c-0.3,1.9-1.8,3.6-5.4,3.4c-1.6-0.1-2.9-0.4-3.6-0.7l0.3-2.2
			c0.7,0.3,1.9,0.7,3.3,0.7c1.8,0.1,2.7-0.3,2.9-1.3c0.1-0.8-0.2-1.3-1.6-1.5c-3.4-0.4-4-1.5-3.7-3.4c0.3-1.9,1.8-3.5,5.1-3.4
			c1.5,0.1,2.6,0.3,3.4,0.7l-0.3,2.2c-0.9-0.4-1.9-0.7-3.3-0.8c-1.3,0-2.2,0.3-2.4,1.3C226.6,32.4,226.9,32.8,228.3,32.9z"/>
	</g>
	<g>
		<path class="st0" d="M187,62.1v-5.4h-5.6v5.4h-1V50.8h1v4.9h5.6v-4.9h1v11.3H187z"/>
		<path class="st0" d="M191,60.1c0,1,0.6,1.3,1.5,1.3c1,0,1.5-0.2,2-0.5v-6.2h1.1v7.5H195l-0.2-0.6c-0.7,0.5-1.5,0.8-2.3,0.8
			c-1.8,0-2.6-0.8-2.6-2.3v-5.4h1.1V60.1z"/>
		<path class="st0" d="M200.2,55.4c-1,0-1.7,0.2-2.3,0.4v-0.9c0.7-0.3,1.5-0.4,2.3-0.4c2.3,0,2.8,1,2.8,2.5v5.1h-0.6l-0.2-0.6
			c-0.7,0.5-1.5,0.8-2.3,0.8c-2,0-2.6-1.2-2.6-2.4c0-1.3,0.7-2.2,2.7-2.3l2-0.1V57C202,55.9,201.6,55.4,200.2,55.4z M200,58.3
			c-1.1,0.1-1.5,0.7-1.5,1.5c0,0.7,0.2,1.5,1.6,1.5c0.8,0,1.4-0.2,2-0.6v-2.6L200,58.3z"/>
		<path class="st0" d="M209.6,56.7c0-1-0.6-1.3-1.5-1.3c-1,0-1.5,0.2-2,0.5v6.2H205v-7.5h0.6l0.2,0.6c0.7-0.5,1.5-0.8,2.3-0.8
			c1.8,0,2.6,0.8,2.6,2.3v5.4h-1.1V56.7z"/>
		<path class="st0" d="M215.5,54.5c0.7,0,1.6,0.1,2.2,0.4v0.9c-0.6-0.2-1.2-0.3-2.3-0.3c-1.9,0-2.1,1.5-2.1,3s0.2,3,2.1,3
			c1.1,0,1.7-0.2,2.3-0.3v0.9c-0.7,0.3-1.5,0.4-2.2,0.4c-2.5,0-3.2-1.7-3.2-3.9S213,54.5,215.5,54.5z"/>
		<path class="st0" d="M222.1,55.4c-1,0-1.7,0.2-2.3,0.4v-0.9c0.7-0.3,1.5-0.4,2.3-0.4c2.3,0,2.8,1,2.8,2.5v5.1h-0.6l-0.2-0.6
			c-0.7,0.5-1.5,0.8-2.3,0.8c-2,0-2.6-1.2-2.6-2.4c0-1.3,0.7-2.2,2.7-2.3l2-0.1V57C223.9,55.9,223.5,55.4,222.1,55.4z M221.8,58.3
			c-1.1,0.1-1.5,0.7-1.5,1.5c0,0.7,0.2,1.5,1.6,1.5c0.8,0,1.4-0.2,2-0.6v-2.6L221.8,58.3z"/>
		<path class="st0" d="M227.3,54.6l2.1,6.2l2.1-6.2h1.2l-2.9,7.7h-0.8l-2.9-7.7H227.3z"/>
		<path class="st0" d="M236.8,54.5c2.6,0,2.9,1.7,2.9,3.9v0.5h-5c0.1,1.3,0.4,2.5,2.1,2.5c1.1,0,1.7-0.1,2.5-0.4v0.9
			c-0.8,0.4-1.7,0.5-2.5,0.5c-2.5,0-3.2-1.7-3.2-3.9S234.2,54.5,236.8,54.5z M234.7,58h3.9c0-1.3-0.1-2.6-1.8-2.6
			C235,55.4,234.7,56.6,234.7,58z"/>
		<path class="st0" d="M241.7,60.6v-9.8h1v9.9c0,0.5,0.2,0.7,0.6,0.7v0.9C242.2,62.3,241.7,61.8,241.7,60.6z"/>
		<path class="st0" d="M245.8,51.6c0.4,0,0.8,0.3,0.8,0.8c0,0.4-0.3,0.8-0.8,0.8c-0.4,0-0.8-0.3-0.8-0.8
			C245,51.9,245.4,51.6,245.8,51.6z M245.3,60.6v-6h1v6.1c0,0.5,0.2,0.7,0.6,0.7v0.9C245.8,62.3,245.3,61.8,245.3,60.6z"/>
		<path class="st0" d="M251.6,54.5c0.7,0,1.6,0.1,2.2,0.4v0.9c-0.6-0.2-1.2-0.3-2.3-0.3c-1.9,0-2.1,1.5-2.1,3s0.2,3,2.1,3
			c1.1,0,1.7-0.2,2.3-0.3v0.9c-0.7,0.3-1.5,0.4-2.2,0.4c-2.5,0-3.2-1.7-3.2-3.9S249.1,54.5,251.6,54.5z"/>
		<path class="st0" d="M258.2,55.4c-1,0-1.7,0.2-2.3,0.4v-0.9c0.7-0.3,1.5-0.4,2.3-0.4c2.3,0,2.8,1,2.8,2.5v5.1h-0.6l-0.2-0.6
			c-0.7,0.5-1.5,0.8-2.3,0.8c-2,0-2.6-1.2-2.6-2.4c0-1.3,0.7-2.2,2.7-2.3l2-0.1V57C260,55.9,259.6,55.4,258.2,55.4z M257.9,58.3
			c-1.1,0.1-1.5,0.7-1.5,1.5c0,0.7,0.2,1.5,1.6,1.5c0.8,0,1.4-0.2,2-0.6v-2.6L257.9,58.3z"/>
	</g>
</g>
</svg>
