<?xml version="1.0" encoding="utf-8"?>
<!-- Generator: Adobe Illustrator 23.0.1, SVG Export Plug-In . SVG Version: 6.00 Build 0)  -->
<svg version="1.1" id="Capa_1" xmlns="http://www.w3.org/2000/svg" xmlns:xlink="http://www.w3.org/1999/xlink" x="0px" y="0px"
	 viewBox="0 0 215.1 85" style="enable-background:new 0 0 215.1 85;" xml:space="preserve">
<style type="text/css">
	.st0{clip-path:url(#SVGID_2_);fill:#3C3C3B;}
	.st1{clip-path:url(#SVGID_2_);fill:#AA3619;}
</style>
<g>
	<defs>
		<rect id="SVGID_1_" y="0" width="215.1" height="85"/>
	</defs>
	<clipPath id="SVGID_2_">
		<use xlink:href="#SVGID_1_"  style="overflow:visible;"/>
	</clipPath>
	<path class="st0" d="M37.7,26.4l-1.5,8.8h12.2l-0.6,3.4H35.5c-1.8,0-3-1.4-2.7-3.2l1.5-9.2c0.3-1.8,2-3.2,3.7-3.2h12.3l-0.6,3.4
		H37.7z"/>
	<polygon class="st0" points="52.9,23 56.2,23 53.7,38.5 50.3,38.5 	"/>
	<polygon class="st0" points="74.3,23 73.7,26.4 67.6,26.4 65.6,38.5 62.2,38.5 64.2,26.4 58.2,26.4 58.7,23 	"/>
	<polygon class="st0" points="90.5,26.4 79.5,26.4 79.1,29.1 87.9,29.1 87.4,32.4 78.5,32.4 78.1,35.2 89,35.2 88.5,38.5 74.1,38.5 
		76.7,23 91.1,23 	"/>
	<path class="st1" d="M103.9,30.8c0.2-1.1-0.4-1.5-1.4-1.5c-1.1,0-1.9,0.3-2.6,0.6c0,0.4-0.1,0.8-0.1,1.2l-1.2,7.4l-2.5-0.1l1.3-7.9
		c0.2-1.1-0.4-1.5-1.4-1.5c-1,0-1.8,0.3-2.5,0.6l-1.4,8.7l-2.5-0.1L91.4,27l1.5,0.1l0.3,0.9c1.1-0.7,2.5-1.1,3.6-1
		c1.5,0.1,2.4,0.5,2.7,1.2c1.1-0.7,2.5-1,3.8-1c2.7,0.1,3.5,1.6,3.2,3.7l-1.3,7.9l-2.5-0.1L103.9,30.8z"/>
	<path class="st1" d="M117.1,38.7l-1.5-0.1l-0.3-0.9c-1.1,0.7-2.3,1.1-3.8,1c-3.3-0.1-4.2-2.4-3.6-6c0.6-3.7,2.1-5.8,5.4-5.7
		c1.5,0.1,2.6,0.5,3.5,1.3l0.5-0.9l1.5,0.1L117.1,38.7z M116,29.9c-0.4-0.3-1.1-0.7-2.3-0.7c-2.2-0.1-2.8,1.6-3.2,3.7
		c-0.3,2.1-0.2,3.8,2,3.8c1.2,0,2-0.3,2.5-0.6L116,29.9z"/>
	<path class="st1" d="M128.4,28l1-6.2l2.5,0.1l-2.7,16.9l-1.5-0.1l-0.3-0.9c-1.1,0.7-2.3,1.1-3.8,1c-3.3-0.1-4.2-2.4-3.6-6
		c0.6-3.7,2.1-5.8,5.4-5.7C126.6,27,127.6,27.4,128.4,28 M122.6,32.8c-0.3,2.1-0.2,3.8,2,3.8c1.2,0,2-0.3,2.5-0.6l1-6.2
		c-0.4-0.3-1.1-0.7-2.3-0.7C123.5,29.1,122.9,30.7,122.6,32.8"/>
	<path class="st1" d="M134.5,33.7c-0.2,1.7,0.2,2.8,2.5,2.9c1.4,0,2.6-0.2,3.7-0.5l-0.3,2.2c-1.4,0.5-2.9,0.6-4.1,0.6
		c-3.8-0.1-4.8-2.4-4.2-6.1c0.6-3.6,2.3-5.8,6-5.7c3.3,0.1,4.3,1.7,4,3.6c-0.3,1.9-1.8,3.3-5.1,3.2L134.5,33.7z M137.3,32.1
		c1.3,0,2.2-0.4,2.4-1.4c0.1-1-0.6-1.5-2-1.5c-1.8-0.1-2.5,1.1-2.9,2.8L137.3,32.1z"/>
	<path class="st1" d="M151,29.4c-0.3-0.1-0.7-0.2-1.2-0.2c-1.3,0-2.4,0.2-3,0.6l-1.4,8.7l-2.5-0.1l1.8-11.2l1.5,0.1l0.3,0.9
		c0.9-0.6,2.3-1.1,3.7-1c0.5,0,0.9,0.1,1.2,0.2L151,29.4z"/>
	<path class="st1" d="M160.8,38.7l-1.5-0.1l-0.3-0.9c-1.1,0.7-2.3,1.1-3.8,1c-3.3-0.1-4.2-2.4-3.6-6c0.6-3.7,2.1-5.8,5.4-5.7
		c1.5,0.1,2.6,0.5,3.5,1.3l0.6-0.9l1.5,0.1L160.8,38.7z M159.6,29.9c-0.4-0.3-1.1-0.7-2.3-0.7c-2.2-0.1-2.8,1.6-3.2,3.7
		c-0.3,2.1-0.2,3.8,2,3.8c1.2,0,2-0.3,2.5-0.6L159.6,29.9z"/>
	<path class="st0" d="M107.3,57.6c0,1.5,0.6,2.4,1.9,2.4c1.3,0,1.9-1,1.9-2.4v-4.8h1.2v4.9c0,1.9-1,3.4-3.1,3.4
		c-2.1,0-3.1-1.4-3.1-3.4v-4.9h1.2V57.6z"/>
	<path class="st0" d="M114.6,59.4c0.5,0,0.8,0.3,0.8,0.8c0,0.5-0.3,0.8-0.8,0.8c-0.5,0-0.8-0.3-0.8-0.8
		C113.9,59.7,114.1,59.4,114.6,59.4"/>
	<polygon class="st0" points="119.3,53.8 119.3,60.9 118.2,60.9 118.2,53.8 115.7,53.8 115.7,52.8 121.6,52.8 121.6,53.8 	"/>
	<path class="st0" d="M122.8,59.4c0.5,0,0.8,0.3,0.8,0.8c0,0.5-0.3,0.8-0.8,0.8c-0.5,0-0.8-0.3-0.8-0.8
		C122,59.7,122.3,59.4,122.8,59.4"/>
	<path class="st0" d="M130.8,52.7c1.2,0,2.1,0.6,2.7,1.3l-0.6,0.8c-0.5-0.5-1.1-1-2-1c-1.5,0-2.4,1.1-2.4,3.1c0,2,0.9,3.1,2.4,3.1
		c0.9,0,1.5-0.5,2-1l0.6,0.8c-0.6,0.8-1.5,1.3-2.7,1.3c-2.1,0-3.5-1.6-3.5-4.2C127.3,54.2,128.8,52.7,130.8,52.7"/>
	<path class="st0" d="M138.2,60.9v-0.6c-0.4,0.4-1,0.7-1.7,0.7c-1.2,0-2-0.7-2-1.9c0-1.5,1.2-2.2,2.8-2.2c0.3,0,0.6,0,0.9,0.1v-0.2
		c0-0.9-0.5-1.3-1.3-1.3c-0.6,0-1.2,0.2-1.6,0.4l-0.2-1c0.6-0.3,1.4-0.4,2-0.4c1.5,0,2.3,0.8,2.3,2.3v4H138.2z M136.8,60.1
		c0.6,0,1.1-0.3,1.4-0.6v-1.6c-0.2,0-0.5-0.1-0.8-0.1c-0.9,0-1.7,0.4-1.7,1.2C135.7,59.7,136.2,60.1,136.8,60.1"/>
	<path class="st0" d="M140.3,62.5c0.6-0.4,0.9-0.8,0.9-1.8v-6.1h1.2v6c0,1.4-0.6,2.1-1.4,2.6L140.3,62.5z M141.7,52.2
		c0.4,0,0.7,0.2,0.7,0.6c0,0.5-0.3,0.7-0.7,0.7c-0.4,0-0.7-0.2-0.7-0.7C141,52.4,141.3,52.2,141.7,52.2"/>
	<path class="st0" d="M147.4,60.9v-0.6c-0.4,0.4-1,0.7-1.7,0.7c-1.2,0-2-0.7-2-1.9c0-1.5,1.2-2.2,2.8-2.2c0.3,0,0.6,0,0.9,0.1v-0.2
		c0-0.9-0.5-1.3-1.3-1.3c-0.6,0-1.2,0.2-1.6,0.4l-0.2-1c0.6-0.3,1.4-0.4,2-0.4c1.5,0,2.3,0.8,2.3,2.3v4H147.4z M146.1,60.1
		c0.6,0,1.1-0.3,1.4-0.6v-1.6c-0.2,0-0.5-0.1-0.8-0.1c-0.9,0-1.7,0.4-1.7,1.2C144.9,59.7,145.4,60.1,146.1,60.1"/>
	<path class="st0" d="M158,60.9v-3.8c0-1-0.4-1.5-1.3-1.5c-0.7,0-1.1,0.5-1.3,1.1c0,0.1,0,0.1,0,0.2v4h-1.2v-3.8
		c0-1-0.4-1.5-1.3-1.5c-0.8,0-1.2,0.5-1.5,1.2v4.1h-1.2v-6.3h1.2v0.9c0.4-0.6,1-1,1.9-1c0.9,0,1.5,0.4,1.8,1.1
		c0.4-0.7,1-1.1,1.9-1.1c1.5,0,2.1,0.8,2.1,2.4v4H158z"/>
	<path class="st0" d="M164.3,60.9v-0.6c-0.4,0.4-1,0.7-1.7,0.7c-1.2,0-2-0.7-2-1.9c0-1.5,1.2-2.2,2.8-2.2c0.3,0,0.6,0,0.9,0.1v-0.2
		c0-0.9-0.5-1.3-1.3-1.3c-0.6,0-1.2,0.2-1.6,0.4l-0.2-1c0.6-0.3,1.4-0.4,2-0.4c1.5,0,2.3,0.8,2.3,2.3v4H164.3z M162.9,60.1
		c0.6,0,1.1-0.3,1.4-0.6v-1.6c-0.2,0-0.5-0.1-0.8-0.1c-0.9,0-1.7,0.4-1.7,1.2C161.7,59.7,162.2,60.1,162.9,60.1"/>
	<path class="st0" d="M167.2,60.9v-6.3h1.2v1c0.3-0.7,0.7-1.1,1.4-1.1c0.4,0,0.7,0.1,1,0.3l-0.2,1.1c-0.3-0.2-0.6-0.3-0.9-0.3
		c-0.7,0-1.1,0.5-1.3,1.3v3.9H167.2z"/>
	<path class="st0" d="M174.4,60c0.7,0,1.1-0.3,1.5-0.7l0.5,0.9c-0.5,0.5-1.1,0.9-2.1,0.9c-1.7,0-2.9-1.3-2.9-3.3
		c0-2.1,1.2-3.3,2.9-3.3c0.9,0,1.6,0.4,2.1,0.9l-0.5,0.9c-0.4-0.4-0.8-0.7-1.5-0.7c-1,0-1.7,0.8-1.7,2.2S173.4,60,174.4,60"/>
	<path class="st0" d="M181.2,60.9v-0.6c-0.4,0.4-1,0.7-1.7,0.7c-1.2,0-2-0.7-2-1.9c0-1.5,1.2-2.2,2.8-2.2c0.3,0,0.6,0,0.9,0.1v-0.2
		c0-0.9-0.5-1.3-1.3-1.3c-0.6,0-1.2,0.2-1.6,0.4l-0.2-1c0.6-0.3,1.4-0.4,2-0.4c1.5,0,2.3,0.8,2.3,2.3v4H181.2z M179.8,60.1
		c0.6,0,1.1-0.3,1.4-0.6v-1.6c-0.2,0-0.5-0.1-0.8-0.1c-0.9,0-1.7,0.4-1.7,1.2C178.6,59.7,179.1,60.1,179.8,60.1"/>
</g>
</svg>
