<?xml version="1.0" encoding="utf-8"?>
<!-- Generator: Adobe Illustrator 23.0.1, SVG Export Plug-In . SVG Version: 6.00 Build 0)  -->
<svg version="1.1" id="Capa_1" xmlns="http://www.w3.org/2000/svg" xmlns:xlink="http://www.w3.org/1999/xlink" x="0px" y="0px"
	 viewBox="0 0 32 32" style="enable-background:new 0 0 32 32;" xml:space="preserve">
<style type="text/css">
	.st0{fill:#E30A14;}
	.st1{fill:#FFFFFF;stroke:#FFFFFF;stroke-width:0.717;stroke-miterlimit:10;}
</style>
<rect x="-0.9" y="-0.6" class="st0" width="33.7" height="33.7"/>
<g transform="translate(0,-1020.3622)">
	<path class="st1" d="M20.6,1024c-1.2,0-2.3,1-2.3,2.3c0,0.6,0.3,1.2,0.7,1.6l-2.1,3.5c-0.3-0.1-0.6-0.1-0.9-0.1
		c-1.1,0-2,0.5-2.7,1.2l-0.5-0.3l-0.5,0.7l0.5,0.4c-0.2,0.5-0.4,1-0.4,1.6c0,0.6,0.1,1.1,0.4,1.6l-5.1,3.4c-0.4-0.3-1-0.5-1.6-0.5
		c-1.5,0-2.7,1.2-2.7,2.7c0,1.5,1.2,2.7,2.7,2.7s2.7-1.2,2.7-2.7c0-0.6-0.2-1.1-0.5-1.5l5-3.3c0.7,0.8,1.6,1.3,2.7,1.3
		c0.6,0,1.1-0.2,1.6-0.4l0.4,0.5l0.7-0.5l-0.3-0.5c0.8-0.7,1.3-1.6,1.3-2.7c0,0,0,0,0-0.1l5.7-0.8c0.3,0.5,0.9,0.8,1.5,0.8
		c1,0,1.8-0.8,1.8-1.8c0-1-0.8-1.8-1.8-1.8s-1.8,0.8-1.8,1.8c0,0,0,0.1,0,0.1l-5.6,0.7c-0.3-1-0.9-1.8-1.8-2.2l2-3.3
		c0.3,0.1,0.5,0.2,0.8,0.2c1.2,0,2.3-1,2.3-2.3C22.8,1025,21.8,1024,20.6,1024z M20.6,1024.9c0.8,0,1.4,0.6,1.4,1.4
		c0,0.8-0.6,1.4-1.4,1.4s-1.4-0.6-1.4-1.4C19.2,1025.5,19.8,1024.9,20.6,1024.9z M8.8,1027.6c-1,0-1.8,0.8-1.8,1.8s0.8,1.8,1.8,1.8
		c0.4,0,0.7-0.1,1-0.3l0.4,0.3l0.5-0.7l-0.3-0.2c0.1-0.3,0.2-0.5,0.2-0.8C10.7,1028.4,9.8,1027.6,8.8,1027.6z M8.8,1028.5
		c0.5,0,0.9,0.4,0.9,0.9c0,0.5-0.4,0.9-0.9,0.9c-0.5,0-0.9-0.4-0.9-0.9C7.9,1028.9,8.3,1028.5,8.8,1028.5z M11.5,1031l-0.5,0.7
		l0.7,0.5l0.5-0.7L11.5,1031z M16.1,1032.1c1.5,0,2.7,1.2,2.7,2.7s-1.2,2.7-2.7,2.7s-2.7-1.2-2.7-2.7S14.6,1032.1,16.1,1032.1z
		 M26.9,1032.1c0.5,0,0.9,0.4,0.9,0.9s-0.4,0.9-0.9,0.9s-0.9-0.4-0.9-0.9S26.4,1032.1,26.9,1032.1z M19.3,1038.7l-0.7,0.5l0.5,0.7
		l0.7-0.5L19.3,1038.7z M20.3,1040.2l-0.7,0.5l0.5,0.7l0.7-0.5L20.3,1040.2z M6.1,1040.2c1,0,1.8,0.8,1.8,1.8s-0.8,1.8-1.8,1.8
		s-1.8-0.8-1.8-1.8S5.1,1040.2,6.1,1040.2z M21.4,1041.7l-0.7,0.5l0.5,0.7l0.7-0.5L21.4,1041.7z M23.7,1043c-0.4,0-0.8,0.1-1.2,0.4
		l-0.1-0.2l-0.7,0.5l0.2,0.3c-0.3,0.4-0.4,0.8-0.4,1.3c0,1.2,1,2.3,2.3,2.3s2.3-1,2.3-2.3C26,1044,25,1043,23.7,1043z M23.7,1043.9
		c0.8,0,1.4,0.6,1.4,1.4c0,0.8-0.6,1.4-1.4,1.4s-1.4-0.6-1.4-1.4C22.4,1044.5,23,1043.9,23.7,1043.9z"/>
</g>
</svg>
