<?xml version="1.0" encoding="utf-8"?>
<!-- Generator: Adobe Illustrator 23.0.1, SVG Export Plug-In . SVG Version: 6.00 Build 0)  -->
<svg version="1.1" id="Capa_1" xmlns="http://www.w3.org/2000/svg" xmlns:xlink="http://www.w3.org/1999/xlink" x="0px" y="0px"
	 viewBox="0 0 300 300" style="enable-background:new 0 0 300 300;" xml:space="preserve">
<style type="text/css">
	.st0{opacity:0.3;enable-background:new    ;}
	.st1{fill:#FFFFFF;}
</style>
<g>
	<g>
		<g class="st0">
			<rect x="143.3" y="93.8" class="st1" width="66.5" height="108.9"/>
		</g>
		<g>
			<path class="st1" d="M214.3,208.7H93.4c-2.5,0-4.5-2-4.5-4.5V95.3c0-2.5,2-4.5,4.5-4.5h121c2.5,0,4.5,2,4.5,4.5v108.9
				C218.9,206.7,216.8,208.7,214.3,208.7z M97.9,199.7h111.9V99.9H97.9V199.7z"/>
		</g>
		<g>
			<path class="st1" d="M144.8,204c-2.5,0-4.5-2-4.5-4.5V96.8c0-2.5,2-4.5,4.5-4.5c2.5,0,4.5,2,4.5,4.5v102.6
				C149.3,202,147.3,204,144.8,204z"/>
		</g>
		<g>
			<path class="st1" d="M89.5,154.3H27.5c-2.5,0-4.5-2-4.5-4.5c0-2.5,2-4.5,4.5-4.5h61.9c2.5,0,4.5,2,4.5,4.5
				C94,152.3,92,154.3,89.5,154.3z"/>
		</g>
		<g>
			<path class="st1" d="M26.9,192.3c-2.5,0-4.5-2-4.5-4.5v-72.6c0-2.5,2-4.5,4.5-4.5s4.5,2,4.5,4.5v72.6
				C31.4,190.3,29.4,192.3,26.9,192.3z"/>
		</g>
		<g>
			<path class="st1" d="M272.6,154.3h-59.3c-2.5,0-4.5-2-4.5-4.5c0-2.5,2-4.5,4.5-4.5h59.3c2.5,0,4.5,2,4.5,4.5
				C277.1,152.3,275.1,154.3,272.6,154.3z"/>
		</g>
		<g>
			<path class="st1" d="M271.8,192.3c-2.5,0-4.5-2-4.5-4.5v-72.6c0-2.5,2-4.5,4.5-4.5s4.5,2,4.5,4.5v72.6
				C276.3,190.3,274.3,192.3,271.8,192.3z"/>
		</g>
	</g>
</g>
</svg>
