<?xml version="1.0" encoding="utf-8"?>
<!-- Generator: Adobe Illustrator 23.0.1, SVG Export Plug-In . SVG Version: 6.00 Build 0)  -->
<svg version="1.1" id="Capa_1" xmlns="http://www.w3.org/2000/svg" xmlns:xlink="http://www.w3.org/1999/xlink" x="0px" y="0px"
	 viewBox="0 0 300 300" style="enable-background:new 0 0 300 300;" xml:space="preserve">
<style type="text/css">
	.st0{fill:#FFFFFF;stroke:#D5DBE0;stroke-width:3.024;}
	.st1{opacity:0.5;}
	.st2{opacity:0.75;}
	.st3{opacity:0.35;}
</style>
<g>
	<g>
		<g>
			<g>
				<polygon class="st0" points="166.2,103 167.2,101.2 167,100.4 166.4,100.3 165.4,100.7 164.5,99.7 165.5,98.2 166.2,97.7 
					164.4,96.2 164.8,94.2 165.7,92.9 165.5,91.5 161.6,90.3 157.9,85.5 155.6,84.4 154.5,85.1 148.1,84.4 146.3,85.9 144.6,84.2 
					144.3,84.5 143.5,85.2 141.6,84.8 137.5,81.9 135.5,83.1 134.6,82.4 131.2,81.2 129.2,82.4 125.2,83.4 122.2,80.8 121.1,86.1 
					119.1,87.2 118.3,88.5 119.4,93 121.8,101 126,108 129.7,110.6 130.6,114.6 130.7,115.8 131.7,115.6 137.2,113.5 140.8,113.3 
					144.2,117.8 142.7,119.6 142.5,119.9 144.2,121.1 147.5,121.1 148.1,118.7 149.3,118.3 150.6,119.4 152.7,118.1 153.7,118.1 
					154.5,116.9 155,115.7 155,112.6 160.1,110 164.5,109.5 163.4,106.4 166.4,104.5 				"/>
			</g>
			<g>
				<polygon class="st0" points="277.8,73.9 274.3,73 266,73.7 264.3,76.1 262.8,77.9 260.4,77.8 258.2,78.4 250.4,76 250,78.8 
					248.8,78.8 248.2,81.8 247.2,81.8 246.7,81.8 246.8,83 248.9,83.8 250.2,86.6 252.7,84.6 253.7,85.1 255.7,84.6 255.9,85.1 
					255.4,86.1 257.8,87.2 257.8,86.8 257.1,87.7 257,91.8 253.4,96.9 253.7,98.9 254.3,103 256.4,103 256.8,104.7 255.8,106.9 
					253.5,114.3 252,117.7 250.7,124.4 253.1,126.1 255.2,129.4 255.7,131 258.5,132.6 258.8,135.5 260.7,137.7 261.2,137 
					264.6,136.6 267.8,135.3 268,133.6 270.5,130.1 268.3,127.3 267.7,124.5 269,117.1 268.5,110.6 268.4,109.1 270.1,103 
					271.1,95.1 271.5,90.2 276,84.3 280.1,75.7 				"/>
			</g>
			<g class="st1">
				<polygon class="st0" points="260.2,72.8 258,72.3 255.2,72.7 253.3,72.7 249.2,74.5 247.4,72.4 243.8,72.1 242.7,73.5 
					240.1,72.3 233.3,60.6 232.3,60.6 228,62.1 225.3,64.6 223.9,65 218.5,63.6 214.7,63.6 213.7,63.9 211,64.7 208.9,61.2 
					206.3,60.6 203.9,61 201.2,61.7 201.5,66.3 200.8,69.3 201.5,70.2 200.5,71.8 200.9,73.6 199.6,74.6 199.7,76.3 198.9,78.1 
					201.5,81.4 202.1,83.1 197.4,85.3 197.4,86.9 200.4,88.5 200.4,91.9 201.9,93.7 202.1,95.1 202.3,96.9 204.1,97.2 205.5,99.5 
					209.7,101.7 213.6,103.5 214.5,104.3 213,105.3 214,106.9 216.2,107.2 219,110.5 220.8,111 221.1,111.8 219.6,112.8 
					219.3,114.7 219,115 220.8,115 222.2,117.6 224.5,118.3 225.1,120.5 226.6,121 228.7,120.8 230.1,117.2 230.5,116.8 
					233.9,118.1 239.7,118.1 240.3,117.7 242.5,119.6 243.3,119.3 243.7,116.9 244.3,116.7 248.3,120.2 250.7,121.5 251.7,121.4 
					252.8,115.7 254.1,112.7 256,106.3 257,104.5 256.6,103 254.8,103 254.3,99.5 254,97.8 257.1,93.4 257.2,89.8 257.8,89 
					257.8,87.2 255.4,86.1 255.9,85.1 255.7,84.6 253.7,85.1 252.7,84.6 250.2,86.6 248.9,83.8 246.8,83 246.7,81.8 247.2,78.8 
					248.2,78.8 248.8,81.8 249.9,81.8 250.2,77.8 257.4,80 259.5,79.4 261.7,79.6 263,77.9 264.7,75.7 				"/>
			</g>
			<g class="st1">
				<path class="st0" d="M24.8,175.4l1.4,0.4l0.5-0.6l-2-1.1L24.8,175.4z M30.4,167.1l-1.2-1.5l-0.7-1.5l-1.6-0.9l-0.6,0.9l1.9,2.1
					l2.1,1.4L30.4,167.1z M103.6,126.8v-2.7l0.1-1.9l-1.4-2.6l-1.7-0.1l-3-1.6v0l-0.4-0.4l-2.1,1.1l-3.9-2.2l-0.8-6.2l-0.4-0.4
					l-1.9,1.1l-2.6,0.7l-2.7,2.4l-3,0.4l-0.1-2.2l-2.2,0.1l-0.6-3.4l-1.8-0.9l-1.3,2.2l-4.6,0.4l-5.8,1.3l-1.6-0.4l-0.4-0.6
					l-4.4,0.3l-0.2,0.8l0.3,4.2l-1.2,3.1l1.5,4.1l0.8,4.7l-0.4,1.2l-0.6-0.1l-3.2,1.4l-2,5.9l-5.1-2.2l-3.4,1.9l-6.1,3.4l-3.8,1
					l-1.8,1.3l-0.9,3.4l-8.2,3.4l-0.5,1.2l-1.2,0.4l-1,0.9l1.3,1l0.3,1.1l-0.6,0.9l0.3,0.3l1.7,1l2-0.8l2.3,1.3l2.7-2.3l2.7-0.6
					l9.6,4.4l-1.2,0.3l-6.1-2.9l-4.6-0.2l-1.2,1.1l0.3,3l-1.5,0.7l0.2,0.2l2.3,0.4l3,1.5l1.3,2.3l-1.9-0.1l-0.8,3l-1.8,2.4l-0.5,1.4
					l7.2,8.1l1.3,4l4.1,2.7l2,0.9l5,2.9l0.8-0.8l0.9,1l1.2,0.6v0.6l2.4-0.5l2.4-1.8l3,0.4l-0.1,1.3l5,0.2l1.4-0.2l1.6-5l-0.4-4
					l1.2-1.1l-2.6-5.1l-1.3-1.3l1.7-1.4l0.3-0.3l-7.4-8.1l4,0.9l5.7-0.6l1.4-2.1l2.1-1.1l7.9,0.1l1.7-1.2l1-2.1l1.4-0.2l1.8-5.5
					l1.1-2.4l0.8-4.7v-2.3l0.9-0.3l2.9,1l8.4-5.2v-1.1l-0.5-0.7l1.9-3.2l0.3-1.5l1.8-1.2l0.2-1L103.6,126.8z"/>
			</g>
			<g class="st2">
				<polygon class="st0" points="122.1,75.6 120.9,74.3 122.1,72.6 122.6,71.3 120.5,69.3 120.1,66.4 121.8,64.5 121.8,63.9 
					120.2,63.6 120.5,61.8 120.8,60.6 118.5,56.1 116.7,55 113.8,51.7 112.3,50.5 108.4,54.5 100.7,57.6 96.4,58.2 90.9,60.9 
					87.2,64.3 85.2,65.3 82.3,71.7 83,73 87.6,73.3 89.2,74.1 88.1,74.5 88.5,78.5 89.7,80.6 88.2,81.7 88.3,82.7 90,83.3 
					90.6,89.3 90.6,91.2 90.9,93.9 95.4,93.9 97.8,98 99.9,100 100.7,102.6 104,99.9 106.7,99.1 108.4,97.7 111,98.1 113.8,97.1 
					115.8,94.2 118,92.9 117,88.4 117.8,87.1 119.8,86 120.9,80.6 123,79.1 				"/>
			</g>
			<g class="st2">
				<polygon class="st0" points="253.1,138.1 252.9,137.5 254.2,134.2 256,133.2 258,132.9 257.7,130.2 255.1,128.7 254.7,127.2 
					252.7,124.2 250.5,122.6 249.4,122.7 246.8,121.3 242.6,117.6 241.9,117.8 241.4,120.4 240.6,120.6 238.2,118.6 237.6,118.1 
					233.9,118.1 230.5,116.8 230.1,117.2 228.7,120.8 226.6,121 226.1,122.3 225.1,122.4 224,124.1 222.7,124.2 221.8,127.2 
					221,130.7 219.3,131.5 217,130.8 214.7,132 214.5,133.6 217.4,134.4 216.6,137.7 215.1,138 214.8,138.4 215.5,139.5 
					215.5,141.4 218,141.9 219.2,145.3 218.2,146.3 218.5,148 217.7,149 217.9,150.5 216.7,151.7 216.5,153.3 214.7,153.8 214,155 
					214.7,155.6 213.6,156.9 214,158.3 215.6,159.1 216.6,159.6 217.9,160.5 218.2,160.3 218.5,161.1 218.5,162.7 218.5,163.5 
					216.9,164.5 216.5,165.4 217.7,166.4 218.2,166.6 218.5,170.8 217.4,171.7 217.6,173.1 218.7,173.5 219,174.4 216.9,175.4 
					216.7,176.5 219.6,178.6 220.5,178.6 221.7,182 223.2,181.5 224.8,179.6 226.8,179.9 227.5,180.8 230.5,180 235.7,174.9 
					235.6,173.5 236,172.4 236.5,170.9 236.4,169.9 239.4,164.8 242.6,162.7 243.4,160.5 242.8,156.8 243.4,155 249.2,151.7 
					249.9,148.7 253.1,146 253.4,144.4 256.2,140.2 256.3,139 255.5,137.7 				"/>
			</g>
			<g class="st1">
				<polygon class="st0" points="217.3,173 217,171.6 218.2,170.7 217.9,166.4 217.3,166.2 216.1,165.2 216.5,164.3 215.5,163.2 
					215.5,162.7 218.5,161.1 218.2,160.3 217.9,160.5 216.6,159.6 215.6,159.1 214,158.3 213.6,156.9 214.7,155.6 214,155 
					214.7,153.8 216.5,153.3 216.7,151.7 217.9,150.5 217.7,149 218.5,148 218.2,146.3 219.2,145.3 218,141.9 218.5,141.4 
					218.5,139.5 214.8,138.4 215.1,138 216.6,137.7 217.4,134.4 214.5,133.6 212.4,135 211,133.6 209.9,133 209,133.6 207.4,133 
					206.2,132.3 206.7,131.1 206,130.8 205.2,130.2 204.2,130.2 204.4,129.7 203,128.6 204.2,127 201.1,123.6 200.1,121 197,120.2 
					195.6,121.2 193.6,120.8 193.1,121.6 194.2,123.1 193.3,123.6 187.8,123.1 186.8,124.4 185,123.8 183.5,124.7 181.3,125.4 
					178.5,124.6 175,119.9 171.2,116.9 170.7,113.8 167.5,110.2 164.5,109.5 160.1,110 155,112.6 155,115.7 154.5,116.9 
					153.7,118.4 155.8,119.1 157.2,120.5 158.4,125.1 155.9,129 156.7,130.4 155.8,132.4 155.2,132.3 152.8,132.9 152.3,133.9 
					156.4,139.3 153.4,141 153.7,141.9 154.6,143.7 154.2,148 156.7,151.3 159,161.6 158.1,166.6 158.1,169.1 162,171.8 
					164.3,170.5 166.1,171.6 167.5,170.7 169.2,172.4 170.1,171.8 172.9,169.1 175.6,173 177.5,176.2 181.6,178.3 182.3,183.2 
					181.2,185.3 181.6,186.7 181.5,187.8 182.7,188.2 183.6,189.6 186.2,188.6 189.7,188.8 190.6,189.7 193.8,186.7 193.5,185.8 
					193.1,184.3 194.2,183.2 195.9,184.6 196.6,183.2 197.6,182.9 198.1,184 198.9,184.1 199.5,182.3 201.2,182.6 201.8,183.5 
					201.5,184.1 202.2,185.1 202.1,185.9 203.5,187.8 207.4,174.8 211.7,173.9 212.1,173.6 216.4,176.5 216.5,175.4 218.7,174.3 
					218.4,173.5 				"/>
			</g>
			<g class="st1">
				<polygon class="st0" points="148.3,207.1 147.2,206.6 146.6,203.4 147.8,202 149.3,199.6 148.9,194.8 148.7,193.1 148.5,191.8 
					146.6,188.5 143.8,186.5 140.9,181.6 139.2,181.6 135.9,182.1 131.2,181.6 129.4,180.5 128.9,180.9 128.8,182.5 126.6,183.1 
					125,181.9 123.1,182.3 121.1,185 115.6,184.4 112.3,185.3 110.9,188 108.3,187.6 106.8,190.7 106.6,193.6 106.6,194.9 
					108.7,197.7 109.1,199.2 108.5,200.3 107.1,200.5 106.6,204.8 103.8,206.4 102.4,208.6 105.7,210.3 105.4,210.6 106.1,213.1 
					106.9,213.4 108.8,211.8 110.7,211.8 112.3,214.8 113.6,214.8 114.4,216.3 112.7,217.4 112.7,218.5 116.3,219.2 118.1,222 
					115.7,226.3 115.7,227.5 118,228.8 118.1,229.8 118.4,230 121.8,230.3 121.8,231.4 122.8,234.6 126.7,234.1 130.2,237.1 
					137.3,235.2 139.4,234.3 139.7,231.8 141.2,229.3 142.3,225.3 145.3,221.5 145,219.2 145.5,219 146.8,220 147.6,219.7 
					148.2,218.3 148.5,216 148.7,214.2 147.6,210.9 148.9,209.5 				"/>
			</g>
			<g class="st3">
				<polygon class="st0" points="160.5,162.7 158.1,152 155.5,148.6 156,144.2 155,142.3 154.7,141.4 157.8,139.7 153.6,134.1 
					154.1,133 156.6,132.4 157.2,132.6 158.1,130.5 157.2,129 159.8,125 158.6,120.2 157.2,118.8 155,118.1 152.7,118.1 
					150.6,119.4 149.3,118.3 148.1,118.7 147.5,121.1 144.2,121.1 142.5,119.9 142.7,119.6 144.2,117.8 140.8,113.3 137.2,113.5 
					131.7,115.6 130.7,115.8 130.6,114.6 129.7,110.6 126,108 121.8,101 119.4,93 117.1,94.4 115.1,97.2 112.3,98.2 109.7,97.8 
					108,99.2 105.3,100 102,102.8 104.8,106.5 105.6,110.3 105.2,111.8 103.1,113.3 101.1,114.8 102.3,119.6 103.7,122.1 
					103.6,124.1 103.6,126.8 104.3,128.7 104.1,129.7 102.3,130.9 102,132.4 100.1,135.6 100.6,136.3 100.6,137.4 92.2,142.6 
					89.4,141.6 88.5,141.9 88.5,145 87.4,149.5 86.4,151.8 84.6,157.2 85.9,158.8 90.9,161.3 92,166.5 92.5,166.5 97.5,164.3 
					97.7,163.6 98.5,163.1 99.8,163.9 102,167.4 106.6,172.5 106.4,177.4 110.8,180.1 114,183.7 114.3,185.6 119.9,186.3 
					121.9,183.5 123.9,183.1 125.5,184.2 127.7,183.7 127.9,182 128.4,181.7 130.2,182.7 135,183.3 138.3,184.6 141.8,184.6 
					144.1,181.3 149.3,179.9 150.1,178.5 150.3,174.3 151.5,172.9 154.6,171.8 157.5,169.4 159.8,168.8 161.1,169.3 161.1,167.9 
									"/>
			</g>
			<g>
				<path class="st0" d="M115.5,184l-3.2-3.5l-4.4-2.6l0.1-4.7l-4.6-5l-2.1-3.3L100,164l-0.9,0.6l-0.2,0.6l-4.9,1.3h-0.6l-1.1-4.1
					l-4.9-2.5l-1.4-1.5l-1.4,0.2l-1,2l-1.6,1.1l-7.7-0.1l-2.1,1l-1.4,2l-5.5,0.6l-3.9-0.8l7.2,7.6l-0.3,0.3l-1.6,1.3l1.2,1.3
					l2.5,4.8l-1.1,1l0.4,3.7l-1.5,4.7l-1.4,0.2l-4.8-0.2l0.1-1.2l-2.9-0.4l-2.4,1.7l0.7,2.5l-1.3,0.6l-1.1,1.7v0h0.7l2.3,2.6
					l0.1,6.9l-1,1.3l-0.6-0.5l-0.6,0.5l0.1,1.4l-0.8,1l-1.1,1.7l0.4,3.5l2-1l7.9,5.5l3.3,5.3l0.5,2.1h1.5l4.4,1.5l0.8,2.1l1.5,2.2
					l5.5,1.9l2.4-0.8l1.9-2.1l1.6-1.2l2.7-0.1l1.9-2.1l0.6-5.3l2.6-1.9l2.9-3.3l3.4-5.1l1.4-2.1l2.9-1.6l0.4-4.2l1.5-0.1l0.6-1.1
					l-0.4-1.5l-2.1-2.7v-1.3l0.1-2.8l1.5-3l2.7,0.4l1.4-2.7l3.4-0.9L115.5,184z M54.5,206.2l0.5-1.6l-1.4-1.9l-4.4-4.2v1.6l4.8,6.8
					L54.5,206.2z M52.2,194.6l-0.3-0.3l-1.4-0.6l-2.3-1.3l-1.6,0.5l-0.1-0.5l0.3-0.5l-0.4-0.4l-0.6-0.1l-0.6,1.4l1.5,1.2l1.2-0.1
					l3.4,1.5L52.2,194.6z"/>
			</g>
			<g>
				<path class="st0" d="M106.4,107.1l-3-3.9l-0.8-2.7l-2.2-2.2l-2.6-4.3h-4.7l-0.3-2.8L92.8,89l-0.6-6.4L90.4,82L90.3,81l1.6-1.1
					l-1.3-2.3l-0.5-4.3L88,74.2l-7.8,5.1L79,79.1l-2,0.6l-6.2-2.1L65,77.8L57,75.6l-2.1,0.8l-1.4,2.1l-1.3-0.3l0.2-1.7l-0.9-1.9
					l-1.7-4.8l0.9-0.9l0.2-1.6l-0.9-2l-4.9-0.8L44,66l-2.2,0.4L40,65.5l-2.2-0.6l-3.7-1.1l-0.9,0.7l2.3,4.3l-0.5,2.5l1.3,5.7
					l5.1,6.7l0.2,5.4l1.3,1.6l0.2,3.6l-0.8,0.3l-0.7,2.2l1.4,3.2l2.6,4.3l1.1,0.4l0.3,0.8l-0.5,0.6h-0.9l-1.5,1.4l1.5,4.2l2.4,0.5
					l1.2-1.4l3.6-1.4l3.6,1.7l4.8-0.4l0.5,0.7l1.7,0.5l6.2-1.4l5-0.5l1.4-2.4l1.9,1l0.7,3.6l2.4-0.1l0.2,2.4l3.2-0.5l2.9-2.6
					l2.8-0.8l2-1.1l0.5,0.5l0.8,6.7l4.3,2.4l2.3-1.1l0.5,0.5v0.6l1.4,1.7l1.8,0.2l-1.2-5l2.1-1.6l2.2-1.6l0.5-1.6L106.4,107.1z
					 M37.6,95.6l0.4,0.9l0.8-0.3l-0.1-0.4L37.6,95.6z M40.1,93.9l1.1,1l0.3-0.4L41,93.9L40.1,93.9L40.1,93.9z"/>
			</g>
			<g>
				<polygon class="st0" points="226.1,119.4 225.5,117.2 223,116.5 221.5,115 219,115 219.3,114.7 219.6,112.8 221.1,111.8 
					220.8,111 219,110.5 216.2,107.2 214,106.9 213,105.3 214.5,104.3 213.6,103.5 209.7,101.7 205.5,99.5 204.1,97.2 202.3,96.9 
					202.1,95.1 201.9,93.7 197.4,91.9 197.4,88.5 200.4,86.9 200.4,85.3 202.1,83.1 201.5,81.4 198.9,78.1 199.7,76.3 199.6,74.6 
					200.9,73.6 200.5,71.8 201.5,70.2 200.8,69.3 201.5,66.3 201.2,61.7 203.9,61 206.4,60.6 206.4,59 205.4,57.8 202.4,56.9 
					198.2,53.5 195.2,53.3 194.6,52.4 194.9,51.2 193.5,49.4 192.9,48.2 193.8,45.9 193.4,44.6 194.3,42.2 193.8,41 192.9,41.2 
					191,42.9 189.3,47.2 187.7,48.7 183.8,49.4 180.2,49.2 180.3,54.4 179.1,55.6 179.2,58.5 176.4,61.3 175.6,64.3 176.2,65.7 
					176.2,66.4 177.3,68.1 177,70 175.9,70.4 174.9,71.9 171.6,71.8 171.3,72.5 167,74.3 166.7,78.3 169,79.7 168.4,80.5 
					167.2,80.4 165.6,80.8 166.3,82.5 165.3,83.5 165.1,84.5 165.7,85 167.2,84.8 167.5,85.3 163.9,90.5 164,91.9 163.1,93.2 
					162.7,95.2 164.5,96.6 163.9,97.2 162.8,98.7 163.7,99.6 164.8,99.3 165.4,99.4 165.7,100.2 164.5,102 164.8,103.5 161.7,105.4 
					162.8,108.5 166,109.1 169.3,112.7 169.9,115.8 173.7,118.8 177.5,123.5 180.3,124.3 182.7,123.6 184.2,122.7 186.1,123.2 
					187.2,122 192.9,122.5 193.8,122 192.7,120.5 193.1,119.7 195.2,120.1 196.7,119.1 200,119.9 201,122.5 204.3,125.9 203,127.5 
					204.4,128.6 204.3,130.2 205.3,130.2 206.1,129.7 206.9,130 206.3,131.2 207.6,131.9 209.3,132.4 210.2,131.9 211.4,132.4 
					212.8,133.8 215,132.4 215.2,130.9 217.6,129.7 220,130.4 221.8,129.5 222.6,126.1 223.5,123.1 225,123 226.1,121.3 
					227.1,121.2 227.6,119.9 				"/>
			</g>
			<g class="st2">
				<polygon class="st0" points="198.4,221.8 196.3,221.1 195.3,219.7 195.1,217.3 189.1,216.3 187,218 185.9,217.9 183,217.9 
					184,213.8 183.7,212.2 179.1,207.3 177,204.1 178,198.5 178.8,193.5 177.3,188.2 178.5,186.4 180.6,184.7 181.7,182.6 
					181,177.9 177,175.8 175.1,172.6 172.5,168.9 169.8,171.4 168.9,172 167.2,170.4 165.9,171.2 164.1,170.2 161.9,171.4 
					158.1,168.9 158.1,167.5 156.8,167.1 154.6,167.6 151.8,169.9 148.8,171 147.7,172.4 147.5,176.4 146.7,177.8 141.8,179.2 
					139.5,182.3 142.3,186 145.2,188.1 147,191.3 147.2,192.7 147.5,194.4 147.8,199.2 146.3,201.6 145.2,203 145.7,206.2 
					146.9,206.7 147.5,209.1 146.2,210.4 147.2,213.8 147,215.6 146.7,217.9 146.2,219.3 145.4,219.5 144,218.6 143.6,218.8 
					143.8,221 140.9,224.9 139.8,228.9 138.3,231.3 138,233.8 135.9,234.8 137.6,236 137.8,238.2 138.9,239.4 139.5,241.1 
					138.6,245.2 139.9,245.9 139.9,248.8 141.1,247.1 144.4,245.9 145.5,247.1 146.8,247.1 149.3,245.6 149.8,243.6 151,241.7 
					151.1,240.1 152.7,238 155,235.8 155.8,239 157.5,239 159,240.6 159.6,244.2 161.1,245.9 164.1,236.5 166,237.9 170.3,233.6 
					172.9,239.5 175.3,237.7 176.3,236.3 177.1,236.1 178.4,236.3 178.4,237.1 179.1,237.5 180,237.1 182.4,239.5 183.3,241.5 
					184.7,240.6 186.6,237.5 188,237.2 188.4,236.3 193,232.8 193.1,231.7 194.3,231 194.3,230.2 196.3,228.7 196.2,227.8 				"/>
			</g>
			<g class="st1">
				<polygon class="st0" points="182.1,59.5 182.1,56.5 183.2,55.3 183.1,50 180,49.7 177.1,50.2 177,49.8 177.7,49.1 176.7,48.1 
					173.8,50.5 169.8,47.7 167.5,49 166.3,48.3 165.4,49 165.4,50.2 156.8,50.5 155.8,49.3 151.2,49.5 149.2,51.5 148.5,48.8 
					147,48 140.7,46.6 139.1,47.6 138.4,47.2 138.3,46.4 140.1,44.6 139,43.4 135.1,43.7 131.5,45.2 130.7,44.6 130.3,42.1 
					124,39.6 119.4,39.9 118.5,40.4 118.1,42.3 121.8,46.1 121.8,46.9 120.6,47 117.3,45.9 115.1,49.2 113.6,50.7 115.1,51.8 
					118,55.1 119.9,56.2 122.1,60.7 121.9,61.9 121.5,63.8 124.8,64 124.8,64.6 123.1,66.5 123.5,69.4 125.6,71.5 125.1,72.7 
					123.9,74.5 125.1,75.7 126,79.3 123.9,80.8 126.9,83.4 131,82.4 132.9,81.2 136.3,82.4 137.2,83.2 139.2,81.9 143.4,84.8 
					145.3,85.2 146.1,84.5 146.4,84.2 148.1,85.9 149.9,84.4 156.3,85.1 157.4,84.4 159.8,85.5 163.5,90.3 167.4,91.6 170.8,86.3 
					170.5,85.8 169.1,86 168.6,85.5 168.7,84.5 169.7,83.5 169,81.8 170.5,81.4 171.7,81.5 172.3,80.6 170.1,79.3 170.4,75.3 
					174.6,73.5 174.8,72.7 178,72.8 178.9,71.3 180,70.9 180.3,68.9 179.2,67.3 179.2,66.9 178.6,65.5 179.4,62.4 				"/>
			</g>
			<g class="st3">
				<polygon class="st0" points="266.4,208.5 265.5,206.8 261.9,203.9 260.9,200.2 259,198.2 256.6,197.9 256.1,197 255.9,195.8 
					261.2,189.4 259.6,185.1 255.9,182.7 254.7,180.8 255.3,176.2 253.9,174.3 253.6,171.3 249.9,170.5 242.9,172.5 241.1,174.5 
					240.1,176.7 240.7,178.7 241.8,179.3 242,180 238.5,183.1 234.6,184.5 234.2,183.4 234.9,181.9 237.1,180.7 237.5,175.5 
					236.1,173.2 231,178.4 228.2,179.3 227.5,178.3 225.6,178 224,180 222.6,180.5 221.4,178.6 220.6,178.6 217.8,174.9 
					213.9,171.9 213.4,172.2 209.4,173.1 205.7,186.2 204.4,184.4 204.5,183.5 203.8,182.5 204.1,181.9 203.5,181 202,180.7 
					201.4,182.5 200.7,182.4 200.2,181.4 199.2,181.6 198.6,183 196.9,181.6 195.9,182.7 196.3,184.2 196.6,185.2 193.6,188.2 
					192.8,187.2 189.5,187 187,188 186.2,186.7 185,186.2 185.1,185.2 184.7,183.7 182.7,185.5 181.6,187.3 183,192.8 182.2,197.9 
					181.3,203.7 183.3,207 187.7,212.1 188,213.7 187,217.9 189.3,217.9 190.4,218 192.3,216.3 198,217.3 198.3,219.7 199.2,221.1 
					201.2,221.8 199.1,227.9 199.2,228.8 197.4,230.3 197.4,229.7 196.2,230.4 196.1,231.5 191.7,235 191.3,236 190,236.3 
					188.2,239.4 186.8,240.3 188.4,246.2 190,246.3 191.2,250.2 193.2,251.1 193.6,255 195.4,254.4 196.6,255.5 197.6,257.2 
					198.3,257.2 198.5,255.9 198.9,254.7 200.2,254.5 202.2,255.5 203.8,253.6 206.6,255.2 207.4,256.1 208.1,254.2 211.1,254.2 
					212.1,256.5 212.4,256.9 213.4,255.6 215.6,255.2 217.4,253.5 218.7,253.9 220.2,253.3 221.1,256.9 221.8,257.3 223,256.3 
					223.9,256.8 224.2,257 225.1,256.1 226.2,256.6 226.9,258.2 227.6,257.9 229.9,260.3 231.7,259.2 231.4,258.9 230.8,257.3 
					231.9,256.2 232.9,258.3 233.2,258.2 233.7,256.6 233.7,256.9 232.3,252.9 231.3,253.1 230.2,252.8 229.6,253.2 229.2,252.9 
					226.3,249.5 226.6,249.1 227.9,249.2 227.6,247.4 228,247.3 231.4,247.4 232.2,246.1 231,244.1 232.1,240.6 233.2,240.5 
					234.6,239.7 235.2,239.8 235.9,237.8 236.2,237.1 239.8,234.4 239.6,233.7 240.8,232.5 242.8,231.9 246.4,229.4 247,226.2 
					246.6,225.7 244.4,225.8 244,224.9 245.4,221.5 248.4,223.8 250.7,223.5 253.9,220.8 255.4,219.1 259.8,219.4 261.3,219.1 
					262.9,215.8 264.9,214.5 266.4,212.8 266,210.8 				"/>
			</g>
		</g>
	</g>
</g>
</svg>
