<?xml version="1.0" encoding="utf-8"?>
<!-- Generator: Adobe Illustrator 23.0.1, SVG Export Plug-In . SVG Version: 6.00 Build 0)  -->
<svg version="1.1" id="Capa_1" xmlns="http://www.w3.org/2000/svg" xmlns:xlink="http://www.w3.org/1999/xlink" x="0px" y="0px"
	 viewBox="0 0 300 300" style="enable-background:new 0 0 300 300;" xml:space="preserve">
<style type="text/css">
	.st0{fill:#FFFFFF;}
	.st1{fill:none;stroke:#E6E6E6;stroke-width:9.072;}
</style>
<g>
	<g>
		<g>
			<g>
				<path class="st0" d="M29.3,147.3c0-66.8,54.1-120.9,120.9-120.9l0,0c66.8,0,120.9,54.1,120.9,120.9l0,0
					c0,66.8-54.1,120.9-120.9,120.9l0,0C83.4,268.2,29.3,214.1,29.3,147.3L29.3,147.3z M90.8,147.3c0.1,32.8,26.6,59.3,59.4,59.4
					l0,0c32.8-0.1,59.3-26.6,59.4-59.4l0,0c-0.1-32.8-26.6-59.3-59.4-59.4l0,0C117.4,88,90.9,114.5,90.8,147.3L90.8,147.3z"/>
			</g>
			<line class="st1" x1="149.9" y1="26.4" x2="149.9" y2="87.9"/>
			<line class="st1" x1="192.1" y1="105.3" x2="235.7" y2="61.8"/>
			<line class="st1" x1="191" y1="190.3" x2="234.6" y2="233.9"/>
			<line class="st1" x1="96.5" y1="172.5" x2="42.8" y2="202.9"/>
		</g>
	</g>
</g>
</svg>
