<?xml version="1.0" encoding="utf-8"?>
<!-- Generator: Adobe Illustrator 23.0.1, SVG Export Plug-In . SVG Version: 6.00 Build 0)  -->
<svg version="1.1" id="Capa_1" xmlns="http://www.w3.org/2000/svg" xmlns:xlink="http://www.w3.org/1999/xlink" x="0px" y="0px"
	 viewBox="0 0 300 300" style="enable-background:new 0 0 300 300;" xml:space="preserve">
<style type="text/css">
	.st0{fill:#FFFFFF;}
	.st1{fill:none;stroke:#FFFFFF;stroke-width:3.024;}
</style>
<g>
	<g>
		<g>
			<circle class="st0" cx="34" cy="185.9" r="14.8"/>
			
				<ellipse transform="matrix(0.1602 -0.9871 0.9871 0.1602 -2.5706 223.5565)" class="st0" cx="130.1" cy="113.3" rx="21.1" ry="21.1"/>
			<circle class="st0" cx="218.4" cy="203.9" r="17.2"/>
			<circle class="st0" cx="226.9" cy="121.9" r="10.9"/>
			<circle class="st0" cx="91.8" cy="194.5" r="10.9"/>
			<circle class="st0" cx="36.4" cy="128.1" r="9.4"/>
			
				<ellipse transform="matrix(0.1602 -0.9871 0.9871 0.1602 58.2001 209.0661)" class="st0" cx="152" cy="70.3" rx="10.9" ry="10.9"/>
			<circle class="st0" cx="155.9" cy="190.6" r="7.8"/>
			<circle class="st0" cx="270.7" cy="190.6" r="10.9"/>
			<circle class="st0" cx="196.5" cy="149.2" r="7.8"/>
			<line class="st1" x1="39.5" y1="182.8" x2="130.1" y2="113.3"/>
			<line class="st1" x1="128.5" y1="115.6" x2="218.4" y2="203.9"/>
			<line class="st1" x1="218.4" y1="203.9" x2="227" y2="121.9"/>
			<line class="st1" x1="218.4" y1="203.9" x2="273" y2="190.6"/>
			<line class="st1" x1="227" y1="121.9" x2="196.5" y2="149.2"/>
			<line class="st1" x1="130.1" y1="113.3" x2="152" y2="70.3"/>
			<line class="st1" x1="34" y1="185.9" x2="36.4" y2="128.1"/>
			<line class="st1" x1="34" y1="185.9" x2="91.8" y2="194.5"/>
			<line class="st1" x1="91.8" y1="194.5" x2="155.9" y2="190.6"/>
			<circle class="st0" cx="119.2" cy="232.8" r="7.8"/>
			<circle class="st0" cx="198.8" cy="96.1" r="4.8"/>
			<circle class="st0" cx="82.4" cy="85.9" r="5.5"/>
			<line class="st1" x1="82.5" y1="85.9" x2="130.1" y2="113.3"/>
			<line class="st1" x1="227" y1="121.9" x2="198.8" y2="96.1"/>
			<line class="st1" x1="91.8" y1="194.5" x2="119.2" y2="232.8"/>
		</g>
	</g>
</g>
</svg>
