<?xml version="1.0" encoding="utf-8"?>
<!-- Generator: Adobe Illustrator 23.0.1, SVG Export Plug-In . SVG Version: 6.00 Build 0)  -->
<svg version="1.1" id="Capa_1" xmlns="http://www.w3.org/2000/svg" xmlns:xlink="http://www.w3.org/1999/xlink" x="0px" y="0px"
	 viewBox="0 0 300 300" style="enable-background:new 0 0 300 300;" xml:space="preserve">
<style type="text/css">
	.st0{fill:#FFFFFF;}
	.st1{opacity:0.6;fill:#FFFFFF;enable-background:new    ;}
</style>
<g>
	<g>
		<g>
			<rect x="28" y="234.5" class="st0" width="114.9" height="18.1"/>
			<rect x="152" y="234.5" class="st1" width="121" height="18.1"/>
			<rect x="43.1" y="207.3" class="st0" width="99.8" height="18.1"/>
			<rect x="152" y="207.3" class="st1" width="105.8" height="18.1"/>
			<rect x="46.2" y="180.1" class="st0" width="96.8" height="18.1"/>
			<rect x="55.2" y="152.9" class="st0" width="87.7" height="18.1"/>
			<rect x="73.4" y="128.7" class="st0" width="69.6" height="18.1"/>
			<rect x="152" y="180.1" class="st1" width="96.8" height="18.1"/>
			<rect x="152" y="152.9" class="st1" width="78.6" height="18.1"/>
			<rect x="155" y="128.7" class="st1" width="75.6" height="18.1"/>
			<rect x="79.4" y="101.5" class="st0" width="63.5" height="18.1"/>
			<rect x="152" y="101.5" class="st1" width="63.5" height="18.1"/>
			<rect x="97.6" y="74.2" class="st0" width="45.4" height="18.1"/>
			<rect x="152" y="74.2" class="st1" width="48.4" height="18.1"/>
			<rect x="109.7" y="47" class="st0" width="33.3" height="18.1"/>
			<rect x="152" y="47" class="st1" width="36.3" height="18.1"/>
		</g>
	</g>
</g>
</svg>
