<?xml version="1.0" encoding="utf-8"?>
<!-- Generator: Adobe Illustrator 23.0.1, SVG Export Plug-In . SVG Version: 6.00 Build 0)  -->
<svg version="1.1" id="Capa_1" xmlns="http://www.w3.org/2000/svg" xmlns:xlink="http://www.w3.org/1999/xlink" x="0px" y="0px"
	 viewBox="0 0 300 300" style="enable-background:new 0 0 300 300;" xml:space="preserve">
<style type="text/css">
	.st0{fill-rule:evenodd;clip-rule:evenodd;fill:#BF0909;}
</style>
<g>
	<g>
		<g>
			<path class="st0" d="M236.9,96c-2.2-0.9-0.4-8.5-1-10.9c-29.6,0.1-60.8-0.3-88.2,0.5c53.6,14.9,87.3,48.2,88.2,111.8
				c5.7,1.4,14.8-0.4,20.4,0.9c-0.2,3.9-4.4,6.1-7,8.3c-15.9,13.4-32.4,26.8-49.3,40.9c-2.5,2.1-7,5.9-9,6
				c-3.8,0.2-15.3-10.2-17.9-12.4c-14.1-11.8-30.8-22.7-44.9-34.5c-2.5-2.1-6.8-4-7-7.8c4.3-2.1,16.5-0.3,22.5-0.9
				c0.3-8.1-1.8-15.5-5-20.7c-14.3-23.1-65.1-13.3-100.2-15.2c-0.8-33.7-0.8-70.7,0-104.4c64.6-1.1,131.4-0.2,196.9-0.5
				c1.1-1.2,0.2-7.9,0.5-9.9c0-0.8,0.4-1.2,1-1.4c3.2,2.6,8.5,8.2,12.3,12.3c1.7,1.9,5.5,5.4,7.6,7.4c1.4,1.3,4.9,4.4,5,5.5
				c0.4,3.3-9.3,12.2-11.4,14.3c-2.2,2.2-4.6,4.3-6.5,6.2C242.2,93.1,240.1,96.1,236.9,96z"/>
		</g>
	</g>
</g>
</svg>
