<?xml version="1.0" encoding="utf-8"?>
<!-- Generator: Adobe Illustrator 23.0.1, SVG Export Plug-In . SVG Version: 6.00 Build 0)  -->
<svg version="1.1" id="Capa_1" xmlns="http://www.w3.org/2000/svg" xmlns:xlink="http://www.w3.org/1999/xlink" x="0px" y="0px"
	 viewBox="0 0 300 300" style="enable-background:new 0 0 300 300;" xml:space="preserve">
<style type="text/css">
	.st0{fill:#BF0909;}
	.st1{fill:none;stroke:#BF0909;stroke-width:5;stroke-miterlimit:10;}
</style>
<g>
	<g>
		<g>
			<circle class="st0" cx="85.7" cy="209.7" r="6.2"/>
			<circle class="st0" cx="98.1" cy="180.7" r="6.2"/>
			<circle class="st0" cx="130.8" cy="212.8" r="6.2"/>
			<circle class="st0" cx="137.7" cy="162.5" r="6.2"/>
			<circle class="st0" cx="161.7" cy="185.1" r="6.1"/>
			<path class="st0" d="M230.1,205c0,3.4-2.8,6.2-6.2,6.2c-3.4,0-6.1-2.8-6.1-6.2c0-3.4,2.7-6.1,6.1-6.1
				C227.4,198.8,230.1,201.6,230.1,205z"/>
			<circle class="st0" cx="162.7" cy="125.6" r="6.2"/>
			<circle class="st0" cx="120.7" cy="112.3" r="6.2"/>
			<circle class="st0" cx="186.6" cy="148.2" r="6.2"/>
			<circle class="st0" cx="165.4" cy="147.3" r="6.2"/>
			<circle class="st0" cx="117.5" cy="148.2" r="6.2"/>
			<circle class="st0" cx="135" cy="185.6" r="6.2"/>
			<circle class="st0" cx="202.8" cy="85.1" r="6.2"/>
			<circle class="st0" cx="222.2" cy="119.6" r="6.2"/>
			<circle class="st0" cx="191.7" cy="112.7" r="6.2"/>
			<circle class="st0" cx="238.3" cy="88.3" r="6.2"/>
			<circle class="st0" cx="224.4" cy="63.8" r="6.2"/>
			<polyline class="st1" points="46.9,54.4 46.9,244.9 252.5,244.9 			"/>
		</g>
	</g>
</g>
</svg>
