<?xml version="1.0" encoding="utf-8"?>
<!-- Generator: Adobe Illustrator 23.0.1, SVG Export Plug-In . SVG Version: 6.00 Build 0)  -->
<svg version="1.1" id="Capa_1" xmlns="http://www.w3.org/2000/svg" xmlns:xlink="http://www.w3.org/1999/xlink" x="0px" y="0px"
	 viewBox="0 0 300 300" style="enable-background:new 0 0 300 300;" xml:space="preserve">
<style type="text/css">
	.st0{fill:#FFFFFF;}
</style>
<g>
	<g>
		<g>
			<g>
				<rect x="50.5" y="56.4" class="st0" width="57.5" height="57.5"/>
				<rect x="198.7" y="59.4" class="st0" width="54.4" height="66.5"/>
				<rect x="198.7" y="132" class="st0" width="54.4" height="12.1"/>
				<rect x="198.7" y="195.5" class="st0" width="36.3" height="48.4"/>
				<rect x="198.7" y="150.1" class="st0" width="15.1" height="39.3"/>
				<rect x="216.8" y="150.1" class="st0" width="15.1" height="39.3"/>
				<rect x="241" y="150.1" class="st0" width="12.1" height="39.3"/>
				<rect x="241" y="222.7" class="st0" width="12.1" height="21.2"/>
				<rect x="241" y="195.5" class="st0" width="12.1" height="21.2"/>
				<rect x="114" y="56.4" class="st0" width="78.6" height="87.7"/>
				<rect x="114" y="150.1" class="st0" width="42.3" height="54.4"/>
				<rect x="165.4" y="150.1" class="st0" width="27.2" height="54.4"/>
				<rect x="165.4" y="228.7" class="st0" width="27.2" height="12.1"/>
				<rect x="165.4" y="210.6" class="st0" width="27.2" height="15.1"/>
				<rect x="114" y="210.6" class="st0" width="21.2" height="33.3"/>
				<rect x="141.2" y="210.6" class="st0" width="18.1" height="33.3"/>
				<rect x="47.5" y="186.4" class="st0" width="27.2" height="57.5"/>
				<rect x="50.5" y="119.9" class="st0" width="57.5" height="27.2"/>
				<rect x="47.5" y="153.1" class="st0" width="27.2" height="27.2"/>
				<rect x="83.8" y="153.1" class="st0" width="27.2" height="27.2"/>
				<rect x="83.8" y="228.7" class="st0" width="27.2" height="15.1"/>
				<rect x="83.8" y="186.4" class="st0" width="27.2" height="33.3"/>
			</g>
		</g>
	</g>
</g>
</svg>
