<?xml version="1.0" encoding="utf-8"?>
<!-- Generator: Adobe Illustrator 23.0.1, SVG Export Plug-In . SVG Version: 6.00 Build 0)  -->
<svg version="1.1" id="Capa_1" xmlns="http://www.w3.org/2000/svg" xmlns:xlink="http://www.w3.org/1999/xlink" x="0px" y="0px"
	 viewBox="0 0 200 200" style="enable-background:new 0 0 200 200;" xml:space="preserve">
<style type="text/css">
	.st0{fill:#FFFFFF;stroke:#FFFFFF;stroke-miterlimit:10;}
</style>
<g transform="translate(0,-1020.3622)">
	<path class="st0" d="M130.2,1041.5c-8.3,0-15.1,6.8-15.1,15.1c0,4.2,1.7,8,4.5,10.7l-13.9,23.3c-1.8-0.4-3.7-0.7-5.7-0.7
		c-7.2,0-13.7,3.3-18.1,8.3l-3-2.3l-3.6,4.8l3.3,2.5c-1.7,3.3-2.7,6.9-2.7,10.8c0,3.9,1,7.5,2.6,10.7L44,1147.8
		c-3-2.1-6.6-3.4-10.5-3.4c-10,0-18.1,8.2-18.1,18.1c0,10,8.2,18.1,18.1,18.1s18.1-8.2,18.1-18.1c0-3.8-1.2-7.4-3.3-10.3l33.4-22.3
		c4.4,5.1,10.9,8.4,18.2,8.4c3.9,0,7.5-1,10.8-2.7l2.4,3.3l4.9-3.5l-2.3-3.2c5.1-4.4,8.4-10.9,8.4-18.2c0-0.1,0-0.2,0-0.4l38.3-5.1
		c2.2,3.3,5.9,5.5,10.1,5.5c6.6,0,12.1-5.4,12.1-12.1c0-6.6-5.5-12.1-12.1-12.1s-12.1,5.5-12.1,12.1c0,0.3,0.1,0.5,0.1,0.8l-37.3,5
		c-1.8-6.4-6.1-11.7-11.8-14.8l13.3-22.2c1.7,0.7,3.6,1.1,5.5,1.1c8.3,0,15.1-6.8,15.1-15.1C145.3,1048.3,138.5,1041.5,130.2,1041.5
		z M130.2,1047.6c5,0,9.1,4,9.1,9.1c0,5-4,9.1-9.1,9.1c-5,0-9.1-4-9.1-9.1C121.1,1051.6,125.2,1047.6,130.2,1047.6z M51.6,1065.7
		c-6.6,0-12.1,5.5-12.1,12.1c0,6.6,5.5,12.1,12.1,12.1c2.4,0,4.6-0.7,6.5-1.9l2.6,1.9l3.6-4.8l-2.1-1.6c0.9-1.7,1.5-3.6,1.5-5.7
		C63.7,1071.2,58.2,1065.7,51.6,1065.7z M51.6,1071.8c3.4,0,6,2.7,6,6s-2.7,6-6,6c-3.4,0-6-2.7-6-6S48.2,1071.8,51.6,1071.8z
		 M69.1,1088.7l-3.6,4.8l4.8,3.6l3.6-4.8L69.1,1088.7z M100,1096c10.1,0,18.1,8.1,18.1,18.1c0,10.1-8.1,18.1-18.1,18.1
		s-18.1-8.1-18.1-18.1C81.8,1104,89.9,1096,100,1096z M172.5,1096c3.4,0,6,2.7,6,6c0,3.4-2.7,6-6,6s-6-2.7-6-6
		C166.5,1098.6,169.2,1096,172.5,1096z M121.6,1140.3l-4.9,3.5l3.5,4.9l4.9-3.5L121.6,1140.3z M128.6,1150.2l-4.9,3.5l3.5,4.9
		l4.9-3.5L128.6,1150.2z M33.5,1150.4c6.7,0,12.1,5.4,12.1,12.1c0,6.7-5.4,12.1-12.1,12.1s-12.1-5.4-12.1-12.1
		C21.4,1155.8,26.7,1150.4,33.5,1150.4z M135.6,1160l-4.9,3.5l3.5,4.9l4.9-3.5L135.6,1160z M151.4,1168.5c-2.9,0-5.7,0.9-8,2.4
		l-0.7-1l-4.9,3.5l1.2,1.7c-1.7,2.4-2.7,5.4-2.7,8.6c0,8.3,6.8,15.1,15.1,15.1s15.1-6.8,15.1-15.1S159.7,1168.5,151.4,1168.5z
		 M151.4,1174.6c5,0,9.1,4,9.1,9.1c0,5-4,9.1-9.1,9.1c-5,0-9.1-4-9.1-9.1C142.3,1178.6,146.3,1174.6,151.4,1174.6z"/>
</g>
</svg>
