<?xml version="1.0" encoding="utf-8"?>
<!-- Generator: Adobe Illustrator 23.0.1, SVG Export Plug-In . SVG Version: 6.00 Build 0)  -->
<svg version="1.1" id="Capa_1" xmlns="http://www.w3.org/2000/svg" xmlns:xlink="http://www.w3.org/1999/xlink" x="0px" y="0px"
	 viewBox="0 0 200 200" style="enable-background:new 0 0 200 200;" xml:space="preserve">
<style type="text/css">
	.st0{fill:#FFFFFF;}
</style>
<g>
	<path class="st0" d="M90.2,83.2v35.6c0,3.8,3.1,6.9,6.9,6.9c3.8,0,6.9-3.1,6.9-6.9V83.2c14.8-3.8,23.7-18.9,19.9-33.8
		c-3.8-14.8-18.9-23.7-33.8-19.9S66.5,48.5,70.3,63.3C72.8,73.1,80.5,80.7,90.2,83.2z M97.1,42.6c7.7,0,13.9,6.2,13.9,13.9
		s-6.2,13.9-13.9,13.9s-13.9-6.2-13.9-13.9S89.5,42.6,97.1,42.6z"/>
	<path class="st0" d="M135.3,105.9c-3.1-2.3-7.4-1.6-9.7,1.5c-2.3,3.1-1.6,7.4,1.5,9.7c0.4,0.3,0.8,0.5,1.2,0.7
		c5.7,2.9,9.6,8.5,10.4,14.8c0,9.8-17,20.8-41.6,20.8s-41.6-10.9-41.6-20.8c0.8-6.4,4.7-11.9,10.4-14.8c3.1-2.3,3.8-6.6,1.5-9.7
		c-1.9-2.7-5.5-3.6-8.5-2.2c-10,5.3-16.6,15.4-17.3,26.7c0,19.4,24.3,34.6,55.4,34.6s55.4-15.2,55.4-34.6
		C151.8,121.4,145.3,111.2,135.3,105.9z"/>
</g>
</svg>
