<?xml version="1.0" encoding="utf-8"?>
<!-- Generator: Adobe Illustrator 23.0.1, SVG Export Plug-In . SVG Version: 6.00 Build 0)  -->
<svg version="1.1" id="Capa_1" xmlns="http://www.w3.org/2000/svg" xmlns:xlink="http://www.w3.org/1999/xlink" x="0px" y="0px"
	 viewBox="0 0 200 200" style="enable-background:new 0 0 200 200;" xml:space="preserve">
<style type="text/css">
	.st0{fill:#FFFFFF;}
</style>
<path class="st0" d="M66.1,161.8c-15.4,0-27.9-12.5-27.9-27.9s12.5-27.9,27.9-27.9S94,118.6,94,134S81.5,161.8,66.1,161.8z
	 M134.2,161.8c-15.4,0-27.9-12.5-27.9-27.9s12.5-27.9,27.9-27.9s27.9,12.5,27.9,27.9S149.6,161.8,134.2,161.8z M66.1,93.7
	c-15.4,0-27.9-12.5-27.9-27.9S50.7,38,66.1,38S94,50.5,94,65.9S81.5,93.7,66.1,93.7z M134.2,93.7c-15.4,0-27.9-12.5-27.9-27.9
	S118.8,38,134.2,38s27.9,12.5,27.9,27.9S149.6,93.7,134.2,93.7z M134.2,81.3c8.5,0,15.5-6.9,15.5-15.5s-6.9-15.5-15.5-15.5
	s-15.5,6.9-15.5,15.5S125.7,81.3,134.2,81.3z M66.1,81.3c8.5,0,15.5-6.9,15.5-15.5s-6.9-15.5-15.5-15.5s-15.5,6.9-15.5,15.5
	S57.6,81.3,66.1,81.3z M134.2,149.4c8.5,0,15.5-6.9,15.5-15.5s-6.9-15.5-15.5-15.5s-15.5,6.9-15.5,15.5S125.7,149.4,134.2,149.4z
	 M66.1,149.4c8.5,0,15.5-6.9,15.5-15.5s-6.9-15.5-15.5-15.5s-15.5,6.9-15.5,15.5S57.6,149.4,66.1,149.4z"/>
</svg>
