<?xml version="1.0" encoding="utf-8"?>
<!-- Generator: Adobe Illustrator 23.0.1, SVG Export Plug-In . SVG Version: 6.00 Build 0)  -->
<svg version="1.1" id="Capa_1" xmlns="http://www.w3.org/2000/svg" xmlns:xlink="http://www.w3.org/1999/xlink" x="0px" y="0px"
	 viewBox="0 0 200 200" style="enable-background:new 0 0 200 200;" xml:space="preserve">
<style type="text/css">
	.st0{fill:#C3C4C9;}
</style>
<g>
	<path class="st0" d="M154.5,38.3h-110c-3.5,0-6.3,2.9-6.3,6.3S41,51,44.5,51h110.2c3.5,0,6.3-2.9,6.3-6.3
		C160.8,41.1,158.1,38.3,154.5,38.3z"/>
	<path class="st0" d="M154.5,148.5H46.3c-3.5,0-6.3,2.9-6.3,6.3s2.9,6.3,6.3,6.3h108.3c3.5,0,6.3-2.9,6.3-6.3
		S158.1,148.5,154.5,148.5z"/>
	<path class="st0" d="M154.5,94.3h-55c-3.5,0-6.3,2.9-6.3,6.3s2.9,6.3,6.3,6.3h55c3.5,0,6.3-2.9,6.3-6.3
		C160.8,97.1,158.1,94.3,154.5,94.3z"/>
</g>
</svg>
