<?xml version="1.0" encoding="utf-8"?>
<!-- Generator: Adobe Illustrator 23.0.1, SVG Export Plug-In . SVG Version: 6.00 Build 0)  -->
<svg version="1.1" id="Capa_1" xmlns="http://www.w3.org/2000/svg" xmlns:xlink="http://www.w3.org/1999/xlink" x="0px" y="0px"
	 viewBox="0 0 200 200" style="enable-background:new 0 0 200 200;" xml:space="preserve">
<style type="text/css">
	.st0{fill:#FFFFFF;stroke:#FFFFFF;stroke-width:3.456;stroke-miterlimit:10;}
</style>
<g>
	<path class="st0" d="M146,48.4H54.3c-2.9,0-5.3,2.4-5.3,5.3s2.4,5.3,5.3,5.3H146c2.9,0,5.3-2.4,5.3-5.3S148.9,48.4,146,48.4z"/>
	<path class="st0" d="M146,140.2H55.8c-2.9,0-5.3,2.4-5.3,5.3s2.4,5.3,5.3,5.3H146c2.9,0,5.3-2.4,5.3-5.3S148.9,140.2,146,140.2z"/>
	<path class="st0" d="M146,95.1h-45.9c-2.9,0-5.3,2.4-5.3,5.3s2.4,5.3,5.3,5.3H146c2.9,0,5.3-2.4,5.3-5.3S148.9,95.1,146,95.1z"/>
</g>
</svg>
