<?xml version="1.0" encoding="utf-8"?>
<!-- Generator: Adobe Illustrator 23.0.1, SVG Export Plug-In . SVG Version: 6.00 Build 0)  -->
<svg version="1.1" id="Capa_1" xmlns="http://www.w3.org/2000/svg" xmlns:xlink="http://www.w3.org/1999/xlink" x="0px" y="0px"
	 viewBox="0 0 200 200" style="enable-background:new 0 0 200 200;" xml:space="preserve">
<style type="text/css">
	.st0{fill:#C3C4C9;}
</style>
<g>
	<path class="st0" d="M137.7,57.1H61.3c-2.4,0-4.4,2-4.4,4.4c0,2.4,2,4.4,4.4,4.4h76.5c2.4,0,4.4-2,4.4-4.4
		C142.1,59,140.2,57.1,137.7,57.1z"/>
	<path class="st0" d="M137.7,133.6H62.6c-2.4,0-4.4,2-4.4,4.4s2,4.4,4.4,4.4h75.2c2.4,0,4.4-2,4.4-4.4S140.2,133.6,137.7,133.6z"/>
	<path class="st0" d="M137.7,96H99.5c-2.4,0-4.4,2-4.4,4.4c0,2.4,2,4.4,4.4,4.4h38.2c2.4,0,4.4-2,4.4-4.4
		C142.1,97.9,140.2,96,137.7,96z"/>
</g>
</svg>
